:100000000CEF00F0FFFFEE6AEA50E262FCD7E95025
:10001000E162F9D71200B51A03EE29F01FEE00F0E5
:1000200004EC00F000EE0DF010EE0FF004EC00F028
:1000300000EE0FF012EE58F004EC00F002EEA4F027
:1000400013EE29F0700EF66E000EF76E000EF86ECD
:100050004FEC64F000EEFEF011EE00F0160EF66EBE
:10006000000EF76E000EF86E4FEC64F072EF34F095
:1000700063112113001501191D17001708570055AA
:10008000FF410043FF4500630F3700391967CB2557
:100090004021C0230135030C0D0E0304050607089B
:1000A000090A0B000102702E6E6162617A74616749
:1000B0002E636F6D000000000000000101020303C9
:1000C0000405060708090A0C0D0F1012131517195D
:1000D0001B1D1F212325272A2C2E313336383B3E6A
:1000E000404346494C4F5154575A5D6063676A6DAF
:1000F000707376797C00AB000001AC6FAB51AD6FD3
:10010000640EAE6FAC51000ED8A4010E03EF30F0B8
:10011000BAC400F0B9C4E8FF0002F4CFF3FFF46AF8
:10012000F3BEF468F3CFABF0F4CFACF00001AB5109
:1001300067EF13F0E8CFB9F4EBD7E8CFBAF4E8D71C
:1001400000014D514E114F115011D8B402D0010E83
:100150000AD000014151421143114411D8B402D0D8
:10016000020E01D0000E120000014D514E114F1130
:100170005011D8A48EEC13F000014D6B4E6B4F6BF9
:10018000506B1200AB000001AC6FEEDF1FD911C045
:10019000B1F012C0B2F013C0B3F014C0B4F0040E4A
:1001A0000001B56F6FEC5EF000C0ADF001C0AEF0C5
:1001B00002C0AFF003C0B0F0ACC000F0016A026A48
:1001C000036A0001B051035C08E1AF51025C05E134
:1001D000AE51015C02E1AD51005CD8B0F6D0000137
:1001E000AC51D8B43BD0AC25006E016A0136026A2E
:1001F000036AAC510024046E000E0120056E000E4F
:100200000220066E000E0320076EAC510424006E1F
:10021000000E0520016E000E0620026E000E072063
:10022000036E11C0E8FF0024B16F12C0E8FF012087
:10023000B26F13C0E8FF0220B36F14C0E8FF0320C1
:10024000B46F040EB56F6FEC5EF000C04DF001C0EE
:100250004EF002C04FF003C050F005D000014D6BCE
:100260004E6B4F6B506BACC0B7F40001AC51AC257A
:10027000006E016A0136026A036AAC510024046E02
:10028000000E0120056E000E0220066E000E0320F7
:10029000076EAC510424006E000E0520016E000EA6
:1002A0000620026E000E0720036E11C0E8FF002436
:1002B000046E12C0E8FF0120056E13C0E8FF0220A3
:1002C000066E14C0E8FF0320076E040E0424B16F0D
:1002D000000E0520B26F000E0620B36F000E07203F
:1002E000B46F040EB56F6FEC5EF000C049F001C052
:1002F0004AF002C04BF003C04CF0020EADC000F05B
:10030000AEC001F0AFC002F0B0C003F041EC64F049
:1003100011C0E8FF0024046E12C0E8FF0120056E42
:1003200013C0E8FF0220066E14C0E8FF0320076E2A
:10033000040E0424006E000E0520016E000E06203F
:10034000026E000E0720036E00EE4DF00050EE2608
:100350000150EE220250EE220350ED22ED52ED52FA
:10036000020EADC000F0AEC001F0AFC002F0B0C0F0
:1003700003F041EC64F011C0E8FF0024046E12C0E9
:10038000E8FF0120056E13C0E8FF0220066E14C0CE
:10039000E8FF0320076E040E0424006E000E052003
:1003A000016E000E0620026E000E0720036E00EEA6
:1003B00049F00050EE260150EE220250EE2203508A
:1003C000ED22ED52ED527BEC13F012000001415191
:1003D000421143114411D8A46EEC14F00001416B9A
:1003E000426B436B446B1200AB000001AC6FBCDE90
:1003F000EDDF11C0B1F012C0B2F013C0B3F014C001
:10040000B4F0040E0001B56F6FEC5EF000C0ADF00B
:1004100001C0AEF002C0AFF003C0B0F0ACC000F05D
:10042000016A026A036A0001B051035C08E1AF513E
:10043000025C05E1AE51015C02E1AD51005CD8B057
:1004400016D10001AC51D8B43BD0AC25006E016A86
:100450000136026A036AAC510024046E000E0120CA
:10046000056E000E0220066E000E0320076EAC51D2
:100470000424006E000E0520016E000E0620026EA0
:10048000000E0720036E11C0E8FF0024B16F12C0F8
:10049000E8FF0120B26F13C0E8FF0220B36F14C061
:1004A000E8FF0320B46F040EB56F6FEC5EF000C080
:1004B00041F001C042F002C043F003C044F005D057
:1004C0000001416B426B436B446BACC0B4F4000160
:1004D000AC51AC25006E016A0136026A036AAC5168
:1004E0000024046E000E0120056E000E0220066E30
:1004F000000E0320076EAC510424006E000E052090
:10050000016E000E0620026E000E0720036E11C061
:10051000E8FF0024046E12C0E8FF0120056E13C03E
:10052000E8FF0220066E14C0E8FF0320076E040EE9
:100530000424B16F000E0520B26F000E0620B36FC9
:10054000000E0720B46F040EB56F6FEC5EF000C0B4
:100550003DF001C03EF002C03FF003C040F0020E8B
:10056000ADC000F0AEC001F0AFC002F0B0C003F00B
:1005700041EC64F011C0E8FF0024046E12C0E8FFF3
:100580000120056E13C0E8FF0220066E14C0E8FFCC
:100590000320076E040E0424006E000E0520016E79
:1005A000000E0620026E000E0720036E00EE41F0E2
:1005B0000050EE260150EE220250EE220350ED22B2
:1005C000ED52ED52020EADC000F0AEC001F0AFC072
:1005D00002F0B0C003F041EC64F011C0E8FF002469
:1005E000046E12C0E8FF0120056E13C0E8FF022070
:1005F000066E14C0E8FF0320076E040E0424006E8C
:10060000000E0520016E000E0620026E000E07206F
:10061000036E00EE3DF00050EE260150EE22025037
:10062000EE220350ED22ED52ED5241C000F042C0E7
:1006300001F043C002F044C003F0080E00240001A2
:10064000BF6F000E0120C06F000E0220C16F000EB0
:100650000320C26F040EC36FEEEC5DF048EC14F0A3
:100660000001100E4127000E4223432344231200B1
:1006700000014151421143114411D8A46FD09FD0C1
:1006800041C0CBF042C0CCF043C0CDF044C0CEF06E
:10069000040E0001CF6FA7EC60F000C0C5F001C0F0
:1006A000C6F0040E80EC60F000C0C7F001C0C8F0D6
:1006B00002C0C9F003C0CAF000EE40F00001CA5108
:1006C000ED5C08E1C951ED5C05E1C851ED5C02E16A
:1006D000C751EF5CD8B008D03DC0C7F03EC0C8F0ED
:1006E0003FC0C9F040C0CAF0C70EE96E000EEA6E06
:1006F00041C0E8FFEE5E42C0E8FFEE5A43C0E8FFAB
:10070000EE5A44C0E8FFED5AED52ED520401B82B09
:100710000001CA51C711C811C911D8B41FD0C7C030
:10072000CBF0C8C0CCF0C9C0CDF0CAC0CEF0C5C0B7
:10073000CFF0C6C0D0F0400ED16FD26BD36BD46B6C
:100740007FEC14F000EE41F00050EE260150EE2256
:100750000250EE220350ED22ED52ED5200EE3DF03C
:100760000001EE52EE52EE52ED50445D08E1ED50C4
:10077000435D05E1ED50425D02E1EF50415DD8B0CF
:1007800005D0D2EC14F00009D8A47AD700EE3DF0E1
:100790000001EE52EE52EE52ED50445D08E1ED5094
:1007A000435D05E1ED50425D02E1EF50415DD8A0AF
:1007B00006D0060ED7EC14F0006E00B007DE000184
:1007C0004D514E114F115011D8A46AD09AD04DC03E
:1007D000CBF04EC0CCF04FC0CDF050C0CEF0040EE8
:1007E0000001CF6FA7EC60F000C0C5F001C0C6F0FB
:1007F000040E80EC60F000C0C7F001C0C8F002C079
:10080000C9F003C0CAF000EE4CF00001CA51ED5C23
:1008100008E1C951ED5C05E1C851ED5C02E1C75149
:10082000EF5CD8B008D049C0C7F04AC0C8F04BC090
:10083000C9F04CC0CAF0C70EE96E000EEA6E4DC09A
:10084000E8FFEE5E4EC0E8FFEE5A4FC0E8FFEE5AFA
:1008500050C0E8FFED5AED52ED520401B82B0001F3
:10086000CA51C711C811C911D8B41AD0C7C0CBF02A
:10087000C8C0CCF0C9C0CDF0CAC0CEF0C5C0CFF062
:10088000C6C0D0F09FEC13F000EE4DF00050EE2605
:100890000150EE220250EE220350ED22ED52ED52B5
:1008A00000EE49F00001EE52EE52EE52ED50505D76
:1008B00008E1ED504F5D05E1ED504E5D02E1EF5076
:1008C0004D5DD8B005D0D2EC14F00009D8A47FD784
:1008D00000EE49F00001EE52EE52EE52ED50505D46
:1008E00008E1ED504F5D05E1ED504E5D02E1EF5046
:1008F0004D5DD8A006D02C0ED7EC14F0006E00A8E9
:1009000033DC12009700080E45C000F046C001F02D
:1009100047C002F048C003F041EC64F0000197C00A
:1009200098F0996B9851840FF66E9951F76E1B0EE3
:10093000F7220800F5509A6F00509A25E8CF45F04D
:10094000000E0120E8CF46F0000E0220E8CF47F06D
:10095000000E0320E8CF48F00401B52BB5C4E8FF32
:10096000030AD8A417D045C0C5F046C0C6F047C09A
:10097000C7F048C0C8F01FEC10F00401010EB62B00
:10098000B6C400F0000100C045F0466B476B486BF1
:100990000401B56B1200D96AD950020D6F0EF32411
:1009A000E96E000EF420EA6EEE6AED6AD92A0E0EA8
:1009B000D964F2D70401B56B00014D6B4E6B4F6BE0
:1009C000506B416B426B436B446B0401BA6B040187
:1009D000B96BF5EC2FF0000E006A016A026A036A37
:1009E0001200AB00D96E0E0ED96401D07DD0D95063
:1009F00002EECBF0E926000EEA22EF50D96E00019C
:100A0000AC51D8A402D0010EAC6F0001AB51F66E10
:100A1000F76AF650F76EF66AD950020D510EF324BC
:100A2000E96E000EF420EA6EEECF00F0EDCF01F09B
:100A3000F750015C02E1F650005CD8B01ED0D950EE
:100A4000020D510EF324E96E000EF420EA6EEECF93
:100A500000F0EDCF01F00050F65E0150F75AACC047
:100A600002F0036AF6CF00F0F7CF01F04AEC63F032
:100A700004C0F6FF05C0F7FF23D0D950020D510E78
:100A8000F324E96E000EF420EA6EEECF00F0EDCF15
:100A900001F0F650005CF66EF7500158F76EACC0EE
:100AA00002F0036AF6CF00F0F7CF01F04AEC63F0F2
:100AB00004C0F6FF05C0F7FFF66CF71ED8B0F72AA2
:100AC000D950020D6F0EF324E96E000EF420EA6E89
:100AD000F6CFEEFFF7CFEDFFD95004EEBBF0E926DD
:100AE000000EEA22ACC0EFFF12009900E16EE104B3
:100AF000D8A402D0030E05D0E150030AD8A402D036
:100B0000010EE16EE150E124E12600019951AB6F45
:100B10009D51AC6FE150020F65DF9AC099F09BC008
:100B20009AF09CC09BF000019C6B9951AB6F9D515A
:100B3000AC6FE12857DF9AC099F09BC09AF09CC037
:100B40009BF000019C6B9951AB6F9D51AC6FE150D4
:100B500049D70401B56B010EE8CFB6F40001486B2C
:100B6000476B466B456F0001966B0001965104EE92
:100B7000BBF0E926000EEA22EF50D8B41FD0965100
:100B800004EEBBF0E926000EEA22EF069651020DB4
:100B90006F0EF324E96E000EF420EA6EEECF00F043
:100BA000EDCF01F09651020D510EF324E96E000EC7
:100BB000F420EA6E0050EE260150ED22000196511D
:100BC000020D510EF324E96E000EF420EA6EEECF12
:100BD00000F0EDCF01F00150F66EF76AF650976F16
:100BE000965191DE0001962B0E0E9665BED712002F
:100BF000B4EC00F0E6EF01F00400CE50D96ECF5017
:100C0000D96E55D05ECAE8FFD9CF00F0016A005E08
:100C1000000E015A0150800A800F0A0ED8B4005C01
:100C20000101D8A013D0520EE827150EE923340E87
:100C3000EA23000EEB23520EE427150EE523340EB3
:100C4000E623000EE7230A010A0E12D0550EE8270C
:100C5000350EE923050EEA23000EEB23550EE4279B
:100C6000350EE523050EE623000EE7230A01010EEB
:100C70005E2701EEEBF0000EED5C08E1980EED5CF6
:100C800005E1960EED5C02E1810EEF5CD8A00FD07D
:100C90000101800EE827690EE923670EEA23FF0EA3
:100CA000EB230A0EE027000EE123E223E3235ECAD2
:100CB000E8FFD962A7D701EEE7F03B0EED5C08E153
:100CC0009A0EED5C05E1CA0EED5C02E1010EEF5CEF
:100CD000D8A00DD00101D890360EE527650EE62389
:100CE000C40EE723DC2B000EDD23DE23DF23E0C16F
:100CF00000F0E1C101F0E2C102F0E3C103F0120033
:100D00007BDFDCC100F0DDC101F0DEC102F0DFC13C
:100D100003F012000101E86BE96BEA6BEB6BE06B2F
:100D2000E16BE26BE36BE46BE56BE66BE76BDF6B50
:100D3000DE6BDD6B010EDC6FCFCF5EFA1200E96A6D
:100D4000EA6A0C6A086A096A0A6A0B6A04500510A2
:100D50000610071006E1046A056A066A076A15EFBD
:100D600064F0C00E0C1606D0D89004360536063650
:100D700007360C2A07AEF8D70C2AD8900836093661
:100D80000A360B360750035C08E10650025C05E1A9
:100D90000550015C02E10450005C09E30880045046
:100DA000005E0550015A0650025A0750035AD89067
:100DB00007320632053204320C060C503F0BDDE1DF
:100DC0000CBC56EC64F00050046E0150056E0250ED
:100DD000066E0350076E0850006E0950016E0A50EF
:100DE000026E0B50036E0CAE19EF64F056EC64F01B
:100DF00019EF64F0D9000001DBC0F6FFDCC0F7FF9B
:100E0000DB2B000EDC230E0EF76403D00800F55038
:100E100005D0F6CFE9FFF7CFEAFFEF50016ED9C05A
:100E2000F6FFDAC0F7FF0E0EF76403D00800F550A6
:100E300005D0F6CFE9FFF7CFEAFFEF50006E015083
:100E4000005CD96ED950D8A415D0D9C0F6FFDAC04D
:100E5000F7FFD92B000EDA230E0EF76403D008003B
:100E6000F55005D0F6CFE9FFF7CFEAFFEF500009C4
:100E7000D8A4C1D7D9CF00F0016A00BE0106120084
:100E8000A200A4C0F3FFA5C0F4FFA2C0D9FFA3C075
:100E9000DAFF0001A651006EA751016EA607000EF1
:100EA000A75B01500010D8B41AD0F3CFF6FFF4CFEF
:100EB000F7FFF32A000EF422D9CFE9FFDACFEAFFD9
:100EC000D94ADA2A0E0EF76403D00800F55005D08F
:100ED000F6CFE1FFF7CFE2FFE750EF6EDAD7A2C01F
:100EE00000F0A3C001F01200046E042A0406D8B476
:100EF000000CD8900332023201320032F7D7FFFFE4
:100F00004D546864000000060000000101E04D54EB
:100F1000726B000000C000FF510307A12000C079E0
:100F20001E9058762F8058000D90596E35805900CC
:100F300007905A6727805A0015905B793B805B00C9
:100F400001905C6E26805C0016905D642C805D00D4
:100F500010905E6E1C805E0020905F7D3C607D0383
:100F6000805F002D60000C90616228806100149009
:100F700062703C636C0080620023630019906479A6
:100F80002C806400109065682D8065000F90666E5F
:100F900027806600159067733C6870058067001EA7
:100FA00068001990696E2B80690011906A6C1E8030
:100FB0006A001E906B702D806B000F906C6C2C8003
:100FC0006C0010906D671E806D001E906E733980EE
:100FD0006E0000FF2F004D54686400000006000002
:100FE000000101E04D54726B0000005D00FF5103F1
:100FF00010594300C0090290585A12486231606289
:101000000A8058782C90585212806054439060495E
:101010000480586C339058450580606A8100906068
:10102000402280586F7A905D58038048490460528E
:101030000B904F488424805D4D114F76813A90305B
:10104000017480304000FF2F00776570006E616290
:10105000617A746167004164486F630041500057D2
:101060004C414E003F003C2F74643E3C2F74723E56
:10107000003C74723E3C74643E003C2F74643E3C01
:1010800074643E00223E4A6F696E3C2F613E003C14
:101090006120687265663D22622E68746D3F6B3D0B
:1010A00000266E6273703B003C2F74643E3C746497
:1010B0003E2D00570D0A00485454502F312E302039
:1010C000323030204F4B0D0A436F6E74656E742DB5
:1010D000547970653A20746578742F68746D6C0D5E
:1010E0000A0D0A00474554202F00676574202F0021
:1010F0003C68746D6C3E3C686561643E3C74697428
:101100006C653E4E6162617A746167204D616E75F7
:10111000616C20436F6E66696775726174696F6E8A
:101120003C2F7469746C653E0A3C7374796C65205D
:10113000747970653D22746578742F637373223EF1
:101140000A3C212D2D0A613A6C696E6B2C20613AA4
:10115000766973697465642C20613A616374697699
:10116000657B0A09666F6E742D66616D696C793AEC
:1011700056657264616E612C20417269616C2C202D
:1011800048656C7665746963612C2073616E732D9C
:1011900073657269663B200A09636F6C6F723A234C
:1011A0006666643064303B0A09746578742D646542
:1011B000636F726174696F6E203A20756E64657238
:1011C0006C696E653B0A7D0A424F44592C20544499
:1011D0002C20502C20494E50555420207B0A096663
:1011E0006F6E742D66616D696C79203A2056657258
:1011F00064616E612C20417269616C2C2047656EC0
:101200006576612C2053616E732D53657269663B60
:101210000A09666F6E742D73697A65203A2031323F
:1012200070783B0A7D0A2D2D3E3C2F7374796C65D6
:101230003E0A3C2F686561643E3C626F64792062BF
:1012400067636F6C6F723D4343333336362074658A
:1012500078743D4646464646463E3C48323E4E61E0
:1012600062617A746167204D616E75616C20436FB5
:101270006E66696775726174696F6E20322E3062B6
:101280003C2F48323E0A003C2F626F64793E3C2F6F
:1012900068746D6C3E0050726F787920706F727454
:1012A000202F20506F72742064752070726F7879CF
:1012B0000050726F7879204950202F204164726568
:1012C0007373652049502064752070726F787900BF
:1012D00050726F787920736572766572202F205373
:1012E0006572766575722050726F7879004C6F6305
:1012F000616C206D61736B202F204D61737175657A
:1013000020646520736F75732D72E97365617500D4
:101310004C6F63616C2067617465776179202F2061
:10132000506173736572656C6C65207061722064C6
:10133000E9666175740056696F6C657420506C6164
:1013400074666F726D202F20506C617465666F72C9
:101350006D652056696F6C65740047656E657261D6
:101360006C20496E666F202F20496E666F726D612A
:1013700074696F6E732067E96EE972616C65730062
:10138000496E7465726E657420636F6E6E6563740A
:10139000696F6E202F204574617420646520766F1C
:1013A00074726520636F6E6E6578696F6E0041754B
:1013B0007468656E7469636174696F6E202F204173
:1013C000757468656E74696669636174696F6E00CF
:1013D00053534944202F204E6F6D20646520766F53
:1013E0007472652072266561637574653B7365610F
:1013F000752073616E732066696C00576966692099
:10140000706172616D6574657273202F20566F7400
:1014100072652072E97365617520776966690053AA
:10142000657269616C20657874656E73696F6E2092
:101430002F20457874656E73696F6E206475206E19
:10144000756D266561637574653B726F20646520F8
:1014500073266561637574653B72696500536572D7
:1014600069616C206E756D626572202F204E756DFE
:10147000266561637574653B726F20646520732611
:101480006561637574653B726965002073656C65A1
:101490006374656400446E732073657276657220B0
:1014A0002F205365727665757220646520444E5313
:1014B000004C6F63616C204950202F20416472659D
:1014C00073736520495000574550206B6579202F74
:1014D00020436C65662072E973656175205745503D
:1014E00000487474702070726F787920656E616244
:1014F0006C6564203F202F205365727665757220DD
:1015000070726F7879203F0057455020656E637286
:10151000797074696F6E203F202F2052E9736561E6
:10152000752073E96375726973E920656E2057450C
:1015300050203F004448435020656E61626C6564F2
:10154000203F202F20566F7573207574696C697366
:10155000657A20756E2073657276657572204448D1
:101560004350203F003C696E70757420747970653B
:101570003D7375626D69742076616C75653D2255A9
:101580007064617465202F204D657474726520E06D
:10159000206A6F757222206E616D653D793E266E00
:1015A0006273703B266E6273703B3C696E7075743B
:1015B00020747970653D7375626D69742076616C15
:1015C00075653D2255706461746520616E64207399
:1015D00074617274202F204D657474726520E02050
:1015E0006A6F75722065742044E96D61727265726C
:1015F00022206E616D653D7A3E003E5368617265E2
:10160000644B6579202F20506172746167E93C2F2B
:101610006F7074696F6E3E3C2F73656C6563743ECA
:10162000003C74723E3C74643E535349443C2F74F6
:10163000643E3C74643E4368616E6E656C3C2F741E
:10164000643E3C74643E53656E736962696C697490
:10165000793C2F74643E3C74643E547970653C2F31
:1016600074643E3C74643E456E6372797074696F55
:101670006E3C2F74643E3C74643E266E6273703B15
:101680003C2F74643E3C2F74723E004572726F7240
:10169000202F204572726575723C62723E3C627208
:1016A0003E00446F6E65202F204F6B3C62723E3CC3
:1016B00062723E00596F7520617265206E6F7720EF
:1016C000636F6E6E656374656420746F20796F75E7
:1016D00072204E6162617A7461672E3C62723E458F
:1016E0006E7465722074686520696E666F726D61D4
:1016F00074696F6E206E656564656420616E642038
:10170000636C69636B206F6E205570646174652033
:10171000616E64205374617274203A20796F75721F
:10172000204E6162617A7461672077696C6C207207
:1017300065737461727420776974682074686520B9
:101740006E65772073657474696E67732E203C62D2
:10175000723E3C62723E566F757320EA7465732068
:101760006D61696E74656E616E7420636F6E6E6517
:101770006374E920E020766F747265204E616261C7
:101780007A7461672E3C62723E20556E6520666FEA
:101790006973206C657320696E666F726D61746920
:1017A0006F6E7320656E7472E9657320636C697186
:1017B00075657A2073757220224D65747472652088
:1017C000E0206A6F75722065742044E96D61727261
:1017D00065722220657420766F747265204E616296
:1017E000617A74616720736520636F6E6E656374E0
:1017F0006572612061766563206C6573206E6F751C
:10180000766561757820706172616DE874726573D8
:101810002E3C62723E3C62723E0053746172746987
:101820006E672E2E2E202F2044E96D617272616743
:101830006520656E20636F7572732E2E2E3C62726A
:101840003E3C62723E003E4E6F202F204E6F6E3C3B
:101850002F6F7074696F6E3E003E596573202F20A4
:101860004F75693C2F6F7074696F6E3E003C2F742A
:1018700061626C653E3C2F666F726D3E003C693E56
:101880004966206E6F2C20796F75206D75737420FA
:1018900066696C6C206F75742074686520666F7261
:1018A0006D2062656C6F772E3C62723E4120636FE3
:1018B0006D706CE974657220756E697175656D6522
:1018C0006E7420736920766F7573206E27EA7465D5
:1018D000732070617320656E2044484350203A3C69
:1018E0002F693E003C693E4B65792073796E7461C7
:1018F000782069732068657861646563696D616CDF
:1019000020283130206F7220323620636861727374
:1019100029206F72206173636969202835206F72F6
:10192000203133206368617273293C62723E4C61DE
:1019300020636C6566205765702065737420756E32
:1019400065207375697465206465206361726163E5
:1019500074E8726573206865786164E963696D6134
:10196000757820283130206F7520323620636172FF
:10197000616374E872657329206F75206465206C5B
:10198000657474726573202835206F75203133209B
:101990006C657474726573293C2F693E003C2F742A
:1019A00061626C653E003C74723E3C74643E002093
:1019B0003A203C2F74643E3C74643E003C612068D5
:1019C0007265663D22612E68746D223E436F6E74AF
:1019D000696E7565202F20436F6E74696E75657230
:1019E0003C2F613E003C6120687265663D22642E9A
:1019F00068746D223E3C62723E5363616E2057698B
:101A00006669206E6574776F726B73202F20416654
:101A1000666963686572206C61206C697374652007
:101A20006465732072E973656175782073616E7304
:101A30002066696C3C2F613E003C74723E3C7464CD
:101A400020636F6C7370616E3D323E3C48333E00E4
:101A50003C74723E3C746420636F6C7370616E3DC5
:101A6000323E003C7461626C6520626F7264657224
:101A70003D312077696474683D3630303E00223E47
:101A800000203E003C696E70757420747970653D6D
:101A900074657874206E616D653D003C73656C659E
:101AA0006374206E616D653D002671756F743B0037
:101AB000266C743B00266E6273703B003A003C6FEC
:101AC0007074696F6E2076616C75653D32003E4FB3
:101AD00070656E53797374656D202F204F75766530
:101AE00072743C2F6F7074696F6E3E3C6F707469D6
:101AF0006F6E2076616C75653D31003C73656C6579
:101B00006374206E616D653D6C3E3C6F7074696FEF
:101B10006E2076616C75653D30002E0028442900EA
:101B20002076616C75653D22003C2F48333E3C2F8A
:101B300074643E3C2F74723E0A003C666F726D20E6
:101B40006D6574686F643D474554206E616D653DF9
:101B5000666F726D20616374696F6E3D22622E68DC
:101B6000746D223E3C7461626C6520626F726465C4
:101B7000723D302063656C6C70616464696E673DB2
:101B8000323E0A00000000000000000000000000DB
:101B90000000000000000000000000000000010143
:101BA000010101010101010101020202020202021E
:101BB00002030303030303040404040404040505EB
:101BC00005050506060606060707070707080808AD
:101BD00008090909090A0A0A0A0B0B0B0B0C0C0C61
:101BE0000D0D0D0D0E0E0E0F0F0F10101010111108
:101BF00011121212131313141415151516161617A5
:101C0000171818181919191A1A1B1B1C1C1C1D1D32
:101C10001E1E1F1F1F2020212122222323242424B3
:101C2000252526262727282829292A2A2B2B2C2C2C
:101C30002D2E2E2F2F303031313232333434353592
:101C4000363637383839393A3B3B3C3C3D3E3E3FEF
:101C5000404041414243434445454647474849493E
:101C60004A4B4B4C4D4D4E4F4F5051525253545482
:101C70005556575758595A5A5B5C5D5D5E5F6060B8
:101C800061626364474554200020485454502F310A
:101C90002E300D0A557365722D4167656E743A20BA
:101CA00056494F4C45540D0A507261676D613A2098
:101CB0006E6F2D63616368650D0A0D0A002F766CE7
:101CC0002F46522F70002E6A73703F002665783DB4
:101CD0000026763D32302673743D002674733D0035
:101CE00026746E3D00736E3D002673643D002674BD
:101CF000633D003A003300687474703A2F2F0094EB
:101D00007900947900947900947900947900947919
:101D10000094790094790094790094790094790082
:101D2000947900947900947900947900947900B6BC
:101D30007900B67900B67900B67900B67900B6793F
:101D400000B67900B67900B67900B67900B67900A8
:101D5000B67900B67900B67900B67900B67900E2B6
:101D60007900E27900E27900E27900E27900E27933
:101D700000E27900E27900E27900E27900E279009C
:101D8000E27900E27900E27900E27900E27900008C
:101D90007A00007A00007A00007A00007A00007A67
:101DA00000007A00007A00007A00007A00007A00D1
:101DB000007A00007A00007A00007A00007A001EA3
:101DC0007A001E7A001E7A001E7A001E7A001E7AA1
:101DD000001E7A001E7A001E7A001E7A001E7A000B
:101DE0001E7A001E7A001E7A001E7A001E7A003CBF
:101DF0007A003C7A003C7A003C7A003C7A003C7ADB
:101E0000003C7A003C7A003C7A003C7A003C7A0044
:101E10003C7A003C7A003C7A003C7A003C7A0058DC
:101E20007A00587A00587A00587A00587A00587A1E
:101E300000587A00587A00587A00587A00587A0088
:101E4000587A00587A00587A00587A00587A007800
:101E50007A007C7A00947A00E07A00E87A00F27ADC
:101E600000547B00DE7B00367C00CA7C006E7D0067
:101E7000A07D00C27D00E27D00027E00127E002671
:101E80007E00427E005E7E00787E00AC7E00E27EB8
:101E900000F27E00247F00567F008A7F00DC7F00F6
:101EA000108000448000788000B480001C81005ABB
:101EB0008100D28100608200968200CE8200F08292
:101EC00000248300628300B48300608400F88400EF
:101ED000388500868500888500A08500BA8500D2F7
:101EE0008500F485001686002E86004686005A86F8
:101EF00000728600868600F686008887009087003C
:101F00004288000C89005089009A8900D28900F625
:101F10008900FC8900208A00268A00348A007C8A95
:101F2000008A8A00AA8A00CA8A00D88A00188B0010
:101F3000CC8B00DA8C00748D00D68D00808E0086EC
:101F40008E00B08E00D48E001A8F003A8F00728FF0
:101F500000968F005E900000E16E040ED96EFA0EBE
:101F6000E8CF34F3030100F000F000F0342FB3EFBA
:101F70000FF00400D92EF3D7E12EEFD712009EA860
:101F8000FED7AD6E12009200000192C0F6FF93C022
:101F9000F7FF922B000E93230E0EF76403D0080078
:101FA000F55005D0F6CFE9FFF7CFEAFFEF50D96E35
:101FB000D950D8B403D0D950E2DFE6D71200D96E99
:101FC0000F0ED916090ED96402D0370E01D0300E8B
:101FD000006ED9500024D3D7E16EE1380F0BEFDF4C
:101FE000E150EDD7E1000001E451F6DF0001E351DB
:101FF000F3DF0001E251F0DF0001E151EDD79B0E6C
:10200000AF6E040EAC6E900EAB6EAC8A1200809A6E
:10201000819AFF0EEFD9FF0EEDD9818A819A808ACD
:10202000819A0001926B000EE5D90001922B0D0EF2
:102030009265F9D7818A819AD8801200C500000183
:10204000C8510F0BD96E086A096AC7510A6EC85188
:102050000B6E080EC5C000F0C6C001F0C7C002F08C
:10206000C8C003F074EC07F000500824CA6F000EDB
:102070000920CB6F000E0A20CC6F000E0B20CD6F15
:10208000080EC5C000F0C6C001F0C7C002F0C8C04D
:1020900003F041EC64F0046A0150056E066A076AB9
:1020A0000450CA25C56F0550CB21C66F0650CC2100
:1020B000C76F0750CD21C86FD904D8A446D00301FB
:1020C000070E69170E0EC5C000F0C6C001F0C7C0EC
:1020D00002F0C8C003F074EC07F000500001CA6FB2
:1020E000010ECA170F0EC5C000F0C6C001F0C7C070
:1020F00002F0C8C003F074EC07F0FE0E0016CA51DF
:102100000024E8CF67F3C5C0CAF0050E006ED89072
:10211000CA33002EFCD7030ECA17060EC5C000F046
:10212000C6C001F0C7C002F0C8C003F074EC07F0ED
:10213000FC0E0016CA510024E8CF68F3C539E84206
:10214000F80BF80B030169133FD1D950020AD8A448
:1021500058D00301F80E691703013F0E6C17140ED7
:10216000C5C000F0C6C001F0C7C002F0C8C003F08F
:1021700074EC07F00050070B030169130B0EC5C088
:1021800000F0C6C001F0C7C002F0C8C003F074EC94
:1021900007F000500001CA6F0F0ECA170C0EC5C021
:1021A00000F0C6C001F0C7C002F0C8C003F074EC74
:1021B00007F0F00E0016CA510024E8CF6AF3C5C03C
:1021C000CAF0020E006ED890CA33002EFCD71F0E44
:1021D000CA17030EC5C000F0C6C001F0C7C002F0A8
:1021E000C8C003F074EC07F0E00E0016CA510024DA
:1021F000E8CF6BF3C541E842C00BC00B03016C1381
:10220000E3D0D950030AD8A431D00301C00E6C1713
:102210000301010E6E17110EC5C000F0C6C001F01B
:10222000C7C002F0C8C003F074EC07F000503F0BC9
:1022300003016C13C6C0CAF000017F0ECA17090E55
:10224000C5C000F0C6C001F0C7C002F0C8C003F0AE
:1022500074EC07F0800E0016CA510024E8CF6DF32D
:10226000C551C525FE0B03016E13AED0D950040A2B
:10227000D8A453D003016E9103010F0E7117160EEF
:10228000C5C000F0C6C001F0C7C002F0C8C003F06E
:1022900074EC07F00050010B03016E130D0EC5C066
:1022A00000F0C6C001F0C7C002F0C8C003F074EC73
:1022B00007F000500001CA6F030ECA170E0EC5C00A
:1022C00000F0C6C001F0C7C002F0C8C003F074EC53
:1022D00007F0FC0E0016CA510024E8CF6FF3C5C00A
:1022E000CAF0CA3B0F0ECA17070ECA17050EC5C0A3
:1022F00000F0C6C001F0C7C002F0C8C003F074EC23
:1023000007F0F80E0016CA510024E8CF70F3C53963
:10231000F00BF00B0301711357D0D950050AD8A464
:1023200053D00301F00E7117130EC5C000F0C6C0E4
:1023300001F0C7C002F0C8C003F074EC07F0005011
:102340000F0B030171130A0EC5C000F0C6C001F0E7
:10235000C7C002F0C8C003F074EC07F000500001E1
:10236000CA6F1F0ECA170B0EC5C000F0C6C001F021
:10237000C7C002F0C8C003F074EC07F0E00E00160E
:10238000CA510024E8CF72F3C5C0CAF0010E006E36
:10239000D890CA33002EFCD73F0ECA17020EC5C014
:1023A00000F0C6C001F0C7C002F0C8C003F074EC72
:1023B00007F0C00E0016CA510024E8CF73F3C541E0
:1023C000800B800BE8CF74F3808A819A0001C96B7F
:1023D0000001C95103EE67F0E926000EEA22EF5032
:1023E00009D80001C92B0D0EC965F2D7818A819ADF
:1023F000D8801200C96EC6AE02D0FF0E03D0C7A0AF
:10240000FED7000E1200C96AC7A0FED7C95012003D
:10241000C90081B203D0FCEC05F0FBD7C79ED96A96
:102420008198820EE7DFCDC000F0CEC001F0070E2C
:10243000026ED89001320032022EFBD70050DADF54
:102440000001D051006E016AD890CD35026EFC0EAD
:10245000021600500224CEDF0001CF51CBDF000175
:10246000D890CC33CB33C9C0E1FFCAC0E2FFCBC0A8
:10247000F3FFCCC0F4FFF350006EF450016EF3068E
:10248000000EF45A01500010D8B40BD0E750D926F2
:10249000E1CFE9FFE2CFEAFFE14AE22AEF50AADF0B
:1024A000EAD7D950FF08A6DFD96ACBC0F3FFCCC06A
:1024B000F4FFF350006EF450016EF306000EF45A70
:1024C00001500010D8B40BD0E750D926E1CFE9FF76
:1024D000E2CFEAFFE14AE22AEF508CDFEAD7D95097
:1024E000FF0888DF8188C78E000CD8000A0E000123
:1024F000E06F52D0FCEC05F081A2FCD7D96AC79EF0
:102500008198E80E77DFDCC000F0DDC001F0070E37
:10251000026ED89001320032022EFBD700506ADFE3
:102520000001DF51006E016AD890DC35026EFC0EAE
:102530000216005002245EDF0001DE515BDF63DF24
:1025400062DF61DF60DF0001DCA107D0E16A5BDFF1
:10255000E12AE150D8A4FBD756DFE16A54DFF36EDD
:10256000D8C0E9FFD9C0EAFFF3CFEFFF0001D84B95
:10257000D92BE12AF350D926E150D8A4EFD743DF75
:10258000D9268188C78ED928D8A402D0000E27D09A
:102590000001D890D907E0070001E051D8A4ACD7DA
:1025A0000001DC51E16FDD51E26FE36BE46B1BDD99
:1025B000250EE5DC0001DA6BDB6B0001DA51D82572
:1025C000E96EDB51D921EA6EEF6ADA4BDB2B010EA3
:1025D000DB5D000ED8B4DA5DD8A0EFD7010E120093
:1025E000D96E0C0EBD6ECA94D950CB6E9494CA8429
:1025F0001200920092C000F093C001F0060ED89035
:1026000000360136E82EFBD700C094F001C095F0EB
:1026100000019551BE6E94C001F0020E006ED8907C
:102620000132002EFCD7300E0116BDCF00F0CF0EC8
:10263000001601500010BD6E12008D008094210E16
:10264000D9DE00018D51D6DE80848094230ED2DE47
:1026500000018E51CFDE80841200F36A8094F35023
:1026600002EEA5F0E926000EEA22EF50C3DEF35099
:1026700002EEA6F0E926000EEA22EF50BBDE8084CF
:10268000F350100AD8A402D0020E66DCF350140AEC
:10269000D8A402D0280E60DC020EF326250EF364C7
:1026A000DDD703013A6B03013B6B12008094450EAA
:1026B000A1DE03013B53D8B406D003013A53D8B48A
:1026C00002D0010E01D0000E95DE80841200D96E7A
:1026D0008094630E8FDED950FF08006E00380F0B18
:1026E00089DE80848094390E85DE050E83DE808449
:1026F000D9CF3BF3DBD7010EE8CF3AF3D7DF809495
:10270000310E78DE010E76DE80840A0E25DC8094A0
:10271000290E70DE020E6EDE8084120003013A6B19
:10272000C5DF8094310E66DE000E64DE8084809406
:10273000290E60DE000E5EDE80841200CB00CFC06A
:10274000E1FFD0C0E2FF0001000ECE5D08E1000E07
:10275000CD5D05E1000ECC5D02E1410ECB5DD8A060
:1027600005D0400ECB6FCC6BCD6BCE6B8094290E19
:1027700041DE000E3FDE80848094030E3BDE006A63
:10278000016A026A036A0001CE51035C08E1CD517F
:10279000025C05E1CC51015C02E1CB51005CD8B098
:1027A0000ED0E1CFE9FFE2CFEAFFE14AE22AEF50A3
:1027B00021DE002A000E012202220322E4D78084B7
:1027C0008094290E17DE020E15DE8084CBC000F047
:1027D000CCC001F0CDC002F0CEC003F01200A400C6
:1027E0000001000EA75D08E1000EA65D05E1000EE8
:1027F000A55D02E1410EA45DD8A005D0400EA46FF6
:10280000A56BA66BA76B8094290EF4DD000EF2DD9C
:1028100080848094030EEEDD006A016A026A036A16
:102820000001A751035C08E1A651025C05E1A55136
:10283000015C02E1A451005CD8B01AD00001A8C02C
:10284000F6FFA9C0F7FFA82B000EA9230E0EF76410
:1028500003D00800F55005D0F6CFE9FFF7CFEAFF27
:10286000EF50C8DD002A000E012202220322D8D731
:1028700080848094290EBEDD020EBCDD8084A4C05D
:1028800000F0A5C001F0A6C002F0A7C003F012003E
:10289000D96E010EE8CF3AF309DF8094350EAADD38
:1028A000D9507D0AD8B408D0D9501F0AD8B402D064
:1028B000060E03D0030E01D0070E9CDD80848094A9
:1028C000290E98DD010E96DD80848094330E92DD12
:1028D000010E90DD80840A0EACEF0FF003013A6B1D
:1028E000E5DE8094330E86DD000E84DD80848094E6
:1028F000290E80DD000E7EDD80841200CB00CFC06B
:10290000E1FFD0C0E2FF0001CE51D45D08E1CD511E
:10291000D35D05E1CC51D25D02E1CB51D15DD8B0A0
:1029200008D0D1C0CBF0D2C0CCF0D3C0CDF0D4C051
:10293000CEF08094290E5EDD000E5CDD80848094F4
:10294000010E58DD006A016A026A036A0001CE5175
:10295000035C08E1CD51025C05E1CC51015C02E170
:10296000CB51005CD8B00ED0E1CFE9FFE2CFEAFF57
:10297000E14AE22AEF503EDD002A000E0122022247
:102980000322E4D780848094290E34DD010E32DDE9
:102990008084CBC000F0CCC001F0CDC002F0CEC02E
:1029A00003F012000400000E81B4010E1200D96E73
:1029B0008094D9501FDD27DDD96E8084D950120054
:1029C000000EE8CF2DF32DC32CF32CC300F0003004
:1029D0000D92D8B00D8212000001986B996B03D84C
:1029E0000D9C1200980024C100F025C101F00001E7
:1029F0009951015C02E19851005CD8B002D0D890A6
:102A00000FD098C09AF099C09BF0D0EC1BF098C002
:102A100030F199C031F10301406B03013F6BD88065
:102A20001200920024C100F025C101F030C102F073
:102A300031C103F0000192510224F36E935103203F
:102A4000F46E0150F45C02E10050F35CD8B004D0A5
:102A5000F3CF24F1F4CF25F13FC300F0016A40C366
:102A6000E8FF00019225F36E000E9321F46E0150F1
:102A7000F45C02E10050F35CD8A0F3CF3FF3120006
:102A800030C102F031C103F024C100F025C101F0D2
:102A90000250005E0350015A1200000EE8CF41F3CD
:102AA000010141C326F1276B26C13AF127C13BF151
:102AB00087DF0001E56BE66B01D0E5000001050E44
:102AC000E65DDD0ED8B4E55DD8A002D0D8900CD07C
:102AD0008ED8E5C0E7F0E6C0E8F0DDEC1BF0E5C01D
:102AE0003AF1E6C03BF1D88012003AC102F03BC196
:102AF00003F0DC0E006E050E016E0250005E035006
:102B0000015A1200B700F36E40C3E8FFF3601FD014
:102B1000F350D96E3FC3E8FF0301405DD8B013D036
:102B200040C3E8FF03EED9F0E926000EEA22D92AD5
:102B3000D90413EED9F0E126000EE222EFCFE7FF31
:102B40000301402BE7D7D9CF3FF3F3CF40F324C1A4
:102B500000F025C101F030C1E8FF005CF36E31C127
:102B6000E8FF0158F46EB7C000F0016A0150F45C50
:102B700002E10050F35CD8B005D0F3CF00F0F4CF01
:102B800001F003D0B7C000F0016A00500001B76F38
:102B9000B7C000F0016A2A0E026E036A3FC3E8FF65
:102BA000025E000E035A0350800A046E0150800A30
:102BB000045C02E10050025CD8B009D02A0E006E1D
:102BC000016A3FC3E8FF005E000E015A03D0B7C0A0
:102BD00000F0016A0050B76FB751D96ED950D8B420
:102BE00003D0B751BCEC1BF00001B7511200030138
:102BF0004153D8A41DEC1BF00301416B3AC102F014
:102C00003BC103F026C100F027C101F00350015C75
:102C100002E10250005CD8B004D03AC126F13BC1B9
:102C200027F11200B4003FC3E8FF0301405DD8A0C4
:102C300005D02A0E0001B76F0A0E65DF3FC3E8FF1B
:102C40000301405DD8A002D0D8901DD040C3E8FF5A
:102C500003EED9F0E926000EEA22EF500001B66F2C
:102C60000301402B0101302B000E31230DBC04D099
:102C70000001B651E3EC20F0B4C0E9FFB5C0EAFFB3
:102C8000B6C0EFFFD88012000001E96F0101050E08
:102C90003B5DEA0ED8B43A5DD8A002D0D89018D0E7
:102CA0001F0E0301416501D0A2DF41C3E8FF04EE1E
:102CB00003F0E926000EEA22E9C0EFFF0301412BF1
:102CC00001013A2B3B230001E951E3EC20F0D880CD
:102CD000120000019A6F00019A079A29D8B403D014
:102CE000000ED2DFF8D71200980000019A6B9C6B9F
:102CF0009D6B7DDF37D03FC39BF000019B519C252E
:102D0000006E000E9D21016E9951015C02E1985107
:102D1000005CD8A005D0010E9A6F9C51985D9B6F06
:102D20000301406B00019B510301405DD8B00CD002
:102D300040C3E8FF03EED9F0E926000EEA22EF5087
:102D4000A3DF0301402BEED700019B5101EE30F0D1
:102D5000EE26000EED229B519C27000E9D239A51DA
:102D6000D8A411D02A0E0001B76F000ECCDE006E81
:102D700000C002F0036A03500210D8A4BCD70301BC
:102D80003F53D8A4B8D726C102F027C103F03AC1F7
:102D900000F03BC101F00350015C02E10250005C15
:102DA000D8B005D026C100F027C101F004D03AC147
:102DB00000F03BC101F000C026F101C027F19CC02A
:102DC00000F09DC001F0120000019D699C699E6B9E
:102DD000010E9F6FA20ED96F000EDA6FB60EDB6F79
:102DE000100EDC6FD6EC63F00001A20EC36F000E74
:102DF000C46FAEEC63F000500001A06FA16BE50E54
:102E0000C36FFC0EC46FC56BC66B9C0EC76F000E04
:102E1000C86F260EC96FCA6BCB6B3DEF1DF095686E
:102E2000846A858C858A8588640EACEC0FF0859861
:102E3000640EACEC0FF00301306B0301356B030142
:102E4000366B630EE8CFA4F212000001936B0A0EFA
:102E5000ACEC0FF0010E0001946FE00E7AEC1FF065
:102E6000640EACEC0FF0640EACEC0FF00001EE6BF6
:102E7000EF6B6DEC1EF0D8A01ED10001FA69FB6962
:102E8000340E33EC1FF00001FA6BFB6B320E33ECA7
:102E90001FF00001010EDF6FFC0EE06FE16BE26BD3
:102EA000610EE36F030EE46F060EE56FE66BE76BF2
:102EB0001EEC1CF00001400E946F060E956F0BEC9B
:102EC0001EF000C038F101C039F10101385139114B
:102ED000D8B4F1D00001946BFC0E956F966B976B94
:102EE000A6C198F0996B04EC1CF00101A653D8A47C
:102EF00023D066C300F000380F0B84EC49F0E8CF14
:102F0000B0F166C3E8FF0F0B84EC49F0E8CFB1F1F4
:102F10000101B26B0001040EC36FFC0EC46FC56BE0
:102F2000C66BA80EC76F010EC86F0A0EC96FCA6BB9
:102F3000010ECB6F3DEC1DF00001A80EC36F010E1A
:102F4000C46FAEEC63F000500001926F020EC36FCD
:102F5000FC0EC46FC56BC66BA80EC76F010EC86FA1
:102F60009251C96FCA6B010ECB6F3DEC1DF0000191
:102F7000030E946FFC0E956F966B976BA7C198F03C
:102F8000996B04EC1CF00001060E946FFC0E956F1B
:102F9000966B976B030E986F996B04EC1CF0000115
:102FA000070E946FFC0E956F966B976BEA0E986FF9
:102FB000050E996F04EC1CF00001840E946FFC0E5A
:102FC000956F966B976B0F0E986F996B04EC1CF0D6
:102FD0000001B00E946FFC0E956F966B976B010E0F
:102FE000986F996B04EC1CF00001B30E946FFC0E0B
:102FF000956F966B976B0F0E986F996B04EC1CF0A6
:103000000001B40E946FFC0E956F966B976B0F0ECC
:10301000986F996BF9DB01EEDBF0EF500001D8B44B
:103020000BD0090E946FFC0E956F966B976B010E8B
:10303000986F996BE9DB00012A0E946FFC0E956F77
:10304000966B976B01EECBF0EF50D8A402D0010E37
:1030500001D0020E006E016A00C098F001C099F024
:10306000D3DB01EECAF0EF50D8B41CD00001280E1B
:10307000946FFC0E956F966B976B030E986F996B20
:10308000C3DB0001240EC36FFC0EC46FC56BC66B9F
:10309000CE0EC76F010EC86FCDC1C9F0CA6BCB6B26
:1030A0003DEC1DF0010E0001EE6FEF6B6DEC1EF0BC
:1030B000010E0001936F93C000F000301200020E69
:1030C0000001EE6FEF6B6DEC1EF00A0EACEC0FF032
:1030D0000001EE6BEF6B6DEF1EF00001946B956BD2
:1030E000F66BF76BABEC1EF000C092F001C093F0F2
:1030F000000192A161D0200E1FEC1FF000C02EF144
:1031000001C02FF12EC1D9F02FC1DAF02C0E000131
:10311000DB6FDC6B5FDB00C094F001C095F0000159
:10312000000E955D090ED8B4945DD8A03BD0050E75
:10313000955DE50ED8B4945DD8B034D02EC1D9F0E9
:103140002FC1DAF0420E0001DB6FDC6B43DB00C005
:10315000FCF001C0FDF04DEC21F000C0A4F101C075
:10316000A5F12EC1DFF02FC1E0F02E0E0001E16FBE
:10317000E26B980EE36F010EE46F0C0EE56FE66BE9
:10318000E76B5CDB29DC2EC1DFF02FC1E0F0440EE1
:103190000001E16FE26BE36BE46BE56BE66BE76B01
:1031A0004DDB10D00001946B956B92C0F6F093C08C
:1031B000F7F0ABEC1EF006D092C0F6F093C0F7F03B
:1031C000ABEC1EF094C024F195C025F1000195519F
:1031D0009411D890D8A4D88012000001A06FF66B8B
:1031E000F76BABEC1EF000C0A1F001C0A2F0000133
:1031F000A1AF16D0A05116D800C0A3F001C0A4F012
:10320000800E0001F66FF76BABEC1EF00001A451CD
:10321000F10A030ED8B4A319D8A402D0010E01D02C
:10322000000E12000001A56F080EB56FB66B100EF0
:103230001FEC1FF000C0B3F001C0B4F0B3C0D9F070
:10324000B4C0DAF00001DB6BDC6BC4DA00C0ADF0B7
:1032500001C0AEF0B3C0D9F0B4C0DAF0020E000184
:10326000DB6FDC6BB7DA00C0AFF001C0B0F000017B
:10327000D890AD37AE37A66BD968B051F10A030EBE
:10328000D8B4AF19D8B46AD17AD1B3C0DFF0B4C022
:10329000E0F00001100EB525E16F000EB621E26FDF
:1032A000B70EE36F000EE46F220EE56FE66BE76B7F
:1032B000C5DAB3C0D9F0B4C0DAF0B5C0DBF0B6C03F
:1032C000DCF088DA00C0A9F001C0AAF0B3C0D9F0E0
:1032D000B4C0DAF00001040EB525DB6F000EB62194
:1032E000DC6F78DA001E011E002AD8B4012A00C063
:1032F000ABF001C0ACF0B3C0D9F0B4C0DAF000015B
:103300000E0EB525DB6F000EB621DC6F63DA00C050
:10331000B1F001C0B2F00001A505D8A4B9D0710E7A
:10332000D96F100EDA6FC4EC49F00001B751A76FE6
:10333000210EA76114D0020EA86FA7270001A75184
:10334000A85DD8B013D00001A82BA80500EEB7F0F7
:10335000E926000EEA22EF508EEC49F0EFD700018B
:10336000640ED96F100EDA6FC4EC49F000017A0ECA
:10337000D96F100EDA6FC4EC49F0A9C0D9F0AAC019
:10338000DAF003EC4AF00001A80ED96F100EDA6FE4
:10339000C4EC49F0ABC0D9F0ACC0DAF003EC4AF0B1
:1033A00000017A0ED96F100EDA6FC4EC49F00001FB
:1033B000B1A107D05C0ED96F100EDA6FC4EC49F0E2
:1033C00011D00001B1A307D0560ED96F100EDA6FDD
:1033D000C4EC49F007D00001640ED96F100EDA6F0B
:1033E000C4EC49F000017A0ED96F100EDA6FC4EC0C
:1033F00049F00001B1A907D0490ED96F100EDA6F5C
:10340000C4EC49F007D00001B10ED96F100EDA6F8D
:10341000C4EC49F000017A0ED96F100EDA6FC4ECDB
:1034200049F00001B1A125D08F0ED96F100EDA6FCF
:10343000C4EC49F0020E0001A86F0001A751A85D7D
:10344000D8B00FD0250E8EEC49F00001A82BA805AE
:1034500000EEB7F0E926000EEA22EF50F1EC49F059
:10346000ECD70001840ED96F100EDA6FC4EC49F06E
:1034700007D00001A10ED96F100EDA6FC4EC49F02D
:103480000001660ED96F100EDA6FC4EC49F060D0FF
:103490000001A551020AD8A45BD0B751F36E210EEA
:1034A000F36056D0B1A154D00001B1B951D0D96A5E
:1034B000F350D95CD8B016D0B70ED924006E016A8B
:1034C000000E0122020E0024E16E000E0120E26EC9
:1034D000D95003EE95F0E926000EEA22E7CFEFFF80
:1034E000D92AE6D7F35003EE95F0E926000EEA223A
:1034F000EF6A0001950ED96F030EDA6FA80EDB6F2D
:10350000010EDC6FFBEC06F00150800A800F010E0B
:10351000D8B4005CD8A01CD00301B7530001D8B4C4
:103520000DD0950ED96F030EDA6FB70EDB6F030E59
:10353000DC6FFBEC06F001AE0BD00001B70ED96FCB
:10354000030EDA6F950EDB6F030EDC6FD6EC63F0C3
:10355000400E0001B527000EB623A62B3C0EB5C0C9
:1035600000F0B6C001F00026000E01220001AE51AD
:10357000015C02E1AD51005CD8B005D086D60001F7
:10358000B051F20AAF11AFC000F0B0C001F01200AC
:10359000010E0001F66FF76BDED30001410EDF6F05
:1035A000FD0EE06FE16BE26B950EE36F030EE46FCF
:1035B000200EE56FE66B010EE76F40D90001400E6B
:1035C000D96FFD0EDA6FDB6BDC6B04D900C042F300
:1035D00042C3E8FF040AD8B40D8642C3E8FF0201E3
:1035E000A419D8B429D000015F0E926F100E936F0A
:1035F000C4EC0FF042C3E8FFECEC0FF0D96AD950ED
:1036000003EE95F0E926000EEA22EF50D8B40BD075
:10361000D92AD90403EE95F0E926000EEA22EF50EC
:10362000BFEC0FF0ECD70001B40E926F100E936F49
:10363000C4EC0FF042C3A4F2120003014153D8B40A
:1036400009D00001030EEA6F040EEB6F41C3ECF0EA
:10365000ED6B7DDA1200F7EC15F00101050E275D28
:10366000EA0ED8B4265DD8B005D026C100F027C137
:1036700001F004D0EA0E006E050E016E00C0E4F009
:1036800001C0E5F038C1EAF039C1EBF00001EC6BA4
:10369000ED6BA3DAD8A06FD002DBD8A06CD000010C
:1036A000E86BE96BFA6BFB6B380EDDDB0001E84B76
:1036B000E92B000EE95D160ED8B4E85DD8A0F2D76C
:1036C000080EE425E66F000EE521E76FE6C0FAF08C
:1036D000E7C0FBF0380EC7DB00019E0EEA6F010E5B
:1036E000EB6F060EEC6FED6B32DA0001610EEA6FE4
:1036F000030EEB6F060EEC6FED6B29DAE6C0FCF003
:10370000E7C0FDF04DEC21F000C0FAF001C0FBF085
:10371000380EA9DB0001AA0EFA6FFB6F380EA3DB8F
:10372000030E0001FA6FFB6B380E9DDB0001FA6B94
:10373000FB6B380E98DBA4C1FCF0A5C1FDF04DEC8D
:1037400021F000C0FAF001C0FBF0380E8CDB38C16C
:10375000FAF039C1FBF0020E86DB00010B0EEE6FB2
:10376000010EEF6FBADA080E0001EE6FEF6B080E74
:10377000F06FF16B0FDB12000001B86F3FC300F078
:10378000D90E0024EE6FEF6B030EEF23B851F06FEC
:10379000F16B43D90001B85103013F2712009A0091
:1037A0002EC1EEF02FC1EFF00001440E9A25F06F0C
:1037B000000E9B21F16FF3D1E70038C1EAF039C167
:1037C000EBF00001440EE725EC6F000EE821ED6FF1
:1037D00004D2D9000001DD6BDE6BD9C0DFF0DAC0A6
:1037E000E0F0DBC0E1F0DCC0E2F0DD0EE36F000EE4
:1037F000E46F020EE56FE66BE76B20D8DDC000F0EA
:10380000DEC001F01200940094C0C3F095C0C4F073
:1038100096C0C5F097C0C6F00001980EC76F000EA5
:10382000C86F020EC96FCA6BCB6B27D90050020A52
:103830000110D890D8B4D8801200DF000001EC6BE2
:10384000ED6BDFC0EAF0E0C0EBF0F00EE05D000EE3
:10385000D8B4DF5DD8A0BFD0F30EE05D000ED8B4C1
:10386000DF5DD8B01ED0DFC0FAF0E0C0FBF0020E82
:10387000FADA110E0001EE6FEF6B2FDA800E000105
:10388000EE6FEF6B900EF06FF16B84DA0150001069
:10389000D8B44BD0100ED3DA00C0EAF001C0EBF080
:1038A0000DD0EAC0FAF0EBC0FBF0020EDCDA210E1C
:1038B0000001EE6FEF6B11DAD8A037D0EAC0EEF05E
:1038C000EBC0EFF00001F06BF16B69D9D8A09FD08D
:1038D000C9D9D8A09CD0360EB2DAFF0E0024000160
:1038E000EC6FFF0E0120ED6FD890EC37ED37ED5106
:1038F000E65D02E1EC51E55DD8B005D0E5C000F031
:10390000E6C001F004D0ECC000F0EDC001F000C052
:10391000ECF001C0EDF0360E92DA0001E051011832
:1039200002E1DF510018D8B403D0006A016A73D0F5
:103930000001E705D8A426D0000EED5D020ED8B434
:10394000EC5DD8A01FD0360E7ADA00C0E8F001C0D6
:10395000E9F00001FE0EEC27FF0EED23ED51E95DCD
:1039600002E1EC51E85DD8B005D0E8C000F0E9C054
:1039700001F004D0ECC000F0EDC001F000C0ECF0AC
:1039800001C0EDF00001E251E111D8B409D0EAC064
:10399000EEF0EBC0EFF0E1C0F0F0E2C0F1F0FFD8E4
:1039A0000001ED51EC11D8B409D0E3C0EEF0E4C051
:1039B000EFF0ECC0F0F0EDC0F1F02FD80001E7051A
:1039C000D8A425D0EC51E325E96EED51E421EA6E4F
:1039D000000EEF6A1CD0EAC0EEF0EBC0EFF0E1C0E1
:1039E000F0F0E2C0F1F0DBD8D8A011D03BD9D8A0DC
:1039F0000ED00001E651E511D8B409D0E3C0EEF0D5
:103A0000E4C0EFF0E5C0F0F0E6C0F1F006D8ECC09D
:103A100000F0EDC001F01200EE000001D890F1318D
:103A2000F36FF031F26F1ED90001F251006EF351C5
:103A3000016EF207000EF35B01500010D8B410D0F5
:103A4000360EFDD9EEC0E9FFEFC0EAFF0001020E1D
:103A5000EE27000EEF2300C0EEFF01C0EDFFE4D71C
:103A60000001F0A108D0360EEAD9EEC0E9FFEFC0A0
:103A7000EAFF00C0EFFF1200C300C3C0EAF0C4C0F9
:103A8000EBF00001EC6BED6BA8D8D8A05CD007D9A7
:103A9000D8A059D00001F00EC45D000ED8B4C35DAB
:103AA000D8A01BD0030EC925F36E000ECA21F46EF8
:103AB000D890F432F332CB05D8A402D0F34AF42ADA
:103AC000F3CFFAF0F4CFFBF0380ECDD9E8D8C3C06D
:103AD000FAF0C4C0FBF0380EC6D90001CB05D8A45B
:103AE00006D0C9C0FAF0CAC0FBF0380EBCD900013C
:103AF000C651C511D8B40AD0C3C0EAF0C4C0EBF0B7
:103B0000C5C0ECF0C6C0EDF068D8C9D8C7C0EAF0AF
:103B1000C8C0EBF0C9C0ECF0CAC0EDF018D8BFD8EF
:103B2000C3C0FAF0C4C0FBF0020E9DD90001210E03
:103B3000EE6F010EEF6FD1D8D8A005D0C9C000F04C
:103B4000CAC001F002D0006A016A1200EA00000156
:103B5000EC29EE6F000EED21EF6FD890EF33EE33CE
:103B60009ED80001EE51006EEF51016EEE07000E7F
:103B7000EF5B01500010D8B410D0EAC0E9FFEBC0F1
:103B8000EAFF0001020EEA27000EEB23EECFFAF067
:103B9000EDCFFBF0380E67D9E4D71200EE0062D803
:103BA000D8A018D0EEC0FAF0EFC0FBF0180E5BD929
:103BB00059D8D8A00FD0F0C0FAF0F1C0FBF01C0E1D
:103BC00052D950D8D8A006D01C0E39D9D89001AC03
:103BD000D88001D0D8901200EA0061D8D8A018D0BF
:103BE000EAC0FAF0EBC0FBF01A0E3DD958D8D8A0C5
:103BF0000FD0ECC0FAF0EDC0FBF01E0E34D94FD858
:103C0000D8A006D01E0E1BD9D89001ACD88001D008
:103C1000D890120094000001966B976B94C0FAF054
:103C200095C0FBF0020E1FD90A0E0001EE6FEF6B7C
:103C300054D8D8A012D0080E0001EE6FEF6B080E1A
:103C4000F06FF16BA7D801500010D8B406D0220E47
:103C5000F6D800C096F001C097F096C000F097C06B
:103C600001F012000001F66B400EF76F1C0EE7D852
:103C700000C0F4F001C0F5F00001F5AF0ED0000176
:103C8000F651006EF751016EF607000EF75B01501A
:103C90000010D8A4EBD7D89001D0D8801200000132
:103CA000F26B400EF36F1E0ECAD800C0F0F001C0D8
:103CB000F1F00001F1AF0ED00001F251006EF351AE
:103CC000016EF207000EF35B01500010D8A4EBD791
:103CD000D89001D0D8801200EE00EEC0FAF0EFC00C
:103CE000FBF0000EC0D80ED800C0F0F001C0F1F01B
:103CF0000001006AF151016E01500010D890D8B453
:103D0000D88012000001F46B400EF56F100E000118
:103D1000F66FF76B20D801500010D8A410D0000126
:103D2000F451006EF551016EF407000EF55B015081
:103D30000010D8A4EBD7FF0E006801680AD0080E67
:103D40007ED800C0F2F001C0F3F0F2C000F0F3C082
:103D500001F01200F600300E72D800C0F8F001C079
:103D6000F9F00001F751F611D8B40ED0F651F8175A
:103D7000F751F917F951F811D8B406D0F8C0FAF094
:103D8000F9C0FBF0340E6FD8F8C000F0F9C001F0B4
:103D90001200EE000001F26B400EF36F300E4FD8B0
:103DA00000C0F4F001C0F5F0F4C000F0F5C001F07F
:103DB0000001EE510016EF51011601500010D8A479
:103DC00024D0F4C000F0F5C001F00001F05100165D
:103DD000F151011601500010D8B408D0F051F4157B
:103DE000FA6FF151F515FB6F340E3DD80001F25119
:103DF000006EF351016EF207000EF35B01500010EC
:103E0000D8A4CCD7006A016A19D0EEC000F0EFC088
:103E100001F00001F0510016F1510116015000109F
:103E2000D8B408D0F051EE15FA6FF151EF15FB6FD1
:103E3000340E19D8F4C000F0F5C001F012000001F2
:103E4000FC6FFC511BD80001FB6FFC2917D8000147
:103E5000FA6FFB51FAC000F0016A00C001F0006A7D
:103E60000012000CFA000001FC6FFA51FD6FFC51CA
:103E70001BD80001FB51FD6FFC2916D09568846E9C
:103E8000859E00F000F000F000F000F000F000F07F
:103E900000F08350D96E858E00F000F0956A83683B
:103EA0009568D9501200FD00846E0001FD51836EAB
:103EB000956A869800F000F000F000F000F000F045
:103EC00000F000F086888368956812009568846E1B
:103ED000859A00F000F000F000F000F000F000F033
:103EE00000F08350D96E858A956A83689568D950A9
:103EF00012009400846E00019451836E956A859C33
:103F000000F000F000F000F000F000F000F000F031
:103F1000858C8368956812009D0000019F0EB46F28
:103F2000000EB56F13EC16F0D8A019D00001A00E4A
:103F3000B46F000EB56F13EC16F0D8A010D00001CE
:103F40009F51F46EA0C0E8FFF36E9DC0E9FF9EC0D4
:103F5000EAFFF3CFEEFFF4CFEDFFD88001D0D89089
:103F60001200A2000001A40EB46F000EB56F13EC96
:103F700016F0D8A06ED00001A50EB46F000EB56F7C
:103F800013EC16F0D8A065D00001A60EB46F000E99
:103F9000B56F13EC16F0D8A05CD00001A70EB46F7B
:103FA000000EB56F13EC16F0D8A053D0080EA4C0C5
:103FB00000F0016A026A036A41EC64F000C0ACF0F0
:103FC00001C0ADF002C0AEF003C0AFF0A5C000F07C
:103FD000016A026A036A0001AC510026AD51012258
:103FE000AE510222AF510322080E41EC64F000C032
:103FF000B0F001C0B1F002C0B2F003C0B3F0A6C08F
:1040000000F0016A026A036AB0510026B151012230
:10401000B2510222B3510322080E41EC64F0A751C1
:104020000024A86F000E0120A96F000E0220AA6FC5
:10403000000E0320AB6FA2C0E9FFA3C0EAFFA8C037
:10404000EEFFA9C0EEFFAAC0EEFFABC0EEFFD88026
:1040500001D0D89012009A0000019F6BA06B10D085
:1040600000019B519A11D8B408D09AC0E9FF9BC0B7
:10407000EAFF9EC0EFFF9A4B9B2B00019F4BA02BAA
:1040800000019D51A05D02E19C519F5DD8B008D018
:104090009E0EB46F000EB56F13EC16F0D8B0E0D7DB
:1040A0009FC000F0A0C001F0120000019A6F9B0EAB
:1040B000B46F000EB56F13EC16F0D8A006D0000157
:1040C0009B519A6302D0D88001D0D89012008D0005
:1040D00000018D0E9D6F000E9E6F1FDFD8A00AD0CD
:1040E00000018E518E1902E18D518D19D8A402D094
:1040F000D88001D0D89012009A0000019E0EA26FC5
:10410000000EA36F2FDFD8A010D000019D51A11980
:1041100008E19C51A01905E19B519F1902E19A51B8
:104120009E19D8A402D0D88001D0D890120098004F
:1041300004D00001984B992B9A0700019A51D8B4EA
:1041400011D09B0EB46F000EB56F13EC16F0D8A013
:1041500009D098C0E9FF99C0EAFFEF5000019B1910
:10416000D8B4E7D700019A51D8A402D0010E01D0EB
:10417000000E12000001980EB46F000EB56F13EC24
:1041800016F0D8A002D0D88001D0D89012009D009F
:1041900004D000019D07D8A09E0700019E519D11EB
:1041A000D8B408D09F0EB46F000EB56F13EC16F0A4
:1041B000D8B0EFD700019E519D11D8A402D0D8806D
:1041C00001D0D8901200D96E0DA20FD0D9500301A2
:1041D0002D27D9502D6117D00301010E2C2B2C5304
:1041E000D8A411D003012D2B0ED0D95003012C27B8
:1041F000D9502C6108D00301010E2D2B2D53D8A4CA
:1042000002D003012C2B0D721200E5000001E651D3
:10421000DADF0001E551D7D7E5000001E851D3DF2F
:104220000001E751D0DF0001E651CDDF0001E5518B
:10423000CAD7E5000001E65144EC16F00001E55153
:1042400044EF16F0E5000001E85144EC16F00001DF
:10425000E75144EC16F00001E65144EC16F0000181
:10426000E55144EF16F0AF000001B151006EB251BC
:10427000016EB107000EB25B01500010D8B40BD034
:10428000AFC0E9FFB0C0EAFF0001AF4BB02BEF5069
:1042900044EC16F0E9D71200FC00FCC002F0FDC0AF
:1042A00003F002C003F0026A0001FD51006E016AD2
:1042B00002500010F36E03500110F46EF3CF00F0C3
:1042C000F4CF01F01200000EF0DED8A072D0010E83
:1042D000ECDED8A06ED0080EE8DED8A06AD0000EC2
:1042E000E4DED8A066D0060EE0DED8A062D0040ED0
:1042F000DCDED8A05ED00001920E9D6F000E9E6F96
:104300000CDED8A056D00001940E9A6F000E9B6F61
:10431000060E9C6F9D6BA0DE01500010D8B449D0F2
:104320000001800EA26F010EA36F1CDED8A041D049
:10433000060E00019D6F9E6B2BDFD8A03AD068C19E
:104340009AF069C19BF06AC19CF06BC19DF0D5DE0B
:10435000D8A02FD0000192059311D8A404D0020E4A
:104360002AD8D88027D000019251020A9311D8A4EC
:1043700020D001EE80F001014051EE1808E14151DA
:10438000EE1805E14251EE1802E14351EE18D8B49F
:104390000DB00FD00001430EA26F030EA36F940E59
:1043A000A46F000EA56F060EA66FA76B41EC07F079
:1043B0000D80D89012000001AE6F4DEC15F0000199
:1043C000AE05D8A40BD09E0EAF6F010EB06FB169D1
:1043D000B26B060EB36FB46BFDEC63F0010E00011F
:1043E000E56FE66B27DF0001E56B080EE66F22DF65
:1043F000060E44EC16F0040E44EC16F00001AE512B
:10440000E56FE66B17DF0001610EAF6F030EB06F53
:10441000060EB16FB26B28DF68C1E5F069C1E6F046
:104420006AC1E7F06BC1E8F00EDF00019E0EAF6FCE
:10443000010EB06F060EB16FB26B16DF80C1E5F0F2
:1044400081C1E6F082C1E7F083C1E8F0FCDE010142
:10445000060EA46F080EA56F2BEF1BF0AE00000137
:1044600068C1E8FFAE19006E69C1E8FFAF19016EBF
:104470006AC1E8FFB019026E6BC1E8FFB119036EA3
:104480006CC1E8FF0014046E6DC1E8FF0114056EF5
:104490006EC1E8FF0214066E6FC1E8FF0314076ED9
:1044A0000750041005100610D890D8B4D880120018
:1044B000AA000D90AAC0AEF0ABC0AFF0ACC0B0F097
:1044C000ADC0B1F0CCDFD8B009D064C100F065C197
:1044D00001F066C102F067C103F008D0AAC000F085
:1044E000ABC001F0ACC002F0ADC003F000C040F1C1
:1044F00001C041F102C042F103C043F140C180F16B
:1045000041C181F142C182F143C183F1010E53D710
:10451000D8900DB0D8801200E0EC14F0450EC5DD47
:10452000D8A080D027DED8A07DD000011C0E9D6FC2
:10453000010E9E6FF2DCD8A075D0020E00019D6FB7
:104540009E6B26DED8A06ED0020E00019D6F9E6B82
:104550001FDED8A067D00EDED8A064D00001380ED0
:10456000B46F030EB56F13EC16F0D8A05BD0020E3B
:1045700000019D6F9E6B0CDED8A054D00001800E10
:10458000A26F010EA36FEEDCD8A04CD000015C0E30
:10459000A26F010EA36FE6DCD8A044D001016851E0
:1045A00069116A116B11D8B41CD001EE68F05C512E
:1045B000EE1808E15D51EE1805E15E51EE1802E1DA
:1045C0005F51EE18D8B40DD001015C1DFF0ED8B4B8
:1045D0005D19FF0ED8B45E19FF0ED8B45F19D8A4C8
:1045E00021D02CC300F00028D8A41CD02DC300F08B
:1045F0000028D8A417D00101000E1D5D150ED8B4F7
:104600001C5DD8A00FD01CC100F01DC101F0EC0E44
:1046100000240001926FFF0E0120936F12EC15F041
:10462000D88001D0D8901200E0EC14F01CC100F04A
:104630001DC101F0E80E00240001946FFF0E01205F
:10464000956F01EE68F001015C51EE1808E15D51D3
:10465000EE1805E15E51EE1802E15F51EE18D8A4A4
:104660004AD0080E22DDD8A046D0000E1EDDD8A00C
:1046700042D00001960E9D6F000E9E6F4EDCD8A0BA
:104680003AD030C192F031C193F094C09DF095C002
:104690009EF07EDD92C098F093C099F0F3EC14F098
:1046A0002CC300F00028D8A426D02DC300F0002889
:1046B000D8A421D04DEC15F020D80001E56BE66BB5
:1046C000B9DD0001080E9727975D000ED8B4965DFE
:1046D000D8B002D0964B972B96C0E5F097C0E6F085
:1046E000A9DD94C098F095C099F075EC16F02BEC0C
:1046F0001BF0D88001D0D8901200E0EC14F0450EE9
:1047000044EC16F0000E44EC16F01CC1E5F01DC19F
:10471000E6F090DD000E44EC16F00301292B29C3CE
:10472000E8FF44EC16F00001E56BE66B83DD640EF8
:1047300044EC16F038C3E8FF44EC16F068C1E5F02D
:1047400069C1E6F06AC1E7F06BC1E8F066DD80C1DF
:10475000E5F081C1E6F082C1E7F083C1E8F05DDDFC
:104760002CC3E8FFFF0A44EC16F02DC3E8FFFF0A54
:1047700044EC16F068C1E5F069C1E6F06AC1E7F003
:104780006BC1E8F060DD80C1E5F081C1E6F082C177
:10479000E7F083C1E8F057D50001936BE0EC14F02B
:1047A0000001280E9D6F010E9E6F8DEC1FF0D8A0AA
:1047B00046D10001220E9D6F010E9E6F8DEC1FF001
:1047C000D8A03DD10001840EA26F010EA36FB2EC00
:1047D0001FF0D8A034D100017C0EA26F010EA36F90
:1047E000B2EC1FF0D8A02BD10001920EB46F000ED6
:1047F000B56F13EC16F0D8A022D10001940EB46F5F
:10480000000EB56F13EC16F0D8A019D1060E0001FA
:104810009D6F9E6BBDDCD8A012D10101000E1D5D05
:10482000280ED8B41C5DD8A00AD101EE68F00101B1
:104830005C51EE1808E15D51EE1805E15E51EE188D
:1048400002E15F51EE18D8A4FAD01CC100F01DC1DE
:1048500001F0EC0E00240001E56FFF0E0120E66F71
:10486000D5DC68C1E5F069C1E6F06AC1E7F06BC16B
:10487000E8F0D3DC80C1E5F081C1E6F082C1E7F069
:1048800083C1E8F0CADC000E9EDC060E9CDC08D07A
:104890000101FC0E1C27FF0E1D23F00E00019227C4
:1048A000510E0001926101D00CD001011C511D116B
:1048B000D8B407D0040E00019D6F9E6B69DCD8B0A0
:1048C000E7D70101D80E1C25E8CF2CF1FF0E1D21E2
:1048D000E8CF2DF130C195F031C196F02CC19DF09B
:1048E0002DC19EF055DC95C098F096C099F0F3EC80
:1048F00014F02CC300F00028D8A49ED02DC300F0E3
:104900000028D8A499D04DEC15F0280E0001E56FD1
:10491000E66B5EEC15F00301336B0301326B0301B0
:1049200030530101D8B421D001C1E8FF231903E1BC
:1049300000C1E8FF2219D8A417D001EE44F001010C
:104940008051EE1808E18151EE1805E18251EE1810
:1049500002E18351EE18D8B40DAE06D00001945197
:1049600034D90001936B946B010135C1E8FF231921
:1049700003E134C1E8FF2219D8B40DBE5BD00001B9
:1049800094A324D00101842B000E85238623872342
:10499000100E08C100F009C101F0026A036A41EC7F
:1049A00064F000C07CF101C07DF102C07EF103C063
:1049B0007FF1FF0E7C077D23000E7E237F23082BD3
:1049C0000923D5EC4AF0120E3CD834D0000194A94A
:1049D00021D001012C512D11D8B41CD02CC100F0D4
:1049E0002DC101F001EE84F00050EE260150EE22C0
:1049F000000EEE22ED22ED52ED52B7EC52F0040122
:104A00003153D8A404D0B3EC4AF0110E01D0100EEB
:104A10000001936F000194A109D00101842B000EC5
:104A2000852386238723100E0001936F0001935185
:104A3000D8A407D8D88004D0400EBFEC0FF0D8908F
:104A400012000001E36FF7EC15F02CC332F32DC315
:104A500033F30101000E275D280ED8B4265DD8B0CF
:104A600003D0280E266F276B0001E3A305D00101B8
:104A7000040E2627000E272326C11CF127C11DF195
:104A80000001E56BE66B5EEC15F0060EE8CF38F33F
:104A900034DE0001E35102D82BEF1BF00001E46F7C
:104AA0000101A46B080EA56F0D9232C32CF333C322
:104AB0002DF322C1E5F023C1E6F01AEC21F028C164
:104AC000E5F029C1E6F01AEC21F07CC1E5F07DC1EA
:104AD000E6F07EC1E7F07FC1E8F023EC21F084C16D
:104AE000E5F085C1E6F086C1E7F087C1E8F023EC88
:104AF00021F00001E4B302D0500E01D0600E44EC6E
:104B000016F00001E45144EC16F0030E44EC16F0EC
:104B1000200E44EC16F00001E4A318D0280EE56F37
:104B2000E66B5EEC15F0020E44EC16F0040E44EC5D
:104B300016F00001B40EE56F050EE66F1AEC21F0D9
:104B4000240E0001E56FE66B5EEC15F068C1E5F040
:104B500069C1E6F06AC1E7F06BC1E8F00DEC21F045
:104B600080C1E5F081C1E6F082C1E7F083C1E8F0E1
:104B70000DEC21F0000EE3EC20F0060EE3EC20F04B
:104B80001CC100F01DC101F0EC0E00240001E56F16
:104B9000FF0E0120E66F06EC21F02CC3E8FFFF0AB0
:104BA00044EC16F02DC3E8FFFF0A44EC16F00001B8
:104BB000E56BE66B1AEC21F00001E4A305D02C0EA6
:104BC000E56FE66B5EEC15F012000001986B170BB9
:104BD000976FAAD000019E6B140EC5D9B6D0000104
:104BE0009751120AD8A427D001EE4CF001017C5154
:104BF000EE1808E17D51EE1805E17E51EE1802E154
:104C00007F51EE18D8A417D001018429E8CF48F1CC
:104C1000000E8521E8CF49F1000E8621E8CF4AF148
:104C2000000E8721E8CF4BF100019E6B100E9BD93F
:104C3000030E03DA8AD000019E6B140E94D9000E85
:104C4000FCD983D001EE84F001014851EE1808E14F
:104C50004951EE1805E14A51EE1802E14B51EE18A8
:104C6000D8B406D0010E00019E6F100E7CD96DD015
:104C700001012C512D11D8B417D0030EDED90D8CA3
:104C8000B1EC5CF0100E0001986F2CC100F02DC14A
:104C900001F001EE48F00050EE260150EE22000E29
:104CA000EE22ED22ED52ED52000197A10BD0110E34
:104CB000986F0101482B000E49234A234B23040E11
:104CC000BCD908D003012E530001D8B404D0988178
:104CD000050EB3D900019851D8B437D09E6B9851C6
:104CE00042D933D000019751100AD8A42ED0000E1B
:104CF000A4D92BD0000197A10DD00101482B000EA3
:104D000049234A234B2300019E6B100E2CD9000E21
:104D100094D91BD001012C512D11D8B416D000010B
:104D20009E6B100E20D911D030C3E8FF000A01E1BC
:104D300051D7010A01E14ED7030A01E150D7010A18
:104D400081E0070ACFE0010AD5E01200A4000301C8
:104D50003053D8A42BD0A4C044F1A5C045F1A6C0BF
:104D600046F1A7C047F1A8C00AF1A9C00BF10101A3
:104D7000006B016B03012E6B44C1AAF045C1ABF07F
:104D800046C1ACF047C1ADF059EC22F000010C0E69
:104D9000AB6F010EAC6FAD6BAE6B12EC37F0040E67
:104DA000E8CF31F3010E49D9D88001D0D890120054
:104DB00030C3E8FF030AD8A404D0010EE8CF2EF3D5
:104DC00002D0000E3AD9120030C3E8FF030AD8A47B
:104DD00016D003012E53D8B412D04DEC15F0280E86
:104DE0000001E56FE66B5EEC15F000019E6B010EB5
:104DF000BAD8050E22D9010EE8CF31F3B2D030C3B4
:104E000000F00004D8A456D088EC22F00001D8A00D
:104E100034D0490EA26F030EA36F430EA46F030E8E
:104E2000A56F060EA66FA76B41EC07F04DEC15F0D1
:104E3000280E0001E56FE66B5EEC15F03EC300F056
:104E4000016A000E0024E8CF00F1040E0120E8CF33
:104E500001F103013E2B01014F6B4E6B270E4D6F8D
:104E60000F0E4C6F486B496B4A6B4B6B00019E6B8E
:104E7000020E79D8020EE1D874D00C0EAB6F010E81
:104E8000AC6F280EAD6FAE6B12EC37F0D8A069D0C6
:104E9000030131073129D8B40BD044C1AAF045C170
:104EA000ABF046C1ACF047C1ADF059EC22F059D09F
:104EB0007FDF57D0010E0301306553D000010C0E87
:104EC000AB6F010EAC6F00EEADF00EC1EEFF0FC187
:104ED000EDFF12EC37F0D8A044D00301310731299F
:104EE000D8B42ED001EE0EF00EC1E8FFEE260FC1B1
:104EF000E8FFED224DEC15F0280E0001E56FE66BA2
:104F00005EEC15F030C3E8FF020AD8A405D0010E0C
:104F100000019E6F020E27D830C3E8FF040AD8A410
:104F200005D0010E00019E6F110E1DD830C3E8FFA1
:104F3000050AD8A416D0010E00019E6F14D811D016
:104F4000020E030130650CD04DEC15F0280E000167
:104F5000E56FE66B5EEC15F000019E6B140E03D856
:104F600027DF12009E0000019F6FA06BA16BF7EC82
:104F700015F000019E51D8B40AD09F51030BD8B44C
:104F800006D001014C07000E4D5B4E5B4F5B0001EC
:104F90009E0EA26F010EA36F490EA46F030EA56FA4
:104FA000060EA66FA76B41EC07F04CC17CF14DC11A
:104FB0007DF14EC17EF14FC17FF148C184F149C1FD
:104FC00085F14AC186F14BC187F100C122F101C1CF
:104FD00023F10AC128F10BC129F144C180F145C177
:104FE00081F146C182F147C183F10101000E275DC5
:104FF000290ED8B4265DD8A00BD026C100F027C159
:1050000001F0D80E00240001A06FFF0E0120A16F57
:1050100000019F51030BD8B402D0A04BA12B01EE8D
:105020004CF00001A051EE26A151EE22000EEE221E
:10503000ED22ED52ED529F5104D50001AA6F0C0EE6
:10504000AB6F010EAC6FAD6BAE6B12EC37F0050EB3
:10505000E8CF31F30101140E0E6F000E0F6F000147
:10506000AA51D8A402D003013053AAC030F31200D1
:10507000E0EC14F00001280E9D6F010E9E6F8DEC88
:105080001FF0D8A08BD00001220E9D6F010E9E6FE5
:105090008DEC1FF0D8A082D000013E0E9D6F010E56
:1050A0009E6F8DEC1FF0D8A079D000013C0E9D6F53
:1050B000010E9E6F8DEC1FF0D8A070D00101000E84
:1050C0003F5D080ED8B43E5DD8A068D00101050E42
:1050D0003F5DC10ED8B43E5DD8B060D001013C51F7
:1050E0003D11D8B432D03EC1E5F03FC1E6F006EC48
:1050F00021F05CC1E5F05DC1E6F05EC1E7F05FC1A3
:10510000E8F00DEC21F080C1E5F081C1E6F082C14C
:10511000E7F083C1E8F00DEC21F0000EE3EC20F0A5
:10512000110EE3EC20F030C192F031C193F040EC6D
:1051300015F000C09DF001C09EF0C8EC20F092C0B8
:1051400098F093C099F0F3EC14F001013C513D113B
:10515000D8B40AD02CC300F00028D8A41FD02DC387
:1051600000F00028D8A41AD04DEC15F0010122510E
:10517000440A2311D8B406D02251430A2311D8B4CB
:105180000DBE01D03DD901012851350A2911D8B4ED
:105190000DAE02D0F2EC2DF0D88001D0D8901200E4
:1051A000F7EC15F02CC332F32DC333F3F36AF46A32
:1051B0000101000E3B5D1D0ED8B43A5DD8A00AD0A7
:1051C0003AC100F03BC101F0E40E0024F36EFF0E83
:1051D0000120F46E080EF324E8CF3EF1000EF42017
:1051E000E8CF3FF10101140E3E25E8CF1CF1000E7F
:1051F0003F21E8CF1DF10001E56BE66B5EEC15F099
:105200000101A46B080EA56F110EE8CF38F37DECF9
:1052100023F002D82BEF1BF00D9232C32CF333C3D3
:105220002DF322C1E5F023C1E6F01AEC21F028C1EC
:10523000E5F029C1E6F01AEC21F03EC1E5F03FC1EE
:10524000E6F01AEC21F068C1E5F069C1E6F06AC148
:10525000E7F06BC1E8F00DEC21F080C1E5F081C111
:10526000E6F082C1E7F083C1E8F00DEC21F0000E1A
:10527000E3EC20F0110EE3EC20F03EC1E5F03FC17D
:10528000E6F006EC21F02CC3E8FFFF0A44EC16F030
:105290002DC3E8FFFF0A44EF16F003013553D8A4ED
:1052A00036D00101686B696B6A6B6B6B166B176BA1
:1052B0000001120EAB6F010EAC6FAD6BAE6B12EC5A
:1052C00037F00001180EAB6F010EAC6FAD6BAE6B1B
:1052D00012EC37F00101140E146F156B14C110F1AC
:1052E00015C111F1100E10C100F011C101F0026AD8
:1052F000036A41EC64F000C094F101C095F102C072
:1053000096F103C097F1010EE8CF35F339D035C3DC
:1053100000F00004D8B40AD035C3E8FF030AD8B4BB
:1053200005D035C3E8FF130AD8A42AD00001120E15
:10533000AB6F010EAC6F00EEADF014C1EEFF15C106
:10534000EDFF12EC37F0D8A01BD035C300F00004FD
:10535000D8B403D035C3E8FF030A35C3E8FF41DA08
:105360000101040E155DB00ED8B4145DD8B008D09C
:1053700001EE14F014C1E8FFEE2615C1E8FFED229E
:1053800035C3E8FF300AD8B405D035C3E8FF130AA7
:10539000D8A434D00001180EAB6F010EAC6F140E00
:1053A000AD6FAE6B12EC37F0D8A026D00101162BF2
:1053B000000E17232BC1E8FF171903E12AC1E8FFEC
:1053C0001619D8A408D010C114F111C115F1130E8B
:1053D000E8CF35F311D01EC102F01FC103F016C192
:1053E00000F017C101F00350015C02E10250005CC3
:1053F000D8A002D00301356BD88001D0D89012001C
:105400000001946B0D8C0DBE93D0010E55EC20F075
:10541000D8A0E6D1BAEC20F0D8A0E2D1060E55EC27
:1054200020F0D8A0DDD1BAEC20F0D8A0D9D100016D
:105430008C0EA26F010EA36FB2EC1FF0D8A0D0D1DA
:10544000E40E00019D6F9E6BC8EC20F0D8A0C8D17F
:10545000630E55EC20F0D8A0C3D1820E55EC20F09D
:10546000D8A0BED1530E55EC20F0D8A0B9D1630E10
:1054700055EC20F0D8A0B4D12FD000019551350AB9
:10548000D8A40BD096050001D8A408D0940EB46F10
:10549000000EB56F13EC16F01FD0000195513D0AB8
:1054A000D8A414D09651070AD8A410D0010E55ECF8
:1054B00020F00001D8A00BD0550E9A6F030E9B6F01
:1054C000060E9C6F9D6B2CEC20F006D000019651CF
:1054D0009D6F9E6BC8EC20F00001950EB46F000E1E
:1054E000B56F13EC16F0D8A00CD000019529D8B4F4
:1054F00009D0960EB46F000EB56F13EC16F0D8B04D
:10550000BCD700019405D8A407D0020EE8CF35F32C
:1055100035C3E8FF66D964D100019451030AD8A4C9
:105520005FD1050EE8CF35F335C3E8FF5AD958D11E
:10553000020E55EC20F0D8A053D1BAEC20F0D8A040
:105540004FD1060E55EC20F0D8A04AD10D0E000127
:105550009D6F9E6BC8EC20F0D8A042D10001700E68
:10556000A26F010EA36FB2EC1FF0D8A039D1080EC4
:1055700000019D6F9E6BC8EC20F0D8A031D10001D6
:10558000610E986F030E996F060E9A6F98EC20F0DB
:10559000006E00C002F0036A03500210D8B420D19C
:1055A000CA0E00019D6F9E6BC8EC20F0D8A018D1E8
:1055B000630E55EC20F0D8A013D1820E55EC20F0EC
:1055C000D8A00ED1530E55EC20F0D8A009D1630E0F
:1055D00055EC20F0D8A004D16FD000019551350AC8
:1055E000D8A40BD096050001D8A408D0940EB46FAF
:1055F000000EB56F13EC16F05FD000019551330A21
:10560000D8A40CD09651040A0001D8A408D0580E92
:10561000A26F010EA36FB2EC1FF04ED000019505F2
:10562000D8A410D09651040AD8A40CD000019451EB
:10563000050AD8A408D06C0EA26F010EA36FB2ECBD
:105640001FF03AD000019551060AD8A41BD0030ED2
:10565000966518D000019451050AD8A414D0600EA4
:10566000A26F010EA36FB2EC1FF0040E000196654D
:1056700023D0FC0E96259D6F9E6BFF0E9E23C8ECDB
:1056800020F01AD000019551030AD8A40FD0030EC0
:1056900096650CD000019451050AD8A408D0640E78
:1056A000A26F010EA36FB2EC1FF006D0000196515D
:1056B0009D6F9E6BC8EC20F00001950EB46F000E3C
:1056C000B56F13EC16F0000ED8B0010E0001976F05
:1056D0009751D8B40CD09529D8B409D00001960EB2
:1056E000B46F000EB56F13EC16F0D8B076D735C393
:1056F00000F00004D8A429D000019451020AD8A4D3
:1057000024D000014F0EA26F030EA36F9E0EA46F54
:10571000010EA56F060EA66FA76B41EC07F080C1C6
:1057200050F181C151F182C152F183C153F170C175
:1057300054F171C155F172C156F173C157F110C1E5
:1057400014F111C115F1030E49D035C3E8FF030A66
:10575000D8B405D035C3E8FF130AD8A441D000015E
:105760009451050AD8A43CD00101C00E1E6FA80EAA
:105770001F6F01EE5BF0000EED5C08E1000EED5CCA
:1057800005E1A80EED5C02E1C00EEF5CD8B004D0DC
:1057900058C11EF159C11FF10101000E1F5D3C0EE1
:1057A000D8B41E5DD8B003D03C0E1E6F1F6B1EC157
:1057B00000F01FC101F0D8900130E8CF2BF100308C
:1057C000E8CF2AF10101166B176B54C168F155C17E
:1057D00069F156C16AF157C16BF1300EE8CF35F36C
:1057E00012000001986F0101A46B080EA56F110E45
:1057F000E8CF38F30DBE07D0440E286F296B430E57
:10580000226F236B07D00101440E226F236B430EDE
:10581000286F296B4DEC15F01C0E0001E56FE66B4F
:105820005EEC15F00DBE04D0020E44EC16F003D071
:10583000010E44EC16F0010E44EC16F0060E44EC9A
:1058400016F0000E44EC16F00DBE33D08CC1E5F01E
:105850008DC1E6F08EC1E7F08FC1E8F023EC21F0B6
:10586000080E69EC16F0A3C100F07F0E001600C010
:1058700004F0056A066A076A020E04240001E56F57
:10588000000E0520E66FA80E0620E76FC00E072069
:10589000E86F23EC21F0080E69EC16F00001550EBC
:1058A000AF6F030EB06F060EB16FB26B34EC21F028
:1058B00024D094C1E5F095C1E6F096C1E7F097C118
:1058C000E8F023EC21F0040E69EC16F068C1E5F075
:1058D00069C1E6F06AC1E7F06BC1E8F023EC21F0A2
:1058E0000C0E69EC16F00001610EAF6F030EB06F85
:1058F000060EB16FB26B34EC21F00101010E3B5D7D
:10590000080ED8B43A5DD8B004D0000E44EC16F0BE
:10591000F4D7630E44EC16F0820E44EC16F0530EEE
:1059200044EC16F0630E44EC16F0350E44EC16F021
:10593000010E44EC16F0000198510F0B44EC16F0E8
:105940000DBE30D0360E44EC16F0040E44EC16F0CA
:1059500068C1E5F069C1E6F06AC1E7F06BC1E8F043
:1059600023EC21F0330E44EC16F0040E44EC16F058
:10597000000E44EC16F0010E44EC16F0510E44EC0F
:1059800016F0800E44EC16F0010E44EC16F0040EF6
:1059900044EC16F00001E56BE669E769E86923EC81
:1059A00021F063D03D0E44EC16F0070E44EC16F0E7
:1059B000010E44EC16F00001610EAF6F030EB06FE4
:1059C000060EB16FB26B34EC21F00C0E44EC16F005
:1059D000070E44EC16F0500E44EC16F00001996BE3
:1059E0000001995103EE61F0E926000EEA22EF5022
:1059F0000F0B610F44EC16F00001992B050E996511
:105A0000EFD7370E44EC16F0030E44EC16F0010EFF
:105A100044EC16F0030E44EC16F0060E44EC16F0BF
:105A200000019851030AD8A420D0360E44EC16F099
:105A3000040E44EC16F050C1E5F051C1E6F052C13D
:105A4000E7F053C1E8F023EC21F0320E44EC16F0FD
:105A5000040E44EC16F054C1E5F055C1E6F056C111
:105A6000E7F057C1E8F023EC21F0FF0E44EC16F00C
:105A700000019851130AD8A416D09E0EA26F010EF1
:105A8000A36F4F0EA46F030EA56F060EA66FA76B34
:105A900041EC07F050C180F151C181F152C182F156
:105AA00053C183F118D000019E0EAF6F010EB06F8D
:105AB000B169B26B060EB36FB46BFDEC63F000011D
:105AC000800EAF6F010EB06FB169B26B040EB36F91
:105AD000B46BFDEC63F0D0EC28F035C3E8FF050AA9
:105AE000D8B40DBE02D00301356B1200030136534A
:105AF000D8A41CD00101885189118A118B11D8A416
:105B000070D060C1AAF061C1ABF062C1ACF063C1FA
:105B1000ADF059EC22F000011A0EAB6F010EAC6F24
:105B2000AD6BAE6B12EC37F0010E27D036C300F030
:105B30000004D8A43BD088EC22F00001D8A020D0EB
:105B40005B0EA26F030EA36F430EA46F030EA56F2F
:105B5000060EA66FA76B41EC07F00001750E926F61
:105B6000030E936FFFD800011A0EAB6F010EAC6FDE
:105B7000AD6BAE6B12EC37F0020EE8CF36F331D0DE
:105B80001A0EAB6F010EAC6F280EAD6FAE6B12EC40
:105B900037F0D8A026D060C1AAF061C1ABF062C1D5
:105BA000ACF063C1ADF059EC22F01BD000011A0E2D
:105BB000AB6F010EAC6F280EAD6FAE6B12EC37F011
:105BC000D8A00FD00001750E926F030E936FCAD844
:105BD00000011A0EAB6F010EAC6FAD6BAE6B12EC29
:105BE00037F012000D8C00019B0E9D6F000E9E6F12
:105BF0008DEC1FF000019B0E9D6F000E9E6F8DECD3
:105C00001FF000010F0E9B15006E800E9C15016E9B
:105C10000150800A0010D8A4A3D00001970E9D6FF8
:105C2000000E9E6F8DEC1FF00001950E9D6F000E13
:105C30009E6F8DEC1FF0040E00019D6F9E6BC8ECF3
:105C400020F00001996B9A6B000198519A5D02E176
:105C50009751995D0001D8B028D0940EB46F000E12
:105C6000B56F13EC16F000019451C00BC00AD8A414
:105C700007D0940EB46F000EB56F13EC16F00BD076
:105C80000001940EB46F000EB56F13EC16F0000116
:105C90009451D8A4F5D7040E00019D6F9E6BC8ECFB
:105CA00020F00001994B9A2BCFD7996B9A6B00018A
:105CB00096519A5D02E19551995DD8B051D000019D
:105CC000940EB46F000EB56F13EC16F000019451F2
:105CD000C00BC00AD8A407D0940EB46F000EB56FE5
:105CE00013EC16F00BD00001940EB46F000EB56FDC
:105CF00013EC16F000019451D8A4F5D700019B0EC7
:105D00009D6F000E9E6F8DEC1FF000019B059C1196
:105D1000D8A40FD0080E9D6F9E6BC8EC20F0000138
:105D2000880EA26F010EA36FB2EC1FF00301366B59
:105D300017D0060E00019D6F9E6BC8EC20F000018D
:105D40009B0E9D6F000E9E6F8DEC1FF09BC09DF013
:105D50009CC09EF0C8EC20F00001994B9A2BA7D76D
:105D6000120092000101A46B080EA56F110EE8CF7E
:105D700038F300019E0EA26F010EA36F5B0EA46F9D
:105D8000030EA56F060EA66FA76B41EC07F060C16E
:105D900080F161C181F162C182F163C183F10101CE
:105DA000350E286F296BD20E226F040E236F4DEC37
:105DB00015F01C0E0001E56FE66B5EEC15F0030EAE
:105DC00044EC16F07A0E44EC16F0010E44EC16F09A
:105DD000000E44EC16F0000E44EC16F0010E44ECFC
:105DE00016F0000E44EC16F0000E44EC16F0000E17
:105DF00044EC16F0000E44EC16F0000E44EC16F0E5
:105E0000000E44EC16F092C0E9FF93C0EAFFEF5099
:105E1000D8B436D00001946B02D00001942B00015D
:105E200094519225E96E000E9321EA6EEF50D8B49A
:105E30000AD094519225E96E000E9321EA6EEF503C
:105E40002E0AD8A4EAD70001945144EC16F00001C0
:105E50009407942992C0E9FFD8B409D093C0EAFF0F
:105E60000001924B932BEF5044EC16F0F0D793C007
:105E7000EAFFEF50D8B4C7D70001924B932BC3D79A
:105E8000000E44EC16F0000E44EC16F0010E44EC4B
:105E900016F0000E44EC16F0010E44EC16F0D0EFB4
:105EA00028F0000C970097C034F198C035F1006AD3
:105EB000016A120003013053D8A403D0010E006E12
:105EC00001D0006A016A12009E009EC0A4F09FC02B
:105ED000A5F0A0C0A6F0A1C0A7F0A2C0A8F0A3C0E2
:105EE000A9F0A7EC26F0010E006E016A12009A00DC
:105EF00000019A059B11D8A408D030C3E8FF030A1B
:105F0000D8A403D0010E006E01D0006A016A12000D
:105F10009E0000019E059F11D8B4D8EC26F0120017
:105F2000DE00010E006E016A12009C004DEC15F0BF
:105F3000280E0001E56FE66B5EEC15F0010E006EB9
:105F4000016A1200DE000001E05144EC16F001018C
:105F5000040E3B5D000ED8B43A5DD8A024D0F7EC17
:105F600015F026C100F027C101F0D80E0024000171
:105F7000E16FFF0E0120E26F100E21EC25F001EE23
:105F80007CF00001E151EE26E251EE22000EEE22FD
:105F9000ED22ED52ED524DEC15F0280E0001E56FAB
:105FA000E66B5EEC15F0010E006E016A12009C00BB
:105FB00000019C059D11D8A404D09E6B100EB3EC7B
:105FC00027F012009E00010E006E016A12009E0072
:105FD000A0C0B4F0A1C0B5F013EC16F0000ED8B01C
:105FE000010E006E016A12001200B36AB26AD76A2B
:105FF000D66AA80ED56E870EB16E8590859285946F
:1060000085961200AD00E86611D00001AD51020A7C
:10601000D8A403D08580859219D00001AD05D8A4FD
:1060200003D08590858212D08590F5D70001AD51BF
:10603000020AD8A402D0858408D00001AD05D8A4F6
:1060400003D08594858602D0859485961200E85207
:10605000D8B402D0B25001D0D6501200C100000115
:10606000000EC111C56F000EC211C66F000EC31124
:10607000C76F010EC411C86F1FEC10F00001000EB5
:10608000C111C56F000EC211C66F000EC311C76FDC
:10609000020EC411C86F1FEC10F00001000EC111F8
:1060A000C56F000EC211C66F000EC311C76F030E7D
:1060B000C411C86F1FEC10F00001000EC111C56FB4
:1060C000000EC211C66F000EC311C76F040EC411BB
:1060D000C86F1FEC10F00001000EC111C56F000E5B
:1060E000C211C66F000EC311C76F050EC411C86F71
:1060F0001FEF10F0C1000001000EC45D08E1000EAA
:10610000C35D05E1000EC25D02E1140EC15DD8A0C1
:106110000DD0140EACEC0FF00001EC0EC127FF0EF9
:10612000C223C323C42338EC03F0E5D70001C451D4
:10613000C111C211C311D8B403D0C151ACEC0FF0DE
:10614000120092000001986B00019751985DD8B041
:1061500020D092C0C1F093C0C2F094C0C3F095C0EB
:10616000C4F07DDF00019651C16FC26BC36BC46B7D
:10617000C2DF0001C16BC26BC36BC46B70DF000177
:106180009651C16FC26BC36BC46BB5DF0001982B16
:10619000DBD71200D89081B0D8801200C296C2948A
:1061A000C282C2B2FED7C450D96E400ED96002D0AE
:1061B000000E06D0C00ED96002D0020E01D0010E32
:1061C00012000400E7DF000ED8A0010E12009700B5
:1061D00000019E6B000199519E5DD8B01CD000015A
:1061E0009E519A25BF6F000E9B21C06F000E9C210F
:1061F000C16F000E9D21C26FC36BEEEC5DF0006EAF
:1062000000019E519725E96E000E9821EA6E00C0AC
:10621000EFFF9E2BDFD7120052EC61F000C093F02D
:1062200001C094F002C095F003C096F0010EE8CFD3
:10623000A6F10101A76B0001926B00019251932519
:10624000006E000E9421016E000E9521026E000E6C
:106250009621036E3A0E0024BF6F000E0120C06F1E
:10626000000E0220C16F000E0320C26FC36BEEEC64
:106270005DF0006E0001925101EEA8F0E926000EDB
:10628000EA2200C0EFFF922B1F0E9265D6D70101C4
:10629000C86B01EEA8F0EF50D8B403D00301376B00
:1062A00003D0010EE8CF37F35B0E00019325BF6FDB
:1062B000000E9421C06F000E9521C16F000E962133
:1062C000C26FC36BEEEC5DF0E8CFCAF15A0E00016D
:1062D0009325BF6F000E9421C06F000E9521C16FF2
:1062E000000E9621C26FC36BEEEC5DF0E8CFCBF1F0
:1062F0005C0E00019325BF6F000E9421C06F000E4D
:106300009521C16F000E9621C26FC36BEEEC5DF05C
:10631000006E016A00BE010601340130036E0030D8
:10632000026E02C0CDF10001CE0E976F010E986F84
:10633000CDC199F05D0E93259A6F000E94219B6F4D
:10634000000E95219C6F000E96219D6F41DF01018B
:10635000DB6B290E00019325BF6F000E9421C06FE7
:10636000000E9521C16F000E9621C26FC36BEEEC3B
:106370005DF0006E00300D94D8B00D840301356BD4
:106380000DA406D00101686B696B6A6B6B6B18D04A
:106390002A0E00019325B16F000E9421B26F000EFA
:1063A0009521B36F000E9621B46FB56B6FEC5EF064
:1063B00000C068F101C069F102C06AF103C06BF16D
:1063C0002E0E00019325B16F000E9421B26F000EC6
:1063D0009521B36F000E9621B46FB56B6FEC5EF034
:1063E00000C06CF101C06DF102C06EF103C06FF12D
:1063F000320E00019325B16F000E9421B26F000E92
:106400009521B36F000E9621B46FB56B6FEC5EF003
:1064100000C064F101C065F102C066F103C067F11C
:10642000360E00019325B16F000E9421B26F000E5D
:106430009521B36F000E9621B46FB56B6FEC5EF0D3
:1064400000C060F101C061F102C062F103C063F1FC
:106450000001926B000192519325BF6F000E9421B1
:10646000C06F000E9521C16F000E9621C26FC36BE5
:10647000EEEC5DF0006E0001925103EE75F0E9263E
:10648000000EEA2200C0EFFF922B1F0E9265E2D7AA
:106490000301946B0001750E9E6F030E9F6F71ECEC
:1064A00054F000C088F101C089F102C08AF103C034
:1064B0008BF1200E00019325976F000E9421986FA9
:1064C000000E9521996F000E96219A6F9B6B8EECB2
:1064D0005FF000C032F101C033F1220E00019325BC
:1064E000BF6F000E9421C06F000E9521C16F000E8A
:1064F0009621C26FC36BEEEC5DF0006E016A00BEC8
:10650000010601500010D8B402D00D8801D00D98BA
:10651000230E00019325B16F000E9421B26F000E7F
:106520009521B36F000E9621B46FB56B6FEC5EF0E2
:1065300000C074F101C075F102C076F103C077F1BB
:10654000270E00019325976F000E9421986F000E7F
:106550009521996F000E96219A6F9B6B8EEC5FF0E0
:10656000000E01BEFF0E026E036E00C078F101C086
:1065700079F102C07AF103C07BF112000101905160
:10658000911192119311D8A412D0FCEC05F0D00E09
:106590000024E8CF90F1070E0120E8CF91F1000E22
:1065A0000220E8CF92F1000E0320E8CF93F1120011
:1065B00008DE0009D8A4FCD7640E0001C16FC26BCD
:1065C000C36BC46B98DDFDDD0009D8B41200F0D7B1
:1065D000F8DD0009D8B4FCD7640E0001C16FC26BAE
:1065E000C36BC46B88DDEDDD0009D8A41200F0D7C1
:1065F0009E008EEC13F07BEC13F0D0DDE16EE150E9
:10660000D8B407D0E104D8B402D0FF0E03D0C80E2E
:1066100001D0000E67EC13F0046A056A066A076A87
:10662000D2EC14F00009D8B42AD00001A151075CC3
:1066300008E1A051065C05E19F51055C02E19E5115
:10664000045CD8B01CD004509E5DA46F05509F59C7
:10665000A56F0650A059A66F0750A159A76F045007
:10666000A225A86F0550A321A96FF0EC13F00050EC
:1066700004260150052202500622035007222C0E48
:10668000D7EC14F0006E00B8CBD78EEF13F0730E7A
:1066900000019E6F9F6BA06BA16BD60EA26F0F0EB9
:1066A000A36FA7D7010E0001936FC16BC26B7F0E62
:1066B000C36FC46BD4DC85DD0009D8A4FCD700010E
:1066C0007F0EC16FC26FC36FC46BC9DC00019351F1
:1066D0000308936F966B0001AD6BC80EAE6F9651B9
:1066E000010891DC00019351AD6FC80EAE6F965159
:1066F0008ADC00019651ABDC0001926F956B61DD85
:106700000009D8A426D000019651A1DCE96EE95019
:1067100000019219D8B414D0E950ECEC0FF02F0E10
:10672000BFEC0FF000019551ECEC0FF00D0EBFEC3B
:106730000FF00A0EBFEC0FF00001956BE950926F5D
:106740000001952B320EC16FC26BC36BC46BD3DCDF
:10675000D6D70001E80EC16F030EC26FC36BC46BC6
:10676000CADC0001962B010E9665B5D7AD6BC80E3D
:10677000AE6F010E48DC0001AD6BC80EAE6F000EAF
:1067800042DC0001946B9451976F986B996B9A6BF4
:106790009751840FF66E9851F76E1B0EF722080082
:1067A000F550976F986B996B9A6B080E97C000F035
:1067B00098C001F099C002F09AC003F041EC64F077
:1067C00000C09BF001C09CF002C09DF003C09EF091
:1067D000100E97C000F098C001F099C002F09AC066
:1067E00003F041EC64F09B510010046E9C510110C9
:1067F000056E9D510210066E9E510310076E975153
:106800000410006E98510510016E99510610026E29
:106810009A510710036E000E0010C56F000E011094
:10682000C66F000E0210C76F010E0310C86F1FEC79
:1068300010F0100E97C000F098C001F099C002F05F
:106840009AC003F041EC64F0000E00100001C56F27
:10685000000E0110C66F000E0210C76F020E03106B
:10686000C86F1FEC10F0080E97C000F098C001F040
:1068700099C002F09AC003F041EC64F0000E0010E1
:106880000001C56F000E0110C66F000E0210C76F29
:10689000030E0310C86F1FEC10F00001000E9711DB
:1068A000C56F000E9811C66F000E9911C76F040EC8
:1068B0009A11C86F1FEC10F00A0E0001C16FC26B75
:1068C000C36BC46B18DC0001942B7BDC0009000156
:1068D000D8B459D7E80EC16F030EC26FC36BC46B37
:1068E0000ADCEDD60E0EC16E070EB46EB56AB06A44
:1068F000F29EF29C806A816A826A836A846A856AEF
:10690000866A858A858C858E86888588836A846A6E
:106910008188818680828084859085928594859601
:10692000819A809A92689368946895689668976847
:106930009868978A979C979E989897989568966A72
:10694000938092809398938293969496949A948845
:106950009494929293849294979097929794979606
:10696000949C948E939A929A9890988298849896F0
:106970008696869486928690010EC26E0E0EC16E29
:10698000060EC06E0A0EACEC0FF0FFEC0FF0C76AFB
:10699000C66AC68AC696C694C692C690C698C78C62
:1069A000C78ECA6A000EF0EC12F0020E0001926F60
:1069B000936BFAEC12F080820A0EACEC0FF080922E
:1069C000030EE8CF34F3030100F000F000F0342FA1
:1069D000E4EF34F08082320EACEC0FF02DEC13F0CB
:1069E00007EC10F0C68A639AF5EC2FF0CF6A350EEB
:1069F000CD6ECD9E0001200EAB6F010EAC6FAD6B66
:106A0000AE6B10DA0001B30E926F100E936FC4ECF0
:106A10000FF000017F0EC16FC26BC36FC46B2FEC10
:106A200030F0D60E00019E6F9F6BA06BA16B000E25
:106A3000A26F0F0EA36FDDDD81B00AD00D9E7F0E19
:106A40000001C16FC26BC36BC46B2FEC30F001D07F
:106A50000D8E78EC62F00DBE58D00001D00EC16FE3
:106A6000070EC26FC36BC46B7BEC30F0E1EC30F00F
:106A70000009D8A417DE0101A66B0B0EE8CFA7F121
:106A80000001A80ED96F010EDA6F4D0EDB6F100EEC
:106A9000DC6FD6EC63F00101CA6BCB6BDB6BC00E15
:106AA0006B6FA80E6A6F696B010E686F6F696E6914
:106AB0006D696C6B646B656B666B676B0FEC17F0E5
:106AC00025EC17F00E90D8B00E800EB00CD000015F
:106AD000926B936B7F0E946F956BFA0E966F0A0E06
:106AE000976FA2EC30F00EA0E9D77F0E0001C16FC6
:106AF000C26BC36BC46B2FEC30F0FA0EACEC0FF032
:106B00000D860301356BB3EC4AF00101906B916B7C
:106B1000926B936B0DBE5ED0FCEC05F0A9D96DECC9
:106B200018F0D8A02FD00101A551080A060ED8B43C
:106B3000A419D8B463EC21F00101A551080AD8B416
:106B4000A451D8A41AD08CEC22F0D8A016D038C307
:106B500000F00004D8A403D014EC23F00ED038C306
:106B6000E8FF060AD8A403D0CCEC23F006D038C343
:106B7000E8FF110AD8B438EC28F0C8EC1AF001018B
:106B8000246B256B01019051911192119311D8B48E
:106B9000C1D7FCEC05F090C1E8FF005C046E91C128
:106BA000E8FF0158056E92C1E8FF0258066E93C1D6
:106BB000E8FF0358076E0750800A800F08E1000EB7
:106BC000065C05E1000E055C02E1010E045CD8B034
:106BD0000D8EA0D70CEC31F000018D6B0D960301EA
:106BE000356B0FEC17F025EC17F00E90D8B00E8037
:106BF0000EB00CD00001926B936B7F0E946F956B6F
:106C0000FA0E966F0A0E976FA2EC30F00EA0E9D73D
:106C1000FFEC54F0010ED96E0D9A0DBA89D028D927
:106C20000DB60DA402D04DEC29F00DA60FD0010138
:106C3000685169116A116B11D8B408D001018851EB
:106C400089118A118B11D8B476EC2DF0FCEC05F08B
:106C5000E4EC26F0A3EC62F00DB602D003013E2B6B
:106C60006DEC18F0D8A02FD00101A551080A060E2E
:106C7000D8B4A419D8B463EC21F00101A551080AD5
:106C8000D8B4A451D8A41AD08CEC22F0D8A016D035
:106C900038C300F00004D8A403D014EC23F00ED0C5
:106CA00038C3E8FF110AD8A403D038EC28F006D086
:106CB00038C3E8FF060AD8B4CCEC23F0C8EC1AF0CD
:106CC0000101246B256B0901D553D8B405D0030EFF
:106CD0000901D365A2D72AD00DA602D0280E01D073
:106CE000140E00018E6F8F6B906B916B80EC06F031
:106CF0003AC2E8FF005C046E3BC2E8FF0158056E33
:106D00003CC2E8FF0258066E3DC2E8FF0358076E1A
:106D100000010750915D08E10650905D05E10550C6
:106D20008F5D02E104508E5DD8B076D70D8A75D79D
:106D30000901D553D8A452D703013753D8B43FD053
:106D40000301B76BE4EC16F0FCEC05F000C08EF02C
:106D500001C08FF002C090F003C091F0FCEC05F090
:106D600000018E51005C046E8F510158056E9051E8
:106D70000258066E91510358076E000E075C08E139
:106D8000000E065C05E1270E055C02E1100E045CB6
:106D9000D8B006D0020EEDEC18F00009D8B4DED75A
:106DA0000001A80ED96F010EDA6FB70EDB6F030E6C
:106DB000DC6FD6EC63F00301B753D8A402D0000116
:106DC0008D2B020E00018D6509D70901D453D8A47B
:106DD00005D7000119511A111B111C11D8A4FED698
:106DE0000001926B0E0E936F9469956BFA0E966F7D
:106DF0000A0E976FA2EC30F0F3D72BC3E8FFCF5CFD
:106E0000E8CF2AF3910E03012A6509D00101362B40
:106E1000000E37230301920E2B27D88001D0D89083
:106E20001200AB00ABC0E1FFACC0E2FFE6CF02F066
:106E3000E5CF03F036C100F037C101F00250005C2D
:106E4000F36E03500158F46E0001AE51AD11D8B489
:106E500007D0AE51F45C02E1AD51F35CD8A006D08E
:106E600036C1E6FF37C1E5FFD88001D0D8901200C7
:106E70000400C3DF0001200EAB6F010EAC6F0A0EE1
:106E8000AD6FAE6BCFDFD8A004D00EB0CDEC1AF052
:106E9000819012008D00080E8FC000F0016A026A16
:106EA000036A41EC64F000C091F001C092F002C0AE
:106EB00093F003C094F090C000F0016A026A036A84
:106EC00000019151002692510122935102229451C6
:106ED0000322080E41EC64F000C095F001C096F06A
:106EE00002C097F003C098F091C000F0016A026AF6
:106EF000036A95510026965101229751022298511A
:106F00000322080E41EC64F0925100248D6F000EB4
:106F100001208E6F000E02208F6F000E0320906FF5
:106F20008DC0E9FF8EC0EAFF8DC0EEFF8EC0EEFF80
:106F30008FC0EEFF90C0EEFF1200020E0001926FB4
:106F4000936B946B956B92C004F093C005F094C062
:106F500006F095C007F0006A016A010E026E000E8D
:106F6000036A9FEC06F00001D8909235026E9335CB
:106F7000036E000E0224E96E0D0E0320EA6E00C0BF
:106F8000EEFF01C0EDFF922B000E93239423952377
:106F9000955D08E1000E945D05E1010E935D02E14F
:106FA000000E925DD8A0CFD7006A016A0DEE02F004
:106FB00000C0EEFF01C0EFFF00C000FD01C001FDF9
:106FC000120070CA00F0016A00BE01060050F66EA1
:106FD000F76A71CA00F0016A00BE010600500001A4
:106FE000AE6FAF6B72CA00F0016A00BE01060050BE
:106FF000B46FB56BAB6B000EF75C2B0ED8B4F65CC0
:10700000D8A007D0D50EF626FF0EF7220001AB2B35
:10701000F2D7F750F610D8B40FD0060E026E036AFE
:10702000F6CF00F0F7CF01F033EC64F0030E042448
:10703000F66E000E0520F76EB4C002F0B5C003F086
:107040000001AE51FF08006E000EAF59016E33EC27
:1070500064F00550B26FB36BF6CF02F0F7CF03F0D8
:10706000AEC000F0AFC001F033EC64F005C004F036
:10707000056A0068016A0450005E0550015AB4C0F8
:1070800002F0B5C003F033EC64F00550AC6FAD6BAB
:10709000AEC002F0AFC003F0F650FF08006E000E65
:1070A000F758016E33EC64F005C004F0056A00681F
:1070B000016A0450005E0550015AB4C002F0B5C028
:1070C00003F033EC64F00550B06FB16B27D00001D2
:1070D000B451E16EB05104D00001AC51E16EB45135
:1070E000D96EB2510DD00001B251E16EB451D96EDA
:1070F000B05106D00001B251E16EAC51D96EB4511D
:10710000E96E19D00001B051E16EB251F7D700011C
:10711000B451E16EB251D96EAC51F2D70001AB510E
:10712000D6E0010AD9E0030ADEE0010AE3E0070A3B
:10713000E9E0010AECE0E1CF70FAD9CF71FAE9CFCA
:1071400072FA12000001110E0F6F106B0A016F6BC3
:107150000A016D6BD96AD950020D1D0EF324E96E38
:10716000000EF420EA6EEE6AED6AD92A0F0ED96499
:10717000F2D7D96AD9500AEE70F0E926000EEA2259
:10718000EF6AD92A0F0ED964F5D7D96AD9501BEE08
:1071900080F0E126000EE222E76AD9500BEE00F003
:1071A000E926000EEA22E7CFEFFFD92A7F0ED96445
:1071B000EDD7140EE8CF6EFA58EC61F00D0E0024F6
:1071C0000001B16F000E0120B26F000E0220B36FFC
:1071D000000E0320B46F020EB56F6FEC5EF000C0BE
:1071E00011F001C012F002C013F003C014F058EC0B
:1071F00061F0110E0024046E000E0120056E000ED9
:107200000220066E000E0320076E00EE11F00450FF
:10721000EE260550EE220650EE220750ED22ED52EA
:10722000ED5212007AEC61F019C000F01AC001F0C2
:107230001BC002F01CC003F015C019F016C01AF0F4
:1072400017C01BF018C01CF000C015F001C016F0EC
:1072500002C017F003C018F0010EE8CFDBF919C027
:10726000ABF01AC0ACF01BC0ADF01CC0AEF03CECF3
:1072700055F0D96AD9501AEE80F0E126000EE222CC
:10728000D9500AEEC0F0E926000EEA22E7CFEFFF60
:10729000D9500AEE80F0E926000EEA22EF6AD92AD8
:1072A0003F0ED964E7D74EDFF8EF05F09E00030EDE
:1072B00000019E25A36F000E9F21A46F000EA02148
:1072C000A56F000EA121A66FA30EE96E000EEA6E57
:1072D00025EC64F000C0BFF001C0C0F002C0C1F0F6
:1072E00003C0C2F0A251C36FEEEC5DF0610AD8A4F6
:1072F000D5D0A30EE96E000EEA6E25EC64F000C056
:10730000BFF001C0C0F002C0C1F003C0C2F0000174
:10731000A251C36FEEEC5DF06D0AD8A4BFD0A30EEE
:10732000E96E000EEA6E25EC64F000C0BFF001C00B
:10733000C0F002C0C1F003C0C2F00001A251C36F8F
:10734000EEEC5DF0620AD8A4A9D0A30EE96E000E9F
:10735000EA6E25EC64F000C0BFF001C0C0F002C0CE
:10736000C1F003C0C2F00001A251C36FEEEC5DF0AA
:10737000650AD8A493D0A30EE96E000EEA6E25EC40
:1073800064F000C0BFF001C0C0F002C0C1F003C093
:10739000C2F00001A251C36FEEEC5DF0720AD8A4F6
:1073A0007DD09EC0A7F09FC0A8F0A0C0A9F0A1C04A
:1073B000AAF00001A251AB6F14EC5FF000019E51E6
:1073C0000024046E9F510120056EA0510220066E1C
:1073D000A1510320076EFF0E0424A36FFF0E0520AA
:1073E000A46FFF0E0620A56FFF0E0720A66FA30E49
:1073F000E96E000EEA6E25EC64F000C0BFF001C03B
:10740000C0F002C0C1F003C0C2F0A251C36FEEECE5
:107410005DF06D0AD8A442D0A30EE96E000EEA6EAC
:1074200025EC64F000C0BFF001C0C0F002C0C1F0A4
:1074300003C0C2F00001A251C36FEEEC5DF0690A17
:10744000D8A42CD0A30EE96E000EEA6E25EC64F0F1
:1074500000C0BFF001C0C0F002C0C1F003C0C2F064
:107460000001A251C36FEEEC5DF06E0AD8A416D0F5
:10747000A30EE96E000EEA6E25EC64F000C0BFF0CA
:1074800001C0C0F002C0C1F003C0C2F00001A251AF
:10749000C36FEEEC5DF0640AD8B406D0000E006A4B
:1074A000016A026A036A11D0080E00019E25B16FBD
:1074B000000E9F21B26F000EA021B36F000EA1211C
:1074C000B46FA251B56F6FEC5EF0120069EC61F021
:1074D00000C09EF001C09FF002C0A0F003C0A1F068
:1074E000020E0001A26FE3DE00C015F001C016F02D
:1074F00002C017F003C018F0120000011551161158
:1075000017111811D8B423D069EC61F00C0E0024C7
:107510000001BF6F000E0120C06F000E0220C16F7E
:10752000000E0320C26F020EC36FEEEC5DF0006E22
:10753000016A00BE01060050D8B409D000011951FB
:107540001A111B111C11D8B447EC33F06BDE12007A
:1075500052EC61F06A0E00240001BF6F000E0120A2
:10756000C06F000E0220C16F000E0320C26F020E1A
:10757000C36FEEEC5DF0006E016A00BE01060150C3
:107580000010D8B40AD00001196B1A6B1B6B1C6B6E
:10759000156B166B176B186B2CD058EC61F000C094
:1075A0009EF001C09FF002C0A0F003C0A1F0020E47
:1075B0000001A26F7CDE00C019F001C01AF002C009
:1075C0001BF003C01CF069EC61F000C09EF001C02C
:1075D0009FF002C0A0F003C0A1F0020E0001A26F54
:1075E00066DE00C015F001C016F002C017F003C03F
:1075F00018F0000119511A111B111C11D8A406D042
:107600001551161117111811D8A440D00001191DD9
:10761000FF0ED8B41A19FF0ED8B41B197F0ED8B4B8
:107620001C19D8A406D01551161117111811D8A479
:107630002DD0000119511A111B111C11D8B430D0D2
:1076400015511611171118110001D8B42AD0151DA3
:10765000FF0ED8B41619FF0ED8B417197F0ED8B480
:1076600018190001D8B41DD019C000F01551005EE2
:107670001AC001F01651015A1BC002F01751025AEC
:107680001CC003F01851035A03AE0AD015C019F0FC
:1076900016C01AF017C01BF018C01CF07AEC61F08D
:1076A0000001156B166B176B186B47DCD96AD95044
:1076B0001AEE80F0E126000EE222E76AD9500AEEC7
:1076C000C0F0E926000EEA22E7CFEFFFD92A3F0EED
:1076D000D964EDD7000119511A111B111C11D8A43E
:1076E00031DD000E006A016A026A036A1200D96E77
:1076F0000A017F077FCAE8FF0CEE00F0E926000EC2
:10770000EA2210C000F0016A0050EF6E7F077FCAC6
:10771000E8FF0CEE00F0E926000EEA220FC0EFFFB2
:107720007F077FCAE8FF0CEE00F0E926000EEA2290
:1077300067CAEFFF7F077FCAE8FF0CEE00F0E9267B
:10774000000EEA2268CAEFFF7F077FCAE8FF0CEE4F
:1077500000F0E926000EEA226DCA00F0D890D93474
:10776000016E00500124EF6ED950020D1D0EF3245E
:10777000E96E000EF420EA6EEECF00F0EDCF01F0DE
:1077800000C00FF001C010F0120058EC61F000C012
:10779000A5F001C0A6F002C0A7F003C0A8F00FC07A
:1077A00000F010C001F000010050A525BF6F01508E
:1077B000A621C06F000EA721C16F000EA821C26FC5
:1077C000020EC36FEEEC5DF000019D6B9E6B9F6B34
:1077D000A06B0A016F53D8B405D00A01010E6F07E0
:1077E0008EEF48F004000FC000F010C001F000015F
:1077F0000050A525046E0150A621056E000EA7219C
:10780000066E000EA821076E08C2E8FF045CA16F97
:1078100009C2E8FF0558A26F0AC2E8FF0658A36F25
:107820000BC2E8FF0758A46FA4BF39D0040EA125EE
:10783000006E000EA221016E000EA321026E000E4A
:10784000A421036E0350800A800F08E1000E025C41
:1078500005E1010E015C02E1010E005CD8B01FD011
:1078600002EE1CF0EECF00F0EDCF01F00001A151CF
:107870000026A2510122D00E0024E16E040E012048
:10788000E26EE6CF69FAE6CF6AFAE6CF6BFAE6CFA8
:107890006CFA00010F2B000E102362EF48F000017C
:1078A0000FC000F010C001F000280F6F02E10128A6
:1078B000106F00010050A525BF6F0150A621C06FB9
:1078C000000EA721C16F000EA821C26F020EC36F68
:1078D000EEEC5DF0E8CF69FA0FC000F010C001F0E7
:1078E00000010050A525BF6F0150A621C06F000EFA
:1078F000A721C16F000EA821C26F020EC36FEEEC6C
:107900005DF0E8CF6AFA0FC000F010C001F000018E
:107910000050A525046E0150A621056E000EA7217A
:10792000066E000EA821076E0428BF6F000E05200A
:10793000C06F000E0620C16F000E0720C26F020E3E
:10794000C36FEEEC5DF0E8CF6BFA0FC000F010C033
:1079500001F000010050A525046E0150A621056E1E
:10796000000EA721066E000EA821076E020E042449
:10797000BF6F000E0520C06F000E0620C16F000E05
:107980000720C26F020EC36FEEEC5DF0E8CF6CFA19
:1079900062EF48F000010F2B000E102369CAE8FFC8
:1079A0000F0B0AEE70F0E926000EEA226ACAEFFF1A
:1079B0006ACA67FA12D000010F2B000E102369CAA1
:1079C000E8FF0F0B0AEE70F0E926000EEA226ACA01
:1079D000E8FFEF26EF50E8CF67FA0A01686B7BEF0C
:1079E00048F000010F2B000E102369CAE8FF0F0BAF
:1079F0000AEE70F0E926000EEA226ACAE8FFC3D256
:107A000000010F2B000E102369CAE8FF0F0B0AEECE
:107A100070F0E926000EEA226ACAE8FFF7D20001F8
:107A20000F2B000E102369CAE8FF0F0B0AEE70F04F
:107A3000E926000EEA226ACAE8FF02D300010F2BF2
:107A4000000E10236ACAE8FF0BEE00F0E926000ED4
:107A5000EA2269CAE8FF5CD200010F2B000E102356
:107A600069CAE8FF0F0B1AEE70F0E126000EE22261
:107A70006ACAE8FFD1EF41F07BEF48F000011551F1
:107A8000161117111811D8B47BEF48F012EC39F029
:107A90008EEF48F00AEE7FF0EF50EF2A0CEE00F088
:107AA000E926000EEA22EFCF6DFA0A01010E6D17EA
:107AB0000AEE7FF0EF50EF2A0CEE00F0E926000E00
:107AC000EA22EFCF68FA0AEE7FF0EF50EF2A0CEED1
:107AD00000F0E926000EEA22EFCF67FAA8EF44F0A3
:107AE0000A016D6B7BEF48F0010EE8CF6DFA7BEF7A
:107AF00048F000010F2B000E10236ACA00F0003876
:107B00000F0B0AEE70F0E926000EEA22EF50006E2D
:107B1000016A00BE01060050F36EF46A6ACAE8FF0B
:107B20000F0B0AEE70F0E926000EEA22EF50006E0D
:107B3000016A00BE01060050F66EF76A6DCAE8FFE2
:107B4000F624006E000EF720016E0050F32601505F
:107B5000F42230D000010F2B000E10236ACA00F06F
:107B600000380F0B0AEE70F0E926000EEA22EF5003
:107B7000006E016A00BE01060050F36EF46A6ACA24
:107B8000E8FF0F0B0AEE70F0E926000EEA22EF5034
:107B9000006E016A00BE01060050F66EF76A6DCAFB
:107BA000E8FFF624006E000EF720016E0050F35E31
:107BB0000150F45A6ACA00F000380F0B0AEE70F058
:107BC000E926000EEA22F3CFEFFFF3CF67FAF45075
:107BD000F36EF46AF350010BE8CF6DFAFED60001A4
:107BE0000F2B000E10236ACA00F000380F0B0AEEAC
:107BF00070F0E926000EEA22EF50006E016A00BE26
:107C0000010600C001F0006A6ACAE8FF0F0B0AEE25
:107C100070F0E926000EEA22EF50026E036A02BEFF
:107C2000030602500024026E000E0120036E02289B
:107C3000F36E000E2CD000010F2B000E10236ACA29
:107C400000F000380F0B0AEE70F0E926000EEA2271
:107C5000EF50006E016A00BE010600C001F0006A2C
:107C60006ACAE8FF0F0B0AEE70F0E926000EEA225E
:107C7000EF50026E036A02BE030602500024026E39
:107C8000000E0120036EFF0E0224F36EFF0E032090
:107C9000F46E6ACAE8FF0F0B0AEE70F0E926000ED8
:107CA000EA22F3CFEFFFF3CF67FAF450F36EF46AF2
:107CB0006ACA00F000380F0B0AEE70F0E926000ED9
:107CC000EA22F3CFEFFFF3504FD000010F2B000E4D
:107CD00010236ACA00F000380F0B0AEE70F0E92694
:107CE000000EEA22EF50006E016A00BE010600504D
:107CF000F66EF76A6ACAE8FF0F0B0AEE70F0E92623
:107D0000000EEA22EF50006E016A00BE010600502C
:107D10000001996F9A6B99C002F09AC003F0F6CFF8
:107D200000F0F7CF01F033EC64F004C0F6FF05C0BB
:107D3000F7FF6ACAE8FF0F0B0AEE70F0E926000EA3
:107D4000EA22F6CFEFFFF6CF67FAF750F66EF76A42
:107D50006ACA00F000380F0B0AEE70F0E926000E38
:107D6000EA22F6CFEFFFF6500A01671336D600017C
:107D70000F2B000E10236ACAE8FF0F0B0AEE70F0FB
:107D8000E926000EEA22EF500F0B020D1D0EF32420
:107D9000E96E000EF420EA6EEE6AED6A7BEF48F0C1
:107DA00000010F2B000E10236ACAE8FF0F0B0AEE2A
:107DB00070F0E926000EEA22EF500F0B98DC7BEF03
:107DC00048F000010F2B000E10236ACAE8FF0F0BCA
:107DD0000AEE70F0E926000EEA22B8C4EFFF7BEF4E
:107DE00048F000010F2B000E10236ACAE8FF0F0BAA
:107DF0000AEE70F0E926000EEA22EFCF6FFA7BEF71
:107E000048F000010F2B000E10236ACA6FFA7BEFB7
:107E100048F000010F2B000E102382EC61F0006E81
:107E20006ACAE8FF14D300010F2B000E10236ACAA0
:107E3000E8FF0F0B0AEE70F0E926000EEA22EF06CB
:107E4000C9D500010F2B000E10236ACAE8FF0F0BE3
:107E50000AEE70F0E926000EEA22EF2ABBD50001F7
:107E60000F2B000E10236ACAE8FF0F0B0AEE70F00A
:107E7000E926000EEA2233D000010F2B000E10235A
:107E80006ACAE8FF0F0B0AEE70F0E926000EEA223C
:107E9000EFCF6CFA6ACAE8FF0F0B0AEE70F0E92622
:107EA000000EEA226CCAE8FF000819D000010F2B6F
:107EB000000E10236ACAE8FF0F0B0AEE70F0E926E5
:107EC000000EEA22EFCF6CFA6ACAE8FF0F0B0AEE47
:107ED00070F0E926000EEA226CCAE8FFFF0AEF6E96
:107EE00079D500010F2B000E10236ACAE8FF0F0B93
:107EF0000FD100010F2B000E10236ACAE8FF0F0BF1
:107F00000AEE70F0E926000EEA226ACA00F0003894
:107F10000F0B1AEE70F0E126000EE222EFCFE7FF22
:107F2000E75059D500010F2B000E10236ACAE8FF55
:107F30000F0B0AEE70F0E926000EEA22EF50006EF9
:107F40006ACA01F001380F0B0AEE70F0E926000E44
:107F5000EA2200503ED500010F2B000E10236ACA02
:107F6000E8FF0F0B0AEE70F0E926000EEA22EF5050
:107F7000006E6ACA01F001380F0B0AEE70F0E926B4
:107F8000000EEA220050EF5E25D500010F2B000EF7
:107F900010236ACA00F000380F0B0AEE70F0E926D1
:107FA000000EEA22EF50D96E6ACAE8FF0F0B0AEE04
:107FB00070F0E926000EEA22EF50D902F350D96E94
:107FC0006ACA00F000380F0B0AEE70F0E926000EC6
:107FD000EA22D9CFEFFFD9CF67FAFFD400010F2BE8
:107FE000000E10236ACAE8FF0F0B0AEE70F0E926B4
:107FF000000EEA22EF50006E6ACA01F001380F0B42
:108000000AEE70F0E926000EEA220050EF16E2D4E4
:1080100000010F2B000E10236ACAE8FF0F0B0AEEB7
:1080200070F0E926000EEA22EF50006E6ACA01F0F5
:1080300001380F0B0AEE70F0E926000EEA2200501C
:10804000EF12C8D400010F2B000E10236ACAE8FFFC
:108050000F0B0AEE70F0E926000EEA22EF50006ED8
:108060006ACA01F001380F0B0AEE70F0E926000E23
:10807000EA220050EF1AAED400010F2B000E10239D
:108080006ACAE8FF0F0B0AEE70F0E926000EEA223A
:10809000EF50006E6ACA01F001380F0B0AEE70F063
:1080A000E926000EEA22002802D0D890EF36E82E0A
:1080B000FCD790D400010F2B000E10236ACA00F0E9
:1080C00000380F0BE8CF6CFA6ACAE8FF0F0B0AEE14
:1080D00070F0E926000EEA22EFCF6BFA0A016B0777
:1080E0006B29D8B4BAD06CCAE8FF1AEE70F0E1265A
:1080F000000EE2226CCAE8FF0AEE70F0E926000EDC
:10810000EA22EF50006E003400307F0BE76EE6D7B6
:108110000AEE70F0E926000EEA225CD400010F2B73
:10812000000E10236ACAE8FF0F0B0AEE70F0E92672
:10813000000EEA22EF50006E6ACA01F001380F0B00
:108140000AEE70F0E926000EEA220028016E02D045
:10815000EF34EF32012EFCD73DD400010F2B000E7F
:1081600010236ACA00F000380F0BE8CF6CFA6ACA15
:10817000E8FF0F0B0AEE70F0E926000EEA22EFCFBF
:108180006BFA0A016B076B29D8B467D06CCAE8FF99
:108190001AEE70F0E126000EE2226CCAE8FF0AEE49
:1081A00070F0E926000EEA22EF50026E6CCAE8FF7A
:1081B0000AEE70F0E926000EEA22EF50006E070E7C
:1081C000016E00340032012EFCD700300234E76E1D
:1081D000D8D700010F2B000E10236ACA00F0003818
:1081E0000F0BE8CF6CFA6ACAE8FF0F0B0AEE70F0CB
:1081F000E926000EEA22EFCF6BFA0A016B076B2922
:10820000D8B42BD06CCAE8FF1AEE70F0E126000E4D
:10821000E2226CCAE8FF0AEE70F0E926000EEA22BC
:10822000EF50006E070E016ED8900036012EFCD77D
:108230006CCAE8FF0AEE70F0E926000EEA22EF5061
:10824000016E010E026E01340132022EFCD77F0E48
:10825000011600500110E76ED0D76CCAE8FF58D75E
:1082600000010F2B000E10236ACA00F000380F0B1C
:108270000AEE70F0E926000EEA22EFCF67FA6ACA2A
:10828000E8FF0F0B0AEE70F0E926000EEA22EFCFAE
:1082900068FA7BEF48F000010F2B000E10236ACA2A
:1082A000E8FF0F0B0AEE70F0E926000EEA22EF500D
:1082B000006E6ACA01F001380F0B0AEE70F0E92671
:1082C000000EEA22EF50016E0014EBEF3CF00001CB
:1082D0000F2B000E10236ACAE8FF0F0B0AEE70F096
:1082E000E926000EEA22EF501BEE00F07CEF45F08D
:1082F0000001020E0F27000E10236BCA00F06ACA9D
:10830000E8FF0F0B0AEE70F0E926000EEA22EF50AC
:10831000016E00500124E8CF6CFA6CCAE8FF0BEE46
:1083200000F0F0D500010F2B000E10236ACA00F0F8
:1083300000380F0B0AEE70F0E926000EEA226ACA36
:10834000E8FF0F0B1AEE70F0E126000EE222E75074
:108350001BEE00F0E126000EE222EFCFE7FF7BEFFD
:1083600048F00001020E0F27000E10236BCA00F028
:108370006ACAE8FF0F0B0AEE70F0E926000EEA2247
:10838000EF50016E00500124E8CF6CFA6ACA00F089
:1083900000380F0B1AEE70F0E126000EE2226CCAD4
:1083A000E8FF0BEE00F0E926000EEA22E7CFEFFF30
:1083B0007BEF48F00001030E0F27000E10236ACA5E
:1083C000E8FF0F0B0AEE70F0E926000EEA22EF50EC
:1083D000006E016A00BE0106005000019B6F9C6B9D
:1083E0006CCA00F09B510024046E9C51056ED8B0FD
:1083F000053ED890066AD8B0062A076A6BCA01F013
:10840000006A000E01BEFF0E026E036E00500424CF
:10841000086E01500520096E025006200A6E0350B6
:1084200007200B6EA5510824BF6FA6510920C06F0D
:10843000A7510A20C16FA8510B20C26F030EC36F52
:10844000EEEC5DF0006E6ACA01F001380F0B0AEE27
:1084500070F0E926000EEA2200C0EFFFEAEF3CF0E0
:108460000001030E0F27000E102374CA00F0016AEA
:1084700000BE0106005073CA00F0016A00BE01068A
:1084800000C001F0006A002400019B6F000E012073
:108490009C6F6BCA01F0006A9B510024046E01506E
:1084A000056E9C51D8B09C3D0526066AD8B0062AB8
:1084B00001BE0606076A06BE07066CCAE8FF04246A
:1084C000006E000E0520016E000E0620026E000EEA
:1084D0000720036EA5510024BF6FA6510120C06F75
:1084E000A7510220C16FA8510320C26F030EC36FB2
:1084F000EEEC5DF088EF47F00001030E0F27000E51
:1085000010236BCA01F06CCA00F06ACAE8FF0F0BB7
:108510000AEE70F0E926000EEA22EF500F0B020D72
:108520001D0EF324E96E000EF420EA6E00C0EEFF8B
:1085300001C0EDFF7BEF48F00AEE7FF0EF50EF2A2D
:108540000CEE00F0E926000EEA22EFCF6DFA0A01E8
:10855000010E6D170AEE7FF0EF50EF2A0CEE00F0DF
:10856000E926000EEA22EFCF68FA0AEE7FF0EF501C
:10857000EF2A0CEE00F0E926000EEA22EFCF67FAB0
:108580000A01020E7F27DFD10001020E0F27000E25
:10859000102368CAE8FF0A0167637BEF48F0D3D174
:1085A0000001020E0F27000E102367CAE8FF0A0120
:1085B0006819D8B47BEF48F0C6D10001020E0F272E
:1085C000000E102368CAE8FF800A006E67CAE8FF41
:1085D0001CD00001020E0F27000E102367CAE8FF0F
:1085E000800A006E68CAE8FF800A005CD8A07BEFB2
:1085F00048F0A9D10001020E0F27000E102367CA10
:10860000E8FF800A006E68CAE8FF800A005CD8B004
:108610007BEF48F098D10001020E0F27000E1023C7
:1086200068CAE8FF800A006E67CAE8FFDDD700016C
:10863000020E0F27000E102367CAE8FF0A016861C7
:108640007BEF48F080D10001020E0F27000E1023AF
:1086500068CAE8FF0A01675DC9D70001020E0F274B
:10866000000E102368CAE8FF0A0167617BEF48F03B
:108670006AD10001020E0F27000E102367CAE8FF1F
:108680000A01685DB3D700010F2B000E10236ACAE0
:1086900000F000380F0B0AEE70F0E926000EEA2217
:1086A000EFCF6CFA0A016C516C256C276ACAE8FF9F
:1086B0000F0B0AEE70F0E926000EEA22EFCF6BFAFC
:1086C00070CAABF06BCAACF06CCAE8FFF2EC04F015
:1086D00071CAABF06BCAACF00A016C29F2EC04F081
:1086E00072CAABF06BCAACF06CCAE8FF020FF2ECD6
:1086F00004F07BEF48F000010F2B000E10236ACA34
:1087000000F000380F0B0AEE70F0E926000EEA22A6
:10871000EF500F0BE8CF6CFA6ACAE8FF0F0B0AEEB6
:1087200070F0E926000EEA22EFCF6BFA6CCAE8FF80
:108730000F0AD8A40CD06BCA70FA6BCA00F0D8909C
:108740000030E8CF71FA0A01726B7BEF48F00A0142
:108750006CB702D0006A05D06BCA00F0D890003028
:10876000006E016A00C072FA72CA71FA71CA70FAB8
:108770000A016CB16BCA70FA6CB36BCA71FA6CB552
:108780006BCA72FA7BEF48F00001010E50EF48F01F
:108790000001020E0F27000E10230A016C6B1BD084
:1087A0000A016BA112D06CCAE8FF0AEE70F0E9264C
:1087B000000EEA220A017F077FCAE8FF1CEE00F0E4
:1087C000E126000EE222EFCFE7FF0AEE6BF0D89031
:1087D000EF320A016C2B070E0A016C65E1D76C6B56
:1087E0001BD00A016AA112D06CCAE8FF0AEE78F029
:1087F000E926000EEA220A017F077FCAE8FF1CEE85
:1088000000F0E126000EE222EFCFE7FF0AEE6AF069
:10881000D890EF320A016C2B060E0A016C65E1D785
:108820000A016AA17BEF48F00A017F077FCAE8FFCF
:108830000CEE00F0E926000EEA226DCAEFFF7BEF96
:1088400048F00001020E0F27000E10230A016AAF44
:108850000BD00AEE7FF0EF50EF2A0CEE00F0E92685
:10886000000EEA22EFCF6DFA0A016C6B22D00A01EA
:108870006AAD19D00AEE7FF0EF50EF2A1CEE00F03F
:10888000E126000EE2220E0E006E016A6CCAE8FFBD
:10889000005E000E015A700E0024E96E0A0E0120DF
:1088A000EA6EE7CFEFFF0AEE6AF0D890EF360A01E2
:1088B0006C2B060E0A016C65DAD76C6B22D00A01AC
:1088C0006BAF19D00AEE7FF0EF50EF2A1CEE00F0EC
:1088D000E126000EE222070E006E016A6CCAE8FF74
:1088E000005E000E015A700E0024E96E0A0E01208F
:1088F000EA6EE7CFEFFF0AEE6BF0D890EF360A0191
:108900006C2B070E0A016C65DAD7F5D30001020E55
:108910000F27000E10230A017F077FCAE8FF0CEE25
:1089200000F0E926000EEA2210C000F0016A0050B3
:10893000EF6E7F077FCAE8FF0CEE00F0E926000E1D
:10894000EA220FC0EFFF6ACA10F06BCA0FF0D3D350
:108950000068016A0AEE7FF0EF50EF2A0CEE00F09B
:10896000E926000EEA22EF50026E036A02BE0306F9
:1089700000500214E8CF0FF001500314E8CF10F0BC
:108980000AEE7FF0EF50EF2A0CEE00F0E926000E21
:10899000EA22EF5000011027AED300010F2B000E8A
:1089A00010236ACAE8FF0F0B0AEE70F0E926000EEA
:1089B000EA22EF500001AB6F6ACA00F000380F0BDB
:1089C0000AEE70F0E926000EEA22EF507CEC00F08F
:1089D00092D300010F2B000E10230001AB6B6ACA6B
:1089E000E8FF0F0B0AEE70F0E926000EEA22EF50C6
:1089F000C3EC00F080D3B4EC00F07DD300010F2B6A
:108A0000000E10230001AB6B6ACAE8FF0F0B0AEEE1
:108A100070F0E926000EEA22EF50F5EC01F06BD37E
:108A2000E6EC01F068D300010F2B000E1023FCECE4
:108A300005F006D000010F2B000E102380EC06F08D
:108A400000C09BF001C09CF06ACAE8FF0F0B0AEE61
:108A500070F0E926000EEA229BC0EFFF00019C5156
:108A60009B6F9C6B6ACA00F000380F0B0AEE70F027
:108A7000E926000EEA229BC0EFFF3DD300010F2B39
:108A8000000E1023AAEC63F019D200010F2B000E88
:108A900010236ACAE8FF0F0B0AEE70F0E926000EF9
:108AA000EA22EF509AEC00F026D300010F2B000EC3
:108AB00010236ACAE8FF0F0B0AEE70F0E926000ED9
:108AC000EA22EF509DEC00F016D300010F2B000EB0
:108AD0001023A7EC63F0F2D100010F2B000E10233E
:108AE0006ACAE8FF0F0B0AEE70F0E926000EEA22D0
:108AF000EF503F0B1AEEC0F0E126000EE2226ACAE8
:108B000000F000380F0B0AEE70F0E926000EEA22A2
:108B1000E7CFEFFFEAEF3CF06BCA00F0016A070E07
:108B2000D89000360136E82EFBD76ACAE8FF0F0B53
:108B30000AEE70F0E926000EEA22EF50026E0050B5
:108B40000224F66E000E02BEFF0E0120F76ED890D2
:108B5000F634006EF734016E6CCAE8FF00240001A1
:108B60009B6F000E01209C6F9B51A525006E9C51B0
:108B7000A621016E000EA721026E000EA821036E31
:108B80000028BF6F000E0120C06F000E0220C16FD1
:108B9000000E0320C26F030EC36FEEEC5DF0000108
:108BA000A96FAA6BA9BFAA07AA6B9B51A525BF6F86
:108BB0009C51A621C06F000EA721C16F000EA821F5
:108BC000C26F030EC36FEEEC5DF076D00001030EB2
:108BD0000F27000E10230A017F077FCAE8FF0CEE63
:108BE00000F0E926000EEA2210C000F0016A0050F1
:108BF000EF6E7F077FCAE8FF0CEE00F0E926000E5B
:108C0000EA220FC0EFFF6BCA00F0016A070ED8908E
:108C100000360136E82EFBD76ACAE8FF0F0B0AEED2
:108C200070F0E926000EEA22EF50026E0050022496
:108C3000F66E000E02BEFF0E0120F76ED890F634DD
:108C4000006EF734016E6CCAE8FF002400019B6FD0
:108C5000000E01209C6F9B51A525006E9C51A62102
:108C6000016E000EA721026E000EA821036E0028DF
:108C7000BF6F000E0120C06F000E0220C16F000EFA
:108C80000320C26F030EC36FEEEC5DF00001A96F0D
:108C9000AA6BA9BFAA07AA6B9B51A525BF6F9C51C0
:108CA000A621C06F000EA721C16F000EA821C26FC0
:108CB000030EC36FEEEC5DF0006E016A00BE0106AC
:108CC00000C001F0006A00010050A925E8CF0FF0B4
:108CD0000150AA21E8CF10F00ED200010F2B000E98
:108CE00010236ACAE8FF0F0B0AEE70F0E926000EA7
:108CF000EA22EFCF67FA67CA00F000340030600B59
:108D0000E8CF68FA0A016853D8A403D067CAE8FF1D
:108D10001CD068CAE8FF200AD8A40BD067CAE8FFB5
:108D20007F0802EEE9F0E926000EEA22EF50FF0884
:108D300012D068CAE8FF400AD8A404D067CAE8FF86
:108D4000800FEFD767CAE8FFFF0802EEE9F0E926D7
:108D5000000EEA22EF50E8CF67FA6ACA00F0003846
:108D60000F0B0AEE70F0E926000EEA2267CAEFFF49
:108D7000EDEF3CF000010F2B000E10236ACAE8FF54
:108D80000F0B0AEE70F0E926000EEA22EF50020DFA
:108D9000000EF324E96E0D0EF420EA6EEECFF6FF1E
:108DA000EDCFF7FF6ACAE8FF0F0B0AEE70F0E92675
:108DB000000EEA22F6CFEFFFF750F66EF76A6ACAA6
:108DC00000F000380F0B0AEE70F0E926000EEA22E0
:108DD000F6CFEFFF90D100010F2B000E10236ACACF
:108DE000E8FF0F0B0AEE70F0E926000EEA22EF50C2
:108DF000D96E020ED9600AD06ACAE8FF0F0B0AEEDC
:108E000070F0E926000EEA22EF6E75D16ACA00F012
:108E100000380F0B0AEE70F0E926000EEA22EF5040
:108E2000006E016A00BE01060050F36EF46AF35052
:108E3000F46EF36AD9CF02F0036AF3CF00F0F4CFF7
:108E400001F04AEC63F004C0F3FF05C0F4FF6ACA06
:108E5000E8FF0F0B0AEE70F0E926000EEA22F3CFCE
:108E6000EFFFF450F36EF46A6ACA00F000380F0B9B
:108E70000AEE70F0E926000EEA22F3CFEFFF3BD1B5
:108E8000E1EC37F038D100010F2B000E10236ACA35
:108E9000E8FF0F0B0AEE70F0E926000EEA22EF5011
:108EA00027EC30F0006E6ACA01F001380F0B09D0D0
:108EB00000010F2B000E1023A0EC00F0006E6ACA18
:108EC000E8FF0F0B0AEE70F0E926000EEA2200C060
:108ED000EFFF11D100010F2B000E1023F6EC5CF018
:108EE000D8900034026E0901D053D8A402D0000EED
:108EF00001D0040E006E025000260001155116111B
:108F000017111811000ED8A4010E016E0150002493
:108F1000006E6ACAE8FF26EF42F000010F2B000E38
:108F200010236ACAE8FF0F0B0AEE70F0E926000E64
:108F3000EA22B8C4E8FF010967D700010F2B000E31
:108F400010236ACAE8FF0F0B0AEE70F0E926000E44
:108F5000EA22EF500001AB6F6ACA00F000380F0B35
:108F60000AEE70F0E926000EEA22EF5029EC55F0E7
:108F7000C2D000010F2B000E10236ACAE8FF0F0BAE
:108F80000AEE70F0E926000EEA22DBC9EFFFDBC92A
:108F900067FAEDEF3CF000010F2B000E10230901E2
:108FA000D553D8B41FD080EC06F03AC2E8FF005C7D
:108FB000046E3BC2E8FF0158056E3CC2E8FF025850
:108FC000066E3DC2E8FF0358076E04280001A16F3A
:108FD000000E0520A26F000E0620A36F000E0720D2
:108FE000A46F05D00001A16BA26BA36BA46B000161
:108FF000A451800A800F08E1010EA35D05E1000E77
:10900000A25D02E1000EA15DD8A004D0A169A26911
:10901000A36BA46BA1C0F3FFA2C0F4FFF450F31044
:10902000000ED8A4010EE8CF67FA6ACAE8FF0F0B5A
:109030000AEE70F0E926000EEA22F3CFEFFFF450BB
:10904000F36EF46A6ACA00F000380F0B0AEE70F093
:10905000E926000EEA22F3CFEFFFEDEF3CF00FC060
:1090600000F010C001F000010050A525B16F0150C3
:10907000A621B26F000EA721B36F000EA821B46F16
:10908000020EB56F6FEC5EF000C0ABF001C0ACF04B
:1090900002C0ADF003C0AEF03CEC55F00001040E90
:1090A0000F27000E102327D0000139513A11D8B4F0
:1090B00006D069CA70FA0E0E77EC3BF02FD0A2EC06
:1090C00038F02CD069CAF6FFC80EF660EDD7F6501E
:1090D000030DFF0EF324F66E1C0EF420F76EF86AF3
:1090E000000EF8220900F5500900F5CFFAFF08003C
:1090F000F5CFFBFFF96E00019D2B000E9E239F23F1
:10910000A023A05D08E10F0E9F5D05E1420E9E5D6C
:1091100002E1400E9D5DD8A0E9EF3BF01200000196
:1091200019511A111B111C11D8A49ED00DB603D0D1
:109130000001976B1BD00101685169116A116B1115
:10914000D8A402D0010E10D00101885189118A11D2
:109150008B11D8A402D0020E07D00901D553D8A490
:1091600002D0030E01D0040E0001976FFCEC05F055
:1091700001A003D00001966B03D0010E0001966F91
:109180000001986B00019851975DD8A00FD09751BE
:10919000985DD8A008D09651000E006ED8A407D0D4
:1091A000016E000E07D0006AFF0EFAD7006A600E4B
:1091B000016EFF0E026E036A00C099F001C09AF0C2
:1091C00002C09BF003C09CF0020E9D6F982976ECC4
:1091D00005F00001982B020E9865D4D797650ED044
:1091E0009651D8A40BD0040E976103D0000E006AEC
:1091F00002D0006AFF0E016E000E04D0006A600EFD
:10920000016EFF0E026E036A00C099F001C09AF071
:1092100002C09BF003C09CF0020E9D6F040E76EC22
:1092200005F000019651000E006ED8A402D0016A2C
:1092300003D0600E016EFF0E026E036A00C099F04B
:1092400001C09AF002C09BF003C09CF0020E9D6F1B
:10925000000E76EC05F000011551161117111811CA
:10926000D8A412EC39F029D084EC63F00001986F97
:109270009829D8B410D09851020D1D0EF324E96E30
:10928000000EF420EA6EEE50ED10D8B404D00001C8
:10929000985177EC3BF00A016E076E53D8A40BD0BF
:1092A000140EE8CF6EFA00013B513C11D8B403D044
:1092B0000F0E77EC3BF0C5EC3BF01200FF0EE8CF51
:1092C0004EF2E8CF4FF20401316B1200D96E2F0E2F
:1092D000D96406D03A0ED96003D0D950D00F13D03C
:1092E000400ED96406D0470ED96003D0D950C90FBB
:1092F0000AD0600ED96406D0670ED96003D0D95069
:10930000A90F01D0000E1200D96E0A0ED96003D049
:10931000D950300F02D0D950370F12000001DD6F45
:109320004EC2DEF04FC2DFF091EC2FF00150001082
:10933000D8B40FD04EC2DEF04FC2DFF00001DD51D5
:10934000E06FA3EC2FF001500010D8B402D0000E53
:1093500019D0FCEC05F054C2E8FF005C046E55C265
:10936000E8FF0158056E56C2E8FF0258066E57C264
:10937000E8FF0358076E0750041005100610D8A424
:10938000CFD7010E1200D900D9C0F6FFDAC0F7FF1F
:109390000E0EF76403D00800F55005D0F6CFE9FFB4
:1093A000F7CFEAFFEF500009D8B419D00001D9C0B7
:1093B000F6FFDAC0F7FFD92B000EDA230E0EF764A2
:1093C00003D00800F55005D0F6CFE9FFF7CFEAFF4C
:1093D000EF50A4DF0009D8B4D7D7010E01D0000E9A
:1093E00012000001D96FD9390F0B8EDF97DF00090A
:1093F000D8B402D0010E05D00001D9510F0B84DF83
:109400008DDF1200D9000001DB6BDC6B0001270E41
:10941000DA5D100ED8B4D95DD8A008D0F00ED927E7
:10942000D80EDA23DC2B010EDB6FF0D7DB51DCC06A
:1094300000F0016A0026000E012201500010D8B48D
:1094400008D0DC51300F6ADF0001DC6FDC51D8A49A
:109450006FD00001DC6B0001030EDA5DE80ED8B4BA
:10946000D95DD8A008D0180ED927FC0EDA23DC2B42
:10947000010EDB6FF0D7DB51DCC000F0016A002683
:10948000000E012201500010D8B408D0DC51300F7A
:1094900045DF0001DC6FDC51D8A44AD00001DC6B51
:1094A0000001000EDA5D640ED8B4D95DD8A008D0F2
:1094B0009C0ED927FF0EDA23DC2B010EDB6FF0D7D1
:1094C000DB51DCC000F0016A0026000E01220150D1
:1094D0000010D8B408D0DC51300F20DF0001DC6F61
:1094E000DC51D8A425D00001DC6B0001000EDA5D50
:1094F0000A0ED8B4D95DD8A008D0F60ED927FF0E31
:10950000DA23DC2B010EDB6FF0D7DB51DCC000F07F
:10951000016A0026000E012201500010D8B40BD0C1
:10952000DC51300FFBDE0001DC6FDC51D8B403D01E
:109530000001DC5104D00001D951300FEFDE1200E0
:10954000FCEC05F0600E0024E8CF54F2EA0E012096
:10955000E8CF55F2000E0220E8CF56F2000E0320AD
:10956000E8CF57F2120002014F1DFF0ED8B44E197A
:10957000D8B406D04EC29EF04FC29FF089EC2FF0B7
:10958000500E0001976F986B53EC2FF000C04EF215
:1095900001C04FF202014F1DFF0ED8B44E19D8B4CE
:1095A00003D0010EE8CF31F41200CADF0201506B84
:1095B000516B526B536B04012F6B020EE8CF31F4E9
:1095C00012004EC29AF04FC29BF078EC2FF001507F
:1095D0000010D8A4EADF1200A5000001500ED96FD8
:1095E0001A0EDA6FD1DEA5C0D9F0A6C0DAF0CCDE53
:1095F00000012E0ED96F1B0E39EF4FF0A5000001B0
:10960000390ED96F1A0EDA6FBFDEA5C0D9F0A6C029
:10961000DAF0BADE0001290ED96F1B0E39EF4FF0D8
:10962000A8000001A60ED96F190EDA6FADDEA8C032
:10963000D9F0A9C0DAF0A8DE0001AF0ED96F190E7B
:1096400039EF4FF000012E0ED96F1B0E39EF4FF09E
:10965000A500A5C0A8F0A6C0A9F0E3DF0001840E14
:10966000D96F1A0EDA6F90DE0001A751610F56DE36
:109670000001200ED96F1B0EFCD300017E0ED96FA6
:109680001A0EDA6F81DEDED70001BC0ED96F190E1B
:10969000F0D3A5000001A66F9B0ED96F1A0EDA6FEA
:1096A00073DE0001A651610F39DE0001810ED96F12
:1096B0001A0EDA6F69DE0001EB0ED96F1A0EDA6F3F
:1096C00063DE0001A551D8B405D08B0ED96F140EFE
:1096D000DA6F5ADE0001590ED96F180EDA6F54DEB8
:1096E0000001BE0ED96F1A0EDA6F4EDE0001A551D1
:1096F000D8A405D08B0ED96F140EDA6F45DE0001A9
:10970000460ED96F180EDA6F3FDE0001170ED96FC3
:10971000160EAFD30001630ED96F1A0EDA6F34DE66
:109720000001210ED96F160EDA6F2EDEFCEC05F06B
:1097300000C09CF001C09DF002C09EF003C09FF0ED
:10974000FCEC05F000019C51005C046E9D51015839
:10975000056E9E510258066E9F510358076E000E0B
:10976000075C08E1000E065C05E1270E055C02E1DE
:10977000100E045CD8B006D0010EEDEC18F0000914
:10978000D8B4DED700019D0ED96F190EDA6FFCDD5B
:109790007BD7000E31EC5DF0040130530001D8B4EA
:1097A00008D01A0ED96F180EDA6FEEDDBEEC32F06B
:1097B00006D0A20ED96F160EDA6FE6DD65DF120055
:1097C00000018B0ED96F160EDA6FDEDD5DD7A500B6
:1097D0000001A76B0001A751A525E96E000EA62187
:1097E000EA6EEF50FEDD0001A72B050EA765F2D74C
:1097F0001200A500A50EE96E000EEA6E25EC64F0DD
:1098000000C0BFF001C0C0F002C0C1F003C0C2F090
:109810000001C36BEEEC5DF00001AA6FD890AA3195
:10982000A96F0C0EA96502D00D0EA96F0001AAA1A7
:1098300023D0AB6B0001A951AB5DD8B051D0000172
:10984000AB51D8B405D0BC0ED96F1A0EDA6F9CDDBF
:109850000001AB51A525BF6F000EA621C06F000E01
:10986000A721C16F000EA821C26FC36BEEEC5DF0A3
:10987000B8DD0001AB2BDED70001AB6B0001A951B5
:10988000AB5DD8B02DD00001AB51A525BF6F000E48
:10989000A621C06F000EA721C16F000EA821C26FC4
:1098A000C36BEEEC5DF00001AA6FAA513C0AD8A48C
:1098B00006D0B00ED96F1A0EDA6F66DD0ED0000139
:1098C000AA51220AD8A406D0A90ED96F1A0EDA6FAF
:1098D0005BDD03D00001AA5121DD0001AB2BCED707
:1098E0001200A5000001AA6B0001AA51A525BF6FB7
:1098F000000EA621C06F000EA721C16F000EA82187
:10990000C26FC36BEEEC5DF00001A96FAA51D8B431
:1099100006D01A0ED96F1B0EDA6F36DD04D00001A7
:10992000A951D8B40AD00001A951D96FDA6B6BDD07
:109930000001AA2B030EAA65D7D71200A5000001CB
:10994000AA6B05D00001A951E9DC0001AA2B1F0E6A
:109950000001AA6501D014D0AA51A525BF6F000E41
:10996000A621C06F000EA721C16F000EA821C26FF3
:10997000C36BEEEC5DF00001A96FA951D8A4E2D74A
:10998000120052EC61F000C09FF001C0A0F002C0D4
:10999000A1F003C0A2F000013A0ED96F1B0EDA6FDE
:1099A000F3DC0001B40EA56F160EA66F16DE0001E3
:1099B0005A0EA56F130EA66F22DE00015D0EA86F72
:1099C000140EA96F2EDE0001610EA56F030EA66FA7
:1099D000FFDE38DE0001360EA86F130EA96F21DE00
:1099E0009FC0A5F0A0C0A6F0A1C0A7F0A2C0A8F09B
:1099F000A6DF0001BC0ED96F1A0EDA6FC5DC200E8F
:109A000000019F25BF6F000EA021C06F000EA12195
:109A1000C16F000EA221C26FC36BEEEC5DF00001BE
:109A2000A36FA46BA3BFA407A3C0A4F0A36B210ED4
:109A30009F25BF6F000EA021C06F000EA121C16F36
:109A4000000EA221C26FC36BEEEC5DF0006E016AE6
:109A500000BE010600500001A3259D6F000EA42149
:109A60009E6F9E519D11D8B405D09DC0D9F09EC067
:109A7000DAF0C9DC6A0E00019F25BF6F000EA0213D
:109A8000C06F000EA121C16F000EA221C26FC36B77
:109A9000EEEC5DF0006E016A00BE010601500010A0
:109AA000D8A406D000011C0ED96F1B0EDA6F6CDC37
:109AB000C9DD00011F0EA86F140EA96FB2DD0001F1
:109AC000610EA56F0A0EA66F83DEBCDDFEC0A5F099
:109AD000FFC0A6F082DD0001FB0EA56F130EA66F7E
:109AE0008EDD0001D00EA56F130EA66F0A0EA76FB4
:109AF000B0DD3A0E00019F25A56F000EA021A66FD4
:109B0000000EA121A76F000EA221A86F18DF00018F
:109B10007E0ED96F1A0EDA6F37DC0001E50ED96FB1
:109B2000190EDA6F31DC8EDD5B0E00019F25BF6FF1
:109B3000000EA021C06F000EA121C16F000EA22156
:109B4000C26FC36BEEEC5DF000019C6F080EA86F56
:109B5000150EA96F66DD00019C51A56F0C0E9ADDF4
:109B600071DD0001C70EA56F140EA66F0D0EA76F55
:109B700070DD5C0E00019F25A56F000EA021A66F71
:109B8000000EA121A76F000EA221A86F33DE75DDA4
:109B90000001E40EA56F180EA66F1FDD5A0E00011E
:109BA0009F25BF6F000EA021C06F000EA121C16FC5
:109BB000000EA221C26FC36BEEEC5DF000019C6F42
:109BC000AE0EA86F130EA96F2CDD0001FB0ED96F2E
:109BD0001A0EDA6FC4EC49F000019C51D8A406D0EB
:109BE0008B0ED96F140EDA6FC4EC49F00001CE0E63
:109BF000D96F1A0EDA6FC4EC49F000019C51D8B449
:109C000006D08B0ED96F140EDA6FC4EC49F0000148
:109C1000FA0ED96F150EDA6FC4EC49F013DDFEC0F1
:109C2000A5F0FFC0A6F0D9DC0001650EA56F150EEA
:109C3000A66FD3DCFEC0A5F0FFC0A6F0CEDC00010D
:109C4000800EA56F130EA66FDADC290E00019F258A
:109C5000BF6F000EA021C06F000EA121C16F000ECA
:109C6000A221C26FC36BEEEC5DF000019C6F340E5D
:109C7000A86F150EA96FD5DC00019C51A56F050ECC
:109C800009DDE0DC00017D0EA56F180EA66FA5DCD6
:109C90000001B10EA56F140EA66F060EA76FD9DCDA
:109CA0002A0E00019F25A56F000EA021A66F000EB1
:109CB000A121A76F000EA221A86F14DEDEDC000137
:109CC000ED0EA56F120EA66F070EA76FC2DC2E0E4B
:109CD00000019F25A56F000EA021A66F000EA121F7
:109CE000A76F000EA221A86FFDDDC7DC0001100EDA
:109CF000A56F130EA66F080EA76FABDC320E000126
:109D00009F25A56F000EA021A66F000EA121A76FB1
:109D1000000EA221A86FE6DDB0DC0001950EA56F54
:109D2000140EA66F090EA76F94DC360E00019F2556
:109D3000A56F000EA021A66F000EA121A76F000E37
:109D4000A221A86FCFDD99DCFEC0A5F0FFC0A6F070
:109D500044DC0001D00EA56F120EA66F50DC220E5F
:109D600000019F25BF6F000EA021C06F000EA12132
:109D7000C16F000EA221C26FC36BEEEC5DF000015B
:109D80009C6FE10EA86F140EA96F4BDC00019C5173
:109D9000A56F020E7FDC56DC0001B10EA56F120E1E
:109DA000A66F030EA76F55DC230E00019F25A56F3C
:109DB000000EA021A66F000EA121A76F000EA22108
:109DC000A86F90DD5ADC270E00019F25BF6F000EA3
:109DD000A021C06F000EA121C16F000EA221C26F91
:109DE000C36BEEEC5DF00001A36FA46BA3BFA407EF
:109DF000A3C0A4F0A36B280E9F25BF6F000EA02167
:109E0000C06F000EA121C16F000EA221C26FC36BF3
:109E1000EEEC5DF0006E016A00BE0106005000012C
:109E2000A3259D6F000EA4219E6F960EA56F120EA6
:109E3000A66F040EA76F0DDC00019E519D11D8B4D2
:109E400006D09DC0D9F09EC0DAF003EC4AF015DCD4
:109E5000FEC0A5F0FFC0A6F0EDEC4AF00001650ED3
:109E6000A56F150EA66FEDEC4AF000016D0ED96FCF
:109E7000180EDA6FC4EF49F0A000D96A0001A56B93
:109E8000A5C000F0016A026A036A02EE53F00350B3
:109E9000ED5C08E10250ED5C05E10150ED5C02E192
:109EA0000050EF5CD8A057D002EE50F0A5C000F0F3
:109EB000016A026A036AEE50001808E1EE500118C8
:109EC00005E1EE50021802E1EE500318D8A402D0CA
:109ED0002E0E08D00001A55104EE32F0E926000E46
:109EE000EA22EF50E16E0001A52BE1502E0AD8A422
:109EF00019D0A0C0AEF0A1C0AFF0A2C0B0F0A3C016
:109F0000B1F0A02B000EA123A223A323D950B26F3E
:109F1000B36B70EC60F00001A407A451D8B420D05A
:109F2000D96AAED7D9500A0DE150F324D00FD96EBB
:109F3000A7D7A0C0AEF0A1C0AFF0A2C0B0F0A3C040
:109F4000B1F00001A02B000EA123A223A323B26B2A
:109F5000B36B70EC60F00001A407A429D8A4E9D782
:109F60001200A0000001A46BA56BAA6BAB6BAC6BDD
:109F7000AD6B02EE53F00001ED50AD5D08E1ED5028
:109F8000AC5D05E1ED50AB5D02E1EF50AA5DD8B0EC
:109F900025D0000104EE32F0AA51E926AB51EA22A5
:109FA000EF50006ED00FA66FA76BFF0EA723A86B14
:109FB000A96BAA2B000EAB23AC23AD230A0E026EB5
:109FC000036AA4C000F0A5C001F033EC64F0A65110
:109FD0000424A46FA7510520A56FCBD7A0C0AEF075
:109FE000A1C0AFF0A2C0B0F0A3C0B1F00001A02B9F
:109FF000000EA123A223A323A551B26FB36B70EC73
:10A0000060F0A0C0AEF0A1C0AFF0A2C0B0F0A3C09D
:10A01000B1F00001A451B26FB36B70EF60F0A0001B
:10A020000001A56B02EE53F0A5C000F0016A026AC0
:10A03000036AED50035C08E1ED50025C05E1ED5070
:10A04000015C02E1EF50005CD8B021D00001A451C6
:10A05000D8B433D0A0C0AEF0A1C0AFF0A2C0B0F071
:10A06000A3C0B1F00001A02B000EA123A223A323C3
:10A07000A55104EE32F0E926000EEA22EF50B26F4D
:10A08000B36B70EC60F00001A407A52BCBD70001E7
:10A09000A451D8B412D0A0C0AEF0A1C0AFF0A2C0FD
:10A0A000B0F0A3C0B1F00001A02B000EA123A223A9
:10A0B000A323B26BB36B70EC60F01200A00002013E
:10A0C0005051050A511152115311D8B407D05051B3
:10A0D0000D0A511152115311D8A44CD00001A46B98
:10A0E00002EE53F0A4C000F0016A026A036AED5068
:10A0F000035C08E1ED50025C05E1ED50015C02E11A
:10A10000EF50005CD8B026D00001A451A025006E0D
:10A11000000EA121016E000EA221026E000EA321ED
:10A12000036E0028AE6F000E0120AF6F000E0220FC
:10A13000B06F000E0320B16FA45104EE32F0E92697
:10A14000000EEA22EF50B26FB36B70EC60F00001CA
:10A15000A42BC6D7A0C0AEF0A1C0AFF0A2C0B0F093
:10A16000A3C0B1F00001A451A425B26FB36B70EC91
:10A1700060F0ACD0F36AD96A02EE53F0D9CF00F0A8
:10A18000016A026A036AED50035C08E1ED50025C6B
:10A1900005E1ED50015C02E1EF50005CD8B01BD04E
:10A1A000D95004EE32F0E926000EEA22EF503A0AC6
:10A1B000D8B40FD0D95004EE32F0E926000EEA22CE
:10A1C000F32AF30414EE32F0E126000EE222EFCF80
:10A1D000E7FFD92AD1D70A0EF36006D00201506BEF
:10A1E000516B526B536B0FD01A0EF36006D0020105
:10A1F000536B526B516B050E05D00201536B526BC2
:10A20000516B0D0E506F0001A46B02EE53F0A4C011
:10A2100000F0016A026A036AED50035C08E1ED5048
:10A22000025C05E1ED50015C02E1EF50005CD8B04A
:10A230003CD00001A451A425E16EA451A025006EDC
:10A24000000EA121016E000EA221026E000EA321BC
:10A25000036E0028AE6F000E0120AF6F000E0220CB
:10A26000B06F000E0320B16FE15004EE32F0E9262A
:10A27000000EEA22EF5066EC49F0016E013AF00E52
:10A280000116E15004EE33F0E926000EEA22EF5009
:10A2900066EC49F0006E015000240001B26FB36B10
:10A2A00070EC60F00001A42BB0D7A0C0AEF0A1C04C
:10A2B000AFF0A2C0B0F0A3C0B1F0D88050C200F09F
:10A2C00000340001B26FB36B70EC60F0120052EC1E
:10A2D00061F000C09CF001C09DF002C09EF003C080
:10A2E0009FF015D19CC0A0F09DC0A1F09EC0A2F02F
:10A2F0009FC0A3F0200E0001A46F92DE37D1200E84
:10A3000000019C25A06F000E9D21A16F000E9E21D3
:10A31000A26F000E9F21A36F25DE28D1220E00011F
:10A320009C25AE6F000E9D21AF6F000E9E21B06F79
:10A33000000E9F21B16F32C4E8FF310A000ED8B47D
:10A34000010EB26FB36B70EC60F010D1230E000100
:10A350009C25A06F000E9D21A16F000E9E21A26F73
:10A36000000E9F21A36F040EA46F87DDFFD0270E80
:10A3700000019C25A06F000E9D21A16F000E9E2163
:10A38000A26F000E9F21A36FEDDDF0D0290E00011A
:10A390009C25AE6F000E9D21AF6F000E9E21B06F09
:10A3A000000E9F21B16F32C4E8FF310A000ED8B40D
:10A3B000010EB26FB36B70EC60F0D8D02A0E0001C2
:10A3C0009C25A06F000E9D21A16F000E9E21A26F03
:10A3D000000E9F21A36F040EA46F4FDDC7D02E0E79
:10A3E00000019C25A06F000E9D21A16F000E9E21F3
:10A3F000A26F000E9F21A36F040EA46F3EDDB6D0A6
:10A40000320E00019C25A06F000E9D21A16F000E51
:10A410009E21A26F000E9F21A36F040EA46F2DDD5D
:10A42000A5D0360E00019C25A06F000E9D21A16FC6
:10A43000000E9E21A26F000E9F21A36F040EA46F39
:10A440001CDD94D03A0E00019C25A06F000E9D21CA
:10A45000A16F000E9E21A26F000E9F21A36F200E00
:10A46000A46FDEDD83D05A0E00019C25A06F000E84
:10A470009D21A16F000E9E21A26F000E9F21A36F50
:10A48000010EA46FFADC72D05B0E00019C25AE6F4A
:10A49000000E9D21AF6F000E9E21B06F000E9F2118
:10A4A000B16F32C4E8FF310A000ED8B4010EB26FAA
:10A4B000B36B70EC60F05AD05C0E00019C25A06F6D
:10A4C000000E9D21A16F000E9E21A26F000E9F2104
:10A4D000A36FF5DD4BD06A0E00019C25AE6F000E18
:10A4E0009D21AF6F000E9E21B06F000E9F21B16FB6
:10A4F00032C4E8FF300A000ED8A4010EB26FB36B6D
:10A5000070EC60F033D0010EE8CF30F42FD02EC4C1
:10A51000E8FF000A01E1E6D6010A01E1F0D6030AEC
:10A5200001E1FCD6010A01E111D7070A01E11FD7B9
:10A53000010A01E12BD7030A01E140D7010A01E139
:10A540004ED70F0A01E15CD7010A01E16AD7030A7D
:10A5500001E178D7010A87E0070A96E0010AACE03A
:10A560001D0AB9E0010ACEE0080ACDE01200FCECB9
:10A5700005F000C098F001C099F002C09AF003C045
:10A580009BF0000154C2E8FF985D006E55C2E8FFE1
:10A590009959016E56C2E8FF9A59026E57C2E8FFF8
:10A5A0009B59036E03BE70D14DD1A0EC4AF004005C
:10A5B0004DD150C200F051C201F00050E40FF66ED0
:10A5C0000150F76E100EF7220800F55000019719A0
:10A5D000D8B410D050C200F051C201F00050EA0FC0
:10A5E000F66E0150F76E100EF7220800F55097191D
:10A5F000D8A428D10201502B000E512352235323FB
:10A600005051050A511152115311D8A43DD1010ED8
:10A61000D0D0600E0001976505D097519F0FE8CF0D
:10A620002DF402D004012D6B2DC400F00004D8A439
:10A6300004D00401306B020EBCD0060EBAD000016B
:10A6400097513F0AD8A402D0030EB3D0210E0001C7
:10A6500097611AD1F2D7000197519F0FE8CF2EF4DE
:10A66000040EA7D0000197513D0AD8A48AD0050E48
:10A67000E8CF2FF40201506B516B526B536B04D136
:10A6800000019751260AD8B403D0210E976105D056
:10A690002DC400F00004D8B41ADE00019751260A38
:10A6A000D8A402D0030E05D0210E0001976104D07A
:10A6B000060EE8CF2FF456D0000197512B0AD8A4EC
:10A6C00002D0200E976F020104EE32F05051E926BD
:10A6D0005151EA2297C0EFFF502B000E5123522315
:10A6E000532302EE53F0ED5C08E1000EED5C05E152
:10A6F000000EED5C02E1030EEF5CD8A033D004EE57
:10A700002FF05051E9265151EA22EF50250AD8A4E2
:10A7100029D0020114EE2FF05051E1265151E222CE
:10A7200004EE30F05051E9265151EA22EF5066EC28
:10A7300049F0016E013AF00E0116020104EE31F00B
:10A740005051E9265151EA22EF5066EC49F0006E73
:10A7500001500024E76E0201FE0E5027FF0E512328
:10A760005223532302EE53F0000EED5C08E1000E7D
:10A77000ED5C05E1000EED5C02E1800EEF5CD8A01F
:10A7800083D0020EE8CF2DF458D7000197510D0A5F
:10A79000D8A47AD0070E0DD0000197510A0AD8A488
:10A7A0004CD7080E06D0000197510D0AD8A445D702
:10A7B000090EE8CF2FF468D0000197510A0AD8A4F7
:10A7C00063D02DC4E8FF030AD8B4E4EC16F04EC2FF
:10A7D0009CF04FC29DF096EC2FF00001B70ED96FA0
:10A7E000100EDA6FC4EC49F00001F00ED96F100EB4
:10A7F000DA6FC4EC49F02DC400F00004D8A403D0F3
:10A80000C9EC4BF012D02DC4E8FF020AD8A403D043
:10A81000E0EC4BF00AD02DC4E8FF030AD8A403D023
:10A820008AEC4BF002D0C1EC4CF00001870ED96FDE
:10A83000120EDA6FC4EC49F04EC29CF04FC29DF08C
:10A84000D8EC2FF00401316B38D01ED02FC4E8FFB4
:10A85000000A01E1AED6010A01E1DBD6030A01E1FB
:10A86000EED6010A01E1F7D6070A01E1FBD6010A9B
:10A8700001E106D7030A89E0010A8EE00F0A93E09E
:10A88000010A9AE0030AE1E04EC29EF04FC29FF037
:10A89000E3EC2FF001500010D8B40FD04EC29EF060
:10A8A0004FC29FF00001970EA06F000EA16FE8EC61
:10A8B0002FF001500010D8A478D6120008D0B3ECC5
:10A8C0004AF00DD0E1EC4AF00AD051DE08D031C494
:10A8D000E8FF000AF4E0010AF5E0030AF6E01200DE
:10A8E0009E009EC0E1FF9FC0E2FF0001A06BA16B34
:10A8F000A26BA36B1ED0E6CFD9FFD9502E0AD8A4E5
:10A900001DD0080EA0C000F0A1C001F0A2C002F04E
:10A91000A3C003F041EC64F00001A4510024A06F37
:10A92000000E0120A16F000E0220A26F000E032076
:10A93000A36FA46BA56BA66BA76B35D02F0ED96444
:10A940002CD03A0ED96029D00A0E046E056A066A28
:10A95000076AA4C000F0A5C001F0A6C002F0A7C01D
:10A9600003F007EC63F0D9500024046E000E0120C0
:10A97000056E000E0220066E000E0320076ED00E3C
:10A9800004240001A46FFF0E0520A56FFF0E062012
:10A99000A66FFF0E0720A76F06D0000E006A016A9F
:10A9A000026A036A24D0E750D8A4A5D7080EA0C035
:10A9B00000F0A1C001F0A2C002F0A3C003F041EC7E
:10A9C00064F000C0A8F001C0A9F002C0AAF003C062
:10A9D000ABF00001A451006E016A026A036AA8513B
:10A9E0000026A9510122AA510222AB5103221200D2
:10A9F00006D80901D46B010EE8CFDBF91200FCEC9C
:10AA000005F000C03EF201C03FF202C040F203C0B8
:10AA100041F202014D6B4C6B270E4B6F100E4A6FCB
:10AA2000FF0EE8CF28F2E8CF29F20901DC6B09011B
:10AA3000D06B80EC06F000C03AF201C03BF202C0DD
:10AA40003CF203C03DF20901D56B0901D36B120042
:10AA5000AB00E8CFD9F9ABC0DAF9020EE8CFDBF9E9
:10AA6000FCEC05F000C03EF201C03FF202C040F233
:10AA700003C041F21200AB00ABC046F2ACC047F2DB
:10AA8000ADC048F2AEC049F212009E00D96E9EC021
:10AA9000F6FF9FC0F7FF0E0EF76403D00800F550D5
:10AAA00005D0F6CFE9FFF7CFEAFFEF500009D8B4A1
:10AAB0001BD09EC0F6FF9FC0F7FFD92AD90419EE1C
:10AAC000DDF0E126000EE2220E0EF76403D008004E
:10AAD000F55005D0F6CFE9FFF7CFEAFFEF50E76E6C
:10AAE00000019E4B9F2BD3D7D9501200D96E0A0E6E
:10AAF000D96003D0D950300F02D0D950370F12008F
:10AB0000A200D96EE16AF36A0001030EA35DE80EAC
:10AB1000D8B4A25DD8A009D00001180EA227FC0E5F
:10AB2000A323F32A010EE16EEFD7E150F3CF00F03B
:10AB3000016A0026000E012201500010D8B40AD08C
:10AB4000D92AD90409EEDDF0E926000EEA22F350F5
:10AB5000300FEF6EF36A0001000EA35D640ED8B4EF
:10AB6000A25DD8A009D000019C0EA227FF0EA3234E
:10AB7000F32A010EE16EEFD7E150F3CF00F0016A46
:10AB80000026000E012201500010D8B40AD0D92AA4
:10AB9000D90409EEDDF0E926000EEA22F350300F69
:10ABA000EF6EF36A0001000EA35D0A0ED8B4A25D39
:10ABB000D8A009D00001F60EA227FF0EA323F32A86
:10ABC000010EE16EEFD7E150F3CF00F0016A0026ED
:10ABD000000E012201500010D8B40AD0D92AD9049D
:10ABE00009EEDDF0E926000EEA22F350300FEF6E99
:10ABF000D92AD90409EEDDF0E926000EEA22000187
:10AC0000A251300FEF6ED9501200A200E16EE12A7E
:10AC1000E10409EEDDF0E926000EEA220001A23986
:10AC20000F0B64DFEF6EE12AE10409EEDDF0E926A7
:10AC3000000EEA220001A2510F0B58DFEF6EE15027
:10AC400012009E00F36E0001A151A26FF350DEDFEF
:10AC50000001A051A26FF350020FD8DF00019F51F5
:10AC6000A26FF350040FD2DF00019E51A26FF35088
:10AC7000060FCCDFF350080F12009E00F46E0001A7
:10AC8000A151A26FA36BF4503CDFF46EF42AF404DC
:10AC900009EEDDF0E926000EEA222E0EEF6E00012D
:10ACA000A051A26FA36BF4502CDFF46EF42AF404CD
:10ACB00009EEDDF0E926000EEA222E0EEF6E00010D
:10ACC0009F51006E016A0050A26FA36BF45019DF10
:10ACD000F46EF42AF40409EEDDF0E926000EEA220F
:10ACE0002E0EEF6E00019E51A26FA36BF45009DF90
:10ACF000F46EF4501200026A0DA826D00001F70E7F
:10AD00009E6F1C0E9F6F0250C1DE026E88C19EF0C6
:10AD100089C19FF08AC1A0F08BC1A1F0AFDF026EA4
:10AD200001013251500A33110001D8B40ED0F30E94
:10AD30009E6F1C0E9F6F0250A9DE026E32C1A2F000
:10AD400033C1A3F0DEDE026E0001BD0E9E6F1C0E4D
:10AD50009F6F02509BDE026E0001F50E9E6F1C0E6F
:10AD60009F6F025093DE026E0001C60E9E6F1C0E96
:10AD70009F6F02508BDE026E0001E50E9E6F1C0E6F
:10AD80009F6F025083DE026EF36AF35003EE61F0B0
:10AD9000E926000EEA22EF500001A26F025036DFD2
:10ADA000026EF32A050EF364F0D70001CC0E9E6FFD
:10ADB0001C0E9F6F02506ADE026EF36AF3500AEEB9
:10ADC00061F0E926000EEA22EF500001A26F025066
:10ADD0001DDF026EF32A050EF364F0D70001D10ED9
:10ADE0009E6F1C0E9F6F025051DE026ED4C9A2F0FE
:10ADF0000DDF026EDBC900F00004D8B424D00901D5
:10AE0000DB6B0001DB0E9E6F1C0E9F6F02503EDE5F
:10AE1000026E46C29EF047C29FF048C2A0F049C2EF
:10AE2000A1F010DF026E0001E90E9E6F1C0E9F6FF5
:10AE300002502CDE026ED9C9A2F0E8DE026EDAC939
:10AE4000A2F0E4DE026E0001EE0E9E6F1C0E9F6FFC
:10AE500002501CDE026E19C09EF01AC09FF01BC08B
:10AE6000A0F01CC0A1F0EEDE026E0001155116111B
:10AE700017111811D8B412D00001E00E9E6F1C0EED
:10AE80009F6F025003DE026E15C09EF016C09FF049
:10AE900017C0A0F018C0A1F0D5DE026E02C0D6F92E
:10AEA000025009EEDDF0E926000EEA22EF6A1200F8
:10AEB000FCEC05F0100E0024E8CF36F2270E01203E
:10AEC000E8CF37F2000E0220E8CF38F2000E032060
:10AED000E8CF39F212000201291DFF0ED8B428195B
:10AEE000D8B406D028C29EF029C29FF089EC2FF07A
:10AEF000FF0EE8CF28F2E8CF29F20901DC6B12003F
:10AF0000FCEC05F000C09AF001C09BF002C09CF080
:10AF100003C09DF000013EC2E8FF9A5D006E3FC293
:10AF2000E8FF9B59016E40C2E8FF9C59026E41C286
:10AF3000E8FF9D59036E03BE56D05AEC2FF0015026
:10AF40000010D8B450D09A0EE96E000EEA6E0201DD
:10AF50004A51EE24E8CF3EF24B51EE20E8CF3FF2CB
:10AF60004C51EE20E8CF40F24D51EE20E8CF41F2B7
:10AF7000ED52ED529DDFBFDE0DA811D074C19EF0E1
:10AF800075C19FF076C1A0F077C1A1F000EEA2F0EC
:10AF900078C1EEFF79C1EDFF65EC2FF010D088C1CC
:10AFA0009EF089C19FF08AC1A0F08BC1A1F000EE94
:10AFB000A2F032C1EEFF33C1EDFF65EC2FF000C00F
:10AFC00028F201C029F20201291DFF0ED8B4281968
:10AFD000D8A402D080DF07D00901D32B010EE8CF1F
:10AFE000D0F9E8CFDCF9120028C29AF029C29BF010
:10AFF00078EC2FF001500010D8B406D059DF0901C9
:10B00000D76B020EE8CFDCF91200010E00019B6F36
:10B0100028C29CF029C29DF096EC2FF000019B51B4
:10B02000D8B484D000019B6B28C2DEF029C2DFF0C7
:10B0300091EC2FF001500010D8B4F0D7040E0901A4
:10B04000D7610AD0D7C900F0016A0050840FF66EAC
:10B050000150F76E1C0E31D0040ED6C902F0036AFF
:10B060000226000E0322D7C900F0016A0150800AAF
:10B07000046E0350800A045C02E10250005CD8B008
:10B0800009D0D7C9E8FF09EED9F0E926000EEA2277
:10B09000EF5016D0D7C900F0FC0E0024026E036AF0
:10B0A000FF0E0322D6C9E8FF025E000E035A0250CB
:10B0B000890FF66E0350F76E1C0EF7220800F5504C
:10B0C00000019A6F28C2DEF029C2DFF0E06FA3EC26
:10B0D0002FF001500010D8B4A1D7EADE0901D72B18
:10B0E000370ED6C902F0036A0226000E0322D7C922
:10B0F00000F0016A0150800A046E0350800A045C6B
:10B1000002E10250005CD8A00DD028C29CF029C2F8
:10B110009DF0D8EC2FF0010EE8CFD6F9030EE8CF62
:10B12000DCF90AD0010E00019B6F78D728C29CF091
:10B1300029C29DF0D8EC2FF01200F3D3B9DE040041
:10B14000BED3EFD300019951200AD8A403D0020E38
:10B15000E8CFD6F9000199510A0AD8A4E2D33FD129
:10B1600000019951320AD8A43AD1030E50D00001FF
:10B170009951300AD8A433D1040E49D00001995115
:10B18000300AD8A42CD1050E42D0210E00019961BD
:10B1900026D11CD0000199510D0AD8A4C2D3070EA4
:10B1A00036D0000199510A0AD8A410D0080E2FD029
:10B1B000000199510D0AD8A409D0090E28D0000128
:10B1C00099510A0AD8A402D00A0E21D0060E1FD027
:10B1D000000199517F0AD8A402D10901DB53010E65
:10B1E000D8B4E8CFDBF9E8CFD4F980EC06F000C0A2
:10B1F0003AF201C03BF202C03CF203C03DF2010E44
:10B20000E8CFD5F90901D36B0901D16B0B0EE8CF5B
:10B21000D6F987D399C0D7F9D7C9D2F900019929AE
:10B22000D8A40AD00901D66B0901D06B0901D1530A
:10B23000D8A47DEC3AF075D300019951050AD8A441
:10B240000FD00001156B166B176B186B69EC61F072
:10B2500000C032F201C033F202C034F203C035F252
:10B260000C0ED5D700019951006E016A026A036A7B
:10B2700099510901D22700C02EF201C02FF202C05D
:10B2800030F203C031F2D7C9E8FF050AD8A414D0C0
:10B2900032C2AEF033C2AFF034C2B0F035C2B1F05A
:10B2A0000201322B000E3323342335230001995140
:10B2B000B26FB36B70EC60F00D0EA9D7000199511D
:10B2C000006E016A026A036A99510901D22702EEEF
:10B2D0002EF0080ED890EE36EE36EE36ED36ED5204
:10B2E000ED52E82EF7D702EE2EF00050EE26015078
:10B2F000EE220250EE220350ED22ED52ED52D7C95C
:10B30000E8FF050AD8A414D032C2AEF033C2AFF0C1
:10B3100034C2B0F035C2B1F00201322B000E33233B
:10B320003423352300019951B26FB36B70EC60F098
:10B330000E0E6DD700019951006E016A026A036A10
:10B3400099510901D22702EE2EF0080ED890EE3660
:10B35000EE36EE36ED36ED52ED52E82EF7D702EE30
:10B360002EF00050EE260150EE220250EE22035045
:10B37000ED22ED52ED520F0EE8CFD6F902012A6B05
:10B380002B6B2C6B2D6BD7C9E8FF050AD8A413D003
:10B3900032C2AEF033C2AFF034C2B0F035C2B1F059
:10B3A000322B000E33233423352300019951B26F21
:10B3B000B36B70EC60F0D7C9E8FF050AD8A4B1D22E
:10B3C00002EE31F0000EED5C08E10F0EED5C05E1E0
:10B3D000E00EED5C02E1010EEF5CD8A0A2D2090103
:10B3E000D66B9FD2000199510901D22737D202EEC4
:10B3F0002DF0000EED5C08E1000EED5C05E1000EA5
:10B40000ED5C02E1200EEF5CD8B021D052EC61F08F
:10B410002AC2E8FF00240001AE6F2BC2E8FF012022
:10B42000AF6F2CC2E8FF0220B06F2DC2E8FF0320EF
:10B43000B16F9951B26FB36B70EC60F0020103EE23
:10B4400075F02A51E9262B51EA2299C0EFFF02EE4E
:10B450002AF02EC200F02FC201F030C202F031C239
:10B4600003F0FF0E0024046EFF0E0120056EFF0E98
:10B470000220066EFF0E0320076EEE50041808E14E
:10B48000EE50051805E1EE50061802E1EE500718DF
:10B49000D8A4FCD1000E31EC5DF00301946B0001E7
:10B4A000750E9E6F030E9F6F71EC54F000C088F113
:10B4B00001C089F102C08AF103C08BF1E7D102011A
:10B4C0002A512B112C112D11D8B499C0D8F92A5119
:10B4D000010A2B112C112D11D8A404D0D8C933F195
:10B4E00099C032F152EC61F000C09AF001C09BF0BB
:10B4F00002C09CF003C09DF02AC200F02BC201F0F4
:10B500002CC202F02DC203F0010E0014046E056A75
:10B51000066A076A000104509A25006E05509B21B7
:10B52000016E06509C21026E07509D21036E200E75
:10B530000024AE6F000E0120AF6F000E0220B06F2E
:10B54000000E0320B16F9951B26FB36B70EC60F0D5
:10B5500002012A51010A2B112C112D11D8A496D1C8
:10B56000000E31EC5DF092D102012A512B112C1109
:10B570002D11D8A48BD102EE3EF04AC2E8FFEE5E58
:10B580004BC2E8FFEE5A4CC2E8FFEE5A4DC2E8FF4C
:10B59000ED5AED52ED5299C04AF24B6B4C6B4D6B2C
:10B5A000100E046E270E056E000E066A076A02EE84
:10B5B0004AF060EC64F0540EBFEC0FF04AC2E1F0C8
:10B5C0004BC2E2F04CC2E3F04DC2E4F0F3EC0FF0FA
:10B5D00002EE3EF04AC2E8FFEE264BC2E8FFEE2242
:10B5E0004CC2E8FFEE224DC2E8FFED22ED52ED52D3
:10B5F0004DD102EE2DF0000EED5C08E1000EED5C89
:10B6000005E1000EED5C02E1040EEF5CD8B01AD04B
:10B6100002EE42F0080ED890EE36EE36EE36ED36FB
:10B62000ED52ED52E82EF7D70001995102EE42F0AB
:10B63000EE26000EEE22EE22ED22ED52ED52090131
:10B64000D86B24D100EE19F002014251EE1808E146
:10B650004351EE1805E14451EE1802E14551EE1850
:10B66000D8A405D0D8C9E8FF0AEEC0F014D000EE87
:10B6700015F002014251EE1808E14351EE1805E1C0
:10B680004451EE1802E14551EE18D8A409D0D8C9AA
:10B69000E8FF0AEE80F0E926000EEA2299C0EFFFEB
:10B6A0000901D8293F0BE8CFD8F9F0D032C2B4F065
:10B6B00033C2B5F034C2B6F035C2B7F00201322B56
:10B6C000000E33233423352300019951B86FB96B31
:10B6D000BA6BC2EC5FF002EE2AF02EC200F02FC26D
:10B6E00001F030C202F031C203F0FF0E0024046EFC
:10B6F000FF0E0120056EFF0E0220066EFF0E0320D6
:10B70000076EEE50041808E1EE50051805E1EE5002
:10B71000061802E1EE500718D8A4B8D0D2C900F03C
:10B720000028D8B40AD00901D66B240EBFEC0FF064
:10B73000D2C9E8FFECEC0FF0A9D0000E31EC5DF0BF
:10B7400066EC3AF0010EE8CFD1F9A0D002EE2DF070
:10B75000000EED5C08E1000EED5C05E1000EED5C15
:10B7600002E1040EEF5CD8B017D002EE42F0080EF2
:10B77000D890EE36EE36EE36ED36ED52ED52E82E3E
:10B78000F7D70001995102EE42F0EE26000EEE22AC
:10B79000EE22ED22ED52ED5202012A51030A2B1145
:10B7A0002C112D11D8A472D002EE42F000011951D3
:10B7B000EE1808E11A51EE1805E11B51EE1802E1EE
:10B7C0001C51EE18D8B412EC39F060D002EE2DF016
:10B7D000000EED5C08E1000EED5C05E1000EED5C95
:10B7E00002E1060EEF5CD8B02DD002010AEE61F046
:10B7F0002A51E9262B51EA2299C0EFFF52EC61F061
:10B800002AC2E8FF0024046E2BC2E8FF0120056E67
:10B810002CC2E8FF0220066E2DC2E8FF0320076E4F
:10B820006B0E04240001AE6F000E0520AF6F000EFA
:10B830000620B06F000E0720B16F9951B26FB36B45
:10B8400070EC60F002012A51050A2B112C112D1108
:10B85000D8A41CD0000E31EC5DF018D0D7C9E8FF99
:10B86000010A01E1C4D5030A01E129D6010A01E177
:10B870007BD6070A01E1BDD6010A01E117D7030A09
:10B8800001E164D7010AA2E00901D66B02012A2B6B
:10B89000000E2B232C232D2302EE2EF0EE52EE521F
:10B8A000EE52ED502D5D08E1ED502C5D05E1ED50BF
:10B8B0002B5D02E1EF502A5DD8A033D0A7D4D6C9C2
:10B8C000E8FF000A01E13DD4010A01E13BD4030A8B
:10B8D00001E146D4010A01E14AD4070A01E14ED44C
:10B8E000010A01E152D4030A01E154D4010A01E141
:10B8F00058D40F0A01E15CD4010A01E160D4030AC3
:10B9000001E166D4010A01E185D4070A01E1AAD464
:10B91000010A01E1D3D4030A01E10CD5010A01E1D6
:10B9200061D528C29EF029C29FF0E3EC2FF00150B0
:10B930000010D8B410D028C29EF029C29FF0000198
:10B94000990EA06F000EA16FE8EC2FF001500010CF
:10B95000D8A49EEF58F00901D653D8B46BEC57F039
:10B960001200DCC9E8FF030AD8B49DEC58F01200BD
:10B970000901DC53D8B42FD05AEC2FF0015000103D
:10B98000D8A46BEC57F0FCEC05F000C096F001C0B9
:10B9900097F002C098F003C099F0000136C2E8FFAA
:10B9A000965D006E37C2E8FF9759016E38C2E8FF16
:10B9B0009859026E39C2E8FF9959036E03AE6BECD9
:10B9C00057F009D080EC57F010D0F4EC57F00DD0C0
:10B9D00005EC58F00AD0DCC9E8FF000AF3E0010AE0
:10B9E000F4E0030AF5E0010AF5E01200DCC9E8FF23
:10B9F000030AD8A40DD0D6C9E8FF0F0AD8A408D0EE
:10BA0000D7C9E8FF050AD8A403D0010E006E01D003
:10BA1000006A016A120023EC61F0000CD000D6C06D
:10BA2000D8F0D7C0D9F00001DA6B010EDB6FD1C0BE
:10BA3000DCF0D2C0DDF0DE6BDF6B76EF12F0C10020
:10BA4000C7C0C9F0C8C0CAF00001CB6B020ECC6FF2
:10BA5000C2C0CDF0C3C0CEF0CF6BD06B09EC12F0FA
:10BA6000000C0001C06F010EBF6FC051800A7C0F37
:10BA7000D8B0B2D00001C051040D000EF324E96E1D
:10BA8000020EF420EA6EEE50EE50EE50ED50800AB9
:10BA9000006E800E005E08E1000EED5C05E1000E18
:10BAA000ED5C02E1000EED5CD8A096D0C05104EE32
:10BAB000CBF0E926000EEA22EF50D8B48DD038EC56
:10BAC00003F0FCEC05F00001C051040D000EF3245E
:10BAD000E96E020EF420EA6EEECFC1F0EECFC2F0B6
:10BAE000EECFC3F0EECFC4F0C56B020EC66FC051EF
:10BAF000040D140EF324E96E020EF420EA6EEECF6C
:10BB000000F0EDCF01F0D00E0024C76F040E01202D
:10BB1000C86F96DF0001C05104EECBF0E926000E9D
:10BB2000EA22EF6A38EC03F0FCEC05F00001BF51AB
:10BB3000D8B44FD00001C051040D000EF324E96EBB
:10BB4000020EF420EA6EEECFD0F0EECFD1F0EECFC1
:10BB5000D2F0EECFD3F0D46B010ED56FC051040DEF
:10BB6000140EF324E96E020EF420EA6EEECF00F01C
:10BB7000EDCF01F0D00E0024D66F040E0120D76F58
:10BB80004EDF0001BF6FBF51D8B41ED07F0EC16F12
:10BB9000C26FC36BC46B2FEC30F0C80E0001C16FD5
:10BBA000C26BC36BC46B7BEC30F00001C16BC26B2A
:10BBB000C36BC46B2FEC30F0C80E0001C16FC26BB9
:10BBC000C36BC46B7BEC30F038EC03F0FCEC05F09D
:10BBD000ADD72E0EBFEC0FF01200BF000001BF5119
:10BBE000C46FC56BC66BC76BC351040D000EF32445
:10BBF000E96E020EF420EA6E006AC051016EC15176
:10BC0000026E036AEE50001808E1EE50011805E1DB
:10BC1000EE50021802E1EE500318D8B446D0006A84
:10BC2000C051016EC151026E036AC351040D000E72
:10BC3000F324E96E020EF420EA6E00C0EEFF01C0AC
:10BC4000EEFF02C0EEFF03C0EDFFED52ED52C35117
:10BC5000040D000EF324E96E020EF420EA6EEECF1E
:10BC6000D0F0EECFD1F0EECFD2F0EECFD3F0D46B58
:10BC7000010ED56FC351040D140EF324E96E020EAC
:10BC8000F420EA6EEECF00F0EDCF01F0D00E0024EC
:10BC9000D66F040E0120D76FC2DE0001C35104EE3F
:10BCA000CBF0E926000EEA22EF6A0001C351040D31
:10BCB000140EF324E96E020EF420EA6EEECF00F0CB
:10BCC000EDCF01F0C4510026C5510122D00E002451
:10BCD000E96E040E0120EA6EEF501200B100B1C00F
:10BCE000BFF0B2C0C0F0B3C0C1F0B4C0C2F0000138
:10BCF000B551C36F73DF006E016A00BE0106000E0E
:10BD0000016A000100C0B6F001C0B7F0B7BFFF0E76
:10BD1000B86FB96FB8C0B9F0B7C0B8F0B6C0B7F077
:10BD2000B66BB129BF6F000EB221C06F000EB321F8
:10BD3000C16F000EB421C26FB551C36F4FDF006EEB
:10BD4000016A00BE01060050046E056A066A05BE5F
:10BD500006060650076E00010450B6270550B723AB
:10BD60000650B8230750B923B8C0B9F0B7C0B8F02F
:10BD7000B6C0B7F0B66B020EB125BF6F000EB22190
:10BD8000C06F000EB321C16F000EB421C26FB55158
:10BD9000C36F24DF006E016A00BE01060050046E0E
:10BDA000056A066A05BE06060650076E00010450C5
:10BDB000B6270550B7230650B8230750B923B8C09B
:10BDC000B9F0B7C0B8F0B6C0B7F0B66B030EB12586
:10BDD000BF6F000EB221C06F000EB321C16F000E05
:10BDE000B421C26FB551C36FF9DE006E016A00BEA7
:10BDF00001060050046E056A066A05BE0606065076
:10BE0000076E00010450B6270550B7230650B8232B
:10BE10000750B923B6C000F0B7C001F0B8C002F0B7
:10BE2000B9C003F01200A700A7C0BFF0A8C0C0F0BF
:10BE3000A9C0C1F0AAC0C2F00001AB51C36FCEDEF1
:10BE4000006E016A00BE0106000E016A000100C01A
:10BE5000ACF001C0ADF0ADBFFF0EAE6FAF6FAEC0C6
:10BE6000AFF0ADC0AEF0ACC0ADF0AC6BA729BF6F0A
:10BE7000000EA821C06F000EA921C16F000EAA21DB
:10BE8000C26FAB51C36FAADE006E016A00BE01062D
:10BE90000050046E056A066A05BE06060650076E67
:10BEA00000010450AC270550AD230650AE230750C7
:10BEB000AF23AEC0AFF0ADC0AEF0ACC0ADF0AC6B78
:10BEC000020EA725BF6F000EA821C06F000EA9218A
:10BED000C16F000EAA21C26FAB51C36F7FDE006E2F
:10BEE000016A00BE01060050046E056A066A05BEBE
:10BEF00006060650076E00010450AC270550AD231E
:10BF00000650AE230750AF23ACC000F0ADC001F027
:10BF1000AEC002F0AFC003F01200970097C0BFF0B0
:10BF200098C0C0F099C0C1F09AC0C2F000019B5106
:10BF3000C36F54DE006E016A00BE010600500001AE
:10BF40009C6F9D6B9C519D6F9C6B9729BF6F000EE2
:10BF50009821C06F000E9921C16F000E9A21C26F07
:10BF60009B51C36F3BDE006E016A00BE01060050AC
:10BF700000019C27000E9D239CC000F09DC001F095
:10BF80001200B4000001B451BB6F010EB515BC6FB7
:10BF9000BD6BBE6BB951800A7C0FD8B09FD0000139
:10BFA000B951040D000EF324E96E020EF420EA6E7E
:10BFB000006AFE0EB515016EB651026E036AEE50B0
:10BFC000001808E1EE50011805E1EE50021802E1F8
:10BFD000EE500318D8B461D0B95143DD0001BA5115
:10BFE000D8B41CD0B4C0BFF0B5C0C0F0B6C0C1F06A
:10BFF000B7C0C2F0B951C36FF1DD0001000EB42526
:10C00000BF6F010EB521C06F000EB621C16F000ECB
:10C01000B721C26FB929C36FE1DD3FD00001006ACB
:10C02000FE0EB515016EB651026E036AB951040DCC
:10C03000000EF324E96E020EF420EA6E00C0EEFF5B
:10C0400001C0EEFF02C0EEFF03C0EDFFED52ED5266
:10C05000006AFE0EB515016EB651026E000E036A3F
:10C060000024046E010E0120056E000E0220066EF3
:10C07000000E0320076EB951040D040EF324E96E7F
:10C08000020EF420EA6E04C0EEFF05C0EEFF06C00B
:10C09000EEFF07C0EDFFED52ED520001B951040D66
:10C0A000140EF324E96E020EF420EA6EEECF00F0D7
:10C0B000EDCF01F0BB510026BC510122D00E00246F
:10C0C000E96E040E0120EA6EB8C0EFFFB95104EE2C
:10C0D000CBF0E926000EEA22010EEF6E1200AE0050
:10C0E000AEC0B4F0AFC0B5F0B0C0B6F0B1C0B7F0FC
:10C0F0000001B251B86FB351B96F010EBA6F42D798
:10C10000D96ED950040D000EF324E96E020EF4200E
:10C11000EA6EEECF00F0EECF01F0EECF02F0EECF00
:10C1200003F0000E0024046E010E0120056E000EC7
:10C130000220066E000E0320076E04C000F005C04A
:10C1400001F006C002F007C003F01200CB000001AE
:10C15000CF51040D000EF324E96E020EF420EA6EB6
:10C16000006ACC51016ECD51026E036AEE50001888
:10C1700008E1EE50011805E1EE50021802E1EE5020
:10C180000318D8B446D0006ACC51016ECD51026E6E
:10C19000036ACF51040D000EF324E96E020EF42061
:10C1A000EA6E00C0EEFF01C0EEFF02C0EEFF03C06A
:10C1B000EDFFED52ED52CF51040D000EF324E96E68
:10C1C000020EF420EA6EEECFD0F0EECFD1F0EECF3B
:10C1D000D2F0EECFD3F0D46B010ED56FCF51040D5A
:10C1E000140EF324E96E020EF420EA6EEECF00F096
:10C1F000EDCF01F0D00E0024D66F040E0120D76FD2
:10C200000EDC0001CF5104EECBF0E926000EEA224D
:10C21000EF6A0001CF51040D140EF324E96E020EF3
:10C22000F420EA6EEECF00F0EDCF01F0CB51002408
:10C23000026E000E0120036ED00E0224006E040E6A
:10C240000320016E1200006A016A026A036AD96A59
:10C25000D950040D000EF324E96E020EF420EA6EAC
:10C26000EE68EE68EE68ED68D950040D140EF32404
:10C27000E96E020EF420EA6E00C0EEFF01C0EEFF90
:10C2800002C0EEFF03C0EEFFD890012A000E02228A
:10C290000322D92AD950800A7B0FD8A0D9D704010C
:10C2A000CA6B1200000E006A016A026A036A120079
:10C2B0000401CA53000E006ED8A404D0100E016E03
:10C2C000000E03D0F00E016E0F0E026E000E036A18
:10C2D00012000401CA53000E006ED8A404D0F00E60
:10C2E000016E0F0E03D0100E016E000E026E000ED6
:10C2F000036A12000401CA53000ED8B4010EE8CF3D
:10C30000CAF41200670E046E450E056E230E066E0B
:10C31000010E076EF4C100F0F5C101F0F6C102F0A4
:10C32000F7C103F007EC63F00B0E0024E8CFF4F143
:10C33000000E0120E8CFF5F1000E0220E8CFF6F163
:10C34000000E0320E8CFF7F1F5C1E8FF120052EC30
:10C3500061F000C093F001C094F002C095F003C0FA
:10C3600096F0710E00019325BF6F000E9421C06FEF
:10C37000000E9521C16F000E9621C26FC36BEEECCB
:10C380005DF0470AD8B487D00001926B000192514A
:10C390009325AE6F000E9421AF6F000E9521B06F04
:10C3A000000E9621B16FB26BB36B70EC60F00001C0
:10C3B000922B700E9265EAD7926B000192519325F1
:10C3C000AE6F000E9421AF6F000E9521B06F000E7E
:10C3D0009621B16F925102EEDAF0E926000EEA22C0
:10C3E000EF50B26FB36B70EC60F00001922B9205CE
:10C3F00002EEDAF0E926000EEA22EF50D8A4DDD7EB
:10C40000210E00019325AE6F000E9421AF6F000E38
:10C410009521B06F000E9621B16F500EB26FB36BC5
:10C4200070EC60F0290E00019325AE6F000E942190
:10C43000AF6F000E9521B06F000E9621B16F010E07
:10C44000B26FB36B70EC60F06A0E00019325AE6FB3
:10C45000000E9421AF6F000E9521B06F000E962153
:10C46000B16F010EB26FB36B70EC60F0710E000132
:10C470009325AE6F000E9421AF6F000E9521B06F23
:10C48000000E9621B16F470EB26FB36B70EC60F087
:10C49000000E31EC5DF00001926B0001925193258A
:10C4A000006E000E9421016E000E9521026E000EAA
:10C4B0009621036E6B0E0024BF6F000E0120C06F2B
:10C4C000000E0220C16F000E0320C26FC36BEEECA2
:10C4D0005DF0006E000192510AEE61F0E926000E57
:10C4E000EA2200C0EFFF922B050E9265D6D712000C
:10C4F0006AEC64F08AEC06F00BEC5DF028DF51EC9E
:10C500002FF00009D8B402D0FF0E1CD0CBEC04F001
:10C510005EEC49F0F8EC54F07DEC63F0A8EC3AF0F6
:10C520000A01606BFCEC05F000C0F0F101C0F1F114
:10C5300002C0F2F103C0F3F10101EC6BED6BEE6BA5
:10C54000EF6B000E1200FCEC05F000C092F001C091
:10C5500093F002C094F003C095F00001F0C1E8FF31
:10C56000925D006EF1C1E8FF9359016EF2C1E8FFE0
:10C570009459026EF3C1E8FF9559036E03AE0AD0D9
:10C5800038EC03F0E0D70101320EF027000EF12362
:10C59000F223F323F0C100F0F1C101F0F2C102F087
:10C5A000F3C103F000019251005E9351015A94517E
:10C5B000025A9551035A0350800A800F08E1000E79
:10C5C000025C05E1000E015C02E1010E005CD8A0F6
:10C5D000DAD70DA60FD00101685169116A116B11EC
:10C5E000D8B408D00101885189118A118B11D8A4BF
:10C5F000B8EC5CF08FEC48F0A9EC05F038EC03F0F7
:10C600000101EC2B000EED23EE23EF23000CE96A71
:10C61000EA6A0050086E0150096E02500A6E03501B
:10C620000B6E026A036A08500402F3CF00F0F4CFE5
:10C6300001F00502F3500126F450022209500402D1
:10C64000F3500126F4500222D8B0032A0850060203
:10C65000F3500226F450032209500502F35002263B
:10C66000F45003220A500402F3500226F45003222D
:10C6700008500702F350032609500602F350032620
:10C680000A500502F35003260B500402F350032610
:10C6900019EF64F0066A046A056A0250031003E1A8
:10C6A000006A016A000C1F0E0612D890062A023694
:10C6B0000336FCE3033202320250005C035001589F
:10C6C00004E3016E0250005ED88004360536062E63
:10C6D00006BAF0D706AE05D0041E042AD8B4050663
:10C6E000051E0450026E0550036E06AC000C001EC1
:10C6F000002AD8B40106011E000C0401B36BCEEC75
:10C7000030F0E8CFB2F41200CAEC30F0000ED8A03E
:10C71000010E0001996F99510401B319D8B408D0E2
:10C7200099C0B3F40401B353000ED8B4010E0ED077
:10C73000CEEC30F00001996F99510401B219D8B4D0
:10C7400004D099C0B2F4020E01D0FF0E1200B3C49F
:10C75000E8FF1200B2C4E8FF1200C300C3C0F3FF39
:10C76000C4C0F4FFF3CFF6FFF4CFF7FFF32A000EB7
:10C77000F4220E0EF76403D00800F55005D0F6CF72
:10C78000E9FFF7CFEAFFEF500009D8A4EBD7F3CFCA
:10C7900000F0F4CF01F00001C351005EC451015A12
:10C7A000FF0E00060120016E1200D900D9C0D9FF8A
:10C7B000DAC0DAFF0001DBC0F6FFDCC0F7FFDB2BDD
:10C7C000000EDC23D9CFE9FFDACFEAFFD94ADA2A13
:10C7D0000E0EF76403D00800F55005D0F6CFE1FF48
:10C7E000F7CFE2FFE750EF6EEF50D8A4E3D7D9C000
:10C7F00000F0DAC001F01200AF00AFC0E1FFB0C03E
:10C80000E2FF0001B351006EB451016EB307000E98
:10C81000B45B01500010D8B403D0B1C0E6FFF1D72B
:10C82000AFC000F0B0C001F01200036A026A016AF2
:10C83000006AE950EA1008E003C0EDFF02C0EDFF16
:10C8400001C0EDFF00C0EFFF000CEFCF00F0EE2ABB
:10C85000EFCF01F0000EEE22EFCF02F0EE22EFCF8D
:10C8600003F0EE22120002500002F3CF04F0F4CFE6
:10C8700005F00102F350052603500002F35005268F
:10C880001200046E042A0406D8B4000CD8900036B6
:10C89000013602360336F7D70900F5CFEEFFEA502E
:10C8A000E262FAD7E950E162F7D71200001E011EDA
:10C8B000021E031E000E002A012202220322120081
:10C8C000EECF00F0EECF01F0EECF02F0EFCF03F0AD
:10C8D00009EF63F0010EE8CF5FFA1200E8CF5FFACC
:10C8E0001200FFFFFFFFFFFFFFFFFFFFFFFFFFFF44
:10C8F000FFFFFFFFFFFFFFFFFFFFFFFFFFFFFFFF48
:10C90000FFFFFFFFFFFFFFFFFFFFFFFFFFFFFFFF37
:10C91000FFFFFFFFFFFFFFFFFFFFFFFFFFFFFFFF27
:10C92000FFFFFFFFFFFFFFFFFFFFFFFFFFFFFFFF17
:10C93000FFFFFFFFFFFFFFFFFFFFFFFFFFFFFFFF07
:10C94000FFFFFFFFFFFFFFFFFFFFFFFFFFFFFFFFF7
:10C95000FFFFFFFFFFFFFFFFFFFFFFFFFFFFFFFFE7
:10C96000FFFFFFFFFFFFFFFFFFFFFFFFFFFFFFFFD7
:10C97000FFFFFFFFFFFFFFFFFFFFFFFFFFFFFFFFC7
:10C98000FFFFFFFFFFFFFFFFFFFFFFFFFFFFFFFFB7
:10C99000FFFFFFFFFFFFFFFFFFFFFFFFFFFFFFFFA7
:10C9A000FFFFFFFFFFFFFFFFFFFFFFFFFFFFFFFF97
:10C9B000FFFFFFFFFFFFFFFFFFFFFFFFFFFFFFFF87
:10C9C000FFFFFFFFFFFFFFFFFFFFFFFFFFFFFFFF77
:10C9D000FFFFFFFFFFFFFFFFFFFFFFFFFFFFFFFF67
:10C9E000FFFFFFFFFFFFFFFFFFFFFFFFFFFFFFFF57
:10C9F000FFFFFFFFFFFFFFFFFFFFFFFFFFFFFFFF47
:10CA0000FFFFFFFFFFFFFFFFFFFFFFFFFFFFFFFF36
:10CA1000FFFFFFFFFFFFFFFFFFFFFFFFFFFFFFFF26
:10CA2000FFFFFFFFFFFFFFFFFFFFFFFFFFFFFFFF16
:10CA3000FFFFFFFFFFFFFFFFFFFFFFFFFFFFFFFF06
:10CA4000FFFFFFFFFFFFFFFFFFFFFFFFFFFFFFFFF6
:10CA5000FFFFFFFFFFFFFFFFFFFFFFFFFFFFFFFFE6
:10CA6000FFFFFFFFFFFFFFFFFFFFFFFFFFFFFFFFD6
:10CA7000FFFFFFFFFFFFFFFFFFFFFFFFFFFFFFFFC6
:10CA8000FFFFFFFFFFFFFFFFFFFFFFFFFFFFFFFFB6
:10CA9000FFFFFFFFFFFFFFFFFFFFFFFFFFFFFFFFA6
:10CAA000FFFFFFFFFFFFFFFFFFFFFFFFFFFFFFFF96
:10CAB000FFFFFFFFFFFFFFFFFFFFFFFFFFFFFFFF86
:10CAC000FFFFFFFFFFFFFFFFFFFFFFFFFFFFFFFF76
:10CAD000FFFFFFFFFFFFFFFFFFFFFFFFFFFFFFFF66
:10CAE000FFFFFFFFFFFFFFFFFFFFFFFFFFFFFFFF56
:10CAF000FFFFFFFFFFFFFFFFFFFFFFFFFFFFFFFF46
:10CB0000FFFFFFFFFFFFFFFFFFFFFFFFFFFFFFFF35
:10CB1000FFFFFFFFFFFFFFFFFFFFFFFFFFFFFFFF25
:10CB2000FFFFFFFFFFFFFFFFFFFFFFFFFFFFFFFF15
:10CB3000FFFFFFFFFFFFFFFFFFFFFFFFFFFFFFFF05
:10CB4000FFFFFFFFFFFFFFFFFFFFFFFFFFFFFFFFF5
:10CB5000FFFFFFFFFFFFFFFFFFFFFFFFFFFFFFFFE5
:10CB6000FFFFFFFFFFFFFFFFFFFFFFFFFFFFFFFFD5
:10CB7000FFFFFFFFFFFFFFFFFFFFFFFFFFFFFFFFC5
:10CB8000FFFFFFFFFFFFFFFFFFFFFFFFFFFFFFFFB5
:10CB9000FFFFFFFFFFFFFFFFFFFFFFFFFFFFFFFFA5
:10CBA000FFFFFFFFFFFFFFFFFFFFFFFFFFFFFFFF95
:10CBB000FFFFFFFFFFFFFFFFFFFFFFFFFFFFFFFF85
:10CBC000FFFFFFFFFFFFFFFFFFFFFFFFFFFFFFFF75
:10CBD000FFFFFFFFFFFFFFFFFFFFFFFFFFFFFFFF65
:10CBE000FFFFFFFFFFFFFFFFFFFFFFFFFFFFFFFF55
:10CBF000FFFFFFFFFFFFFFFFFFFFFFFFFFFFFFFF45
:10CC0000FFFFFFFFFFFFFFFFFFFFFFFFFFFFFFFF34
:10CC1000FFFFFFFFFFFFFFFFFFFFFFFFFFFFFFFF24
:10CC2000FFFFFFFFFFFFFFFFFFFFFFFFFFFFFFFF14
:10CC3000FFFFFFFFFFFFFFFFFFFFFFFFFFFFFFFF04
:10CC4000FFFFFFFFFFFFFFFFFFFFFFFFFFFFFFFFF4
:10CC5000FFFFFFFFFFFFFFFFFFFFFFFFFFFFFFFFE4
:10CC6000FFFFFFFFFFFFFFFFFFFFFFFFFFFFFFFFD4
:10CC7000FFFFFFFFFFFFFFFFFFFFFFFFFFFFFFFFC4
:10CC8000FFFFFFFFFFFFFFFFFFFFFFFFFFFFFFFFB4
:10CC9000FFFFFFFFFFFFFFFFFFFFFFFFFFFFFFFFA4
:10CCA000FFFFFFFFFFFFFFFFFFFFFFFFFFFFFFFF94
:10CCB000FFFFFFFFFFFFFFFFFFFFFFFFFFFFFFFF84
:10CCC000FFFFFFFFFFFFFFFFFFFFFFFFFFFFFFFF74
:10CCD000FFFFFFFFFFFFFFFFFFFFFFFFFFFFFFFF64
:10CCE000FFFFFFFFFFFFFFFFFFFFFFFFFFFFFFFF54
:10CCF000FFFFFFFFFFFFFFFFFFFFFFFFFFFFFFFF44
:10CD0000FFFFFFFFFFFFFFFFFFFFFFFFFFFFFFFF33
:10CD1000FFFFFFFFFFFFFFFFFFFFFFFFFFFFFFFF23
:10CD2000FFFFFFFFFFFFFFFFFFFFFFFFFFFFFFFF13
:10CD3000FFFFFFFFFFFFFFFFFFFFFFFFFFFFFFFF03
:10CD4000FFFFFFFFFFFFFFFFFFFFFFFFFFFFFFFFF3
:10CD5000FFFFFFFFFFFFFFFFFFFFFFFFFFFFFFFFE3
:10CD6000FFFFFFFFFFFFFFFFFFFFFFFFFFFFFFFFD3
:10CD7000FFFFFFFFFFFFFFFFFFFFFFFFFFFFFFFFC3
:10CD8000FFFFFFFFFFFFFFFFFFFFFFFFFFFFFFFFB3
:10CD9000FFFFFFFFFFFFFFFFFFFFFFFFFFFFFFFFA3
:10CDA000FFFFFFFFFFFFFFFFFFFFFFFFFFFFFFFF93
:10CDB000FFFFFFFFFFFFFFFFFFFFFFFFFFFFFFFF83
:10CDC000FFFFFFFFFFFFFFFFFFFFFFFFFFFFFFFF73
:10CDD000FFFFFFFFFFFFFFFFFFFFFFFFFFFFFFFF63
:10CDE000FFFFFFFFFFFFFFFFFFFFFFFFFFFFFFFF53
:10CDF000FFFFFFFFFFFFFFFFFFFFFFFFFFFFFFFF43
:10CE0000FFFFFFFFFFFFFFFFFFFFFFFFFFFFFFFF32
:10CE1000FFFFFFFFFFFFFFFFFFFFFFFFFFFFFFFF22
:10CE2000FFFFFFFFFFFFFFFFFFFFFFFFFFFFFFFF12
:10CE3000FFFFFFFFFFFFFFFFFFFFFFFFFFFFFFFF02
:10CE4000FFFFFFFFFFFFFFFFFFFFFFFFFFFFFFFFF2
:10CE5000FFFFFFFFFFFFFFFFFFFFFFFFFFFFFFFFE2
:10CE6000FFFFFFFFFFFFFFFFFFFFFFFFFFFFFFFFD2
:10CE7000FFFFFFFFFFFFFFFFFFFFFFFFFFFFFFFFC2
:10CE8000FFFFFFFFFFFFFFFFFFFFFFFFFFFFFFFFB2
:10CE9000FFFFFFFFFFFFFFFFFFFFFFFFFFFFFFFFA2
:10CEA000FFFFFFFFFFFFFFFFFFFFFFFFFFFFFFFF92
:10CEB000FFFFFFFFFFFFFFFFFFFFFFFFFFFFFFFF82
:10CEC000FFFFFFFFFFFFFFFFFFFFFFFFFFFFFFFF72
:10CED000FFFFFFFFFFFFFFFFFFFFFFFFFFFFFFFF62
:10CEE000FFFFFFFFFFFFFFFFFFFFFFFFFFFFFFFF52
:10CEF000FFFFFFFFFFFFFFFFFFFFFFFFFFFFFFFF42
:10CF0000FFFFFFFFFFFFFFFFFFFFFFFFFFFFFFFF31
:10CF1000FFFFFFFFFFFFFFFFFFFFFFFFFFFFFFFF21
:10CF2000FFFFFFFFFFFFFFFFFFFFFFFFFFFFFFFF11
:10CF3000FFFFFFFFFFFFFFFFFFFFFFFFFFFFFFFF01
:10CF4000FFFFFFFFFFFFFFFFFFFFFFFFFFFFFFFFF1
:10CF5000FFFFFFFFFFFFFFFFFFFFFFFFFFFFFFFFE1
:10CF6000FFFFFFFFFFFFFFFFFFFFFFFFFFFFFFFFD1
:10CF7000FFFFFFFFFFFFFFFFFFFFFFFFFFFFFFFFC1
:10CF8000FFFFFFFFFFFFFFFFFFFFFFFFFFFFFFFFB1
:10CF9000FFFFFFFFFFFFFFFFFFFFFFFFFFFFFFFFA1
:10CFA000FFFFFFFFFFFFFFFFFFFFFFFFFFFFFFFF91
:10CFB000FFFFFFFFFFFFFFFFFFFFFFFFFFFFFFFF81
:10CFC000FFFFFFFFFFFFFFFFFFFFFFFFFFFFFFFF71
:10CFD000FFFFFFFFFFFFFFFFFFFFFFFFFFFFFFFF61
:10CFE000FFFFFFFFFFFFFFFFFFFFFFFFFFFFFFFF51
:10CFF000FFFFFFFFFFFFFFFFFFFFFFFFFFFFFFFF41
:10D00000FFFFFFFFFFFFFFFFFFFFFFFFFFFFFFFF30
:10D01000FFFFFFFFFFFFFFFFFFFFFFFFFFFFFFFF20
:10D02000FFFFFFFFFFFFFFFFFFFFFFFFFFFFFFFF10
:10D03000FFFFFFFFFFFFFFFFFFFFFFFFFFFFFFFF00
:10D04000FFFFFFFFFFFFFFFFFFFFFFFFFFFFFFFFF0
:10D05000FFFFFFFFFFFFFFFFFFFFFFFFFFFFFFFFE0
:10D06000FFFFFFFFFFFFFFFFFFFFFFFFFFFFFFFFD0
:10D07000FFFFFFFFFFFFFFFFFFFFFFFFFFFFFFFFC0
:10D08000FFFFFFFFFFFFFFFFFFFFFFFFFFFFFFFFB0
:10D09000FFFFFFFFFFFFFFFFFFFFFFFFFFFFFFFFA0
:10D0A000FFFFFFFFFFFFFFFFFFFFFFFFFFFFFFFF90
:10D0B000FFFFFFFFFFFFFFFFFFFFFFFFFFFFFFFF80
:10D0C000FFFFFFFFFFFFFFFFFFFFFFFFFFFFFFFF70
:10D0D000FFFFFFFFFFFFFFFFFFFFFFFFFFFFFFFF60
:10D0E000FFFFFFFFFFFFFFFFFFFFFFFFFFFFFFFF50
:10D0F000FFFFFFFFFFFFFFFFFFFFFFFFFFFFFFFF40
:10D10000FFFFFFFFFFFFFFFFFFFFFFFFFFFFFFFF2F
:10D11000FFFFFFFFFFFFFFFFFFFFFFFFFFFFFFFF1F
:10D12000FFFFFFFFFFFFFFFFFFFFFFFFFFFFFFFF0F
:10D13000FFFFFFFFFFFFFFFFFFFFFFFFFFFFFFFFFF
:10D14000FFFFFFFFFFFFFFFFFFFFFFFFFFFFFFFFEF
:10D15000FFFFFFFFFFFFFFFFFFFFFFFFFFFFFFFFDF
:10D16000FFFFFFFFFFFFFFFFFFFFFFFFFFFFFFFFCF
:10D17000FFFFFFFFFFFFFFFFFFFFFFFFFFFFFFFFBF
:10D18000FFFFFFFFFFFFFFFFFFFFFFFFFFFFFFFFAF
:10D19000FFFFFFFFFFFFFFFFFFFFFFFFFFFFFFFF9F
:10D1A000FFFFFFFFFFFFFFFFFFFFFFFFFFFFFFFF8F
:10D1B000FFFFFFFFFFFFFFFFFFFFFFFFFFFFFFFF7F
:10D1C000FFFFFFFFFFFFFFFFFFFFFFFFFFFFFFFF6F
:10D1D000FFFFFFFFFFFFFFFFFFFFFFFFFFFFFFFF5F
:10D1E000FFFFFFFFFFFFFFFFFFFFFFFFFFFFFFFF4F
:10D1F000FFFFFFFFFFFFFFFFFFFFFFFFFFFFFFFF3F
:10D20000FFFFFFFFFFFFFFFFFFFFFFFFFFFFFFFF2E
:10D21000FFFFFFFFFFFFFFFFFFFFFFFFFFFFFFFF1E
:10D22000FFFFFFFFFFFFFFFFFFFFFFFFFFFFFFFF0E
:10D23000FFFFFFFFFFFFFFFFFFFFFFFFFFFFFFFFFE
:10D24000FFFFFFFFFFFFFFFFFFFFFFFFFFFFFFFFEE
:10D25000FFFFFFFFFFFFFFFFFFFFFFFFFFFFFFFFDE
:10D26000FFFFFFFFFFFFFFFFFFFFFFFFFFFFFFFFCE
:10D27000FFFFFFFFFFFFFFFFFFFFFFFFFFFFFFFFBE
:10D28000FFFFFFFFFFFFFFFFFFFFFFFFFFFFFFFFAE
:10D29000FFFFFFFFFFFFFFFFFFFFFFFFFFFFFFFF9E
:10D2A000FFFFFFFFFFFFFFFFFFFFFFFFFFFFFFFF8E
:10D2B000FFFFFFFFFFFFFFFFFFFFFFFFFFFFFFFF7E
:10D2C000FFFFFFFFFFFFFFFFFFFFFFFFFFFFFFFF6E
:10D2D000FFFFFFFFFFFFFFFFFFFFFFFFFFFFFFFF5E
:10D2E000FFFFFFFFFFFFFFFFFFFFFFFFFFFFFFFF4E
:10D2F000FFFFFFFFFFFFFFFFFFFFFFFFFFFFFFFF3E
:10D30000FFFFFFFFFFFFFFFFFFFFFFFFFFFFFFFF2D
:10D31000FFFFFFFFFFFFFFFFFFFFFFFFFFFFFFFF1D
:10D32000FFFFFFFFFFFFFFFFFFFFFFFFFFFFFFFF0D
:10D33000FFFFFFFFFFFFFFFFFFFFFFFFFFFFFFFFFD
:10D34000FFFFFFFFFFFFFFFFFFFFFFFFFFFFFFFFED
:10D35000FFFFFFFFFFFFFFFFFFFFFFFFFFFFFFFFDD
:10D36000FFFFFFFFFFFFFFFFFFFFFFFFFFFFFFFFCD
:10D37000FFFFFFFFFFFFFFFFFFFFFFFFFFFFFFFFBD
:10D38000FFFFFFFFFFFFFFFFFFFFFFFFFFFFFFFFAD
:10D39000FFFFFFFFFFFFFFFFFFFFFFFFFFFFFFFF9D
:10D3A000FFFFFFFFFFFFFFFFFFFFFFFFFFFFFFFF8D
:10D3B000FFFFFFFFFFFFFFFFFFFFFFFFFFFFFFFF7D
:10D3C000FFFFFFFFFFFFFFFFFFFFFFFFFFFFFFFF6D
:10D3D000FFFFFFFFFFFFFFFFFFFFFFFFFFFFFFFF5D
:10D3E000FFFFFFFFFFFFFFFFFFFFFFFFFFFFFFFF4D
:10D3F000FFFFFFFFFFFFFFFFFFFFFFFFFFFFFFFF3D
:10D40000FFFFFFFFFFFFFFFFFFFFFFFFFFFFFFFF2C
:10D41000FFFFFFFFFFFFFFFFFFFFFFFFFFFFFFFF1C
:10D42000FFFFFFFFFFFFFFFFFFFFFFFFFFFFFFFF0C
:10D43000FFFFFFFFFFFFFFFFFFFFFFFFFFFFFFFFFC
:10D44000FFFFFFFFFFFFFFFFFFFFFFFFFFFFFFFFEC
:10D45000FFFFFFFFFFFFFFFFFFFFFFFFFFFFFFFFDC
:10D46000FFFFFFFFFFFFFFFFFFFFFFFFFFFFFFFFCC
:10D47000FFFFFFFFFFFFFFFFFFFFFFFFFFFFFFFFBC
:10D48000FFFFFFFFFFFFFFFFFFFFFFFFFFFFFFFFAC
:10D49000FFFFFFFFFFFFFFFFFFFFFFFFFFFFFFFF9C
:10D4A000FFFFFFFFFFFFFFFFFFFFFFFFFFFFFFFF8C
:10D4B000FFFFFFFFFFFFFFFFFFFFFFFFFFFFFFFF7C
:10D4C000FFFFFFFFFFFFFFFFFFFFFFFFFFFFFFFF6C
:10D4D000FFFFFFFFFFFFFFFFFFFFFFFFFFFFFFFF5C
:10D4E000FFFFFFFFFFFFFFFFFFFFFFFFFFFFFFFF4C
:10D4F000FFFFFFFFFFFFFFFFFFFFFFFFFFFFFFFF3C
:10D50000FFFFFFFFFFFFFFFFFFFFFFFFFFFFFFFF2B
:10D51000FFFFFFFFFFFFFFFFFFFFFFFFFFFFFFFF1B
:10D52000FFFFFFFFFFFFFFFFFFFFFFFFFFFFFFFF0B
:10D53000FFFFFFFFFFFFFFFFFFFFFFFFFFFFFFFFFB
:10D54000FFFFFFFFFFFFFFFFFFFFFFFFFFFFFFFFEB
:10D55000FFFFFFFFFFFFFFFFFFFFFFFFFFFFFFFFDB
:10D56000FFFFFFFFFFFFFFFFFFFFFFFFFFFFFFFFCB
:10D57000FFFFFFFFFFFFFFFFFFFFFFFFFFFFFFFFBB
:10D58000FFFFFFFFFFFFFFFFFFFFFFFFFFFFFFFFAB
:10D59000FFFFFFFFFFFFFFFFFFFFFFFFFFFFFFFF9B
:10D5A000FFFFFFFFFFFFFFFFFFFFFFFFFFFFFFFF8B
:10D5B000FFFFFFFFFFFFFFFFFFFFFFFFFFFFFFFF7B
:10D5C000FFFFFFFFFFFFFFFFFFFFFFFFFFFFFFFF6B
:10D5D000FFFFFFFFFFFFFFFFFFFFFFFFFFFFFFFF5B
:10D5E000FFFFFFFFFFFFFFFFFFFFFFFFFFFFFFFF4B
:10D5F000FFFFFFFFFFFFFFFFFFFFFFFFFFFFFFFF3B
:10D60000FFFFFFFFFFFFFFFFFFFFFFFFFFFFFFFF2A
:10D61000FFFFFFFFFFFFFFFFFFFFFFFFFFFFFFFF1A
:10D62000FFFFFFFFFFFFFFFFFFFFFFFFFFFFFFFF0A
:10D63000FFFFFFFFFFFFFFFFFFFFFFFFFFFFFFFFFA
:10D64000FFFFFFFFFFFFFFFFFFFFFFFFFFFFFFFFEA
:10D65000FFFFFFFFFFFFFFFFFFFFFFFFFFFFFFFFDA
:10D66000FFFFFFFFFFFFFFFFFFFFFFFFFFFFFFFFCA
:10D67000FFFFFFFFFFFFFFFFFFFFFFFFFFFFFFFFBA
:10D68000FFFFFFFFFFFFFFFFFFFFFFFFFFFFFFFFAA
:10D69000FFFFFFFFFFFFFFFFFFFFFFFFFFFFFFFF9A
:10D6A000FFFFFFFFFFFFFFFFFFFFFFFFFFFFFFFF8A
:10D6B000FFFFFFFFFFFFFFFFFFFFFFFFFFFFFFFF7A
:10D6C000FFFFFFFFFFFFFFFFFFFFFFFFFFFFFFFF6A
:10D6D000FFFFFFFFFFFFFFFFFFFFFFFFFFFFFFFF5A
:10D6E000FFFFFFFFFFFFFFFFFFFFFFFFFFFFFFFF4A
:10D6F000FFFFFFFFFFFFFFFFFFFFFFFFFFFFFFFF3A
:10D70000FFFFFFFFFFFFFFFFFFFFFFFFFFFFFFFF29
:10D71000FFFFFFFFFFFFFFFFFFFFFFFFFFFFFFFF19
:10D72000FFFFFFFFFFFFFFFFFFFFFFFFFFFFFFFF09
:10D73000FFFFFFFFFFFFFFFFFFFFFFFFFFFFFFFFF9
:10D74000FFFFFFFFFFFFFFFFFFFFFFFFFFFFFFFFE9
:10D75000FFFFFFFFFFFFFFFFFFFFFFFFFFFFFFFFD9
:10D76000FFFFFFFFFFFFFFFFFFFFFFFFFFFFFFFFC9
:10D77000FFFFFFFFFFFFFFFFFFFFFFFFFFFFFFFFB9
:10D78000FFFFFFFFFFFFFFFFFFFFFFFFFFFFFFFFA9
:10D79000FFFFFFFFFFFFFFFFFFFFFFFFFFFFFFFF99
:10D7A000FFFFFFFFFFFFFFFFFFFFFFFFFFFFFFFF89
:10D7B000FFFFFFFFFFFFFFFFFFFFFFFFFFFFFFFF79
:10D7C000FFFFFFFFFFFFFFFFFFFFFFFFFFFFFFFF69
:10D7D000FFFFFFFFFFFFFFFFFFFFFFFFFFFFFFFF59
:10D7E000FFFFFFFFFFFFFFFFFFFFFFFFFFFFFFFF49
:10D7F000FFFFFFFFFFFFFFFFFFFFFFFFFFFFFFFF39
:10D80000FFFFFFFFFFFFFFFFFFFFFFFFFFFFFFFF28
:10D81000FFFFFFFFFFFFFFFFFFFFFFFFFFFFFFFF18
:10D82000FFFFFFFFFFFFFFFFFFFFFFFFFFFFFFFF08
:10D83000FFFFFFFFFFFFFFFFFFFFFFFFFFFFFFFFF8
:10D84000FFFFFFFFFFFFFFFFFFFFFFFFFFFFFFFFE8
:10D85000FFFFFFFFFFFFFFFFFFFFFFFFFFFFFFFFD8
:10D86000FFFFFFFFFFFFFFFFFFFFFFFFFFFFFFFFC8
:10D87000FFFFFFFFFFFFFFFFFFFFFFFFFFFFFFFFB8
:10D88000FFFFFFFFFFFFFFFFFFFFFFFFFFFFFFFFA8
:10D89000FFFFFFFFFFFFFFFFFFFFFFFFFFFFFFFF98
:10D8A000FFFFFFFFFFFFFFFFFFFFFFFFFFFFFFFF88
:10D8B000FFFFFFFFFFFFFFFFFFFFFFFFFFFFFFFF78
:10D8C000FFFFFFFFFFFFFFFFFFFFFFFFFFFFFFFF68
:10D8D000FFFFFFFFFFFFFFFFFFFFFFFFFFFFFFFF58
:10D8E000FFFFFFFFFFFFFFFFFFFFFFFFFFFFFFFF48
:10D8F000FFFFFFFFFFFFFFFFFFFFFFFFFFFFFFFF38
:10D90000FFFFFFFFFFFFFFFFFFFFFFFFFFFFFFFF27
:10D91000FFFFFFFFFFFFFFFFFFFFFFFFFFFFFFFF17
:10D92000FFFFFFFFFFFFFFFFFFFFFFFFFFFFFFFF07
:10D93000FFFFFFFFFFFFFFFFFFFFFFFFFFFFFFFFF7
:10D94000FFFFFFFFFFFFFFFFFFFFFFFFFFFFFFFFE7
:10D95000FFFFFFFFFFFFFFFFFFFFFFFFFFFFFFFFD7
:10D96000FFFFFFFFFFFFFFFFFFFFFFFFFFFFFFFFC7
:10D97000FFFFFFFFFFFFFFFFFFFFFFFFFFFFFFFFB7
:10D98000FFFFFFFFFFFFFFFFFFFFFFFFFFFFFFFFA7
:10D99000FFFFFFFFFFFFFFFFFFFFFFFFFFFFFFFF97
:10D9A000FFFFFFFFFFFFFFFFFFFFFFFFFFFFFFFF87
:10D9B000FFFFFFFFFFFFFFFFFFFFFFFFFFFFFFFF77
:10D9C000FFFFFFFFFFFFFFFFFFFFFFFFFFFFFFFF67
:10D9D000FFFFFFFFFFFFFFFFFFFFFFFFFFFFFFFF57
:10D9E000FFFFFFFFFFFFFFFFFFFFFFFFFFFFFFFF47
:10D9F000FFFFFFFFFFFFFFFFFFFFFFFFFFFFFFFF37
:10DA0000FFFFFFFFFFFFFFFFFFFFFFFFFFFFFFFF26
:10DA1000FFFFFFFFFFFFFFFFFFFFFFFFFFFFFFFF16
:10DA2000FFFFFFFFFFFFFFFFFFFFFFFFFFFFFFFF06
:10DA3000FFFFFFFFFFFFFFFFFFFFFFFFFFFFFFFFF6
:10DA4000FFFFFFFFFFFFFFFFFFFFFFFFFFFFFFFFE6
:10DA5000FFFFFFFFFFFFFFFFFFFFFFFFFFFFFFFFD6
:10DA6000FFFFFFFFFFFFFFFFFFFFFFFFFFFFFFFFC6
:10DA7000FFFFFFFFFFFFFFFFFFFFFFFFFFFFFFFFB6
:10DA8000FFFFFFFFFFFFFFFFFFFFFFFFFFFFFFFFA6
:10DA9000FFFFFFFFFFFFFFFFFFFFFFFFFFFFFFFF96
:10DAA000FFFFFFFFFFFFFFFFFFFFFFFFFFFFFFFF86
:10DAB000FFFFFFFFFFFFFFFFFFFFFFFFFFFFFFFF76
:10DAC000FFFFFFFFFFFFFFFFFFFFFFFFFFFFFFFF66
:10DAD000FFFFFFFFFFFFFFFFFFFFFFFFFFFFFFFF56
:10DAE000FFFFFFFFFFFFFFFFFFFFFFFFFFFFFFFF46
:10DAF000FFFFFFFFFFFFFFFFFFFFFFFFFFFFFFFF36
:10DB0000FFFFFFFFFFFFFFFFFFFFFFFFFFFFFFFF25
:10DB1000FFFFFFFFFFFFFFFFFFFFFFFFFFFFFFFF15
:10DB2000FFFFFFFFFFFFFFFFFFFFFFFFFFFFFFFF05
:10DB3000FFFFFFFFFFFFFFFFFFFFFFFFFFFFFFFFF5
:10DB4000FFFFFFFFFFFFFFFFFFFFFFFFFFFFFFFFE5
:10DB5000FFFFFFFFFFFFFFFFFFFFFFFFFFFFFFFFD5
:10DB6000FFFFFFFFFFFFFFFFFFFFFFFFFFFFFFFFC5
:10DB7000FFFFFFFFFFFFFFFFFFFFFFFFFFFFFFFFB5
:10DB8000FFFFFFFFFFFFFFFFFFFFFFFFFFFFFFFFA5
:10DB9000FFFFFFFFFFFFFFFFFFFFFFFFFFFFFFFF95
:10DBA000FFFFFFFFFFFFFFFFFFFFFFFFFFFFFFFF85
:10DBB000FFFFFFFFFFFFFFFFFFFFFFFFFFFFFFFF75
:10DBC000FFFFFFFFFFFFFFFFFFFFFFFFFFFFFFFF65
:10DBD000FFFFFFFFFFFFFFFFFFFFFFFFFFFFFFFF55
:10DBE000FFFFFFFFFFFFFFFFFFFFFFFFFFFFFFFF45
:10DBF000FFFFFFFFFFFFFFFFFFFFFFFFFFFFFFFF35
:10DC0000FFFFFFFFFFFFFFFFFFFFFFFFFFFFFFFF24
:10DC1000FFFFFFFFFFFFFFFFFFFFFFFFFFFFFFFF14
:10DC2000FFFFFFFFFFFFFFFFFFFFFFFFFFFFFFFF04
:10DC3000FFFFFFFFFFFFFFFFFFFFFFFFFFFFFFFFF4
:10DC4000FFFFFFFFFFFFFFFFFFFFFFFFFFFFFFFFE4
:10DC5000FFFFFFFFFFFFFFFFFFFFFFFFFFFFFFFFD4
:10DC6000FFFFFFFFFFFFFFFFFFFFFFFFFFFFFFFFC4
:10DC7000FFFFFFFFFFFFFFFFFFFFFFFFFFFFFFFFB4
:10DC8000FFFFFFFFFFFFFFFFFFFFFFFFFFFFFFFFA4
:10DC9000FFFFFFFFFFFFFFFFFFFFFFFFFFFFFFFF94
:10DCA000FFFFFFFFFFFFFFFFFFFFFFFFFFFFFFFF84
:10DCB000FFFFFFFFFFFFFFFFFFFFFFFFFFFFFFFF74
:10DCC000FFFFFFFFFFFFFFFFFFFFFFFFFFFFFFFF64
:10DCD000FFFFFFFFFFFFFFFFFFFFFFFFFFFFFFFF54
:10DCE000FFFFFFFFFFFFFFFFFFFFFFFFFFFFFFFF44
:10DCF000FFFFFFFFFFFFFFFFFFFFFFFFFFFFFFFF34
:10DD0000FFFFFFFFFFFFFFFFFFFFFFFFFFFFFFFF23
:10DD1000FFFFFFFFFFFFFFFFFFFFFFFFFFFFFFFF13
:10DD2000FFFFFFFFFFFFFFFFFFFFFFFFFFFFFFFF03
:10DD3000FFFFFFFFFFFFFFFFFFFFFFFFFFFFFFFFF3
:10DD4000FFFFFFFFFFFFFFFFFFFFFFFFFFFFFFFFE3
:10DD5000FFFFFFFFFFFFFFFFFFFFFFFFFFFFFFFFD3
:10DD6000FFFFFFFFFFFFFFFFFFFFFFFFFFFFFFFFC3
:10DD7000FFFFFFFFFFFFFFFFFFFFFFFFFFFFFFFFB3
:10DD8000FFFFFFFFFFFFFFFFFFFFFFFFFFFFFFFFA3
:10DD9000FFFFFFFFFFFFFFFFFFFFFFFFFFFFFFFF93
:10DDA000FFFFFFFFFFFFFFFFFFFFFFFFFFFFFFFF83
:10DDB000FFFFFFFFFFFFFFFFFFFFFFFFFFFFFFFF73
:10DDC000FFFFFFFFFFFFFFFFFFFFFFFFFFFFFFFF63
:10DDD000FFFFFFFFFFFFFFFFFFFFFFFFFFFFFFFF53
:10DDE000FFFFFFFFFFFFFFFFFFFFFFFFFFFFFFFF43
:10DDF000FFFFFFFFFFFFFFFFFFFFFFFFFFFFFFFF33
:10DE0000FFFFFFFFFFFFFFFFFFFFFFFFFFFFFFFF22
:10DE1000FFFFFFFFFFFFFFFFFFFFFFFFFFFFFFFF12
:10DE2000FFFFFFFFFFFFFFFFFFFFFFFFFFFFFFFF02
:10DE3000FFFFFFFFFFFFFFFFFFFFFFFFFFFFFFFFF2
:10DE4000FFFFFFFFFFFFFFFFFFFFFFFFFFFFFFFFE2
:10DE5000FFFFFFFFFFFFFFFFFFFFFFFFFFFFFFFFD2
:10DE6000FFFFFFFFFFFFFFFFFFFFFFFFFFFFFFFFC2
:10DE7000FFFFFFFFFFFFFFFFFFFFFFFFFFFFFFFFB2
:10DE8000FFFFFFFFFFFFFFFFFFFFFFFFFFFFFFFFA2
:10DE9000FFFFFFFFFFFFFFFFFFFFFFFFFFFFFFFF92
:10DEA000FFFFFFFFFFFFFFFFFFFFFFFFFFFFFFFF82
:10DEB000FFFFFFFFFFFFFFFFFFFFFFFFFFFFFFFF72
:10DEC000FFFFFFFFFFFFFFFFFFFFFFFFFFFFFFFF62
:10DED000FFFFFFFFFFFFFFFFFFFFFFFFFFFFFFFF52
:10DEE000FFFFFFFFFFFFFFFFFFFFFFFFFFFFFFFF42
:10DEF000FFFFFFFFFFFFFFFFFFFFFFFFFFFFFFFF32
:10DF0000FFFFFFFFFFFFFFFFFFFFFFFFFFFFFFFF21
:10DF1000FFFFFFFFFFFFFFFFFFFFFFFFFFFFFFFF11
:10DF2000FFFFFFFFFFFFFFFFFFFFFFFFFFFFFFFF01
:10DF3000FFFFFFFFFFFFFFFFFFFFFFFFFFFFFFFFF1
:10DF4000FFFFFFFFFFFFFFFFFFFFFFFFFFFFFFFFE1
:10DF5000FFFFFFFFFFFFFFFFFFFFFFFFFFFFFFFFD1
:10DF6000FFFFFFFFFFFFFFFFFFFFFFFFFFFFFFFFC1
:10DF7000FFFFFFFFFFFFFFFFFFFFFFFFFFFFFFFFB1
:10DF8000FFFFFFFFFFFFFFFFFFFFFFFFFFFFFFFFA1
:10DF9000FFFFFFFFFFFFFFFFFFFFFFFFFFFFFFFF91
:10DFA000FFFFFFFFFFFFFFFFFFFFFFFFFFFFFFFF81
:10DFB000FFFFFFFFFFFFFFFFFFFFFFFFFFFFFFFF71
:10DFC000FFFFFFFFFFFFFFFFFFFFFFFFFFFFFFFF61
:10DFD000FFFFFFFFFFFFFFFFFFFFFFFFFFFFFFFF51
:10DFE000FFFFFFFFFFFFFFFFFFFFFFFFFFFFFFFF41
:10DFF000FFFFFFFFFFFFFFFFFFFFFFFFFFFFFFFF31
:10E00000FFFFFFFFFFFFFFFFFFFFFFFFFFFFFFFF20
:10E01000FFFFFFFFFFFFFFFFFFFFFFFFFFFFFFFF10
:10E02000FFFFFFFFFFFFFFFFFFFFFFFFFFFFFFFF00
:10E03000FFFFFFFFFFFFFFFFFFFFFFFFFFFFFFFFF0
:10E04000FFFFFFFFFFFFFFFFFFFFFFFFFFFFFFFFE0
:10E05000FFFFFFFFFFFFFFFFFFFFFFFFFFFFFFFFD0
:10E06000FFFFFFFFFFFFFFFFFFFFFFFFFFFFFFFFC0
:10E07000FFFFFFFFFFFFFFFFFFFFFFFFFFFFFFFFB0
:10E08000FFFFFFFFFFFFFFFFFFFFFFFFFFFFFFFFA0
:10E09000FFFFFFFFFFFFFFFFFFFFFFFFFFFFFFFF90
:10E0A000FFFFFFFFFFFFFFFFFFFFFFFFFFFFFFFF80
:10E0B000FFFFFFFFFFFFFFFFFFFFFFFFFFFFFFFF70
:10E0C000FFFFFFFFFFFFFFFFFFFFFFFFFFFFFFFF60
:10E0D000FFFFFFFFFFFFFFFFFFFFFFFFFFFFFFFF50
:10E0E000FFFFFFFFFFFFFFFFFFFFFFFFFFFFFFFF40
:10E0F000FFFFFFFFFFFFFFFFFFFFFFFFFFFFFFFF30
:10E10000FFFFFFFFFFFFFFFFFFFFFFFFFFFFFFFF1F
:10E11000FFFFFFFFFFFFFFFFFFFFFFFFFFFFFFFF0F
:10E12000FFFFFFFFFFFFFFFFFFFFFFFFFFFFFFFFFF
:10E13000FFFFFFFFFFFFFFFFFFFFFFFFFFFFFFFFEF
:10E14000FFFFFFFFFFFFFFFFFFFFFFFFFFFFFFFFDF
:10E15000FFFFFFFFFFFFFFFFFFFFFFFFFFFFFFFFCF
:10E16000FFFFFFFFFFFFFFFFFFFFFFFFFFFFFFFFBF
:10E17000FFFFFFFFFFFFFFFFFFFFFFFFFFFFFFFFAF
:10E18000FFFFFFFFFFFFFFFFFFFFFFFFFFFFFFFF9F
:10E19000FFFFFFFFFFFFFFFFFFFFFFFFFFFFFFFF8F
:10E1A000FFFFFFFFFFFFFFFFFFFFFFFFFFFFFFFF7F
:10E1B000FFFFFFFFFFFFFFFFFFFFFFFFFFFFFFFF6F
:10E1C000FFFFFFFFFFFFFFFFFFFFFFFFFFFFFFFF5F
:10E1D000FFFFFFFFFFFFFFFFFFFFFFFFFFFFFFFF4F
:10E1E000FFFFFFFFFFFFFFFFFFFFFFFFFFFFFFFF3F
:10E1F000FFFFFFFFFFFFFFFFFFFFFFFFFFFFFFFF2F
:10E20000FFFFFFFFFFFFFFFFFFFFFFFFFFFFFFFF1E
:10E21000FFFFFFFFFFFFFFFFFFFFFFFFFFFFFFFF0E
:10E22000FFFFFFFFFFFFFFFFFFFFFFFFFFFFFFFFFE
:10E23000FFFFFFFFFFFFFFFFFFFFFFFFFFFFFFFFEE
:10E24000FFFFFFFFFFFFFFFFFFFFFFFFFFFFFFFFDE
:10E25000FFFFFFFFFFFFFFFFFFFFFFFFFFFFFFFFCE
:10E26000FFFFFFFFFFFFFFFFFFFFFFFFFFFFFFFFBE
:10E27000FFFFFFFFFFFFFFFFFFFFFFFFFFFFFFFFAE
:10E28000FFFFFFFFFFFFFFFFFFFFFFFFFFFFFFFF9E
:10E29000FFFFFFFFFFFFFFFFFFFFFFFFFFFFFFFF8E
:10E2A000FFFFFFFFFFFFFFFFFFFFFFFFFFFFFFFF7E
:10E2B000FFFFFFFFFFFFFFFFFFFFFFFFFFFFFFFF6E
:10E2C000FFFFFFFFFFFFFFFFFFFFFFFFFFFFFFFF5E
:10E2D000FFFFFFFFFFFFFFFFFFFFFFFFFFFFFFFF4E
:10E2E000FFFFFFFFFFFFFFFFFFFFFFFFFFFFFFFF3E
:10E2F000FFFFFFFFFFFFFFFFFFFFFFFFFFFFFFFF2E
:10E30000FFFFFFFFFFFFFFFFFFFFFFFFFFFFFFFF1D
:10E31000FFFFFFFFFFFFFFFFFFFFFFFFFFFFFFFF0D
:10E32000FFFFFFFFFFFFFFFFFFFFFFFFFFFFFFFFFD
:10E33000FFFFFFFFFFFFFFFFFFFFFFFFFFFFFFFFED
:10E34000FFFFFFFFFFFFFFFFFFFFFFFFFFFFFFFFDD
:10E35000FFFFFFFFFFFFFFFFFFFFFFFFFFFFFFFFCD
:10E36000FFFFFFFFFFFFFFFFFFFFFFFFFFFFFFFFBD
:10E37000FFFFFFFFFFFFFFFFFFFFFFFFFFFFFFFFAD
:10E38000FFFFFFFFFFFFFFFFFFFFFFFFFFFFFFFF9D
:10E39000FFFFFFFFFFFFFFFFFFFFFFFFFFFFFFFF8D
:10E3A000FFFFFFFFFFFFFFFFFFFFFFFFFFFFFFFF7D
:10E3B000FFFFFFFFFFFFFFFFFFFFFFFFFFFFFFFF6D
:10E3C000FFFFFFFFFFFFFFFFFFFFFFFFFFFFFFFF5D
:10E3D000FFFFFFFFFFFFFFFFFFFFFFFFFFFFFFFF4D
:10E3E000FFFFFFFFFFFFFFFFFFFFFFFFFFFFFFFF3D
:10E3F000FFFFFFFFFFFFFFFFFFFFFFFFFFFFFFFF2D
:10E40000FFFFFFFFFFFFFFFFFFFFFFFFFFFFFFFF1C
:10E41000FFFFFFFFFFFFFFFFFFFFFFFFFFFFFFFF0C
:10E42000FFFFFFFFFFFFFFFFFFFFFFFFFFFFFFFFFC
:10E43000FFFFFFFFFFFFFFFFFFFFFFFFFFFFFFFFEC
:10E44000FFFFFFFFFFFFFFFFFFFFFFFFFFFFFFFFDC
:10E45000FFFFFFFFFFFFFFFFFFFFFFFFFFFFFFFFCC
:10E46000FFFFFFFFFFFFFFFFFFFFFFFFFFFFFFFFBC
:10E47000FFFFFFFFFFFFFFFFFFFFFFFFFFFFFFFFAC
:10E48000FFFFFFFFFFFFFFFFFFFFFFFFFFFFFFFF9C
:10E49000FFFFFFFFFFFFFFFFFFFFFFFFFFFFFFFF8C
:10E4A000FFFFFFFFFFFFFFFFFFFFFFFFFFFFFFFF7C
:10E4B000FFFFFFFFFFFFFFFFFFFFFFFFFFFFFFFF6C
:10E4C000FFFFFFFFFFFFFFFFFFFFFFFFFFFFFFFF5C
:10E4D000FFFFFFFFFFFFFFFFFFFFFFFFFFFFFFFF4C
:10E4E000FFFFFFFFFFFFFFFFFFFFFFFFFFFFFFFF3C
:10E4F000FFFFFFFFFFFFFFFFFFFFFFFFFFFFFFFF2C
:10E50000FFFFFFFFFFFFFFFFFFFFFFFFFFFFFFFF1B
:10E51000FFFFFFFFFFFFFFFFFFFFFFFFFFFFFFFF0B
:10E52000FFFFFFFFFFFFFFFFFFFFFFFFFFFFFFFFFB
:10E53000FFFFFFFFFFFFFFFFFFFFFFFFFFFFFFFFEB
:10E54000FFFFFFFFFFFFFFFFFFFFFFFFFFFFFFFFDB
:10E55000FFFFFFFFFFFFFFFFFFFFFFFFFFFFFFFFCB
:10E56000FFFFFFFFFFFFFFFFFFFFFFFFFFFFFFFFBB
:10E57000FFFFFFFFFFFFFFFFFFFFFFFFFFFFFFFFAB
:10E58000FFFFFFFFFFFFFFFFFFFFFFFFFFFFFFFF9B
:10E59000FFFFFFFFFFFFFFFFFFFFFFFFFFFFFFFF8B
:10E5A000FFFFFFFFFFFFFFFFFFFFFFFFFFFFFFFF7B
:10E5B000FFFFFFFFFFFFFFFFFFFFFFFFFFFFFFFF6B
:10E5C000FFFFFFFFFFFFFFFFFFFFFFFFFFFFFFFF5B
:10E5D000FFFFFFFFFFFFFFFFFFFFFFFFFFFFFFFF4B
:10E5E000FFFFFFFFFFFFFFFFFFFFFFFFFFFFFFFF3B
:10E5F000FFFFFFFFFFFFFFFFFFFFFFFFFFFFFFFF2B
:10E60000FFFFFFFFFFFFFFFFFFFFFFFFFFFFFFFF1A
:10E61000FFFFFFFFFFFFFFFFFFFFFFFFFFFFFFFF0A
:10E62000FFFFFFFFFFFFFFFFFFFFFFFFFFFFFFFFFA
:10E63000FFFFFFFFFFFFFFFFFFFFFFFFFFFFFFFFEA
:10E64000FFFFFFFFFFFFFFFFFFFFFFFFFFFFFFFFDA
:10E65000FFFFFFFFFFFFFFFFFFFFFFFFFFFFFFFFCA
:10E66000FFFFFFFFFFFFFFFFFFFFFFFFFFFFFFFFBA
:10E67000FFFFFFFFFFFFFFFFFFFFFFFFFFFFFFFFAA
:10E68000FFFFFFFFFFFFFFFFFFFFFFFFFFFFFFFF9A
:10E69000FFFFFFFFFFFFFFFFFFFFFFFFFFFFFFFF8A
:10E6A000FFFFFFFFFFFFFFFFFFFFFFFFFFFFFFFF7A
:10E6B000FFFFFFFFFFFFFFFFFFFFFFFFFFFFFFFF6A
:10E6C000FFFFFFFFFFFFFFFFFFFFFFFFFFFFFFFF5A
:10E6D000FFFFFFFFFFFFFFFFFFFFFFFFFFFFFFFF4A
:10E6E000FFFFFFFFFFFFFFFFFFFFFFFFFFFFFFFF3A
:10E6F000FFFFFFFFFFFFFFFFFFFFFFFFFFFFFFFF2A
:10E70000FFFFFFFFFFFFFFFFFFFFFFFFFFFFFFFF19
:10E71000FFFFFFFFFFFFFFFFFFFFFFFFFFFFFFFF09
:10E72000FFFFFFFFFFFFFFFFFFFFFFFFFFFFFFFFF9
:10E73000FFFFFFFFFFFFFFFFFFFFFFFFFFFFFFFFE9
:10E74000FFFFFFFFFFFFFFFFFFFFFFFFFFFFFFFFD9
:10E75000FFFFFFFFFFFFFFFFFFFFFFFFFFFFFFFFC9
:10E76000FFFFFFFFFFFFFFFFFFFFFFFFFFFFFFFFB9
:10E77000FFFFFFFFFFFFFFFFFFFFFFFFFFFFFFFFA9
:10E78000FFFFFFFFFFFFFFFFFFFFFFFFFFFFFFFF99
:10E79000FFFFFFFFFFFFFFFFFFFFFFFFFFFFFFFF89
:10E7A000FFFFFFFFFFFFFFFFFFFFFFFFFFFFFFFF79
:10E7B000FFFFFFFFFFFFFFFFFFFFFFFFFFFFFFFF69
:10E7C000FFFFFFFFFFFFFFFFFFFFFFFFFFFFFFFF59
:10E7D000FFFFFFFFFFFFFFFFFFFFFFFFFFFFFFFF49
:10E7E000FFFFFFFFFFFFFFFFFFFFFFFFFFFFFFFF39
:10E7F000FFFFFFFFFFFFFFFFFFFFFFFFFFFFFFFF29
:10E80000FFFFFFFFFFFFFFFFFFFFFFFFFFFFFFFF18
:10E81000FFFFFFFFFFFFFFFFFFFFFFFFFFFFFFFF08
:10E82000FFFFFFFFFFFFFFFFFFFFFFFFFFFFFFFFF8
:10E83000FFFFFFFFFFFFFFFFFFFFFFFFFFFFFFFFE8
:10E84000FFFFFFFFFFFFFFFFFFFFFFFFFFFFFFFFD8
:10E85000FFFFFFFFFFFFFFFFFFFFFFFFFFFFFFFFC8
:10E86000FFFFFFFFFFFFFFFFFFFFFFFFFFFFFFFFB8
:10E87000FFFFFFFFFFFFFFFFFFFFFFFFFFFFFFFFA8
:10E88000FFFFFFFFFFFFFFFFFFFFFFFFFFFFFFFF98
:10E89000FFFFFFFFFFFFFFFFFFFFFFFFFFFFFFFF88
:10E8A000FFFFFFFFFFFFFFFFFFFFFFFFFFFFFFFF78
:10E8B000FFFFFFFFFFFFFFFFFFFFFFFFFFFFFFFF68
:10E8C000FFFFFFFFFFFFFFFFFFFFFFFFFFFFFFFF58
:10E8D000FFFFFFFFFFFFFFFFFFFFFFFFFFFFFFFF48
:10E8E000FFFFFFFFFFFFFFFFFFFFFFFFFFFFFFFF38
:10E8F000FFFFFFFFFFFFFFFFFFFFFFFFFFFFFFFF28
:10E90000FFFFFFFFFFFFFFFFFFFFFFFFFFFFFFFF17
:10E91000FFFFFFFFFFFFFFFFFFFFFFFFFFFFFFFF07
:10E92000FFFFFFFFFFFFFFFFFFFFFFFFFFFFFFFFF7
:10E93000FFFFFFFFFFFFFFFFFFFFFFFFFFFFFFFFE7
:10E94000FFFFFFFFFFFFFFFFFFFFFFFFFFFFFFFFD7
:10E95000FFFFFFFFFFFFFFFFFFFFFFFFFFFFFFFFC7
:10E96000FFFFFFFFFFFFFFFFFFFFFFFFFFFFFFFFB7
:10E97000FFFFFFFFFFFFFFFFFFFFFFFFFFFFFFFFA7
:10E98000FFFFFFFFFFFFFFFFFFFFFFFFFFFFFFFF97
:10E99000FFFFFFFFFFFFFFFFFFFFFFFFFFFFFFFF87
:10E9A000FFFFFFFFFFFFFFFFFFFFFFFFFFFFFFFF77
:10E9B000FFFFFFFFFFFFFFFFFFFFFFFFFFFFFFFF67
:10E9C000FFFFFFFFFFFFFFFFFFFFFFFFFFFFFFFF57
:10E9D000FFFFFFFFFFFFFFFFFFFFFFFFFFFFFFFF47
:10E9E000FFFFFFFFFFFFFFFFFFFFFFFFFFFFFFFF37
:10E9F000FFFFFFFFFFFFFFFFFFFFFFFFFFFFFFFF27
:10EA0000FFFFFFFFFFFFFFFFFFFFFFFFFFFFFFFF16
:10EA1000FFFFFFFFFFFFFFFFFFFFFFFFFFFFFFFF06
:10EA2000FFFFFFFFFFFFFFFFFFFFFFFFFFFFFFFFF6
:10EA3000FFFFFFFFFFFFFFFFFFFFFFFFFFFFFFFFE6
:10EA4000FFFFFFFFFFFFFFFFFFFFFFFFFFFFFFFFD6
:10EA5000FFFFFFFFFFFFFFFFFFFFFFFFFFFFFFFFC6
:10EA6000FFFFFFFFFFFFFFFFFFFFFFFFFFFFFFFFB6
:10EA7000FFFFFFFFFFFFFFFFFFFFFFFFFFFFFFFFA6
:10EA8000FFFFFFFFFFFFFFFFFFFFFFFFFFFFFFFF96
:10EA9000FFFFFFFFFFFFFFFFFFFFFFFFFFFFFFFF86
:10EAA000FFFFFFFFFFFFFFFFFFFFFFFFFFFFFFFF76
:10EAB000FFFFFFFFFFFFFFFFFFFFFFFFFFFFFFFF66
:10EAC000FFFFFFFFFFFFFFFFFFFFFFFFFFFFFFFF56
:10EAD000FFFFFFFFFFFFFFFFFFFFFFFFFFFFFFFF46
:10EAE000FFFFFFFFFFFFFFFFFFFFFFFFFFFFFFFF36
:10EAF000FFFFFFFFFFFFFFFFFFFFFFFFFFFFFFFF26
:10EB0000FFFFFFFFFFFFFFFFFFFFFFFFFFFFFFFF15
:10EB1000FFFFFFFFFFFFFFFFFFFFFFFFFFFFFFFF05
:10EB2000FFFFFFFFFFFFFFFFFFFFFFFFFFFFFFFFF5
:10EB3000FFFFFFFFFFFFFFFFFFFFFFFFFFFFFFFFE5
:10EB4000FFFFFFFFFFFFFFFFFFFFFFFFFFFFFFFFD5
:10EB5000FFFFFFFFFFFFFFFFFFFFFFFFFFFFFFFFC5
:10EB6000FFFFFFFFFFFFFFFFFFFFFFFFFFFFFFFFB5
:10EB7000FFFFFFFFFFFFFFFFFFFFFFFFFFFFFFFFA5
:10EB8000FFFFFFFFFFFFFFFFFFFFFFFFFFFFFFFF95
:10EB9000FFFFFFFFFFFFFFFFFFFFFFFFFFFFFFFF85
:10EBA000FFFFFFFFFFFFFFFFFFFFFFFFFFFFFFFF75
:10EBB000FFFFFFFFFFFFFFFFFFFFFFFFFFFFFFFF65
:10EBC000FFFFFFFFFFFFFFFFFFFFFFFFFFFFFFFF55
:10EBD000FFFFFFFFFFFFFFFFFFFFFFFFFFFFFFFF45
:10EBE000FFFFFFFFFFFFFFFFFFFFFFFFFFFFFFFF35
:10EBF000FFFFFFFFFFFFFFFFFFFFFFFFFFFFFFFF25
:10EC0000FFFFFFFFFFFFFFFFFFFFFFFFFFFFFFFF14
:10EC1000FFFFFFFFFFFFFFFFFFFFFFFFFFFFFFFF04
:10EC2000FFFFFFFFFFFFFFFFFFFFFFFFFFFFFFFFF4
:10EC3000FFFFFFFFFFFFFFFFFFFFFFFFFFFFFFFFE4
:10EC4000FFFFFFFFFFFFFFFFFFFFFFFFFFFFFFFFD4
:10EC5000FFFFFFFFFFFFFFFFFFFFFFFFFFFFFFFFC4
:10EC6000FFFFFFFFFFFFFFFFFFFFFFFFFFFFFFFFB4
:10EC7000FFFFFFFFFFFFFFFFFFFFFFFFFFFFFFFFA4
:10EC8000FFFFFFFFFFFFFFFFFFFFFFFFFFFFFFFF94
:10EC9000FFFFFFFFFFFFFFFFFFFFFFFFFFFFFFFF84
:10ECA000FFFFFFFFFFFFFFFFFFFFFFFFFFFFFFFF74
:10ECB000FFFFFFFFFFFFFFFFFFFFFFFFFFFFFFFF64
:10ECC000FFFFFFFFFFFFFFFFFFFFFFFFFFFFFFFF54
:10ECD000FFFFFFFFFFFFFFFFFFFFFFFFFFFFFFFF44
:10ECE000FFFFFFFFFFFFFFFFFFFFFFFFFFFFFFFF34
:10ECF000FFFFFFFFFFFFFFFFFFFFFFFFFFFFFFFF24
:10ED0000FFFFFFFFFFFFFFFFFFFFFFFFFFFFFFFF13
:10ED1000FFFFFFFFFFFFFFFFFFFFFFFFFFFFFFFF03
:10ED2000FFFFFFFFFFFFFFFFFFFFFFFFFFFFFFFFF3
:10ED3000FFFFFFFFFFFFFFFFFFFFFFFFFFFFFFFFE3
:10ED4000FFFFFFFFFFFFFFFFFFFFFFFFFFFFFFFFD3
:10ED5000FFFFFFFFFFFFFFFFFFFFFFFFFFFFFFFFC3
:10ED6000FFFFFFFFFFFFFFFFFFFFFFFFFFFFFFFFB3
:10ED7000FFFFFFFFFFFFFFFFFFFFFFFFFFFFFFFFA3
:10ED8000FFFFFFFFFFFFFFFFFFFFFFFFFFFFFFFF93
:10ED9000FFFFFFFFFFFFFFFFFFFFFFFFFFFFFFFF83
:10EDA000FFFFFFFFFFFFFFFFFFFFFFFFFFFFFFFF73
:10EDB000FFFFFFFFFFFFFFFFFFFFFFFFFFFFFFFF63
:10EDC000FFFFFFFFFFFFFFFFFFFFFFFFFFFFFFFF53
:10EDD000FFFFFFFFFFFFFFFFFFFFFFFFFFFFFFFF43
:10EDE000FFFFFFFFFFFFFFFFFFFFFFFFFFFFFFFF33
:10EDF000FFFFFFFFFFFFFFFFFFFFFFFFFFFFFFFF23
:10EE0000FFFFFFFFFFFFFFFFFFFFFFFFFFFFFFFF12
:10EE1000FFFFFFFFFFFFFFFFFFFFFFFFFFFFFFFF02
:10EE2000FFFFFFFFFFFFFFFFFFFFFFFFFFFFFFFFF2
:10EE3000FFFFFFFFFFFFFFFFFFFFFFFFFFFFFFFFE2
:10EE4000FFFFFFFFFFFFFFFFFFFFFFFFFFFFFFFFD2
:10EE5000FFFFFFFFFFFFFFFFFFFFFFFFFFFFFFFFC2
:10EE6000FFFFFFFFFFFFFFFFFFFFFFFFFFFFFFFFB2
:10EE7000FFFFFFFFFFFFFFFFFFFFFFFFFFFFFFFFA2
:10EE8000FFFFFFFFFFFFFFFFFFFFFFFFFFFFFFFF92
:10EE9000FFFFFFFFFFFFFFFFFFFFFFFFFFFFFFFF82
:10EEA000FFFFFFFFFFFFFFFFFFFFFFFFFFFFFFFF72
:10EEB000FFFFFFFFFFFFFFFFFFFFFFFFFFFFFFFF62
:10EEC000FFFFFFFFFFFFFFFFFFFFFFFFFFFFFFFF52
:10EED000FFFFFFFFFFFFFFFFFFFFFFFFFFFFFFFF42
:10EEE000FFFFFFFFFFFFFFFFFFFFFFFFFFFFFFFF32
:10EEF000FFFFFFFFFFFFFFFFFFFFFFFFFFFFFFFF22
:10EF0000FFFFFFFFFFFFFFFFFFFFFFFFFFFFFFFF11
:10EF1000FFFFFFFFFFFFFFFFFFFFFFFFFFFFFFFF01
:10EF2000FFFFFFFFFFFFFFFFFFFFFFFFFFFFFFFFF1
:10EF3000FFFFFFFFFFFFFFFFFFFFFFFFFFFFFFFFE1
:10EF4000FFFFFFFFFFFFFFFFFFFFFFFFFFFFFFFFD1
:10EF5000FFFFFFFFFFFFFFFFFFFFFFFFFFFFFFFFC1
:10EF6000FFFFFFFFFFFFFFFFFFFFFFFFFFFFFFFFB1
:10EF7000FFFFFFFFFFFFFFFFFFFFFFFFFFFFFFFFA1
:10EF8000FFFFFFFFFFFFFFFFFFFFFFFFFFFFFFFF91
:10EF9000FFFFFFFFFFFFFFFFFFFFFFFFFFFFFFFF81
:10EFA000FFFFFFFFFFFFFFFFFFFFFFFFFFFFFFFF71
:10EFB000FFFFFFFFFFFFFFFFFFFFFFFFFFFFFFFF61
:10EFC000FFFFFFFFFFFFFFFFFFFFFFFFFFFFFFFF51
:10EFD000FFFFFFFFFFFFFFFFFFFFFFFFFFFFFFFF41
:10EFE000FFFFFFFFFFFFFFFFFFFFFFFFFFFFFFFF31
:10EFF000FFFFFFFFFFFFFFFFFFFFFFFFFFFFFFFF21
:10F00000FFFFFFFFFFFFFFFFFFFFFFFFFFFFFFFF10
:10F01000FFFFFFFFFFFFFFFFFFFFFFFFFFFFFFFF00
:10F02000FFFFFFFFFFFFFFFFFFFFFFFFFFFFFFFFF0
:10F03000FFFFFFFFFFFFFFFFFFFFFFFFFFFFFFFFE0
:10F04000FFFFFFFFFFFFFFFFFFFFFFFFFFFFFFFFD0
:10F05000FFFFFFFFFFFFFFFFFFFFFFFFFFFFFFFFC0
:10F06000FFFFFFFFFFFFFFFFFFFFFFFFFFFFFFFFB0
:10F07000FFFFFFFFFFFFFFFFFFFFFFFFFFFFFFFFA0
:10F08000FFFFFFFFFFFFFFFFFFFFFFFFFFFFFFFF90
:10F09000FFFFFFFFFFFFFFFFFFFFFFFFFFFFFFFF80
:10F0A000FFFFFFFFFFFFFFFFFFFFFFFFFFFFFFFF70
:10F0B000FFFFFFFFFFFFFFFFFFFFFFFFFFFFFFFF60
:10F0C000FFFFFFFFFFFFFFFFFFFFFFFFFFFFFFFF50
:10F0D000FFFFFFFFFFFFFFFFFFFFFFFFFFFFFFFF40
:10F0E000FFFFFFFFFFFFFFFFFFFFFFFFFFFFFFFF30
:10F0F000FFFFFFFFFFFFFFFFFFFFFFFFFFFFFFFF20
:10F10000FFFFFFFFFFFFFFFFFFFFFFFFFFFFFFFF0F
:10F11000FFFFFFFFFFFFFFFFFFFFFFFFFFFFFFFFFF
:10F12000FFFFFFFFFFFFFFFFFFFFFFFFFFFFFFFFEF
:10F13000FFFFFFFFFFFFFFFFFFFFFFFFFFFFFFFFDF
:10F14000FFFFFFFFFFFFFFFFFFFFFFFFFFFFFFFFCF
:10F15000FFFFFFFFFFFFFFFFFFFFFFFFFFFFFFFFBF
:10F16000FFFFFFFFFFFFFFFFFFFFFFFFFFFFFFFFAF
:10F17000FFFFFFFFFFFFFFFFFFFFFFFFFFFFFFFF9F
:10F18000FFFFFFFFFFFFFFFFFFFFFFFFFFFFFFFF8F
:10F19000FFFFFFFFFFFFFFFFFFFFFFFFFFFFFFFF7F
:10F1A000FFFFFFFFFFFFFFFFFFFFFFFFFFFFFFFF6F
:10F1B000FFFFFFFFFFFFFFFFFFFFFFFFFFFFFFFF5F
:10F1C000FFFFFFFFFFFFFFFFFFFFFFFFFFFFFFFF4F
:10F1D000FFFFFFFFFFFFFFFFFFFFFFFFFFFFFFFF3F
:10F1E000FFFFFFFFFFFFFFFFFFFFFFFFFFFFFFFF2F
:10F1F000FFFFFFFFFFFFFFFFFFFFFFFFFFFFFFFF1F
:10F20000FFFFFFFFFFFFFFFFFFFFFFFFFFFFFFFF0E
:10F21000FFFFFFFFFFFFFFFFFFFFFFFFFFFFFFFFFE
:10F22000FFFFFFFFFFFFFFFFFFFFFFFFFFFFFFFFEE
:10F23000FFFFFFFFFFFFFFFFFFFFFFFFFFFFFFFFDE
:10F24000FFFFFFFFFFFFFFFFFFFFFFFFFFFFFFFFCE
:10F25000FFFFFFFFFFFFFFFFFFFFFFFFFFFFFFFFBE
:10F26000FFFFFFFFFFFFFFFFFFFFFFFFFFFFFFFFAE
:10F27000FFFFFFFFFFFFFFFFFFFFFFFFFFFFFFFF9E
:10F28000FFFFFFFFFFFFFFFFFFFFFFFFFFFFFFFF8E
:10F29000FFFFFFFFFFFFFFFFFFFFFFFFFFFFFFFF7E
:10F2A000FFFFFFFFFFFFFFFFFFFFFFFFFFFFFFFF6E
:10F2B000FFFFFFFFFFFFFFFFFFFFFFFFFFFFFFFF5E
:10F2C000FFFFFFFFFFFFFFFFFFFFFFFFFFFFFFFF4E
:10F2D000FFFFFFFFFFFFFFFFFFFFFFFFFFFFFFFF3E
:10F2E000FFFFFFFFFFFFFFFFFFFFFFFFFFFFFFFF2E
:10F2F000FFFFFFFFFFFFFFFFFFFFFFFFFFFFFFFF1E
:10F30000FFFFFFFFFFFFFFFFFFFFFFFFFFFFFFFF0D
:10F31000FFFFFFFFFFFFFFFFFFFFFFFFFFFFFFFFFD
:10F32000FFFFFFFFFFFFFFFFFFFFFFFFFFFFFFFFED
:10F33000FFFFFFFFFFFFFFFFFFFFFFFFFFFFFFFFDD
:10F34000FFFFFFFFFFFFFFFFFFFFFFFFFFFFFFFFCD
:10F35000FFFFFFFFFFFFFFFFFFFFFFFFFFFFFFFFBD
:10F36000FFFFFFFFFFFFFFFFFFFFFFFFFFFFFFFFAD
:10F37000FFFFFFFFFFFFFFFFFFFFFFFFFFFFFFFF9D
:10F38000FFFFFFFFFFFFFFFFFFFFFFFFFFFFFFFF8D
:10F39000FFFFFFFFFFFFFFFFFFFFFFFFFFFFFFFF7D
:10F3A000FFFFFFFFFFFFFFFFFFFFFFFFFFFFFFFF6D
:10F3B000FFFFFFFFFFFFFFFFFFFFFFFFFFFFFFFF5D
:10F3C000FFFFFFFFFFFFFFFFFFFFFFFFFFFFFFFF4D
:10F3D000FFFFFFFFFFFFFFFFFFFFFFFFFFFFFFFF3D
:10F3E000FFFFFFFFFFFFFFFFFFFFFFFFFFFFFFFF2D
:10F3F000FFFFFFFFFFFFFFFFFFFFFFFFFFFFFFFF1D
:10F40000FFFFFFFFFFFFFFFFFFFFFFFFFFFFFFFF0C
:10F41000FFFFFFFFFFFFFFFFFFFFFFFFFFFFFFFFFC
:10F42000FFFFFFFFFFFFFFFFFFFFFFFFFFFFFFFFEC
:10F43000FFFFFFFFFFFFFFFFFFFFFFFFFFFFFFFFDC
:10F44000FFFFFFFFFFFFFFFFFFFFFFFFFFFFFFFFCC
:10F45000FFFFFFFFFFFFFFFFFFFFFFFFFFFFFFFFBC
:10F46000FFFFFFFFFFFFFFFFFFFFFFFFFFFFFFFFAC
:10F47000FFFFFFFFFFFFFFFFFFFFFFFFFFFFFFFF9C
:10F48000FFFFFFFFFFFFFFFFFFFFFFFFFFFFFFFF8C
:10F49000FFFFFFFFFFFFFFFFFFFFFFFFFFFFFFFF7C
:10F4A000FFFFFFFFFFFFFFFFFFFFFFFFFFFFFFFF6C
:10F4B000FFFFFFFFFFFFFFFFFFFFFFFFFFFFFFFF5C
:10F4C000FFFFFFFFFFFFFFFFFFFFFFFFFFFFFFFF4C
:10F4D000FFFFFFFFFFFFFFFFFFFFFFFFFFFFFFFF3C
:10F4E000FFFFFFFFFFFFFFFFFFFFFFFFFFFFFFFF2C
:10F4F000FFFFFFFFFFFFFFFFFFFFFFFFFFFFFFFF1C
:10F50000FFFFFFFFFFFFFFFFFFFFFFFFFFFFFFFF0B
:10F51000FFFFFFFFFFFFFFFFFFFFFFFFFFFFFFFFFB
:10F52000FFFFFFFFFFFFFFFFFFFFFFFFFFFFFFFFEB
:10F53000FFFFFFFFFFFFFFFFFFFFFFFFFFFFFFFFDB
:10F54000FFFFFFFFFFFFFFFFFFFFFFFFFFFFFFFFCB
:10F55000FFFFFFFFFFFFFFFFFFFFFFFFFFFFFFFFBB
:10F56000FFFFFFFFFFFFFFFFFFFFFFFFFFFFFFFFAB
:10F57000FFFFFFFFFFFFFFFFFFFFFFFFFFFFFFFF9B
:10F58000FFFFFFFFFFFFFFFFFFFFFFFFFFFFFFFF8B
:10F59000FFFFFFFFFFFFFFFFFFFFFFFFFFFFFFFF7B
:10F5A000FFFFFFFFFFFFFFFFFFFFFFFFFFFFFFFF6B
:10F5B000FFFFFFFFFFFFFFFFFFFFFFFFFFFFFFFF5B
:10F5C000FFFFFFFFFFFFFFFFFFFFFFFFFFFFFFFF4B
:10F5D000FFFFFFFFFFFFFFFFFFFFFFFFFFFFFFFF3B
:10F5E000FFFFFFFFFFFFFFFFFFFFFFFFFFFFFFFF2B
:10F5F000FFFFFFFFFFFFFFFFFFFFFFFFFFFFFFFF1B
:10F60000FFFFFFFFFFFFFFFFFFFFFFFFFFFFFFFF0A
:10F61000FFFFFFFFFFFFFFFFFFFFFFFFFFFFFFFFFA
:10F62000FFFFFFFFFFFFFFFFFFFFFFFFFFFFFFFFEA
:10F63000FFFFFFFFFFFFFFFFFFFFFFFFFFFFFFFFDA
:10F64000FFFFFFFFFFFFFFFFFFFFFFFFFFFFFFFFCA
:10F65000FFFFFFFFFFFFFFFFFFFFFFFFFFFFFFFFBA
:10F66000FFFFFFFFFFFFFFFFFFFFFFFFFFFFFFFFAA
:10F67000FFFFFFFFFFFFFFFFFFFFFFFFFFFFFFFF9A
:10F68000FFFFFFFFFFFFFFFFFFFFFFFFFFFFFFFF8A
:10F69000FFFFFFFFFFFFFFFFFFFFFFFFFFFFFFFF7A
:10F6A000FFFFFFFFFFFFFFFFFFFFFFFFFFFFFFFF6A
:10F6B000FFFFFFFFFFFFFFFFFFFFFFFFFFFFFFFF5A
:10F6C000FFFFFFFFFFFFFFFFFFFFFFFFFFFFFFFF4A
:10F6D000FFFFFFFFFFFFFFFFFFFFFFFFFFFFFFFF3A
:10F6E000FFFFFFFFFFFFFFFFFFFFFFFFFFFFFFFF2A
:10F6F000FFFFFFFFFFFFFFFFFFFFFFFFFFFFFFFF1A
:10F70000FFFFFFFFFFFFFFFFFFFFFFFFFFFFFFFF09
:10F71000FFFFFFFFFFFFFFFFFFFFFFFFFFFFFFFFF9
:10F72000FFFFFFFFFFFFFFFFFFFFFFFFFFFFFFFFE9
:10F73000FFFFFFFFFFFFFFFFFFFFFFFFFFFFFFFFD9
:10F74000FFFFFFFFFFFFFFFFFFFFFFFFFFFFFFFFC9
:10F75000FFFFFFFFFFFFFFFFFFFFFFFFFFFFFFFFB9
:10F76000FFFFFFFFFFFFFFFFFFFFFFFFFFFFFFFFA9
:10F77000FFFFFFFFFFFFFFFFFFFFFFFFFFFFFFFF99
:10F78000FFFFFFFFFFFFFFFFFFFFFFFFFFFFFFFF89
:10F79000FFFFFFFFFFFFFFFFFFFFFFFFFFFFFFFF79
:10F7A000FFFFFFFFFFFFFFFFFFFFFFFFFFFFFFFF69
:10F7B000FFFFFFFFFFFFFFFFFFFFFFFFFFFFFFFF59
:10F7C000FFFFFFFFFFFFFFFFFFFFFFFFFFFFFFFF49
:10F7D000FFFFFFFFFFFFFFFFFFFFFFFFFFFFFFFF39
:10F7E000FFFFFFFFFFFFFFFFFFFFFFFFFFFFFFFF29
:10F7F000FFFFFFFFFFFFFFFFFFFFFFFFFFFFFFFF19
:10F80000FFFFFFFFFFFFFFFFFFFFFFFFFFFFFFFF08
:10F81000FFFFFFFFFFFFFFFFFFFFFFFFFFFFFFFFF8
:10F82000FFFFFFFFFFFFFFFFFFFFFFFFFFFFFFFFE8
:10F83000FFFFFFFFFFFFFFFFFFFFFFFFFFFFFFFFD8
:10F84000FFFFFFFFFFFFFFFFFFFFFFFFFFFFFFFFC8
:10F85000FFFFFFFFFFFFFFFFFFFFFFFFFFFFFFFFB8
:10F86000FFFFFFFFFFFFFFFFFFFFFFFFFFFFFFFFA8
:10F87000FFFFFFFFFFFFFFFFFFFFFFFFFFFFFFFF98
:10F88000FFFFFFFFFFFFFFFFFFFFFFFFFFFFFFFF88
:10F89000FFFFFFFFFFFFFFFFFFFFFFFFFFFFFFFF78
:10F8A000FFFFFFFFFFFFFFFFFFFFFFFFFFFFFFFF68
:10F8B000FFFFFFFFFFFFFFFFFFFFFFFFFFFFFFFF58
:10F8C000FFFFFFFFFFFFFFFFFFFFFFFFFFFFFFFF48
:10F8D000FFFFFFFFFFFFFFFFFFFFFFFFFFFFFFFF38
:10F8E000FFFFFFFFFFFFFFFFFFFFFFFFFFFFFFFF28
:10F8F000FFFFFFFFFFFFFFFFFFFFFFFFFFFFFFFF18
:10F90000FFFFFFFFFFFFFFFFFFFFFFFFFFFFFFFF07
:10F91000FFFFFFFFFFFFFFFFFFFFFFFFFFFFFFFFF7
:10F92000FFFFFFFFFFFFFFFFFFFFFFFFFFFFFFFFE7
:10F93000FFFFFFFFFFFFFFFFFFFFFFFFFFFFFFFFD7
:10F94000FFFFFFFFFFFFFFFFFFFFFFFFFFFFFFFFC7
:10F95000FFFFFFFFFFFFFFFFFFFFFFFFFFFFFFFFB7
:10F96000FFFFFFFFFFFFFFFFFFFFFFFFFFFFFFFFA7
:10F97000FFFFFFFFFFFFFFFFFFFFFFFFFFFFFFFF97
:10F98000FFFFFFFFFFFFFFFFFFFFFFFFFFFFFFFF87
:10F99000FFFFFFFFFFFFFFFFFFFFFFFFFFFFFFFF77
:10F9A000FFFFFFFFFFFFFFFFFFFFFFFFFFFFFFFF67
:10F9B000FFFFFFFFFFFFFFFFFFFFFFFFFFFFFFFF57
:10F9C000FFFFFFFFFFFFFFFFFFFFFFFFFFFFFFFF47
:10F9D000FFFFFFFFFFFFFFFFFFFFFFFFFFFFFFFF37
:10F9E000FFFFFFFFFFFFFFFFFFFFFFFFFFFFFFFF27
:10F9F000FFFFFFFFFFFFFFFFFFFFFFFFFFFFFFFF17
:10FA0000FFFFFFFFFFFFFFFFFFFFFFFFFFFFFFFF06
:10FA1000FFFFFFFFFFFFFFFFFFFFFFFFFFFFFFFFF6
:10FA2000FFFFFFFFFFFFFFFFFFFFFFFFFFFFFFFFE6
:10FA3000FFFFFFFFFFFFFFFFFFFFFFFFFFFFFFFFD6
:10FA4000FFFFFFFFFFFFFFFFFFFFFFFFFFFFFFFFC6
:10FA5000FFFFFFFFFFFFFFFFFFFFFFFFFFFFFFFFB6
:10FA6000FFFFFFFFFFFFFFFFFFFFFFFFFFFFFFFFA6
:10FA7000FFFFFFFFFFFFFFFFFFFFFFFFFFFFFFFF96
:10FA8000FFFFFFFFFFFFFFFFFFFFFFFFFFFFFFFF86
:10FA9000FFFFFFFFFFFFFFFFFFFFFFFFFFFFFFFF76
:10FAA000FFFFFFFFFFFFFFFFFFFFFFFFFFFFFFFF66
:10FAB000FFFFFFFFFFFFFFFFFFFFFFFFFFFFFFFF56
:10FAC000FFFFFFFFFFFFFFFFFFFFFFFFFFFFFFFF46
:10FAD000FFFFFFFFFFFFFFFFFFFFFFFFFFFFFFFF36
:10FAE000FFFFFFFFFFFFFFFFFFFFFFFFFFFFFFFF26
:10FAF000FFFFFFFFFFFFFFFFFFFFFFFFFFFFFFFF16
:10FB0000FFFFFFFFFFFFFFFFFFFFFFFFFFFFFFFF05
:10FB1000FFFFFFFFFFFFFFFFFFFFFFFFFFFFFFFFF5
:10FB2000FFFFFFFFFFFFFFFFFFFFFFFFFFFFFFFFE5
:10FB3000FFFFFFFFFFFFFFFFFFFFFFFFFFFFFFFFD5
:10FB4000FFFFFFFFFFFFFFFFFFFFFFFFFFFFFFFFC5
:10FB5000FFFFFFFFFFFFFFFFFFFFFFFFFFFFFFFFB5
:10FB6000FFFFFFFFFFFFFFFFFFFFFFFFFFFFFFFFA5
:10FB7000FFFFFFFFFFFFFFFFFFFFFFFFFFFFFFFF95
:10FB8000FFFFFFFFFFFFFFFFFFFFFFFFFFFFFFFF85
:10FB9000FFFFFFFFFFFFFFFFFFFFFFFFFFFFFFFF75
:10FBA000FFFFFFFFFFFFFFFFFFFFFFFFFFFFFFFF65
:10FBB000FFFFFFFFFFFFFFFFFFFFFFFFFFFFFFFF55
:10FBC000FFFFFFFFFFFFFFFFFFFFFFFFFFFFFFFF45
:10FBD000FFFFFFFFFFFFFFFFFFFFFFFFFFFFFFFF35
:10FBE000FFFFFFFFFFFFFFFFFFFFFFFFFFFFFFFF25
:10FBF000FFFFFFFFFFFFFFFFFFFFFFFFFFFFFFFF15
:10FC0000FFFFFFFFFFFFFFFFFFFFFFFFFFFFFFFF04
:10FC1000FFFFFFFFFFFFFFFFFFFFFFFFFFFFFFFFF4
:10FC2000FFFFFFFFFFFFFFFFFFFFFFFFFFFFFFFFE4
:10FC3000FFFFFFFFFFFFFFFFFFFFFFFFFFFFFFFFD4
:10FC4000FFFFFFFFFFFFFFFFFFFFFFFFFFFFFFFFC4
:10FC5000FFFFFFFFFFFFFFFFFFFFFFFFFFFFFFFFB4
:10FC6000FFFFFFFFFFFFFFFFFFFFFFFFFFFFFFFFA4
:10FC7000FFFFFFFFFFFFFFFFFFFFFFFFFFFFFFFF94
:10FC8000FFFFFFFFFFFFFFFFFFFFFFFFFFFFFFFF84
:10FC9000FFFFFFFFFFFFFFFFFFFFFFFFFFFFFFFF74
:10FCA000FFFFFFFFFFFFFFFFFFFFFFFFFFFFFFFF64
:10FCB000FFFFFFFFFFFFFFFFFFFFFFFFFFFFFFFF54
:10FCC000FFFFFFFFFFFFFFFFFFFFFFFFFFFFFFFF44
:10FCD000FFFFFFFFFFFFFFFFFFFFFFFFFFFFFFFF34
:10FCE000FFFFFFFFFFFFFFFFFFFFFFFFFFFFFFFF24
:10FCF000FFFFFFFFFFFFFFFFFFFFFFFFFFFFFFFF14
:10FD0000FFFFFFFFFFFFFFFFFFFFFFFFFFFFFFFF03
:10FD1000FFFFFFFFFFFFFFFFFFFFFFFFFFFFFFFFF3
:10FD2000FFFFFFFFFFFFFFFFFFFFFFFFFFFFFFFFE3
:10FD3000FFFFFFFFFFFFFFFFFFFFFFFFFFFFFFFFD3
:10FD4000FFFFFFFFFFFFFFFFFFFFFFFFFFFFFFFFC3
:10FD5000FFFFFFFFFFFFFFFFFFFFFFFFFFFFFFFFB3
:10FD6000FFFFFFFFFFFFFFFFFFFFFFFFFFFFFFFFA3
:10FD7000FFFFFFFFFFFFFFFFFFFFFFFFFFFFFFFF93
:10FD8000FFFFFFFFFFFFFFFFFFFFFFFFFFFFFFFF83
:10FD9000FFFFFFFFFFFFFFFFFFFFFFFFFFFFFFFF73
:10FDA000FFFFFFFFFFFFFFFFFFFFFFFFFFFFFFFF63
:10FDB000FFFFFFFFFFFFFFFFFFFFFFFFFFFFFFFF53
:10FDC000FFFFFFFFFFFFFFFFFFFFFFFFFFFFFFFF43
:10FDD000FFFFFFFFFFFFFFFFFFFFFFFFFFFFFFFF33
:10FDE000FFFFFFFFFFFFFFFFFFFFFFFFFFFFFFFF23
:10FDF000FFFFFFFFFFFFFFFFFFFFFFFFFFFFFFFF13
:10FE0000FFFFFFFFFFFFFFFFFFFFFFFFFFFFFFFF02
:10FE1000FFFFFFFFFFFFFFFFFFFFFFFFFFFFFFFFF2
:10FE2000FFFFFFFFFFFFFFFFFFFFFFFFFFFFFFFFE2
:10FE3000FFFFFFFFFFFFFFFFFFFFFFFFFFFFFFFFD2
:10FE4000FFFFFFFFFFFFFFFFFFFFFFFFFFFFFFFFC2
:10FE5000FFFFFFFFFFFFFFFFFFFFFFFFFFFFFFFFB2
:10FE6000FFFFFFFFFFFFFFFFFFFFFFFFFFFFFFFFA2
:10FE7000FFFFFFFFFFFFFFFFFFFFFFFFFFFFFFFF92
:10FE8000FFFFFFFFFFFFFFFFFFFFFFFFFFFFFFFF82
:10FE9000FFFFFFFFFFFFFFFFFFFFFFFFFFFFFFFF72
:10FEA000FFFFFFFFFFFFFFFFFFFFFFFFFFFFFFFF62
:10FEB000FFFFFFFFFFFFFFFFFFFFFFFFFFFFFFFF52
:10FEC000FFFFFFFFFFFFFFFFFFFFFFFFFFFFFFFF42
:10FED000FFFFFFFFFFFFFFFFFFFFFFFFFFFFFFFF32
:10FEE000FFFFFFFFFFFFFFFFFFFFFFFFFFFFFFFF22
:10FEF000FFFFFFFFFFFFFFFFFFFFFFFFFFFFFFFF12
:10FF0000FFFFFFFFFFFFFFFFFFFFFFFFFFFFFFFF01
:10FF1000FFFFFFFFFFFFFFFFFFFFFFFFFFFFFFFFF1
:10FF2000FFFFFFFFFFFFFFFFFFFFFFFFFFFFFFFFE1
:10FF3000FFFFFFFFFFFFFFFFFFFFFFFFFFFFFFFFD1
:10FF4000FFFFFFFFFFFFFFFFFFFFFFFFFFFFFFFFC1
:10FF5000FFFFFFFFFFFFFFFFFFFFFFFFFFFFFFFFB1
:10FF6000FFFFFFFFFFFFFFFFFFFFFFFFFFFFFFFFA1
:10FF7000FFFFFFFFFFFFFFFFFFFFFFFFFFFFFFFF91
:10FF8000FFFFFFFFFFFFFFFFFFFFFFFFFFFFFFFF81
:10FF9000FFFFFFFFFFFFFFFFFFFFFFFFFFFFFFFF71
:10FFA000FFFFFFFFFFFFFFFFFFFFFFFFFFFFFFFF61
:10FFB000FFFFFFFFFFFFFFFFFFFFFFFFFFFFFFFF51
:10FFC000FFFFFFFFFFFFFFFFFFFFFFFFFFFFFFFF41
:10FFD000FFFFFFFFFFFFFFFFFFFFFFFFFFFFFFFF31
:10FFE000FFFFFFFFFFFFFFFFFFFFFFFFFFFFFFFF21
:10FFF000FFFFFFFFFFFFFFFFFFFFFFFFFFFFFFFF11
:020000040001F9
:10000000FFFFFFFFFFFFFFFFFFFFFFFFFFFFFFFF00
:10001000FFFFFFFFFFFFFFFFFFFFFFFFFFFFFFFFF0
:10002000FFFFFFFFFFFFFFFFFFFFFFFFFFFFFFFFE0
:10003000FFFFFFFFFFFFFFFFFFFFFFFFFFFFFFFFD0
:10004000FFFFFFFFFFFFFFFFFFFFFFFFFFFFFFFFC0
:10005000FFFFFFFFFFFFFFFFFFFFFFFFFFFFFFFFB0
:10006000FFFFFFFFFFFFFFFFFFFFFFFFFFFFFFFFA0
:10007000FFFFFFFFFFFFFFFFFFFFFFFFFFFFFFFF90
:10008000FFFFFFFFFFFFFFFFFFFFFFFFFFFFFFFF80
:10009000FFFFFFFFFFFFFFFFFFFFFFFFFFFFFFFF70
:1000A000FFFFFFFFFFFFFFFFFFFFFFFFFFFFFFFF60
:1000B000FFFFFFFFFFFFFFFFFFFFFFFFFFFFFFFF50
:1000C000FFFFFFFFFFFFFFFFFFFFFFFFFFFFFFFF40
:1000D000FFFFFFFFFFFFFFFFFFFFFFFFFFFFFFFF30
:1000E000FFFFFFFFFFFFFFFFFFFFFFFFFFFFFFFF20
:1000F000FFFFFFFFFFFFFFFFFFFFFFFFFFFFFFFF10
:10010000FFFFFFFFFFFFFFFFFFFFFFFFFFFFFFFFFF
:10011000FFFFFFFFFFFFFFFFFFFFFFFFFFFFFFFFEF
:10012000FFFFFFFFFFFFFFFFFFFFFFFFFFFFFFFFDF
:10013000FFFFFFFFFFFFFFFFFFFFFFFFFFFFFFFFCF
:10014000FFFFFFFFFFFFFFFFFFFFFFFFFFFFFFFFBF
:10015000FFFFFFFFFFFFFFFFFFFFFFFFFFFFFFFFAF
:10016000FFFFFFFFFFFFFFFFFFFFFFFFFFFFFFFF9F
:10017000FFFFFFFFFFFFFFFFFFFFFFFFFFFFFFFF8F
:10018000FFFFFFFFFFFFFFFFFFFFFFFFFFFFFFFF7F
:10019000FFFFFFFFFFFFFFFFFFFFFFFFFFFFFFFF6F
:1001A000FFFFFFFFFFFFFFFFFFFFFFFFFFFFFFFF5F
:1001B000FFFFFFFFFFFFFFFFFFFFFFFFFFFFFFFF4F
:1001C000FFFFFFFFFFFFFFFFFFFFFFFFFFFFFFFF3F
:1001D000FFFFFFFFFFFFFFFFFFFFFFFFFFFFFFFF2F
:1001E000FFFFFFFFFFFFFFFFFFFFFFFFFFFFFFFF1F
:1001F000FFFFFFFFFFFFFFFFFFFFFFFFFFFFFFFF0F
:10020000FFFFFFFFFFFFFFFFFFFFFFFFFFFFFFFFFE
:10021000FFFFFFFFFFFFFFFFFFFFFFFFFFFFFFFFEE
:10022000FFFFFFFFFFFFFFFFFFFFFFFFFFFFFFFFDE
:10023000FFFFFFFFFFFFFFFFFFFFFFFFFFFFFFFFCE
:10024000FFFFFFFFFFFFFFFFFFFFFFFFFFFFFFFFBE
:10025000FFFFFFFFFFFFFFFFFFFFFFFFFFFFFFFFAE
:10026000FFFFFFFFFFFFFFFFFFFFFFFFFFFFFFFF9E
:10027000FFFFFFFFFFFFFFFFFFFFFFFFFFFFFFFF8E
:10028000FFFFFFFFFFFFFFFFFFFFFFFFFFFFFFFF7E
:10029000FFFFFFFFFFFFFFFFFFFFFFFFFFFFFFFF6E
:1002A000FFFFFFFFFFFFFFFFFFFFFFFFFFFFFFFF5E
:1002B000FFFFFFFFFFFFFFFFFFFFFFFFFFFFFFFF4E
:1002C000FFFFFFFFFFFFFFFFFFFFFFFFFFFFFFFF3E
:1002D000FFFFFFFFFFFFFFFFFFFFFFFFFFFFFFFF2E
:1002E000FFFFFFFFFFFFFFFFFFFFFFFFFFFFFFFF1E
:1002F000FFFFFFFFFFFFFFFFFFFFFFFFFFFFFFFF0E
:10030000FFFFFFFFFFFFFFFFFFFFFFFFFFFFFFFFFD
:10031000FFFFFFFFFFFFFFFFFFFFFFFFFFFFFFFFED
:10032000FFFFFFFFFFFFFFFFFFFFFFFFFFFFFFFFDD
:10033000FFFFFFFFFFFFFFFFFFFFFFFFFFFFFFFFCD
:10034000FFFFFFFFFFFFFFFFFFFFFFFFFFFFFFFFBD
:10035000FFFFFFFFFFFFFFFFFFFFFFFFFFFFFFFFAD
:10036000FFFFFFFFFFFFFFFFFFFFFFFFFFFFFFFF9D
:10037000FFFFFFFFFFFFFFFFFFFFFFFFFFFFFFFF8D
:10038000FFFFFFFFFFFFFFFFFFFFFFFFFFFFFFFF7D
:10039000FFFFFFFFFFFFFFFFFFFFFFFFFFFFFFFF6D
:1003A000FFFFFFFFFFFFFFFFFFFFFFFFFFFFFFFF5D
:1003B000FFFFFFFFFFFFFFFFFFFFFFFFFFFFFFFF4D
:1003C000FFFFFFFFFFFFFFFFFFFFFFFFFFFFFFFF3D
:1003D000FFFFFFFFFFFFFFFFFFFFFFFFFFFFFFFF2D
:1003E000FFFFFFFFFFFFFFFFFFFFFFFFFFFFFFFF1D
:1003F000FFFFFFFFFFFFFFFFFFFFFFFFFFFFFFFF0D
:10040000FFFFFFFFFFFFFFFFFFFFFFFFFFFFFFFFFC
:10041000FFFFFFFFFFFFFFFFFFFFFFFFFFFFFFFFEC
:10042000FFFFFFFFFFFFFFFFFFFFFFFFFFFFFFFFDC
:10043000FFFFFFFFFFFFFFFFFFFFFFFFFFFFFFFFCC
:10044000FFFFFFFFFFFFFFFFFFFFFFFFFFFFFFFFBC
:10045000FFFFFFFFFFFFFFFFFFFFFFFFFFFFFFFFAC
:10046000FFFFFFFFFFFFFFFFFFFFFFFFFFFFFFFF9C
:10047000FFFFFFFFFFFFFFFFFFFFFFFFFFFFFFFF8C
:10048000FFFFFFFFFFFFFFFFFFFFFFFFFFFFFFFF7C
:10049000FFFFFFFFFFFFFFFFFFFFFFFFFFFFFFFF6C
:1004A000FFFFFFFFFFFFFFFFFFFFFFFFFFFFFFFF5C
:1004B000FFFFFFFFFFFFFFFFFFFFFFFFFFFFFFFF4C
:1004C000FFFFFFFFFFFFFFFFFFFFFFFFFFFFFFFF3C
:1004D000FFFFFFFFFFFFFFFFFFFFFFFFFFFFFFFF2C
:1004E000FFFFFFFFFFFFFFFFFFFFFFFFFFFFFFFF1C
:1004F000FFFFFFFFFFFFFFFFFFFFFFFFFFFFFFFF0C
:10050000FFFFFFFFFFFFFFFFFFFFFFFFFFFFFFFFFB
:10051000FFFFFFFFFFFFFFFFFFFFFFFFFFFFFFFFEB
:10052000FFFFFFFFFFFFFFFFFFFFFFFFFFFFFFFFDB
:10053000FFFFFFFFFFFFFFFFFFFFFFFFFFFFFFFFCB
:10054000FFFFFFFFFFFFFFFFFFFFFFFFFFFFFFFFBB
:10055000FFFFFFFFFFFFFFFFFFFFFFFFFFFFFFFFAB
:10056000FFFFFFFFFFFFFFFFFFFFFFFFFFFFFFFF9B
:10057000FFFFFFFFFFFFFFFFFFFFFFFFFFFFFFFF8B
:10058000FFFFFFFFFFFFFFFFFFFFFFFFFFFFFFFF7B
:10059000FFFFFFFFFFFFFFFFFFFFFFFFFFFFFFFF6B
:1005A000FFFFFFFFFFFFFFFFFFFFFFFFFFFFFFFF5B
:1005B000FFFFFFFFFFFFFFFFFFFFFFFFFFFFFFFF4B
:1005C000FFFFFFFFFFFFFFFFFFFFFFFFFFFFFFFF3B
:1005D000FFFFFFFFFFFFFFFFFFFFFFFFFFFFFFFF2B
:1005E000FFFFFFFFFFFFFFFFFFFFFFFFFFFFFFFF1B
:1005F000FFFFFFFFFFFFFFFFFFFFFFFFFFFFFFFF0B
:10060000FFFFFFFFFFFFFFFFFFFFFFFFFFFFFFFFFA
:10061000FFFFFFFFFFFFFFFFFFFFFFFFFFFFFFFFEA
:10062000FFFFFFFFFFFFFFFFFFFFFFFFFFFFFFFFDA
:10063000FFFFFFFFFFFFFFFFFFFFFFFFFFFFFFFFCA
:10064000FFFFFFFFFFFFFFFFFFFFFFFFFFFFFFFFBA
:10065000FFFFFFFFFFFFFFFFFFFFFFFFFFFFFFFFAA
:10066000FFFFFFFFFFFFFFFFFFFFFFFFFFFFFFFF9A
:10067000FFFFFFFFFFFFFFFFFFFFFFFFFFFFFFFF8A
:10068000FFFFFFFFFFFFFFFFFFFFFFFFFFFFFFFF7A
:10069000FFFFFFFFFFFFFFFFFFFFFFFFFFFFFFFF6A
:1006A000FFFFFFFFFFFFFFFFFFFFFFFFFFFFFFFF5A
:1006B000FFFFFFFFFFFFFFFFFFFFFFFFFFFFFFFF4A
:1006C000FFFFFFFFFFFFFFFFFFFFFFFFFFFFFFFF3A
:1006D000FFFFFFFFFFFFFFFFFFFFFFFFFFFFFFFF2A
:1006E000FFFFFFFFFFFFFFFFFFFFFFFFFFFFFFFF1A
:1006F000FFFFFFFFFFFFFFFFFFFFFFFFFFFFFFFF0A
:10070000FFFFFFFFFFFFFFFFFFFFFFFFFFFFFFFFF9
:10071000FFFFFFFFFFFFFFFFFFFFFFFFFFFFFFFFE9
:10072000FFFFFFFFFFFFFFFFFFFFFFFFFFFFFFFFD9
:10073000FFFFFFFFFFFFFFFFFFFFFFFFFFFFFFFFC9
:10074000FFFFFFFFFFFFFFFFFFFFFFFFFFFFFFFFB9
:10075000FFFFFFFFFFFFFFFFFFFFFFFFFFFFFFFFA9
:10076000FFFFFFFFFFFFFFFFFFFFFFFFFFFFFFFF99
:10077000FFFFFFFFFFFFFFFFFFFFFFFFFFFFFFFF89
:10078000FFFFFFFFFFFFFFFFFFFFFFFFFFFFFFFF79
:10079000FFFFFFFFFFFFFFFFFFFFFFFFFFFFFFFF69
:1007A000FFFFFFFFFFFFFFFFFFFFFFFFFFFFFFFF59
:1007B000FFFFFFFFFFFFFFFFFFFFFFFFFFFFFFFF49
:1007C000FFFFFFFFFFFFFFFFFFFFFFFFFFFFFFFF39
:1007D000FFFFFFFFFFFFFFFFFFFFFFFFFFFFFFFF29
:1007E000FFFFFFFFFFFFFFFFFFFFFFFFFFFFFFFF19
:1007F000FFFFFFFFFFFFFFFFFFFFFFFFFFFFFFFF09
:10080000FFFFFFFFFFFFFFFFFFFFFFFFFFFFFFFFF8
:10081000FFFFFFFFFFFFFFFFFFFFFFFFFFFFFFFFE8
:10082000FFFFFFFFFFFFFFFFFFFFFFFFFFFFFFFFD8
:10083000FFFFFFFFFFFFFFFFFFFFFFFFFFFFFFFFC8
:10084000FFFFFFFFFFFFFFFFFFFFFFFFFFFFFFFFB8
:10085000FFFFFFFFFFFFFFFFFFFFFFFFFFFFFFFFA8
:10086000FFFFFFFFFFFFFFFFFFFFFFFFFFFFFFFF98
:10087000FFFFFFFFFFFFFFFFFFFFFFFFFFFFFFFF88
:10088000FFFFFFFFFFFFFFFFFFFFFFFFFFFFFFFF78
:10089000FFFFFFFFFFFFFFFFFFFFFFFFFFFFFFFF68
:1008A000FFFFFFFFFFFFFFFFFFFFFFFFFFFFFFFF58
:1008B000FFFFFFFFFFFFFFFFFFFFFFFFFFFFFFFF48
:1008C000FFFFFFFFFFFFFFFFFFFFFFFFFFFFFFFF38
:1008D000FFFFFFFFFFFFFFFFFFFFFFFFFFFFFFFF28
:1008E000FFFFFFFFFFFFFFFFFFFFFFFFFFFFFFFF18
:1008F000FFFFFFFFFFFFFFFFFFFFFFFFFFFFFFFF08
:10090000FFFFFFFFFFFFFFFFFFFFFFFFFFFFFFFFF7
:10091000FFFFFFFFFFFFFFFFFFFFFFFFFFFFFFFFE7
:10092000FFFFFFFFFFFFFFFFFFFFFFFFFFFFFFFFD7
:10093000FFFFFFFFFFFFFFFFFFFFFFFFFFFFFFFFC7
:10094000FFFFFFFFFFFFFFFFFFFFFFFFFFFFFFFFB7
:10095000FFFFFFFFFFFFFFFFFFFFFFFFFFFFFFFFA7
:10096000FFFFFFFFFFFFFFFFFFFFFFFFFFFFFFFF97
:10097000FFFFFFFFFFFFFFFFFFFFFFFFFFFFFFFF87
:10098000FFFFFFFFFFFFFFFFFFFFFFFFFFFFFFFF77
:10099000FFFFFFFFFFFFFFFFFFFFFFFFFFFFFFFF67
:1009A000FFFFFFFFFFFFFFFFFFFFFFFFFFFFFFFF57
:1009B000FFFFFFFFFFFFFFFFFFFFFFFFFFFFFFFF47
:1009C000FFFFFFFFFFFFFFFFFFFFFFFFFFFFFFFF37
:1009D000FFFFFFFFFFFFFFFFFFFFFFFFFFFFFFFF27
:1009E000FFFFFFFFFFFFFFFFFFFFFFFFFFFFFFFF17
:1009F000FFFFFFFFFFFFFFFFFFFFFFFFFFFFFFFF07
:100A0000FFFFFFFFFFFFFFFFFFFFFFFFFFFFFFFFF6
:100A1000FFFFFFFFFFFFFFFFFFFFFFFFFFFFFFFFE6
:100A2000FFFFFFFFFFFFFFFFFFFFFFFFFFFFFFFFD6
:100A3000FFFFFFFFFFFFFFFFFFFFFFFFFFFFFFFFC6
:100A4000FFFFFFFFFFFFFFFFFFFFFFFFFFFFFFFFB6
:100A5000FFFFFFFFFFFFFFFFFFFFFFFFFFFFFFFFA6
:100A6000FFFFFFFFFFFFFFFFFFFFFFFFFFFFFFFF96
:100A7000FFFFFFFFFFFFFFFFFFFFFFFFFFFFFFFF86
:100A8000FFFFFFFFFFFFFFFFFFFFFFFFFFFFFFFF76
:100A9000FFFFFFFFFFFFFFFFFFFFFFFFFFFFFFFF66
:100AA000FFFFFFFFFFFFFFFFFFFFFFFFFFFFFFFF56
:100AB000FFFFFFFFFFFFFFFFFFFFFFFFFFFFFFFF46
:100AC000FFFFFFFFFFFFFFFFFFFFFFFFFFFFFFFF36
:100AD000FFFFFFFFFFFFFFFFFFFFFFFFFFFFFFFF26
:100AE000FFFFFFFFFFFFFFFFFFFFFFFFFFFFFFFF16
:100AF000FFFFFFFFFFFFFFFFFFFFFFFFFFFFFFFF06
:100B0000FFFFFFFFFFFFFFFFFFFFFFFFFFFFFFFFF5
:100B1000FFFFFFFFFFFFFFFFFFFFFFFFFFFFFFFFE5
:100B2000FFFFFFFFFFFFFFFFFFFFFFFFFFFFFFFFD5
:100B3000FFFFFFFFFFFFFFFFFFFFFFFFFFFFFFFFC5
:100B4000FFFFFFFFFFFFFFFFFFFFFFFFFFFFFFFFB5
:100B5000FFFFFFFFFFFFFFFFFFFFFFFFFFFFFFFFA5
:100B6000FFFFFFFFFFFFFFFFFFFFFFFFFFFFFFFF95
:100B7000FFFFFFFFFFFFFFFFFFFFFFFFFFFFFFFF85
:100B8000FFFFFFFFFFFFFFFFFFFFFFFFFFFFFFFF75
:100B9000FFFFFFFFFFFFFFFFFFFFFFFFFFFFFFFF65
:100BA000FFFFFFFFFFFFFFFFFFFFFFFFFFFFFFFF55
:100BB000FFFFFFFFFFFFFFFFFFFFFFFFFFFFFFFF45
:100BC000FFFFFFFFFFFFFFFFFFFFFFFFFFFFFFFF35
:100BD000FFFFFFFFFFFFFFFFFFFFFFFFFFFFFFFF25
:100BE000FFFFFFFFFFFFFFFFFFFFFFFFFFFFFFFF15
:100BF000FFFFFFFFFFFFFFFFFFFFFFFFFFFFFFFF05
:100C0000FFFFFFFFFFFFFFFFFFFFFFFFFFFFFFFFF4
:100C1000FFFFFFFFFFFFFFFFFFFFFFFFFFFFFFFFE4
:100C2000FFFFFFFFFFFFFFFFFFFFFFFFFFFFFFFFD4
:100C3000FFFFFFFFFFFFFFFFFFFFFFFFFFFFFFFFC4
:100C4000FFFFFFFFFFFFFFFFFFFFFFFFFFFFFFFFB4
:100C5000FFFFFFFFFFFFFFFFFFFFFFFFFFFFFFFFA4
:100C6000FFFFFFFFFFFFFFFFFFFFFFFFFFFFFFFF94
:100C7000FFFFFFFFFFFFFFFFFFFFFFFFFFFFFFFF84
:100C8000FFFFFFFFFFFFFFFFFFFFFFFFFFFFFFFF74
:100C9000FFFFFFFFFFFFFFFFFFFFFFFFFFFFFFFF64
:100CA000FFFFFFFFFFFFFFFFFFFFFFFFFFFFFFFF54
:100CB000FFFFFFFFFFFFFFFFFFFFFFFFFFFFFFFF44
:100CC000FFFFFFFFFFFFFFFFFFFFFFFFFFFFFFFF34
:100CD000FFFFFFFFFFFFFFFFFFFFFFFFFFFFFFFF24
:100CE000FFFFFFFFFFFFFFFFFFFFFFFFFFFFFFFF14
:100CF000FFFFFFFFFFFFFFFFFFFFFFFFFFFFFFFF04
:100D0000FFFFFFFFFFFFFFFFFFFFFFFFFFFFFFFFF3
:100D1000FFFFFFFFFFFFFFFFFFFFFFFFFFFFFFFFE3
:100D2000FFFFFFFFFFFFFFFFFFFFFFFFFFFFFFFFD3
:100D3000FFFFFFFFFFFFFFFFFFFFFFFFFFFFFFFFC3
:100D4000FFFFFFFFFFFFFFFFFFFFFFFFFFFFFFFFB3
:100D5000FFFFFFFFFFFFFFFFFFFFFFFFFFFFFFFFA3
:100D6000FFFFFFFFFFFFFFFFFFFFFFFFFFFFFFFF93
:100D7000FFFFFFFFFFFFFFFFFFFFFFFFFFFFFFFF83
:100D8000FFFFFFFFFFFFFFFFFFFFFFFFFFFFFFFF73
:100D9000FFFFFFFFFFFFFFFFFFFFFFFFFFFFFFFF63
:100DA000FFFFFFFFFFFFFFFFFFFFFFFFFFFFFFFF53
:100DB000FFFFFFFFFFFFFFFFFFFFFFFFFFFFFFFF43
:100DC000FFFFFFFFFFFFFFFFFFFFFFFFFFFFFFFF33
:100DD000FFFFFFFFFFFFFFFFFFFFFFFFFFFFFFFF23
:100DE000FFFFFFFFFFFFFFFFFFFFFFFFFFFFFFFF13
:100DF000FFFFFFFFFFFFFFFFFFFFFFFFFFFFFFFF03
:100E0000FFFFFFFFFFFFFFFFFFFFFFFFFFFFFFFFF2
:100E1000FFFFFFFFFFFFFFFFFFFFFFFFFFFFFFFFE2
:100E2000FFFFFFFFFFFFFFFFFFFFFFFFFFFFFFFFD2
:100E3000FFFFFFFFFFFFFFFFFFFFFFFFFFFFFFFFC2
:100E4000FFFFFFFFFFFFFFFFFFFFFFFFFFFFFFFFB2
:100E5000FFFFFFFFFFFFFFFFFFFFFFFFFFFFFFFFA2
:100E6000FFFFFFFFFFFFFFFFFFFFFFFFFFFFFFFF92
:100E7000FFFFFFFFFFFFFFFFFFFFFFFFFFFFFFFF82
:100E8000FFFFFFFFFFFFFFFFFFFFFFFFFFFFFFFF72
:100E9000FFFFFFFFFFFFFFFFFFFFFFFFFFFFFFFF62
:100EA000FFFFFFFFFFFFFFFFFFFFFFFFFFFFFFFF52
:100EB000FFFFFFFFFFFFFFFFFFFFFFFFFFFFFFFF42
:100EC000FFFFFFFFFFFFFFFFFFFFFFFFFFFFFFFF32
:100ED000FFFFFFFFFFFFFFFFFFFFFFFFFFFFFFFF22
:100EE000FFFFFFFFFFFFFFFFFFFFFFFFFFFFFFFF12
:100EF000FFFFFFFFFFFFFFFFFFFFFFFFFFFFFFFF02
:100F0000FFFFFFFFFFFFFFFFFFFFFFFFFFFFFFFFF1
:100F1000FFFFFFFFFFFFFFFFFFFFFFFFFFFFFFFFE1
:100F2000FFFFFFFFFFFFFFFFFFFFFFFFFFFFFFFFD1
:100F3000FFFFFFFFFFFFFFFFFFFFFFFFFFFFFFFFC1
:100F4000FFFFFFFFFFFFFFFFFFFFFFFFFFFFFFFFB1
:100F5000FFFFFFFFFFFFFFFFFFFFFFFFFFFFFFFFA1
:100F6000FFFFFFFFFFFFFFFFFFFFFFFFFFFFFFFF91
:100F7000FFFFFFFFFFFFFFFFFFFFFFFFFFFFFFFF81
:100F8000FFFFFFFFFFFFFFFFFFFFFFFFFFFFFFFF71
:100F9000FFFFFFFFFFFFFFFFFFFFFFFFFFFFFFFF61
:100FA000FFFFFFFFFFFFFFFFFFFFFFFFFFFFFFFF51
:100FB000FFFFFFFFFFFFFFFFFFFFFFFFFFFFFFFF41
:100FC000FFFFFFFFFFFFFFFFFFFFFFFFFFFFFFFF31
:100FD000FFFFFFFFFFFFFFFFFFFFFFFFFFFFFFFF21
:100FE000FFFFFFFFFFFFFFFFFFFFFFFFFFFFFFFF11
:100FF000FFFFFFFFFFFFFFFFFFFFFFFFFFFFFFFF01
:10100000FFFFFFFFFFFFFFFFFFFFFFFFFFFFFFFFF0
:10101000FFFFFFFFFFFFFFFFFFFFFFFFFFFFFFFFE0
:10102000FFFFFFFFFFFFFFFFFFFFFFFFFFFFFFFFD0
:10103000FFFFFFFFFFFFFFFFFFFFFFFFFFFFFFFFC0
:10104000FFFFFFFFFFFFFFFFFFFFFFFFFFFFFFFFB0
:10105000FFFFFFFFFFFFFFFFFFFFFFFFFFFFFFFFA0
:10106000FFFFFFFFFFFFFFFFFFFFFFFFFFFFFFFF90
:10107000FFFFFFFFFFFFFFFFFFFFFFFFFFFFFFFF80
:10108000FFFFFFFFFFFFFFFFFFFFFFFFFFFFFFFF70
:10109000FFFFFFFFFFFFFFFFFFFFFFFFFFFFFFFF60
:1010A000FFFFFFFFFFFFFFFFFFFFFFFFFFFFFFFF50
:1010B000FFFFFFFFFFFFFFFFFFFFFFFFFFFFFFFF40
:1010C000FFFFFFFFFFFFFFFFFFFFFFFFFFFFFFFF30
:1010D000FFFFFFFFFFFFFFFFFFFFFFFFFFFFFFFF20
:1010E000FFFFFFFFFFFFFFFFFFFFFFFFFFFFFFFF10
:1010F000FFFFFFFFFFFFFFFFFFFFFFFFFFFFFFFF00
:10110000FFFFFFFFFFFFFFFFFFFFFFFFFFFFFFFFEF
:10111000FFFFFFFFFFFFFFFFFFFFFFFFFFFFFFFFDF
:10112000FFFFFFFFFFFFFFFFFFFFFFFFFFFFFFFFCF
:10113000FFFFFFFFFFFFFFFFFFFFFFFFFFFFFFFFBF
:10114000FFFFFFFFFFFFFFFFFFFFFFFFFFFFFFFFAF
:10115000FFFFFFFFFFFFFFFFFFFFFFFFFFFFFFFF9F
:10116000FFFFFFFFFFFFFFFFFFFFFFFFFFFFFFFF8F
:10117000FFFFFFFFFFFFFFFFFFFFFFFFFFFFFFFF7F
:10118000FFFFFFFFFFFFFFFFFFFFFFFFFFFFFFFF6F
:10119000FFFFFFFFFFFFFFFFFFFFFFFFFFFFFFFF5F
:1011A000FFFFFFFFFFFFFFFFFFFFFFFFFFFFFFFF4F
:1011B000FFFFFFFFFFFFFFFFFFFFFFFFFFFFFFFF3F
:1011C000FFFFFFFFFFFFFFFFFFFFFFFFFFFFFFFF2F
:1011D000FFFFFFFFFFFFFFFFFFFFFFFFFFFFFFFF1F
:1011E000FFFFFFFFFFFFFFFFFFFFFFFFFFFFFFFF0F
:1011F000FFFFFFFFFFFFFFFFFFFFFFFFFFFFFFFFFF
:10120000FFFFFFFFFFFFFFFFFFFFFFFFFFFFFFFFEE
:10121000FFFFFFFFFFFFFFFFFFFFFFFFFFFFFFFFDE
:10122000FFFFFFFFFFFFFFFFFFFFFFFFFFFFFFFFCE
:10123000FFFFFFFFFFFFFFFFFFFFFFFFFFFFFFFFBE
:10124000FFFFFFFFFFFFFFFFFFFFFFFFFFFFFFFFAE
:10125000FFFFFFFFFFFFFFFFFFFFFFFFFFFFFFFF9E
:10126000FFFFFFFFFFFFFFFFFFFFFFFFFFFFFFFF8E
:10127000FFFFFFFFFFFFFFFFFFFFFFFFFFFFFFFF7E
:10128000FFFFFFFFFFFFFFFFFFFFFFFFFFFFFFFF6E
:10129000FFFFFFFFFFFFFFFFFFFFFFFFFFFFFFFF5E
:1012A000FFFFFFFFFFFFFFFFFFFFFFFFFFFFFFFF4E
:1012B000FFFFFFFFFFFFFFFFFFFFFFFFFFFFFFFF3E
:1012C000FFFFFFFFFFFFFFFFFFFFFFFFFFFFFFFF2E
:1012D000FFFFFFFFFFFFFFFFFFFFFFFFFFFFFFFF1E
:1012E000FFFFFFFFFFFFFFFFFFFFFFFFFFFFFFFF0E
:1012F000FFFFFFFFFFFFFFFFFFFFFFFFFFFFFFFFFE
:10130000FFFFFFFFFFFFFFFFFFFFFFFFFFFFFFFFED
:10131000FFFFFFFFFFFFFFFFFFFFFFFFFFFFFFFFDD
:10132000FFFFFFFFFFFFFFFFFFFFFFFFFFFFFFFFCD
:10133000FFFFFFFFFFFFFFFFFFFFFFFFFFFFFFFFBD
:10134000FFFFFFFFFFFFFFFFFFFFFFFFFFFFFFFFAD
:10135000FFFFFFFFFFFFFFFFFFFFFFFFFFFFFFFF9D
:10136000FFFFFFFFFFFFFFFFFFFFFFFFFFFFFFFF8D
:10137000FFFFFFFFFFFFFFFFFFFFFFFFFFFFFFFF7D
:10138000FFFFFFFFFFFFFFFFFFFFFFFFFFFFFFFF6D
:10139000FFFFFFFFFFFFFFFFFFFFFFFFFFFFFFFF5D
:1013A000FFFFFFFFFFFFFFFFFFFFFFFFFFFFFFFF4D
:1013B000FFFFFFFFFFFFFFFFFFFFFFFFFFFFFFFF3D
:1013C000FFFFFFFFFFFFFFFFFFFFFFFFFFFFFFFF2D
:1013D000FFFFFFFFFFFFFFFFFFFFFFFFFFFFFFFF1D
:1013E000FFFFFFFFFFFFFFFFFFFFFFFFFFFFFFFF0D
:1013F000FFFFFFFFFFFFFFFFFFFFFFFFFFFFFFFFFD
:10140000FFFFFFFFFFFFFFFFFFFFFFFFFFFFFFFFEC
:10141000FFFFFFFFFFFFFFFFFFFFFFFFFFFFFFFFDC
:10142000FFFFFFFFFFFFFFFFFFFFFFFFFFFFFFFFCC
:10143000FFFFFFFFFFFFFFFFFFFFFFFFFFFFFFFFBC
:10144000FFFFFFFFFFFFFFFFFFFFFFFFFFFFFFFFAC
:10145000FFFFFFFFFFFFFFFFFFFFFFFFFFFFFFFF9C
:10146000FFFFFFFFFFFFFFFFFFFFFFFFFFFFFFFF8C
:10147000FFFFFFFFFFFFFFFFFFFFFFFFFFFFFFFF7C
:10148000FFFFFFFFFFFFFFFFFFFFFFFFFFFFFFFF6C
:10149000FFFFFFFFFFFFFFFFFFFFFFFFFFFFFFFF5C
:1014A000FFFFFFFFFFFFFFFFFFFFFFFFFFFFFFFF4C
:1014B000FFFFFFFFFFFFFFFFFFFFFFFFFFFFFFFF3C
:1014C000FFFFFFFFFFFFFFFFFFFFFFFFFFFFFFFF2C
:1014D000FFFFFFFFFFFFFFFFFFFFFFFFFFFFFFFF1C
:1014E000FFFFFFFFFFFFFFFFFFFFFFFFFFFFFFFF0C
:1014F000FFFFFFFFFFFFFFFFFFFFFFFFFFFFFFFFFC
:10150000FFFFFFFFFFFFFFFFFFFFFFFFFFFFFFFFEB
:10151000FFFFFFFFFFFFFFFFFFFFFFFFFFFFFFFFDB
:10152000FFFFFFFFFFFFFFFFFFFFFFFFFFFFFFFFCB
:10153000FFFFFFFFFFFFFFFFFFFFFFFFFFFFFFFFBB
:10154000FFFFFFFFFFFFFFFFFFFFFFFFFFFFFFFFAB
:10155000FFFFFFFFFFFFFFFFFFFFFFFFFFFFFFFF9B
:10156000FFFFFFFFFFFFFFFFFFFFFFFFFFFFFFFF8B
:10157000FFFFFFFFFFFFFFFFFFFFFFFFFFFFFFFF7B
:10158000FFFFFFFFFFFFFFFFFFFFFFFFFFFFFFFF6B
:10159000FFFFFFFFFFFFFFFFFFFFFFFFFFFFFFFF5B
:1015A000FFFFFFFFFFFFFFFFFFFFFFFFFFFFFFFF4B
:1015B000FFFFFFFFFFFFFFFFFFFFFFFFFFFFFFFF3B
:1015C000FFFFFFFFFFFFFFFFFFFFFFFFFFFFFFFF2B
:1015D000FFFFFFFFFFFFFFFFFFFFFFFFFFFFFFFF1B
:1015E000FFFFFFFFFFFFFFFFFFFFFFFFFFFFFFFF0B
:1015F000FFFFFFFFFFFFFFFFFFFFFFFFFFFFFFFFFB
:10160000FFFFFFFFFFFFFFFFFFFFFFFFFFFFFFFFEA
:10161000FFFFFFFFFFFFFFFFFFFFFFFFFFFFFFFFDA
:10162000FFFFFFFFFFFFFFFFFFFFFFFFFFFFFFFFCA
:10163000FFFFFFFFFFFFFFFFFFFFFFFFFFFFFFFFBA
:10164000FFFFFFFFFFFFFFFFFFFFFFFFFFFFFFFFAA
:10165000FFFFFFFFFFFFFFFFFFFFFFFFFFFFFFFF9A
:10166000FFFFFFFFFFFFFFFFFFFFFFFFFFFFFFFF8A
:10167000FFFFFFFFFFFFFFFFFFFFFFFFFFFFFFFF7A
:10168000FFFFFFFFFFFFFFFFFFFFFFFFFFFFFFFF6A
:10169000FFFFFFFFFFFFFFFFFFFFFFFFFFFFFFFF5A
:1016A000FFFFFFFFFFFFFFFFFFFFFFFFFFFFFFFF4A
:1016B000FFFFFFFFFFFFFFFFFFFFFFFFFFFFFFFF3A
:1016C000FFFFFFFFFFFFFFFFFFFFFFFFFFFFFFFF2A
:1016D000FFFFFFFFFFFFFFFFFFFFFFFFFFFFFFFF1A
:1016E000FFFFFFFFFFFFFFFFFFFFFFFFFFFFFFFF0A
:1016F000FFFFFFFFFFFFFFFFFFFFFFFFFFFFFFFFFA
:10170000FFFFFFFFFFFFFFFFFFFFFFFFFFFFFFFFE9
:10171000FFFFFFFFFFFFFFFFFFFFFFFFFFFFFFFFD9
:10172000FFFFFFFFFFFFFFFFFFFFFFFFFFFFFFFFC9
:10173000FFFFFFFFFFFFFFFFFFFFFFFFFFFFFFFFB9
:10174000FFFFFFFFFFFFFFFFFFFFFFFFFFFFFFFFA9
:10175000FFFFFFFFFFFFFFFFFFFFFFFFFFFFFFFF99
:10176000FFFFFFFFFFFFFFFFFFFFFFFFFFFFFFFF89
:10177000FFFFFFFFFFFFFFFFFFFFFFFFFFFFFFFF79
:10178000FFFFFFFFFFFFFFFFFFFFFFFFFFFFFFFF69
:10179000FFFFFFFFFFFFFFFFFFFFFFFFFFFFFFFF59
:1017A000FFFFFFFFFFFFFFFFFFFFFFFFFFFFFFFF49
:1017B000FFFFFFFFFFFFFFFFFFFFFFFFFFFFFFFF39
:1017C000FFFFFFFFFFFFFFFFFFFFFFFFFFFFFFFF29
:1017D000FFFFFFFFFFFFFFFFFFFFFFFFFFFFFFFF19
:1017E000FFFFFFFFFFFFFFFFFFFFFFFFFFFFFFFF09
:1017F000FFFFFFFFFFFFFFFFFFFFFFFFFFFFFFFFF9
:10180000FFFFFFFFFFFFFFFFFFFFFFFFFFFFFFFFE8
:10181000FFFFFFFFFFFFFFFFFFFFFFFFFFFFFFFFD8
:10182000FFFFFFFFFFFFFFFFFFFFFFFFFFFFFFFFC8
:10183000FFFFFFFFFFFFFFFFFFFFFFFFFFFFFFFFB8
:10184000FFFFFFFFFFFFFFFFFFFFFFFFFFFFFFFFA8
:10185000FFFFFFFFFFFFFFFFFFFFFFFFFFFFFFFF98
:10186000FFFFFFFFFFFFFFFFFFFFFFFFFFFFFFFF88
:10187000FFFFFFFFFFFFFFFFFFFFFFFFFFFFFFFF78
:10188000FFFFFFFFFFFFFFFFFFFFFFFFFFFFFFFF68
:10189000FFFFFFFFFFFFFFFFFFFFFFFFFFFFFFFF58
:1018A000FFFFFFFFFFFFFFFFFFFFFFFFFFFFFFFF48
:1018B000FFFFFFFFFFFFFFFFFFFFFFFFFFFFFFFF38
:1018C000FFFFFFFFFFFFFFFFFFFFFFFFFFFFFFFF28
:1018D000FFFFFFFFFFFFFFFFFFFFFFFFFFFFFFFF18
:1018E000FFFFFFFFFFFFFFFFFFFFFFFFFFFFFFFF08
:1018F000FFFFFFFFFFFFFFFFFFFFFFFFFFFFFFFFF8
:10190000FFFFFFFFFFFFFFFFFFFFFFFFFFFFFFFFE7
:10191000FFFFFFFFFFFFFFFFFFFFFFFFFFFFFFFFD7
:10192000FFFFFFFFFFFFFFFFFFFFFFFFFFFFFFFFC7
:10193000FFFFFFFFFFFFFFFFFFFFFFFFFFFFFFFFB7
:10194000FFFFFFFFFFFFFFFFFFFFFFFFFFFFFFFFA7
:10195000FFFFFFFFFFFFFFFFFFFFFFFFFFFFFFFF97
:10196000FFFFFFFFFFFFFFFFFFFFFFFFFFFFFFFF87
:10197000FFFFFFFFFFFFFFFFFFFFFFFFFFFFFFFF77
:10198000FFFFFFFFFFFFFFFFFFFFFFFFFFFFFFFF67
:10199000FFFFFFFFFFFFFFFFFFFFFFFFFFFFFFFF57
:1019A000FFFFFFFFFFFFFFFFFFFFFFFFFFFFFFFF47
:1019B000FFFFFFFFFFFFFFFFFFFFFFFFFFFFFFFF37
:1019C000FFFFFFFFFFFFFFFFFFFFFFFFFFFFFFFF27
:1019D000FFFFFFFFFFFFFFFFFFFFFFFFFFFFFFFF17
:1019E000FFFFFFFFFFFFFFFFFFFFFFFFFFFFFFFF07
:1019F000FFFFFFFFFFFFFFFFFFFFFFFFFFFFFFFFF7
:101A0000FFFFFFFFFFFFFFFFFFFFFFFFFFFFFFFFE6
:101A1000FFFFFFFFFFFFFFFFFFFFFFFFFFFFFFFFD6
:101A2000FFFFFFFFFFFFFFFFFFFFFFFFFFFFFFFFC6
:101A3000FFFFFFFFFFFFFFFFFFFFFFFFFFFFFFFFB6
:101A4000FFFFFFFFFFFFFFFFFFFFFFFFFFFFFFFFA6
:101A5000FFFFFFFFFFFFFFFFFFFFFFFFFFFFFFFF96
:101A6000FFFFFFFFFFFFFFFFFFFFFFFFFFFFFFFF86
:101A7000FFFFFFFFFFFFFFFFFFFFFFFFFFFFFFFF76
:101A8000FFFFFFFFFFFFFFFFFFFFFFFFFFFFFFFF66
:101A9000FFFFFFFFFFFFFFFFFFFFFFFFFFFFFFFF56
:101AA000FFFFFFFFFFFFFFFFFFFFFFFFFFFFFFFF46
:101AB000FFFFFFFFFFFFFFFFFFFFFFFFFFFFFFFF36
:101AC000FFFFFFFFFFFFFFFFFFFFFFFFFFFFFFFF26
:101AD000FFFFFFFFFFFFFFFFFFFFFFFFFFFFFFFF16
:101AE000FFFFFFFFFFFFFFFFFFFFFFFFFFFFFFFF06
:101AF000FFFFFFFFFFFFFFFFFFFFFFFFFFFFFFFFF6
:101B0000FFFFFFFFFFFFFFFFFFFFFFFFFFFFFFFFE5
:101B1000FFFFFFFFFFFFFFFFFFFFFFFFFFFFFFFFD5
:101B2000FFFFFFFFFFFFFFFFFFFFFFFFFFFFFFFFC5
:101B3000FFFFFFFFFFFFFFFFFFFFFFFFFFFFFFFFB5
:101B4000FFFFFFFFFFFFFFFFFFFFFFFFFFFFFFFFA5
:101B5000FFFFFFFFFFFFFFFFFFFFFFFFFFFFFFFF95
:101B6000FFFFFFFFFFFFFFFFFFFFFFFFFFFFFFFF85
:101B7000FFFFFFFFFFFFFFFFFFFFFFFFFFFFFFFF75
:101B8000FFFFFFFFFFFFFFFFFFFFFFFFFFFFFFFF65
:101B9000FFFFFFFFFFFFFFFFFFFFFFFFFFFFFFFF55
:101BA000FFFFFFFFFFFFFFFFFFFFFFFFFFFFFFFF45
:101BB000FFFFFFFFFFFFFFFFFFFFFFFFFFFFFFFF35
:101BC000FFFFFFFFFFFFFFFFFFFFFFFFFFFFFFFF25
:101BD000FFFFFFFFFFFFFFFFFFFFFFFFFFFFFFFF15
:101BE000FFFFFFFFFFFFFFFFFFFFFFFFFFFFFFFF05
:101BF000FFFFFFFFFFFFFFFFFFFFFFFFFFFFFFFFF5
:101C0000FFFFFFFFFFFFFFFFFFFFFFFFFFFFFFFFE4
:101C1000FFFFFFFFFFFFFFFFFFFFFFFFFFFFFFFFD4
:101C2000FFFFFFFFFFFFFFFFFFFFFFFFFFFFFFFFC4
:101C3000FFFFFFFFFFFFFFFFFFFFFFFFFFFFFFFFB4
:101C4000FFFFFFFFFFFFFFFFFFFFFFFFFFFFFFFFA4
:101C5000FFFFFFFFFFFFFFFFFFFFFFFFFFFFFFFF94
:101C6000FFFFFFFFFFFFFFFFFFFFFFFFFFFFFFFF84
:101C7000FFFFFFFFFFFFFFFFFFFFFFFFFFFFFFFF74
:101C8000FFFFFFFFFFFFFFFFFFFFFFFFFFFFFFFF64
:101C9000FFFFFFFFFFFFFFFFFFFFFFFFFFFFFFFF54
:101CA000FFFFFFFFFFFFFFFFFFFFFFFFFFFFFFFF44
:101CB000FFFFFFFFFFFFFFFFFFFFFFFFFFFFFFFF34
:101CC000FFFFFFFFFFFFFFFFFFFFFFFFFFFFFFFF24
:101CD000FFFFFFFFFFFFFFFFFFFFFFFFFFFFFFFF14
:101CE000FFFFFFFFFFFFFFFFFFFFFFFFFFFFFFFF04
:101CF000FFFFFFFFFFFFFFFFFFFFFFFFFFFFFFFFF4
:101D0000FFFFFFFFFFFFFFFFFFFFFFFFFFFFFFFFE3
:101D1000FFFFFFFFFFFFFFFFFFFFFFFFFFFFFFFFD3
:101D2000FFFFFFFFFFFFFFFFFFFFFFFFFFFFFFFFC3
:101D3000FFFFFFFFFFFFFFFFFFFFFFFFFFFFFFFFB3
:101D4000FFFFFFFFFFFFFFFFFFFFFFFFFFFFFFFFA3
:101D5000FFFFFFFFFFFFFFFFFFFFFFFFFFFFFFFF93
:101D6000FFFFFFFFFFFFFFFFFFFFFFFFFFFFFFFF83
:101D7000FFFFFFFFFFFFFFFFFFFFFFFFFFFFFFFF73
:101D8000FFFFFFFFFFFFFFFFFFFFFFFFFFFFFFFF63
:101D9000FFFFFFFFFFFFFFFFFFFFFFFFFFFFFFFF53
:101DA000FFFFFFFFFFFFFFFFFFFFFFFFFFFFFFFF43
:101DB000FFFFFFFFFFFFFFFFFFFFFFFFFFFFFFFF33
:101DC000FFFFFFFFFFFFFFFFFFFFFFFFFFFFFFFF23
:101DD000FFFFFFFFFFFFFFFFFFFFFFFFFFFFFFFF13
:101DE000FFFFFFFFFFFFFFFFFFFFFFFFFFFFFFFF03
:101DF000FFFFFFFFFFFFFFFFFFFFFFFFFFFFFFFFF3
:101E0000FFFFFFFFFFFFFFFFFFFFFFFFFFFFFFFFE2
:101E1000FFFFFFFFFFFFFFFFFFFFFFFFFFFFFFFFD2
:101E2000FFFFFFFFFFFFFFFFFFFFFFFFFFFFFFFFC2
:101E3000FFFFFFFFFFFFFFFFFFFFFFFFFFFFFFFFB2
:101E4000FFFFFFFFFFFFFFFFFFFFFFFFFFFFFFFFA2
:101E5000FFFFFFFFFFFFFFFFFFFFFFFFFFFFFFFF92
:101E6000FFFFFFFFFFFFFFFFFFFFFFFFFFFFFFFF82
:101E7000FFFFFFFFFFFFFFFFFFFFFFFFFFFFFFFF72
:101E8000FFFFFFFFFFFFFFFFFFFFFFFFFFFFFFFF62
:101E9000FFFFFFFFFFFFFFFFFFFFFFFFFFFFFFFF52
:101EA000FFFFFFFFFFFFFFFFFFFFFFFFFFFFFFFF42
:101EB000FFFFFFFFFFFFFFFFFFFFFFFFFFFFFFFF32
:101EC000FFFFFFFFFFFFFFFFFFFFFFFFFFFFFFFF22
:101ED000FFFFFFFFFFFFFFFFFFFFFFFFFFFFFFFF12
:101EE000FFFFFFFFFFFFFFFFFFFFFFFFFFFFFFFF02
:101EF000FFFFFFFFFFFFFFFFFFFFFFFFFFFFFFFFF2
:101F0000FFFFFFFFFFFFFFFFFFFFFFFFFFFFFFFFE1
:101F1000FFFFFFFFFFFFFFFFFFFFFFFFFFFFFFFFD1
:101F2000FFFFFFFFFFFFFFFFFFFFFFFFFFFFFFFFC1
:101F3000FFFFFFFFFFFFFFFFFFFFFFFFFFFFFFFFB1
:101F4000FFFFFFFFFFFFFFFFFFFFFFFFFFFFFFFFA1
:101F5000FFFFFFFFFFFFFFFFFFFFFFFFFFFFFFFF91
:101F6000FFFFFFFFFFFFFFFFFFFFFFFFFFFFFFFF81
:101F7000FFFFFFFFFFFFFFFFFFFFFFFFFFFFFFFF71
:101F8000FFFFFFFFFFFFFFFFFFFFFFFFFFFFFFFF61
:101F9000FFFFFFFFFFFFFFFFFFFFFFFFFFFFFFFF51
:101FA000FFFFFFFFFFFFFFFFFFFFFFFFFFFFFFFF41
:101FB000FFFFFFFFFFFFFFFFFFFFFFFFFFFFFFFF31
:101FC000FFFFFFFFFFFFFFFFFFFFFFFFFFFFFFFF21
:101FD000FFFFFFFFFFFFFFFFFFFFFFFFFFFFFFFF11
:101FE000FFFFFFFFFFFFFFFFFFFFFFFFFFFFFFFF01
:101FF000FFFFFFFFFFFFFFFFFFFFFFFFFFFFFFFFF1
:10200000FFFFFFFFFFFFFFFFFFFFFFFFFFFFFFFFE0
:10201000FFFFFFFFFFFFFFFFFFFFFFFFFFFFFFFFD0
:10202000FFFFFFFFFFFFFFFFFFFFFFFFFFFFFFFFC0
:10203000FFFFFFFFFFFFFFFFFFFFFFFFFFFFFFFFB0
:10204000FFFFFFFFFFFFFFFFFFFFFFFFFFFFFFFFA0
:10205000FFFFFFFFFFFFFFFFFFFFFFFFFFFFFFFF90
:10206000FFFFFFFFFFFFFFFFFFFFFFFFFFFFFFFF80
:10207000FFFFFFFFFFFFFFFFFFFFFFFFFFFFFFFF70
:10208000FFFFFFFFFFFFFFFFFFFFFFFFFFFFFFFF60
:10209000FFFFFFFFFFFFFFFFFFFFFFFFFFFFFFFF50
:1020A000FFFFFFFFFFFFFFFFFFFFFFFFFFFFFFFF40
:1020B000FFFFFFFFFFFFFFFFFFFFFFFFFFFFFFFF30
:1020C000FFFFFFFFFFFFFFFFFFFFFFFFFFFFFFFF20
:1020D000FFFFFFFFFFFFFFFFFFFFFFFFFFFFFFFF10
:1020E000FFFFFFFFFFFFFFFFFFFFFFFFFFFFFFFF00
:1020F000FFFFFFFFFFFFFFFFFFFFFFFFFFFFFFFFF0
:10210000FFFFFFFFFFFFFFFFFFFFFFFFFFFFFFFFDF
:10211000FFFFFFFFFFFFFFFFFFFFFFFFFFFFFFFFCF
:10212000FFFFFFFFFFFFFFFFFFFFFFFFFFFFFFFFBF
:10213000FFFFFFFFFFFFFFFFFFFFFFFFFFFFFFFFAF
:10214000FFFFFFFFFFFFFFFFFFFFFFFFFFFFFFFF9F
:10215000FFFFFFFFFFFFFFFFFFFFFFFFFFFFFFFF8F
:10216000FFFFFFFFFFFFFFFFFFFFFFFFFFFFFFFF7F
:10217000FFFFFFFFFFFFFFFFFFFFFFFFFFFFFFFF6F
:10218000FFFFFFFFFFFFFFFFFFFFFFFFFFFFFFFF5F
:10219000FFFFFFFFFFFFFFFFFFFFFFFFFFFFFFFF4F
:1021A000FFFFFFFFFFFFFFFFFFFFFFFFFFFFFFFF3F
:1021B000FFFFFFFFFFFFFFFFFFFFFFFFFFFFFFFF2F
:1021C000FFFFFFFFFFFFFFFFFFFFFFFFFFFFFFFF1F
:1021D000FFFFFFFFFFFFFFFFFFFFFFFFFFFFFFFF0F
:1021E000FFFFFFFFFFFFFFFFFFFFFFFFFFFFFFFFFF
:1021F000FFFFFFFFFFFFFFFFFFFFFFFFFFFFFFFFEF
:10220000FFFFFFFFFFFFFFFFFFFFFFFFFFFFFFFFDE
:10221000FFFFFFFFFFFFFFFFFFFFFFFFFFFFFFFFCE
:10222000FFFFFFFFFFFFFFFFFFFFFFFFFFFFFFFFBE
:10223000FFFFFFFFFFFFFFFFFFFFFFFFFFFFFFFFAE
:10224000FFFFFFFFFFFFFFFFFFFFFFFFFFFFFFFF9E
:10225000FFFFFFFFFFFFFFFFFFFFFFFFFFFFFFFF8E
:10226000FFFFFFFFFFFFFFFFFFFFFFFFFFFFFFFF7E
:10227000FFFFFFFFFFFFFFFFFFFFFFFFFFFFFFFF6E
:10228000FFFFFFFFFFFFFFFFFFFFFFFFFFFFFFFF5E
:10229000FFFFFFFFFFFFFFFFFFFFFFFFFFFFFFFF4E
:1022A000FFFFFFFFFFFFFFFFFFFFFFFFFFFFFFFF3E
:1022B000FFFFFFFFFFFFFFFFFFFFFFFFFFFFFFFF2E
:1022C000FFFFFFFFFFFFFFFFFFFFFFFFFFFFFFFF1E
:1022D000FFFFFFFFFFFFFFFFFFFFFFFFFFFFFFFF0E
:1022E000FFFFFFFFFFFFFFFFFFFFFFFFFFFFFFFFFE
:1022F000FFFFFFFFFFFFFFFFFFFFFFFFFFFFFFFFEE
:10230000FFFFFFFFFFFFFFFFFFFFFFFFFFFFFFFFDD
:10231000FFFFFFFFFFFFFFFFFFFFFFFFFFFFFFFFCD
:10232000FFFFFFFFFFFFFFFFFFFFFFFFFFFFFFFFBD
:10233000FFFFFFFFFFFFFFFFFFFFFFFFFFFFFFFFAD
:10234000FFFFFFFFFFFFFFFFFFFFFFFFFFFFFFFF9D
:10235000FFFFFFFFFFFFFFFFFFFFFFFFFFFFFFFF8D
:10236000FFFFFFFFFFFFFFFFFFFFFFFFFFFFFFFF7D
:10237000FFFFFFFFFFFFFFFFFFFFFFFFFFFFFFFF6D
:10238000FFFFFFFFFFFFFFFFFFFFFFFFFFFFFFFF5D
:10239000FFFFFFFFFFFFFFFFFFFFFFFFFFFFFFFF4D
:1023A000FFFFFFFFFFFFFFFFFFFFFFFFFFFFFFFF3D
:1023B000FFFFFFFFFFFFFFFFFFFFFFFFFFFFFFFF2D
:1023C000FFFFFFFFFFFFFFFFFFFFFFFFFFFFFFFF1D
:1023D000FFFFFFFFFFFFFFFFFFFFFFFFFFFFFFFF0D
:1023E000FFFFFFFFFFFFFFFFFFFFFFFFFFFFFFFFFD
:1023F000FFFFFFFFFFFFFFFFFFFFFFFFFFFFFFFFED
:10240000FFFFFFFFFFFFFFFFFFFFFFFFFFFFFFFFDC
:10241000FFFFFFFFFFFFFFFFFFFFFFFFFFFFFFFFCC
:10242000FFFFFFFFFFFFFFFFFFFFFFFFFFFFFFFFBC
:10243000FFFFFFFFFFFFFFFFFFFFFFFFFFFFFFFFAC
:10244000FFFFFFFFFFFFFFFFFFFFFFFFFFFFFFFF9C
:10245000FFFFFFFFFFFFFFFFFFFFFFFFFFFFFFFF8C
:10246000FFFFFFFFFFFFFFFFFFFFFFFFFFFFFFFF7C
:10247000FFFFFFFFFFFFFFFFFFFFFFFFFFFFFFFF6C
:10248000FFFFFFFFFFFFFFFFFFFFFFFFFFFFFFFF5C
:10249000FFFFFFFFFFFFFFFFFFFFFFFFFFFFFFFF4C
:1024A000FFFFFFFFFFFFFFFFFFFFFFFFFFFFFFFF3C
:1024B000FFFFFFFFFFFFFFFFFFFFFFFFFFFFFFFF2C
:1024C000FFFFFFFFFFFFFFFFFFFFFFFFFFFFFFFF1C
:1024D000FFFFFFFFFFFFFFFFFFFFFFFFFFFFFFFF0C
:1024E000FFFFFFFFFFFFFFFFFFFFFFFFFFFFFFFFFC
:1024F000FFFFFFFFFFFFFFFFFFFFFFFFFFFFFFFFEC
:10250000FFFFFFFFFFFFFFFFFFFFFFFFFFFFFFFFDB
:10251000FFFFFFFFFFFFFFFFFFFFFFFFFFFFFFFFCB
:10252000FFFFFFFFFFFFFFFFFFFFFFFFFFFFFFFFBB
:10253000FFFFFFFFFFFFFFFFFFFFFFFFFFFFFFFFAB
:10254000FFFFFFFFFFFFFFFFFFFFFFFFFFFFFFFF9B
:10255000FFFFFFFFFFFFFFFFFFFFFFFFFFFFFFFF8B
:10256000FFFFFFFFFFFFFFFFFFFFFFFFFFFFFFFF7B
:10257000FFFFFFFFFFFFFFFFFFFFFFFFFFFFFFFF6B
:10258000FFFFFFFFFFFFFFFFFFFFFFFFFFFFFFFF5B
:10259000FFFFFFFFFFFFFFFFFFFFFFFFFFFFFFFF4B
:1025A000FFFFFFFFFFFFFFFFFFFFFFFFFFFFFFFF3B
:1025B000FFFFFFFFFFFFFFFFFFFFFFFFFFFFFFFF2B
:1025C000FFFFFFFFFFFFFFFFFFFFFFFFFFFFFFFF1B
:1025D000FFFFFFFFFFFFFFFFFFFFFFFFFFFFFFFF0B
:1025E000FFFFFFFFFFFFFFFFFFFFFFFFFFFFFFFFFB
:1025F000FFFFFFFFFFFFFFFFFFFFFFFFFFFFFFFFEB
:10260000FFFFFFFFFFFFFFFFFFFFFFFFFFFFFFFFDA
:10261000FFFFFFFFFFFFFFFFFFFFFFFFFFFFFFFFCA
:10262000FFFFFFFFFFFFFFFFFFFFFFFFFFFFFFFFBA
:10263000FFFFFFFFFFFFFFFFFFFFFFFFFFFFFFFFAA
:10264000FFFFFFFFFFFFFFFFFFFFFFFFFFFFFFFF9A
:10265000FFFFFFFFFFFFFFFFFFFFFFFFFFFFFFFF8A
:10266000FFFFFFFFFFFFFFFFFFFFFFFFFFFFFFFF7A
:10267000FFFFFFFFFFFFFFFFFFFFFFFFFFFFFFFF6A
:10268000FFFFFFFFFFFFFFFFFFFFFFFFFFFFFFFF5A
:10269000FFFFFFFFFFFFFFFFFFFFFFFFFFFFFFFF4A
:1026A000FFFFFFFFFFFFFFFFFFFFFFFFFFFFFFFF3A
:1026B000FFFFFFFFFFFFFFFFFFFFFFFFFFFFFFFF2A
:1026C000FFFFFFFFFFFFFFFFFFFFFFFFFFFFFFFF1A
:1026D000FFFFFFFFFFFFFFFFFFFFFFFFFFFFFFFF0A
:1026E000FFFFFFFFFFFFFFFFFFFFFFFFFFFFFFFFFA
:1026F000FFFFFFFFFFFFFFFFFFFFFFFFFFFFFFFFEA
:10270000FFFFFFFFFFFFFFFFFFFFFFFFFFFFFFFFD9
:10271000FFFFFFFFFFFFFFFFFFFFFFFFFFFFFFFFC9
:10272000FFFFFFFFFFFFFFFFFFFFFFFFFFFFFFFFB9
:10273000FFFFFFFFFFFFFFFFFFFFFFFFFFFFFFFFA9
:10274000FFFFFFFFFFFFFFFFFFFFFFFFFFFFFFFF99
:10275000FFFFFFFFFFFFFFFFFFFFFFFFFFFFFFFF89
:10276000FFFFFFFFFFFFFFFFFFFFFFFFFFFFFFFF79
:10277000FFFFFFFFFFFFFFFFFFFFFFFFFFFFFFFF69
:10278000FFFFFFFFFFFFFFFFFFFFFFFFFFFFFFFF59
:10279000FFFFFFFFFFFFFFFFFFFFFFFFFFFFFFFF49
:1027A000FFFFFFFFFFFFFFFFFFFFFFFFFFFFFFFF39
:1027B000FFFFFFFFFFFFFFFFFFFFFFFFFFFFFFFF29
:1027C000FFFFFFFFFFFFFFFFFFFFFFFFFFFFFFFF19
:1027D000FFFFFFFFFFFFFFFFFFFFFFFFFFFFFFFF09
:1027E000FFFFFFFFFFFFFFFFFFFFFFFFFFFFFFFFF9
:1027F000FFFFFFFFFFFFFFFFFFFFFFFFFFFFFFFFE9
:10280000FFFFFFFFFFFFFFFFFFFFFFFFFFFFFFFFD8
:10281000FFFFFFFFFFFFFFFFFFFFFFFFFFFFFFFFC8
:10282000FFFFFFFFFFFFFFFFFFFFFFFFFFFFFFFFB8
:10283000FFFFFFFFFFFFFFFFFFFFFFFFFFFFFFFFA8
:10284000FFFFFFFFFFFFFFFFFFFFFFFFFFFFFFFF98
:10285000FFFFFFFFFFFFFFFFFFFFFFFFFFFFFFFF88
:10286000FFFFFFFFFFFFFFFFFFFFFFFFFFFFFFFF78
:10287000FFFFFFFFFFFFFFFFFFFFFFFFFFFFFFFF68
:10288000FFFFFFFFFFFFFFFFFFFFFFFFFFFFFFFF58
:10289000FFFFFFFFFFFFFFFFFFFFFFFFFFFFFFFF48
:1028A000FFFFFFFFFFFFFFFFFFFFFFFFFFFFFFFF38
:1028B000FFFFFFFFFFFFFFFFFFFFFFFFFFFFFFFF28
:1028C000FFFFFFFFFFFFFFFFFFFFFFFFFFFFFFFF18
:1028D000FFFFFFFFFFFFFFFFFFFFFFFFFFFFFFFF08
:1028E000FFFFFFFFFFFFFFFFFFFFFFFFFFFFFFFFF8
:1028F000FFFFFFFFFFFFFFFFFFFFFFFFFFFFFFFFE8
:10290000FFFFFFFFFFFFFFFFFFFFFFFFFFFFFFFFD7
:10291000FFFFFFFFFFFFFFFFFFFFFFFFFFFFFFFFC7
:10292000FFFFFFFFFFFFFFFFFFFFFFFFFFFFFFFFB7
:10293000FFFFFFFFFFFFFFFFFFFFFFFFFFFFFFFFA7
:10294000FFFFFFFFFFFFFFFFFFFFFFFFFFFFFFFF97
:10295000FFFFFFFFFFFFFFFFFFFFFFFFFFFFFFFF87
:10296000FFFFFFFFFFFFFFFFFFFFFFFFFFFFFFFF77
:10297000FFFFFFFFFFFFFFFFFFFFFFFFFFFFFFFF67
:10298000FFFFFFFFFFFFFFFFFFFFFFFFFFFFFFFF57
:10299000FFFFFFFFFFFFFFFFFFFFFFFFFFFFFFFF47
:1029A000FFFFFFFFFFFFFFFFFFFFFFFFFFFFFFFF37
:1029B000FFFFFFFFFFFFFFFFFFFFFFFFFFFFFFFF27
:1029C000FFFFFFFFFFFFFFFFFFFFFFFFFFFFFFFF17
:1029D000FFFFFFFFFFFFFFFFFFFFFFFFFFFFFFFF07
:1029E000FFFFFFFFFFFFFFFFFFFFFFFFFFFFFFFFF7
:1029F000FFFFFFFFFFFFFFFFFFFFFFFFFFFFFFFFE7
:102A0000FFFFFFFFFFFFFFFFFFFFFFFFFFFFFFFFD6
:102A1000FFFFFFFFFFFFFFFFFFFFFFFFFFFFFFFFC6
:102A2000FFFFFFFFFFFFFFFFFFFFFFFFFFFFFFFFB6
:102A3000FFFFFFFFFFFFFFFFFFFFFFFFFFFFFFFFA6
:102A4000FFFFFFFFFFFFFFFFFFFFFFFFFFFFFFFF96
:102A5000FFFFFFFFFFFFFFFFFFFFFFFFFFFFFFFF86
:102A6000FFFFFFFFFFFFFFFFFFFFFFFFFFFFFFFF76
:102A7000FFFFFFFFFFFFFFFFFFFFFFFFFFFFFFFF66
:102A8000FFFFFFFFFFFFFFFFFFFFFFFFFFFFFFFF56
:102A9000FFFFFFFFFFFFFFFFFFFFFFFFFFFFFFFF46
:102AA000FFFFFFFFFFFFFFFFFFFFFFFFFFFFFFFF36
:102AB000FFFFFFFFFFFFFFFFFFFFFFFFFFFFFFFF26
:102AC000FFFFFFFFFFFFFFFFFFFFFFFFFFFFFFFF16
:102AD000FFFFFFFFFFFFFFFFFFFFFFFFFFFFFFFF06
:102AE000FFFFFFFFFFFFFFFFFFFFFFFFFFFFFFFFF6
:102AF000FFFFFFFFFFFFFFFFFFFFFFFFFFFFFFFFE6
:102B0000FFFFFFFFFFFFFFFFFFFFFFFFFFFFFFFFD5
:102B1000FFFFFFFFFFFFFFFFFFFFFFFFFFFFFFFFC5
:102B2000FFFFFFFFFFFFFFFFFFFFFFFFFFFFFFFFB5
:102B3000FFFFFFFFFFFFFFFFFFFFFFFFFFFFFFFFA5
:102B4000FFFFFFFFFFFFFFFFFFFFFFFFFFFFFFFF95
:102B5000FFFFFFFFFFFFFFFFFFFFFFFFFFFFFFFF85
:102B6000FFFFFFFFFFFFFFFFFFFFFFFFFFFFFFFF75
:102B7000FFFFFFFFFFFFFFFFFFFFFFFFFFFFFFFF65
:102B8000FFFFFFFFFFFFFFFFFFFFFFFFFFFFFFFF55
:102B9000FFFFFFFFFFFFFFFFFFFFFFFFFFFFFFFF45
:102BA000FFFFFFFFFFFFFFFFFFFFFFFFFFFFFFFF35
:102BB000FFFFFFFFFFFFFFFFFFFFFFFFFFFFFFFF25
:102BC000FFFFFFFFFFFFFFFFFFFFFFFFFFFFFFFF15
:102BD000FFFFFFFFFFFFFFFFFFFFFFFFFFFFFFFF05
:102BE000FFFFFFFFFFFFFFFFFFFFFFFFFFFFFFFFF5
:102BF000FFFFFFFFFFFFFFFFFFFFFFFFFFFFFFFFE5
:102C0000FFFFFFFFFFFFFFFFFFFFFFFFFFFFFFFFD4
:102C1000FFFFFFFFFFFFFFFFFFFFFFFFFFFFFFFFC4
:102C2000FFFFFFFFFFFFFFFFFFFFFFFFFFFFFFFFB4
:102C3000FFFFFFFFFFFFFFFFFFFFFFFFFFFFFFFFA4
:102C4000FFFFFFFFFFFFFFFFFFFFFFFFFFFFFFFF94
:102C5000FFFFFFFFFFFFFFFFFFFFFFFFFFFFFFFF84
:102C6000FFFFFFFFFFFFFFFFFFFFFFFFFFFFFFFF74
:102C7000FFFFFFFFFFFFFFFFFFFFFFFFFFFFFFFF64
:102C8000FFFFFFFFFFFFFFFFFFFFFFFFFFFFFFFF54
:102C9000FFFFFFFFFFFFFFFFFFFFFFFFFFFFFFFF44
:102CA000FFFFFFFFFFFFFFFFFFFFFFFFFFFFFFFF34
:102CB000FFFFFFFFFFFFFFFFFFFFFFFFFFFFFFFF24
:102CC000FFFFFFFFFFFFFFFFFFFFFFFFFFFFFFFF14
:102CD000FFFFFFFFFFFFFFFFFFFFFFFFFFFFFFFF04
:102CE000FFFFFFFFFFFFFFFFFFFFFFFFFFFFFFFFF4
:102CF000FFFFFFFFFFFFFFFFFFFFFFFFFFFFFFFFE4
:102D0000FFFFFFFFFFFFFFFFFFFFFFFFFFFFFFFFD3
:102D1000FFFFFFFFFFFFFFFFFFFFFFFFFFFFFFFFC3
:102D2000FFFFFFFFFFFFFFFFFFFFFFFFFFFFFFFFB3
:102D3000FFFFFFFFFFFFFFFFFFFFFFFFFFFFFFFFA3
:102D4000FFFFFFFFFFFFFFFFFFFFFFFFFFFFFFFF93
:102D5000FFFFFFFFFFFFFFFFFFFFFFFFFFFFFFFF83
:102D6000FFFFFFFFFFFFFFFFFFFFFFFFFFFFFFFF73
:102D7000FFFFFFFFFFFFFFFFFFFFFFFFFFFFFFFF63
:102D8000FFFFFFFFFFFFFFFFFFFFFFFFFFFFFFFF53
:102D9000FFFFFFFFFFFFFFFFFFFFFFFFFFFFFFFF43
:102DA000FFFFFFFFFFFFFFFFFFFFFFFFFFFFFFFF33
:102DB000FFFFFFFFFFFFFFFFFFFFFFFFFFFFFFFF23
:102DC000FFFFFFFFFFFFFFFFFFFFFFFFFFFFFFFF13
:102DD000FFFFFFFFFFFFFFFFFFFFFFFFFFFFFFFF03
:102DE000FFFFFFFFFFFFFFFFFFFFFFFFFFFFFFFFF3
:102DF000FFFFFFFFFFFFFFFFFFFFFFFFFFFFFFFFE3
:102E0000FFFFFFFFFFFFFFFFFFFFFFFFFFFFFFFFD2
:102E1000FFFFFFFFFFFFFFFFFFFFFFFFFFFFFFFFC2
:102E2000FFFFFFFFFFFFFFFFFFFFFFFFFFFFFFFFB2
:102E3000FFFFFFFFFFFFFFFFFFFFFFFFFFFFFFFFA2
:102E4000FFFFFFFFFFFFFFFFFFFFFFFFFFFFFFFF92
:102E5000FFFFFFFFFFFFFFFFFFFFFFFFFFFFFFFF82
:102E6000FFFFFFFFFFFFFFFFFFFFFFFFFFFFFFFF72
:102E7000FFFFFFFFFFFFFFFFFFFFFFFFFFFFFFFF62
:102E8000FFFFFFFFFFFFFFFFFFFFFFFFFFFFFFFF52
:102E9000FFFFFFFFFFFFFFFFFFFFFFFFFFFFFFFF42
:102EA000FFFFFFFFFFFFFFFFFFFFFFFFFFFFFFFF32
:102EB000FFFFFFFFFFFFFFFFFFFFFFFFFFFFFFFF22
:102EC000FFFFFFFFFFFFFFFFFFFFFFFFFFFFFFFF12
:102ED000FFFFFFFFFFFFFFFFFFFFFFFFFFFFFFFF02
:102EE000FFFFFFFFFFFFFFFFFFFFFFFFFFFFFFFFF2
:102EF000FFFFFFFFFFFFFFFFFFFFFFFFFFFFFFFFE2
:102F0000FFFFFFFFFFFFFFFFFFFFFFFFFFFFFFFFD1
:102F1000FFFFFFFFFFFFFFFFFFFFFFFFFFFFFFFFC1
:102F2000FFFFFFFFFFFFFFFFFFFFFFFFFFFFFFFFB1
:102F3000FFFFFFFFFFFFFFFFFFFFFFFFFFFFFFFFA1
:102F4000FFFFFFFFFFFFFFFFFFFFFFFFFFFFFFFF91
:102F5000FFFFFFFFFFFFFFFFFFFFFFFFFFFFFFFF81
:102F6000FFFFFFFFFFFFFFFFFFFFFFFFFFFFFFFF71
:102F7000FFFFFFFFFFFFFFFFFFFFFFFFFFFFFFFF61
:102F8000FFFFFFFFFFFFFFFFFFFFFFFFFFFFFFFF51
:102F9000FFFFFFFFFFFFFFFFFFFFFFFFFFFFFFFF41
:102FA000FFFFFFFFFFFFFFFFFFFFFFFFFFFFFFFF31
:102FB000FFFFFFFFFFFFFFFFFFFFFFFFFFFFFFFF21
:102FC000FFFFFFFFFFFFFFFFFFFFFFFFFFFFFFFF11
:102FD000FFFFFFFFFFFFFFFFFFFFFFFFFFFFFFFF01
:102FE000FFFFFFFFFFFFFFFFFFFFFFFFFFFFFFFFF1
:102FF000FFFFFFFFFFFFFFFFFFFFFFFFFFFFFFFFE1
:10300000FFFFFFFFFFFFFFFFFFFFFFFFFFFFFFFFD0
:10301000FFFFFFFFFFFFFFFFFFFFFFFFFFFFFFFFC0
:10302000FFFFFFFFFFFFFFFFFFFFFFFFFFFFFFFFB0
:10303000FFFFFFFFFFFFFFFFFFFFFFFFFFFFFFFFA0
:10304000FFFFFFFFFFFFFFFFFFFFFFFFFFFFFFFF90
:10305000FFFFFFFFFFFFFFFFFFFFFFFFFFFFFFFF80
:10306000FFFFFFFFFFFFFFFFFFFFFFFFFFFFFFFF70
:10307000FFFFFFFFFFFFFFFFFFFFFFFFFFFFFFFF60
:10308000FFFFFFFFFFFFFFFFFFFFFFFFFFFFFFFF50
:10309000FFFFFFFFFFFFFFFFFFFFFFFFFFFFFFFF40
:1030A000FFFFFFFFFFFFFFFFFFFFFFFFFFFFFFFF30
:1030B000FFFFFFFFFFFFFFFFFFFFFFFFFFFFFFFF20
:1030C000FFFFFFFFFFFFFFFFFFFFFFFFFFFFFFFF10
:1030D000FFFFFFFFFFFFFFFFFFFFFFFFFFFFFFFF00
:1030E000FFFFFFFFFFFFFFFFFFFFFFFFFFFFFFFFF0
:1030F000FFFFFFFFFFFFFFFFFFFFFFFFFFFFFFFFE0
:10310000FFFFFFFFFFFFFFFFFFFFFFFFFFFFFFFFCF
:10311000FFFFFFFFFFFFFFFFFFFFFFFFFFFFFFFFBF
:10312000FFFFFFFFFFFFFFFFFFFFFFFFFFFFFFFFAF
:10313000FFFFFFFFFFFFFFFFFFFFFFFFFFFFFFFF9F
:10314000FFFFFFFFFFFFFFFFFFFFFFFFFFFFFFFF8F
:10315000FFFFFFFFFFFFFFFFFFFFFFFFFFFFFFFF7F
:10316000FFFFFFFFFFFFFFFFFFFFFFFFFFFFFFFF6F
:10317000FFFFFFFFFFFFFFFFFFFFFFFFFFFFFFFF5F
:10318000FFFFFFFFFFFFFFFFFFFFFFFFFFFFFFFF4F
:10319000FFFFFFFFFFFFFFFFFFFFFFFFFFFFFFFF3F
:1031A000FFFFFFFFFFFFFFFFFFFFFFFFFFFFFFFF2F
:1031B000FFFFFFFFFFFFFFFFFFFFFFFFFFFFFFFF1F
:1031C000FFFFFFFFFFFFFFFFFFFFFFFFFFFFFFFF0F
:1031D000FFFFFFFFFFFFFFFFFFFFFFFFFFFFFFFFFF
:1031E000FFFFFFFFFFFFFFFFFFFFFFFFFFFFFFFFEF
:1031F000FFFFFFFFFFFFFFFFFFFFFFFFFFFFFFFFDF
:10320000FFFFFFFFFFFFFFFFFFFFFFFFFFFFFFFFCE
:10321000FFFFFFFFFFFFFFFFFFFFFFFFFFFFFFFFBE
:10322000FFFFFFFFFFFFFFFFFFFFFFFFFFFFFFFFAE
:10323000FFFFFFFFFFFFFFFFFFFFFFFFFFFFFFFF9E
:10324000FFFFFFFFFFFFFFFFFFFFFFFFFFFFFFFF8E
:10325000FFFFFFFFFFFFFFFFFFFFFFFFFFFFFFFF7E
:10326000FFFFFFFFFFFFFFFFFFFFFFFFFFFFFFFF6E
:10327000FFFFFFFFFFFFFFFFFFFFFFFFFFFFFFFF5E
:10328000FFFFFFFFFFFFFFFFFFFFFFFFFFFFFFFF4E
:10329000FFFFFFFFFFFFFFFFFFFFFFFFFFFFFFFF3E
:1032A000FFFFFFFFFFFFFFFFFFFFFFFFFFFFFFFF2E
:1032B000FFFFFFFFFFFFFFFFFFFFFFFFFFFFFFFF1E
:1032C000FFFFFFFFFFFFFFFFFFFFFFFFFFFFFFFF0E
:1032D000FFFFFFFFFFFFFFFFFFFFFFFFFFFFFFFFFE
:1032E000FFFFFFFFFFFFFFFFFFFFFFFFFFFFFFFFEE
:1032F000FFFFFFFFFFFFFFFFFFFFFFFFFFFFFFFFDE
:10330000FFFFFFFFFFFFFFFFFFFFFFFFFFFFFFFFCD
:10331000FFFFFFFFFFFFFFFFFFFFFFFFFFFFFFFFBD
:10332000FFFFFFFFFFFFFFFFFFFFFFFFFFFFFFFFAD
:10333000FFFFFFFFFFFFFFFFFFFFFFFFFFFFFFFF9D
:10334000FFFFFFFFFFFFFFFFFFFFFFFFFFFFFFFF8D
:10335000FFFFFFFFFFFFFFFFFFFFFFFFFFFFFFFF7D
:10336000FFFFFFFFFFFFFFFFFFFFFFFFFFFFFFFF6D
:10337000FFFFFFFFFFFFFFFFFFFFFFFFFFFFFFFF5D
:10338000FFFFFFFFFFFFFFFFFFFFFFFFFFFFFFFF4D
:10339000FFFFFFFFFFFFFFFFFFFFFFFFFFFFFFFF3D
:1033A000FFFFFFFFFFFFFFFFFFFFFFFFFFFFFFFF2D
:1033B000FFFFFFFFFFFFFFFFFFFFFFFFFFFFFFFF1D
:1033C000FFFFFFFFFFFFFFFFFFFFFFFFFFFFFFFF0D
:1033D000FFFFFFFFFFFFFFFFFFFFFFFFFFFFFFFFFD
:1033E000FFFFFFFFFFFFFFFFFFFFFFFFFFFFFFFFED
:1033F000FFFFFFFFFFFFFFFFFFFFFFFFFFFFFFFFDD
:10340000FFFFFFFFFFFFFFFFFFFFFFFFFFFFFFFFCC
:10341000FFFFFFFFFFFFFFFFFFFFFFFFFFFFFFFFBC
:10342000FFFFFFFFFFFFFFFFFFFFFFFFFFFFFFFFAC
:10343000FFFFFFFFFFFFFFFFFFFFFFFFFFFFFFFF9C
:10344000FFFFFFFFFFFFFFFFFFFFFFFFFFFFFFFF8C
:10345000FFFFFFFFFFFFFFFFFFFFFFFFFFFFFFFF7C
:10346000FFFFFFFFFFFFFFFFFFFFFFFFFFFFFFFF6C
:10347000FFFFFFFFFFFFFFFFFFFFFFFFFFFFFFFF5C
:10348000FFFFFFFFFFFFFFFFFFFFFFFFFFFFFFFF4C
:10349000FFFFFFFFFFFFFFFFFFFFFFFFFFFFFFFF3C
:1034A000FFFFFFFFFFFFFFFFFFFFFFFFFFFFFFFF2C
:1034B000FFFFFFFFFFFFFFFFFFFFFFFFFFFFFFFF1C
:1034C000FFFFFFFFFFFFFFFFFFFFFFFFFFFFFFFF0C
:1034D000FFFFFFFFFFFFFFFFFFFFFFFFFFFFFFFFFC
:1034E000FFFFFFFFFFFFFFFFFFFFFFFFFFFFFFFFEC
:1034F000FFFFFFFFFFFFFFFFFFFFFFFFFFFFFFFFDC
:10350000FFFFFFFFFFFFFFFFFFFFFFFFFFFFFFFFCB
:10351000FFFFFFFFFFFFFFFFFFFFFFFFFFFFFFFFBB
:10352000FFFFFFFFFFFFFFFFFFFFFFFFFFFFFFFFAB
:10353000FFFFFFFFFFFFFFFFFFFFFFFFFFFFFFFF9B
:10354000FFFFFFFFFFFFFFFFFFFFFFFFFFFFFFFF8B
:10355000FFFFFFFFFFFFFFFFFFFFFFFFFFFFFFFF7B
:10356000FFFFFFFFFFFFFFFFFFFFFFFFFFFFFFFF6B
:10357000FFFFFFFFFFFFFFFFFFFFFFFFFFFFFFFF5B
:10358000FFFFFFFFFFFFFFFFFFFFFFFFFFFFFFFF4B
:10359000FFFFFFFFFFFFFFFFFFFFFFFFFFFFFFFF3B
:1035A000FFFFFFFFFFFFFFFFFFFFFFFFFFFFFFFF2B
:1035B000FFFFFFFFFFFFFFFFFFFFFFFFFFFFFFFF1B
:1035C000FFFFFFFFFFFFFFFFFFFFFFFFFFFFFFFF0B
:1035D000FFFFFFFFFFFFFFFFFFFFFFFFFFFFFFFFFB
:1035E000FFFFFFFFFFFFFFFFFFFFFFFFFFFFFFFFEB
:1035F000FFFFFFFFFFFFFFFFFFFFFFFFFFFFFFFFDB
:10360000FFFFFFFFFFFFFFFFFFFFFFFFFFFFFFFFCA
:10361000FFFFFFFFFFFFFFFFFFFFFFFFFFFFFFFFBA
:10362000FFFFFFFFFFFFFFFFFFFFFFFFFFFFFFFFAA
:10363000FFFFFFFFFFFFFFFFFFFFFFFFFFFFFFFF9A
:10364000FFFFFFFFFFFFFFFFFFFFFFFFFFFFFFFF8A
:10365000FFFFFFFFFFFFFFFFFFFFFFFFFFFFFFFF7A
:10366000FFFFFFFFFFFFFFFFFFFFFFFFFFFFFFFF6A
:10367000FFFFFFFFFFFFFFFFFFFFFFFFFFFFFFFF5A
:10368000FFFFFFFFFFFFFFFFFFFFFFFFFFFFFFFF4A
:10369000FFFFFFFFFFFFFFFFFFFFFFFFFFFFFFFF3A
:1036A000FFFFFFFFFFFFFFFFFFFFFFFFFFFFFFFF2A
:1036B000FFFFFFFFFFFFFFFFFFFFFFFFFFFFFFFF1A
:1036C000FFFFFFFFFFFFFFFFFFFFFFFFFFFFFFFF0A
:1036D000FFFFFFFFFFFFFFFFFFFFFFFFFFFFFFFFFA
:1036E000FFFFFFFFFFFFFFFFFFFFFFFFFFFFFFFFEA
:1036F000FFFFFFFFFFFFFFFFFFFFFFFFFFFFFFFFDA
:10370000FFFFFFFFFFFFFFFFFFFFFFFFFFFFFFFFC9
:10371000FFFFFFFFFFFFFFFFFFFFFFFFFFFFFFFFB9
:10372000FFFFFFFFFFFFFFFFFFFFFFFFFFFFFFFFA9
:10373000FFFFFFFFFFFFFFFFFFFFFFFFFFFFFFFF99
:10374000FFFFFFFFFFFFFFFFFFFFFFFFFFFFFFFF89
:10375000FFFFFFFFFFFFFFFFFFFFFFFFFFFFFFFF79
:10376000FFFFFFFFFFFFFFFFFFFFFFFFFFFFFFFF69
:10377000FFFFFFFFFFFFFFFFFFFFFFFFFFFFFFFF59
:10378000FFFFFFFFFFFFFFFFFFFFFFFFFFFFFFFF49
:10379000FFFFFFFFFFFFFFFFFFFFFFFFFFFFFFFF39
:1037A000FFFFFFFFFFFFFFFFFFFFFFFFFFFFFFFF29
:1037B000FFFFFFFFFFFFFFFFFFFFFFFFFFFFFFFF19
:1037C000FFFFFFFFFFFFFFFFFFFFFFFFFFFFFFFF09
:1037D000FFFFFFFFFFFFFFFFFFFFFFFFFFFFFFFFF9
:1037E000FFFFFFFFFFFFFFFFFFFFFFFFFFFFFFFFE9
:1037F000FFFFFFFFFFFFFFFFFFFFFFFFFFFFFFFFD9
:10380000FFFFFFFFFFFFFFFFFFFFFFFFFFFFFFFFC8
:10381000FFFFFFFFFFFFFFFFFFFFFFFFFFFFFFFFB8
:10382000FFFFFFFFFFFFFFFFFFFFFFFFFFFFFFFFA8
:10383000FFFFFFFFFFFFFFFFFFFFFFFFFFFFFFFF98
:10384000FFFFFFFFFFFFFFFFFFFFFFFFFFFFFFFF88
:10385000FFFFFFFFFFFFFFFFFFFFFFFFFFFFFFFF78
:10386000FFFFFFFFFFFFFFFFFFFFFFFFFFFFFFFF68
:10387000FFFFFFFFFFFFFFFFFFFFFFFFFFFFFFFF58
:10388000FFFFFFFFFFFFFFFFFFFFFFFFFFFFFFFF48
:10389000FFFFFFFFFFFFFFFFFFFFFFFFFFFFFFFF38
:1038A000FFFFFFFFFFFFFFFFFFFFFFFFFFFFFFFF28
:1038B000FFFFFFFFFFFFFFFFFFFFFFFFFFFFFFFF18
:1038C000FFFFFFFFFFFFFFFFFFFFFFFFFFFFFFFF08
:1038D000FFFFFFFFFFFFFFFFFFFFFFFFFFFFFFFFF8
:1038E000FFFFFFFFFFFFFFFFFFFFFFFFFFFFFFFFE8
:1038F000FFFFFFFFFFFFFFFFFFFFFFFFFFFFFFFFD8
:10390000FFFFFFFFFFFFFFFFFFFFFFFFFFFFFFFFC7
:10391000FFFFFFFFFFFFFFFFFFFFFFFFFFFFFFFFB7
:10392000FFFFFFFFFFFFFFFFFFFFFFFFFFFFFFFFA7
:10393000FFFFFFFFFFFFFFFFFFFFFFFFFFFFFFFF97
:10394000FFFFFFFFFFFFFFFFFFFFFFFFFFFFFFFF87
:10395000FFFFFFFFFFFFFFFFFFFFFFFFFFFFFFFF77
:10396000FFFFFFFFFFFFFFFFFFFFFFFFFFFFFFFF67
:10397000FFFFFFFFFFFFFFFFFFFFFFFFFFFFFFFF57
:10398000FFFFFFFFFFFFFFFFFFFFFFFFFFFFFFFF47
:10399000FFFFFFFFFFFFFFFFFFFFFFFFFFFFFFFF37
:1039A000FFFFFFFFFFFFFFFFFFFFFFFFFFFFFFFF27
:1039B000FFFFFFFFFFFFFFFFFFFFFFFFFFFFFFFF17
:1039C000FFFFFFFFFFFFFFFFFFFFFFFFFFFFFFFF07
:1039D000FFFFFFFFFFFFFFFFFFFFFFFFFFFFFFFFF7
:1039E000FFFFFFFFFFFFFFFFFFFFFFFFFFFFFFFFE7
:1039F000FFFFFFFFFFFFFFFFFFFFFFFFFFFFFFFFD7
:103A0000FFFFFFFFFFFFFFFFFFFFFFFFFFFFFFFFC6
:103A1000FFFFFFFFFFFFFFFFFFFFFFFFFFFFFFFFB6
:103A2000FFFFFFFFFFFFFFFFFFFFFFFFFFFFFFFFA6
:103A3000FFFFFFFFFFFFFFFFFFFFFFFFFFFFFFFF96
:103A4000FFFFFFFFFFFFFFFFFFFFFFFFFFFFFFFF86
:103A5000FFFFFFFFFFFFFFFFFFFFFFFFFFFFFFFF76
:103A6000FFFFFFFFFFFFFFFFFFFFFFFFFFFFFFFF66
:103A7000FFFFFFFFFFFFFFFFFFFFFFFFFFFFFFFF56
:103A8000FFFFFFFFFFFFFFFFFFFFFFFFFFFFFFFF46
:103A9000FFFFFFFFFFFFFFFFFFFFFFFFFFFFFFFF36
:103AA000FFFFFFFFFFFFFFFFFFFFFFFFFFFFFFFF26
:103AB000FFFFFFFFFFFFFFFFFFFFFFFFFFFFFFFF16
:103AC000FFFFFFFFFFFFFFFFFFFFFFFFFFFFFFFF06
:103AD000FFFFFFFFFFFFFFFFFFFFFFFFFFFFFFFFF6
:103AE000FFFFFFFFFFFFFFFFFFFFFFFFFFFFFFFFE6
:103AF000FFFFFFFFFFFFFFFFFFFFFFFFFFFFFFFFD6
:103B0000FFFFFFFFFFFFFFFFFFFFFFFFFFFFFFFFC5
:103B1000FFFFFFFFFFFFFFFFFFFFFFFFFFFFFFFFB5
:103B2000FFFFFFFFFFFFFFFFFFFFFFFFFFFFFFFFA5
:103B3000FFFFFFFFFFFFFFFFFFFFFFFFFFFFFFFF95
:103B4000FFFFFFFFFFFFFFFFFFFFFFFFFFFFFFFF85
:103B5000FFFFFFFFFFFFFFFFFFFFFFFFFFFFFFFF75
:103B6000FFFFFFFFFFFFFFFFFFFFFFFFFFFFFFFF65
:103B7000FFFFFFFFFFFFFFFFFFFFFFFFFFFFFFFF55
:103B8000FFFFFFFFFFFFFFFFFFFFFFFFFFFFFFFF45
:103B9000FFFFFFFFFFFFFFFFFFFFFFFFFFFFFFFF35
:103BA000FFFFFFFFFFFFFFFFFFFFFFFFFFFFFFFF25
:103BB000FFFFFFFFFFFFFFFFFFFFFFFFFFFFFFFF15
:103BC000FFFFFFFFFFFFFFFFFFFFFFFFFFFFFFFF05
:103BD000FFFFFFFFFFFFFFFFFFFFFFFFFFFFFFFFF5
:103BE000FFFFFFFFFFFFFFFFFFFFFFFFFFFFFFFFE5
:103BF000FFFFFFFFFFFFFFFFFFFFFFFFFFFFFFFFD5
:103C0000FFFFFFFFFFFFFFFFFFFFFFFFFFFFFFFFC4
:103C1000FFFFFFFFFFFFFFFFFFFFFFFFFFFFFFFFB4
:103C2000FFFFFFFFFFFFFFFFFFFFFFFFFFFFFFFFA4
:103C3000FFFFFFFFFFFFFFFFFFFFFFFFFFFFFFFF94
:103C4000FFFFFFFFFFFFFFFFFFFFFFFFFFFFFFFF84
:103C5000FFFFFFFFFFFFFFFFFFFFFFFFFFFFFFFF74
:103C6000FFFFFFFFFFFFFFFFFFFFFFFFFFFFFFFF64
:103C7000FFFFFFFFFFFFFFFFFFFFFFFFFFFFFFFF54
:103C8000FFFFFFFFFFFFFFFFFFFFFFFFFFFFFFFF44
:103C9000FFFFFFFFFFFFFFFFFFFFFFFFFFFFFFFF34
:103CA000FFFFFFFFFFFFFFFFFFFFFFFFFFFFFFFF24
:103CB000FFFFFFFFFFFFFFFFFFFFFFFFFFFFFFFF14
:103CC000FFFFFFFFFFFFFFFFFFFFFFFFFFFFFFFF04
:103CD000FFFFFFFFFFFFFFFFFFFFFFFFFFFFFFFFF4
:103CE000FFFFFFFFFFFFFFFFFFFFFFFFFFFFFFFFE4
:103CF000FFFFFFFFFFFFFFFFFFFFFFFFFFFFFFFFD4
:103D0000FFFFFFFFFFFFFFFFFFFFFFFFFFFFFFFFC3
:103D1000FFFFFFFFFFFFFFFFFFFFFFFFFFFFFFFFB3
:103D2000FFFFFFFFFFFFFFFFFFFFFFFFFFFFFFFFA3
:103D3000FFFFFFFFFFFFFFFFFFFFFFFFFFFFFFFF93
:103D4000FFFFFFFFFFFFFFFFFFFFFFFFFFFFFFFF83
:103D5000FFFFFFFFFFFFFFFFFFFFFFFFFFFFFFFF73
:103D6000FFFFFFFFFFFFFFFFFFFFFFFFFFFFFFFF63
:103D7000FFFFFFFFFFFFFFFFFFFFFFFFFFFFFFFF53
:103D8000FFFFFFFFFFFFFFFFFFFFFFFFFFFFFFFF43
:103D9000FFFFFFFFFFFFFFFFFFFFFFFFFFFFFFFF33
:103DA000FFFFFFFFFFFFFFFFFFFFFFFFFFFFFFFF23
:103DB000FFFFFFFFFFFFFFFFFFFFFFFFFFFFFFFF13
:103DC000FFFFFFFFFFFFFFFFFFFFFFFFFFFFFFFF03
:103DD000FFFFFFFFFFFFFFFFFFFFFFFFFFFFFFFFF3
:103DE000FFFFFFFFFFFFFFFFFFFFFFFFFFFFFFFFE3
:103DF000FFFFFFFFFFFFFFFFFFFFFFFFFFFFFFFFD3
:103E0000FFFFFFFFFFFFFFFFFFFFFFFFFFFFFFFFC2
:103E1000FFFFFFFFFFFFFFFFFFFFFFFFFFFFFFFFB2
:103E2000FFFFFFFFFFFFFFFFFFFFFFFFFFFFFFFFA2
:103E3000FFFFFFFFFFFFFFFFFFFFFFFFFFFFFFFF92
:103E4000FFFFFFFFFFFFFFFFFFFFFFFFFFFFFFFF82
:103E5000FFFFFFFFFFFFFFFFFFFFFFFFFFFFFFFF72
:103E6000FFFFFFFFFFFFFFFFFFFFFFFFFFFFFFFF62
:103E7000FFFFFFFFFFFFFFFFFFFFFFFFFFFFFFFF52
:103E8000FFFFFFFFFFFFFFFFFFFFFFFFFFFFFFFF42
:103E9000FFFFFFFFFFFFFFFFFFFFFFFFFFFFFFFF32
:103EA000FFFFFFFFFFFFFFFFFFFFFFFFFFFFFFFF22
:103EB000FFFFFFFFFFFFFFFFFFFFFFFFFFFFFFFF12
:103EC000FFFFFFFFFFFFFFFFFFFFFFFFFFFFFFFF02
:103ED000FFFFFFFFFFFFFFFFFFFFFFFFFFFFFFFFF2
:103EE000FFFFFFFFFFFFFFFFFFFFFFFFFFFFFFFFE2
:103EF000FFFFFFFFFFFFFFFFFFFFFFFFFFFFFFFFD2
:103F0000FFFFFFFFFFFFFFFFFFFFFFFFFFFFFFFFC1
:103F1000FFFFFFFFFFFFFFFFFFFFFFFFFFFFFFFFB1
:103F2000FFFFFFFFFFFFFFFFFFFFFFFFFFFFFFFFA1
:103F3000FFFFFFFFFFFFFFFFFFFFFFFFFFFFFFFF91
:103F4000FFFFFFFFFFFFFFFFFFFFFFFFFFFFFFFF81
:103F5000FFFFFFFFFFFFFFFFFFFFFFFFFFFFFFFF71
:103F6000FFFFFFFFFFFFFFFFFFFFFFFFFFFFFFFF61
:103F7000FFFFFFFFFFFFFFFFFFFFFFFFFFFFFFFF51
:103F8000FFFFFFFFFFFFFFFFFFFFFFFFFFFFFFFF41
:103F9000FFFFFFFFFFFFFFFFFFFFFFFFFFFFFFFF31
:103FA000FFFFFFFFFFFFFFFFFFFFFFFFFFFFFFFF21
:103FB000FFFFFFFFFFFFFFFFFFFFFFFFFFFFFFFF11
:103FC000FFFFFFFFFFFFFFFFFFFFFFFFFFFFFFFF01
:103FD000FFFFFFFFFFFFFFFFFFFFFFFFFFFFFFFFF1
:103FE000FFFFFFFFFFFFFFFFFFFFFFFFFFFFFFFFE1
:103FF000FFFFFFFFFFFFFFFFFFFFFFFFFFFFFFFFD1
:10400000FFFFFFFFFFFFFFFFFFFFFFFFFFFFFFFFC0
:10401000FFFFFFFFFFFFFFFFFFFFFFFFFFFFFFFFB0
:10402000FFFFFFFFFFFFFFFFFFFFFFFFFFFFFFFFA0
:10403000FFFFFFFFFFFFFFFFFFFFFFFFFFFFFFFF90
:10404000FFFFFFFFFFFFFFFFFFFFFFFFFFFFFFFF80
:10405000FFFFFFFFFFFFFFFFFFFFFFFFFFFFFFFF70
:10406000FFFFFFFFFFFFFFFFFFFFFFFFFFFFFFFF60
:10407000FFFFFFFFFFFFFFFFFFFFFFFFFFFFFFFF50
:10408000FFFFFFFFFFFFFFFFFFFFFFFFFFFFFFFF40
:10409000FFFFFFFFFFFFFFFFFFFFFFFFFFFFFFFF30
:1040A000FFFFFFFFFFFFFFFFFFFFFFFFFFFFFFFF20
:1040B000FFFFFFFFFFFFFFFFFFFFFFFFFFFFFFFF10
:1040C000FFFFFFFFFFFFFFFFFFFFFFFFFFFFFFFF00
:1040D000FFFFFFFFFFFFFFFFFFFFFFFFFFFFFFFFF0
:1040E000FFFFFFFFFFFFFFFFFFFFFFFFFFFFFFFFE0
:1040F000FFFFFFFFFFFFFFFFFFFFFFFFFFFFFFFFD0
:10410000FFFFFFFFFFFFFFFFFFFFFFFFFFFFFFFFBF
:10411000FFFFFFFFFFFFFFFFFFFFFFFFFFFFFFFFAF
:10412000FFFFFFFFFFFFFFFFFFFFFFFFFFFFFFFF9F
:10413000FFFFFFFFFFFFFFFFFFFFFFFFFFFFFFFF8F
:10414000FFFFFFFFFFFFFFFFFFFFFFFFFFFFFFFF7F
:10415000FFFFFFFFFFFFFFFFFFFFFFFFFFFFFFFF6F
:10416000FFFFFFFFFFFFFFFFFFFFFFFFFFFFFFFF5F
:10417000FFFFFFFFFFFFFFFFFFFFFFFFFFFFFFFF4F
:10418000FFFFFFFFFFFFFFFFFFFFFFFFFFFFFFFF3F
:10419000FFFFFFFFFFFFFFFFFFFFFFFFFFFFFFFF2F
:1041A000FFFFFFFFFFFFFFFFFFFFFFFFFFFFFFFF1F
:1041B000FFFFFFFFFFFFFFFFFFFFFFFFFFFFFFFF0F
:1041C000FFFFFFFFFFFFFFFFFFFFFFFFFFFFFFFFFF
:1041D000FFFFFFFFFFFFFFFFFFFFFFFFFFFFFFFFEF
:1041E000FFFFFFFFFFFFFFFFFFFFFFFFFFFFFFFFDF
:1041F000FFFFFFFFFFFFFFFFFFFFFFFFFFFFFFFFCF
:10420000FFFFFFFFFFFFFFFFFFFFFFFFFFFFFFFFBE
:10421000FFFFFFFFFFFFFFFFFFFFFFFFFFFFFFFFAE
:10422000FFFFFFFFFFFFFFFFFFFFFFFFFFFFFFFF9E
:10423000FFFFFFFFFFFFFFFFFFFFFFFFFFFFFFFF8E
:10424000FFFFFFFFFFFFFFFFFFFFFFFFFFFFFFFF7E
:10425000FFFFFFFFFFFFFFFFFFFFFFFFFFFFFFFF6E
:10426000FFFFFFFFFFFFFFFFFFFFFFFFFFFFFFFF5E
:10427000FFFFFFFFFFFFFFFFFFFFFFFFFFFFFFFF4E
:10428000FFFFFFFFFFFFFFFFFFFFFFFFFFFFFFFF3E
:10429000FFFFFFFFFFFFFFFFFFFFFFFFFFFFFFFF2E
:1042A000FFFFFFFFFFFFFFFFFFFFFFFFFFFFFFFF1E
:1042B000FFFFFFFFFFFFFFFFFFFFFFFFFFFFFFFF0E
:1042C000FFFFFFFFFFFFFFFFFFFFFFFFFFFFFFFFFE
:1042D000FFFFFFFFFFFFFFFFFFFFFFFFFFFFFFFFEE
:1042E000FFFFFFFFFFFFFFFFFFFFFFFFFFFFFFFFDE
:1042F000FFFFFFFFFFFFFFFFFFFFFFFFFFFFFFFFCE
:10430000FFFFFFFFFFFFFFFFFFFFFFFFFFFFFFFFBD
:10431000FFFFFFFFFFFFFFFFFFFFFFFFFFFFFFFFAD
:10432000FFFFFFFFFFFFFFFFFFFFFFFFFFFFFFFF9D
:10433000FFFFFFFFFFFFFFFFFFFFFFFFFFFFFFFF8D
:10434000FFFFFFFFFFFFFFFFFFFFFFFFFFFFFFFF7D
:10435000FFFFFFFFFFFFFFFFFFFFFFFFFFFFFFFF6D
:10436000FFFFFFFFFFFFFFFFFFFFFFFFFFFFFFFF5D
:10437000FFFFFFFFFFFFFFFFFFFFFFFFFFFFFFFF4D
:10438000FFFFFFFFFFFFFFFFFFFFFFFFFFFFFFFF3D
:10439000FFFFFFFFFFFFFFFFFFFFFFFFFFFFFFFF2D
:1043A000FFFFFFFFFFFFFFFFFFFFFFFFFFFFFFFF1D
:1043B000FFFFFFFFFFFFFFFFFFFFFFFFFFFFFFFF0D
:1043C000FFFFFFFFFFFFFFFFFFFFFFFFFFFFFFFFFD
:1043D000FFFFFFFFFFFFFFFFFFFFFFFFFFFFFFFFED
:1043E000FFFFFFFFFFFFFFFFFFFFFFFFFFFFFFFFDD
:1043F000FFFFFFFFFFFFFFFFFFFFFFFFFFFFFFFFCD
:10440000FFFFFFFFFFFFFFFFFFFFFFFFFFFFFFFFBC
:10441000FFFFFFFFFFFFFFFFFFFFFFFFFFFFFFFFAC
:10442000FFFFFFFFFFFFFFFFFFFFFFFFFFFFFFFF9C
:10443000FFFFFFFFFFFFFFFFFFFFFFFFFFFFFFFF8C
:10444000FFFFFFFFFFFFFFFFFFFFFFFFFFFFFFFF7C
:10445000FFFFFFFFFFFFFFFFFFFFFFFFFFFFFFFF6C
:10446000FFFFFFFFFFFFFFFFFFFFFFFFFFFFFFFF5C
:10447000FFFFFFFFFFFFFFFFFFFFFFFFFFFFFFFF4C
:10448000FFFFFFFFFFFFFFFFFFFFFFFFFFFFFFFF3C
:10449000FFFFFFFFFFFFFFFFFFFFFFFFFFFFFFFF2C
:1044A000FFFFFFFFFFFFFFFFFFFFFFFFFFFFFFFF1C
:1044B000FFFFFFFFFFFFFFFFFFFFFFFFFFFFFFFF0C
:1044C000FFFFFFFFFFFFFFFFFFFFFFFFFFFFFFFFFC
:1044D000FFFFFFFFFFFFFFFFFFFFFFFFFFFFFFFFEC
:1044E000FFFFFFFFFFFFFFFFFFFFFFFFFFFFFFFFDC
:1044F000FFFFFFFFFFFFFFFFFFFFFFFFFFFFFFFFCC
:10450000FFFFFFFFFFFFFFFFFFFFFFFFFFFFFFFFBB
:10451000FFFFFFFFFFFFFFFFFFFFFFFFFFFFFFFFAB
:10452000FFFFFFFFFFFFFFFFFFFFFFFFFFFFFFFF9B
:10453000FFFFFFFFFFFFFFFFFFFFFFFFFFFFFFFF8B
:10454000FFFFFFFFFFFFFFFFFFFFFFFFFFFFFFFF7B
:10455000FFFFFFFFFFFFFFFFFFFFFFFFFFFFFFFF6B
:10456000FFFFFFFFFFFFFFFFFFFFFFFFFFFFFFFF5B
:10457000FFFFFFFFFFFFFFFFFFFFFFFFFFFFFFFF4B
:10458000FFFFFFFFFFFFFFFFFFFFFFFFFFFFFFFF3B
:10459000FFFFFFFFFFFFFFFFFFFFFFFFFFFFFFFF2B
:1045A000FFFFFFFFFFFFFFFFFFFFFFFFFFFFFFFF1B
:1045B000FFFFFFFFFFFFFFFFFFFFFFFFFFFFFFFF0B
:1045C000FFFFFFFFFFFFFFFFFFFFFFFFFFFFFFFFFB
:1045D000FFFFFFFFFFFFFFFFFFFFFFFFFFFFFFFFEB
:1045E000FFFFFFFFFFFFFFFFFFFFFFFFFFFFFFFFDB
:1045F000FFFFFFFFFFFFFFFFFFFFFFFFFFFFFFFFCB
:10460000FFFFFFFFFFFFFFFFFFFFFFFFFFFFFFFFBA
:10461000FFFFFFFFFFFFFFFFFFFFFFFFFFFFFFFFAA
:10462000FFFFFFFFFFFFFFFFFFFFFFFFFFFFFFFF9A
:10463000FFFFFFFFFFFFFFFFFFFFFFFFFFFFFFFF8A
:10464000FFFFFFFFFFFFFFFFFFFFFFFFFFFFFFFF7A
:10465000FFFFFFFFFFFFFFFFFFFFFFFFFFFFFFFF6A
:10466000FFFFFFFFFFFFFFFFFFFFFFFFFFFFFFFF5A
:10467000FFFFFFFFFFFFFFFFFFFFFFFFFFFFFFFF4A
:10468000FFFFFFFFFFFFFFFFFFFFFFFFFFFFFFFF3A
:10469000FFFFFFFFFFFFFFFFFFFFFFFFFFFFFFFF2A
:1046A000FFFFFFFFFFFFFFFFFFFFFFFFFFFFFFFF1A
:1046B000FFFFFFFFFFFFFFFFFFFFFFFFFFFFFFFF0A
:1046C000FFFFFFFFFFFFFFFFFFFFFFFFFFFFFFFFFA
:1046D000FFFFFFFFFFFFFFFFFFFFFFFFFFFFFFFFEA
:1046E000FFFFFFFFFFFFFFFFFFFFFFFFFFFFFFFFDA
:1046F000FFFFFFFFFFFFFFFFFFFFFFFFFFFFFFFFCA
:10470000FFFFFFFFFFFFFFFFFFFFFFFFFFFFFFFFB9
:10471000FFFFFFFFFFFFFFFFFFFFFFFFFFFFFFFFA9
:10472000FFFFFFFFFFFFFFFFFFFFFFFFFFFFFFFF99
:10473000FFFFFFFFFFFFFFFFFFFFFFFFFFFFFFFF89
:10474000FFFFFFFFFFFFFFFFFFFFFFFFFFFFFFFF79
:10475000FFFFFFFFFFFFFFFFFFFFFFFFFFFFFFFF69
:10476000FFFFFFFFFFFFFFFFFFFFFFFFFFFFFFFF59
:10477000FFFFFFFFFFFFFFFFFFFFFFFFFFFFFFFF49
:10478000FFFFFFFFFFFFFFFFFFFFFFFFFFFFFFFF39
:10479000FFFFFFFFFFFFFFFFFFFFFFFFFFFFFFFF29
:1047A000FFFFFFFFFFFFFFFFFFFFFFFFFFFFFFFF19
:1047B000FFFFFFFFFFFFFFFFFFFFFFFFFFFFFFFF09
:1047C000FFFFFFFFFFFFFFFFFFFFFFFFFFFFFFFFF9
:1047D000FFFFFFFFFFFFFFFFFFFFFFFFFFFFFFFFE9
:1047E000FFFFFFFFFFFFFFFFFFFFFFFFFFFFFFFFD9
:1047F000FFFFFFFFFFFFFFFFFFFFFFFFFFFFFFFFC9
:10480000FFFFFFFFFFFFFFFFFFFFFFFFFFFFFFFFB8
:10481000FFFFFFFFFFFFFFFFFFFFFFFFFFFFFFFFA8
:10482000FFFFFFFFFFFFFFFFFFFFFFFFFFFFFFFF98
:10483000FFFFFFFFFFFFFFFFFFFFFFFFFFFFFFFF88
:10484000FFFFFFFFFFFFFFFFFFFFFFFFFFFFFFFF78
:10485000FFFFFFFFFFFFFFFFFFFFFFFFFFFFFFFF68
:10486000FFFFFFFFFFFFFFFFFFFFFFFFFFFFFFFF58
:10487000FFFFFFFFFFFFFFFFFFFFFFFFFFFFFFFF48
:10488000FFFFFFFFFFFFFFFFFFFFFFFFFFFFFFFF38
:10489000FFFFFFFFFFFFFFFFFFFFFFFFFFFFFFFF28
:1048A000FFFFFFFFFFFFFFFFFFFFFFFFFFFFFFFF18
:1048B000FFFFFFFFFFFFFFFFFFFFFFFFFFFFFFFF08
:1048C000FFFFFFFFFFFFFFFFFFFFFFFFFFFFFFFFF8
:1048D000FFFFFFFFFFFFFFFFFFFFFFFFFFFFFFFFE8
:1048E000FFFFFFFFFFFFFFFFFFFFFFFFFFFFFFFFD8
:1048F000FFFFFFFFFFFFFFFFFFFFFFFFFFFFFFFFC8
:10490000FFFFFFFFFFFFFFFFFFFFFFFFFFFFFFFFB7
:10491000FFFFFFFFFFFFFFFFFFFFFFFFFFFFFFFFA7
:10492000FFFFFFFFFFFFFFFFFFFFFFFFFFFFFFFF97
:10493000FFFFFFFFFFFFFFFFFFFFFFFFFFFFFFFF87
:10494000FFFFFFFFFFFFFFFFFFFFFFFFFFFFFFFF77
:10495000FFFFFFFFFFFFFFFFFFFFFFFFFFFFFFFF67
:10496000FFFFFFFFFFFFFFFFFFFFFFFFFFFFFFFF57
:10497000FFFFFFFFFFFFFFFFFFFFFFFFFFFFFFFF47
:10498000FFFFFFFFFFFFFFFFFFFFFFFFFFFFFFFF37
:10499000FFFFFFFFFFFFFFFFFFFFFFFFFFFFFFFF27
:1049A000FFFFFFFFFFFFFFFFFFFFFFFFFFFFFFFF17
:1049B000FFFFFFFFFFFFFFFFFFFFFFFFFFFFFFFF07
:1049C000FFFFFFFFFFFFFFFFFFFFFFFFFFFFFFFFF7
:1049D000FFFFFFFFFFFFFFFFFFFFFFFFFFFFFFFFE7
:1049E000FFFFFFFFFFFFFFFFFFFFFFFFFFFFFFFFD7
:1049F000FFFFFFFFFFFFFFFFFFFFFFFFFFFFFFFFC7
:104A0000FFFFFFFFFFFFFFFFFFFFFFFFFFFFFFFFB6
:104A1000FFFFFFFFFFFFFFFFFFFFFFFFFFFFFFFFA6
:104A2000FFFFFFFFFFFFFFFFFFFFFFFFFFFFFFFF96
:104A3000FFFFFFFFFFFFFFFFFFFFFFFFFFFFFFFF86
:104A4000FFFFFFFFFFFFFFFFFFFFFFFFFFFFFFFF76
:104A5000FFFFFFFFFFFFFFFFFFFFFFFFFFFFFFFF66
:104A6000FFFFFFFFFFFFFFFFFFFFFFFFFFFFFFFF56
:104A7000FFFFFFFFFFFFFFFFFFFFFFFFFFFFFFFF46
:104A8000FFFFFFFFFFFFFFFFFFFFFFFFFFFFFFFF36
:104A9000FFFFFFFFFFFFFFFFFFFFFFFFFFFFFFFF26
:104AA000FFFFFFFFFFFFFFFFFFFFFFFFFFFFFFFF16
:104AB000FFFFFFFFFFFFFFFFFFFFFFFFFFFFFFFF06
:104AC000FFFFFFFFFFFFFFFFFFFFFFFFFFFFFFFFF6
:104AD000FFFFFFFFFFFFFFFFFFFFFFFFFFFFFFFFE6
:104AE000FFFFFFFFFFFFFFFFFFFFFFFFFFFFFFFFD6
:104AF000FFFFFFFFFFFFFFFFFFFFFFFFFFFFFFFFC6
:104B0000FFFFFFFFFFFFFFFFFFFFFFFFFFFFFFFFB5
:104B1000FFFFFFFFFFFFFFFFFFFFFFFFFFFFFFFFA5
:104B2000FFFFFFFFFFFFFFFFFFFFFFFFFFFFFFFF95
:104B3000FFFFFFFFFFFFFFFFFFFFFFFFFFFFFFFF85
:104B4000FFFFFFFFFFFFFFFFFFFFFFFFFFFFFFFF75
:104B5000FFFFFFFFFFFFFFFFFFFFFFFFFFFFFFFF65
:104B6000FFFFFFFFFFFFFFFFFFFFFFFFFFFFFFFF55
:104B7000FFFFFFFFFFFFFFFFFFFFFFFFFFFFFFFF45
:104B8000FFFFFFFFFFFFFFFFFFFFFFFFFFFFFFFF35
:104B9000FFFFFFFFFFFFFFFFFFFFFFFFFFFFFFFF25
:104BA000FFFFFFFFFFFFFFFFFFFFFFFFFFFFFFFF15
:104BB000FFFFFFFFFFFFFFFFFFFFFFFFFFFFFFFF05
:104BC000FFFFFFFFFFFFFFFFFFFFFFFFFFFFFFFFF5
:104BD000FFFFFFFFFFFFFFFFFFFFFFFFFFFFFFFFE5
:104BE000FFFFFFFFFFFFFFFFFFFFFFFFFFFFFFFFD5
:104BF000FFFFFFFFFFFFFFFFFFFFFFFFFFFFFFFFC5
:104C0000FFFFFFFFFFFFFFFFFFFFFFFFFFFFFFFFB4
:104C1000FFFFFFFFFFFFFFFFFFFFFFFFFFFFFFFFA4
:104C2000FFFFFFFFFFFFFFFFFFFFFFFFFFFFFFFF94
:104C3000FFFFFFFFFFFFFFFFFFFFFFFFFFFFFFFF84
:104C4000FFFFFFFFFFFFFFFFFFFFFFFFFFFFFFFF74
:104C5000FFFFFFFFFFFFFFFFFFFFFFFFFFFFFFFF64
:104C6000FFFFFFFFFFFFFFFFFFFFFFFFFFFFFFFF54
:104C7000FFFFFFFFFFFFFFFFFFFFFFFFFFFFFFFF44
:104C8000FFFFFFFFFFFFFFFFFFFFFFFFFFFFFFFF34
:104C9000FFFFFFFFFFFFFFFFFFFFFFFFFFFFFFFF24
:104CA000FFFFFFFFFFFFFFFFFFFFFFFFFFFFFFFF14
:104CB000FFFFFFFFFFFFFFFFFFFFFFFFFFFFFFFF04
:104CC000FFFFFFFFFFFFFFFFFFFFFFFFFFFFFFFFF4
:104CD000FFFFFFFFFFFFFFFFFFFFFFFFFFFFFFFFE4
:104CE000FFFFFFFFFFFFFFFFFFFFFFFFFFFFFFFFD4
:104CF000FFFFFFFFFFFFFFFFFFFFFFFFFFFFFFFFC4
:104D0000FFFFFFFFFFFFFFFFFFFFFFFFFFFFFFFFB3
:104D1000FFFFFFFFFFFFFFFFFFFFFFFFFFFFFFFFA3
:104D2000FFFFFFFFFFFFFFFFFFFFFFFFFFFFFFFF93
:104D3000FFFFFFFFFFFFFFFFFFFFFFFFFFFFFFFF83
:104D4000FFFFFFFFFFFFFFFFFFFFFFFFFFFFFFFF73
:104D5000FFFFFFFFFFFFFFFFFFFFFFFFFFFFFFFF63
:104D6000FFFFFFFFFFFFFFFFFFFFFFFFFFFFFFFF53
:104D7000FFFFFFFFFFFFFFFFFFFFFFFFFFFFFFFF43
:104D8000FFFFFFFFFFFFFFFFFFFFFFFFFFFFFFFF33
:104D9000FFFFFFFFFFFFFFFFFFFFFFFFFFFFFFFF23
:104DA000FFFFFFFFFFFFFFFFFFFFFFFFFFFFFFFF13
:104DB000FFFFFFFFFFFFFFFFFFFFFFFFFFFFFFFF03
:104DC000FFFFFFFFFFFFFFFFFFFFFFFFFFFFFFFFF3
:104DD000FFFFFFFFFFFFFFFFFFFFFFFFFFFFFFFFE3
:104DE000FFFFFFFFFFFFFFFFFFFFFFFFFFFFFFFFD3
:104DF000FFFFFFFFFFFFFFFFFFFFFFFFFFFFFFFFC3
:104E0000FFFFFFFFFFFFFFFFFFFFFFFFFFFFFFFFB2
:104E1000FFFFFFFFFFFFFFFFFFFFFFFFFFFFFFFFA2
:104E2000FFFFFFFFFFFFFFFFFFFFFFFFFFFFFFFF92
:104E3000FFFFFFFFFFFFFFFFFFFFFFFFFFFFFFFF82
:104E4000FFFFFFFFFFFFFFFFFFFFFFFFFFFFFFFF72
:104E5000FFFFFFFFFFFFFFFFFFFFFFFFFFFFFFFF62
:104E6000FFFFFFFFFFFFFFFFFFFFFFFFFFFFFFFF52
:104E7000FFFFFFFFFFFFFFFFFFFFFFFFFFFFFFFF42
:104E8000FFFFFFFFFFFFFFFFFFFFFFFFFFFFFFFF32
:104E9000FFFFFFFFFFFFFFFFFFFFFFFFFFFFFFFF22
:104EA000FFFFFFFFFFFFFFFFFFFFFFFFFFFFFFFF12
:104EB000FFFFFFFFFFFFFFFFFFFFFFFFFFFFFFFF02
:104EC000FFFFFFFFFFFFFFFFFFFFFFFFFFFFFFFFF2
:104ED000FFFFFFFFFFFFFFFFFFFFFFFFFFFFFFFFE2
:104EE000FFFFFFFFFFFFFFFFFFFFFFFFFFFFFFFFD2
:104EF000FFFFFFFFFFFFFFFFFFFFFFFFFFFFFFFFC2
:104F0000FFFFFFFFFFFFFFFFFFFFFFFFFFFFFFFFB1
:104F1000FFFFFFFFFFFFFFFFFFFFFFFFFFFFFFFFA1
:104F2000FFFFFFFFFFFFFFFFFFFFFFFFFFFFFFFF91
:104F3000FFFFFFFFFFFFFFFFFFFFFFFFFFFFFFFF81
:104F4000FFFFFFFFFFFFFFFFFFFFFFFFFFFFFFFF71
:104F5000FFFFFFFFFFFFFFFFFFFFFFFFFFFFFFFF61
:104F6000FFFFFFFFFFFFFFFFFFFFFFFFFFFFFFFF51
:104F7000FFFFFFFFFFFFFFFFFFFFFFFFFFFFFFFF41
:104F8000FFFFFFFFFFFFFFFFFFFFFFFFFFFFFFFF31
:104F9000FFFFFFFFFFFFFFFFFFFFFFFFFFFFFFFF21
:104FA000FFFFFFFFFFFFFFFFFFFFFFFFFFFFFFFF11
:104FB000FFFFFFFFFFFFFFFFFFFFFFFFFFFFFFFF01
:104FC000FFFFFFFFFFFFFFFFFFFFFFFFFFFFFFFFF1
:104FD000FFFFFFFFFFFFFFFFFFFFFFFFFFFFFFFFE1
:104FE000FFFFFFFFFFFFFFFFFFFFFFFFFFFFFFFFD1
:104FF000FFFFFFFFFFFFFFFFFFFFFFFFFFFFFFFFC1
:10500000FFFFFFFFFFFFFFFFFFFFFFFFFFFFFFFFB0
:10501000FFFFFFFFFFFFFFFFFFFFFFFFFFFFFFFFA0
:10502000FFFFFFFFFFFFFFFFFFFFFFFFFFFFFFFF90
:10503000FFFFFFFFFFFFFFFFFFFFFFFFFFFFFFFF80
:10504000FFFFFFFFFFFFFFFFFFFFFFFFFFFFFFFF70
:10505000FFFFFFFFFFFFFFFFFFFFFFFFFFFFFFFF60
:10506000FFFFFFFFFFFFFFFFFFFFFFFFFFFFFFFF50
:10507000FFFFFFFFFFFFFFFFFFFFFFFFFFFFFFFF40
:10508000FFFFFFFFFFFFFFFFFFFFFFFFFFFFFFFF30
:10509000FFFFFFFFFFFFFFFFFFFFFFFFFFFFFFFF20
:1050A000FFFFFFFFFFFFFFFFFFFFFFFFFFFFFFFF10
:1050B000FFFFFFFFFFFFFFFFFFFFFFFFFFFFFFFF00
:1050C000FFFFFFFFFFFFFFFFFFFFFFFFFFFFFFFFF0
:1050D000FFFFFFFFFFFFFFFFFFFFFFFFFFFFFFFFE0
:1050E000FFFFFFFFFFFFFFFFFFFFFFFFFFFFFFFFD0
:1050F000FFFFFFFFFFFFFFFFFFFFFFFFFFFFFFFFC0
:10510000FFFFFFFFFFFFFFFFFFFFFFFFFFFFFFFFAF
:10511000FFFFFFFFFFFFFFFFFFFFFFFFFFFFFFFF9F
:10512000FFFFFFFFFFFFFFFFFFFFFFFFFFFFFFFF8F
:10513000FFFFFFFFFFFFFFFFFFFFFFFFFFFFFFFF7F
:10514000FFFFFFFFFFFFFFFFFFFFFFFFFFFFFFFF6F
:10515000FFFFFFFFFFFFFFFFFFFFFFFFFFFFFFFF5F
:10516000FFFFFFFFFFFFFFFFFFFFFFFFFFFFFFFF4F
:10517000FFFFFFFFFFFFFFFFFFFFFFFFFFFFFFFF3F
:10518000FFFFFFFFFFFFFFFFFFFFFFFFFFFFFFFF2F
:10519000FFFFFFFFFFFFFFFFFFFFFFFFFFFFFFFF1F
:1051A000FFFFFFFFFFFFFFFFFFFFFFFFFFFFFFFF0F
:1051B000FFFFFFFFFFFFFFFFFFFFFFFFFFFFFFFFFF
:1051C000FFFFFFFFFFFFFFFFFFFFFFFFFFFFFFFFEF
:1051D000FFFFFFFFFFFFFFFFFFFFFFFFFFFFFFFFDF
:1051E000FFFFFFFFFFFFFFFFFFFFFFFFFFFFFFFFCF
:1051F000FFFFFFFFFFFFFFFFFFFFFFFFFFFFFFFFBF
:10520000FFFFFFFFFFFFFFFFFFFFFFFFFFFFFFFFAE
:10521000FFFFFFFFFFFFFFFFFFFFFFFFFFFFFFFF9E
:10522000FFFFFFFFFFFFFFFFFFFFFFFFFFFFFFFF8E
:10523000FFFFFFFFFFFFFFFFFFFFFFFFFFFFFFFF7E
:10524000FFFFFFFFFFFFFFFFFFFFFFFFFFFFFFFF6E
:10525000FFFFFFFFFFFFFFFFFFFFFFFFFFFFFFFF5E
:10526000FFFFFFFFFFFFFFFFFFFFFFFFFFFFFFFF4E
:10527000FFFFFFFFFFFFFFFFFFFFFFFFFFFFFFFF3E
:10528000FFFFFFFFFFFFFFFFFFFFFFFFFFFFFFFF2E
:10529000FFFFFFFFFFFFFFFFFFFFFFFFFFFFFFFF1E
:1052A000FFFFFFFFFFFFFFFFFFFFFFFFFFFFFFFF0E
:1052B000FFFFFFFFFFFFFFFFFFFFFFFFFFFFFFFFFE
:1052C000FFFFFFFFFFFFFFFFFFFFFFFFFFFFFFFFEE
:1052D000FFFFFFFFFFFFFFFFFFFFFFFFFFFFFFFFDE
:1052E000FFFFFFFFFFFFFFFFFFFFFFFFFFFFFFFFCE
:1052F000FFFFFFFFFFFFFFFFFFFFFFFFFFFFFFFFBE
:10530000FFFFFFFFFFFFFFFFFFFFFFFFFFFFFFFFAD
:10531000FFFFFFFFFFFFFFFFFFFFFFFFFFFFFFFF9D
:10532000FFFFFFFFFFFFFFFFFFFFFFFFFFFFFFFF8D
:10533000FFFFFFFFFFFFFFFFFFFFFFFFFFFFFFFF7D
:10534000FFFFFFFFFFFFFFFFFFFFFFFFFFFFFFFF6D
:10535000FFFFFFFFFFFFFFFFFFFFFFFFFFFFFFFF5D
:10536000FFFFFFFFFFFFFFFFFFFFFFFFFFFFFFFF4D
:10537000FFFFFFFFFFFFFFFFFFFFFFFFFFFFFFFF3D
:10538000FFFFFFFFFFFFFFFFFFFFFFFFFFFFFFFF2D
:10539000FFFFFFFFFFFFFFFFFFFFFFFFFFFFFFFF1D
:1053A000FFFFFFFFFFFFFFFFFFFFFFFFFFFFFFFF0D
:1053B000FFFFFFFFFFFFFFFFFFFFFFFFFFFFFFFFFD
:1053C000FFFFFFFFFFFFFFFFFFFFFFFFFFFFFFFFED
:1053D000FFFFFFFFFFFFFFFFFFFFFFFFFFFFFFFFDD
:1053E000FFFFFFFFFFFFFFFFFFFFFFFFFFFFFFFFCD
:1053F000FFFFFFFFFFFFFFFFFFFFFFFFFFFFFFFFBD
:10540000FFFFFFFFFFFFFFFFFFFFFFFFFFFFFFFFAC
:10541000FFFFFFFFFFFFFFFFFFFFFFFFFFFFFFFF9C
:10542000FFFFFFFFFFFFFFFFFFFFFFFFFFFFFFFF8C
:10543000FFFFFFFFFFFFFFFFFFFFFFFFFFFFFFFF7C
:10544000FFFFFFFFFFFFFFFFFFFFFFFFFFFFFFFF6C
:10545000FFFFFFFFFFFFFFFFFFFFFFFFFFFFFFFF5C
:10546000FFFFFFFFFFFFFFFFFFFFFFFFFFFFFFFF4C
:10547000FFFFFFFFFFFFFFFFFFFFFFFFFFFFFFFF3C
:10548000FFFFFFFFFFFFFFFFFFFFFFFFFFFFFFFF2C
:10549000FFFFFFFFFFFFFFFFFFFFFFFFFFFFFFFF1C
:1054A000FFFFFFFFFFFFFFFFFFFFFFFFFFFFFFFF0C
:1054B000FFFFFFFFFFFFFFFFFFFFFFFFFFFFFFFFFC
:1054C000FFFFFFFFFFFFFFFFFFFFFFFFFFFFFFFFEC
:1054D000FFFFFFFFFFFFFFFFFFFFFFFFFFFFFFFFDC
:1054E000FFFFFFFFFFFFFFFFFFFFFFFFFFFFFFFFCC
:1054F000FFFFFFFFFFFFFFFFFFFFFFFFFFFFFFFFBC
:10550000FFFFFFFFFFFFFFFFFFFFFFFFFFFFFFFFAB
:10551000FFFFFFFFFFFFFFFFFFFFFFFFFFFFFFFF9B
:10552000FFFFFFFFFFFFFFFFFFFFFFFFFFFFFFFF8B
:10553000FFFFFFFFFFFFFFFFFFFFFFFFFFFFFFFF7B
:10554000FFFFFFFFFFFFFFFFFFFFFFFFFFFFFFFF6B
:10555000FFFFFFFFFFFFFFFFFFFFFFFFFFFFFFFF5B
:10556000FFFFFFFFFFFFFFFFFFFFFFFFFFFFFFFF4B
:10557000FFFFFFFFFFFFFFFFFFFFFFFFFFFFFFFF3B
:10558000FFFFFFFFFFFFFFFFFFFFFFFFFFFFFFFF2B
:10559000FFFFFFFFFFFFFFFFFFFFFFFFFFFFFFFF1B
:1055A000FFFFFFFFFFFFFFFFFFFFFFFFFFFFFFFF0B
:1055B000FFFFFFFFFFFFFFFFFFFFFFFFFFFFFFFFFB
:1055C000FFFFFFFFFFFFFFFFFFFFFFFFFFFFFFFFEB
:1055D000FFFFFFFFFFFFFFFFFFFFFFFFFFFFFFFFDB
:1055E000FFFFFFFFFFFFFFFFFFFFFFFFFFFFFFFFCB
:1055F000FFFFFFFFFFFFFFFFFFFFFFFFFFFFFFFFBB
:10560000FFFFFFFFFFFFFFFFFFFFFFFFFFFFFFFFAA
:10561000FFFFFFFFFFFFFFFFFFFFFFFFFFFFFFFF9A
:10562000FFFFFFFFFFFFFFFFFFFFFFFFFFFFFFFF8A
:10563000FFFFFFFFFFFFFFFFFFFFFFFFFFFFFFFF7A
:10564000FFFFFFFFFFFFFFFFFFFFFFFFFFFFFFFF6A
:10565000FFFFFFFFFFFFFFFFFFFFFFFFFFFFFFFF5A
:10566000FFFFFFFFFFFFFFFFFFFFFFFFFFFFFFFF4A
:10567000FFFFFFFFFFFFFFFFFFFFFFFFFFFFFFFF3A
:10568000FFFFFFFFFFFFFFFFFFFFFFFFFFFFFFFF2A
:10569000FFFFFFFFFFFFFFFFFFFFFFFFFFFFFFFF1A
:1056A000FFFFFFFFFFFFFFFFFFFFFFFFFFFFFFFF0A
:1056B000FFFFFFFFFFFFFFFFFFFFFFFFFFFFFFFFFA
:1056C000FFFFFFFFFFFFFFFFFFFFFFFFFFFFFFFFEA
:1056D000FFFFFFFFFFFFFFFFFFFFFFFFFFFFFFFFDA
:1056E000FFFFFFFFFFFFFFFFFFFFFFFFFFFFFFFFCA
:1056F000FFFFFFFFFFFFFFFFFFFFFFFFFFFFFFFFBA
:10570000FFFFFFFFFFFFFFFFFFFFFFFFFFFFFFFFA9
:10571000FFFFFFFFFFFFFFFFFFFFFFFFFFFFFFFF99
:10572000FFFFFFFFFFFFFFFFFFFFFFFFFFFFFFFF89
:10573000FFFFFFFFFFFFFFFFFFFFFFFFFFFFFFFF79
:10574000FFFFFFFFFFFFFFFFFFFFFFFFFFFFFFFF69
:10575000FFFFFFFFFFFFFFFFFFFFFFFFFFFFFFFF59
:10576000FFFFFFFFFFFFFFFFFFFFFFFFFFFFFFFF49
:10577000FFFFFFFFFFFFFFFFFFFFFFFFFFFFFFFF39
:10578000FFFFFFFFFFFFFFFFFFFFFFFFFFFFFFFF29
:10579000FFFFFFFFFFFFFFFFFFFFFFFFFFFFFFFF19
:1057A000FFFFFFFFFFFFFFFFFFFFFFFFFFFFFFFF09
:1057B000FFFFFFFFFFFFFFFFFFFFFFFFFFFFFFFFF9
:1057C000FFFFFFFFFFFFFFFFFFFFFFFFFFFFFFFFE9
:1057D000FFFFFFFFFFFFFFFFFFFFFFFFFFFFFFFFD9
:1057E000FFFFFFFFFFFFFFFFFFFFFFFFFFFFFFFFC9
:1057F000FFFFFFFFFFFFFFFFFFFFFFFFFFFFFFFFB9
:10580000FFFFFFFFFFFFFFFFFFFFFFFFFFFFFFFFA8
:10581000FFFFFFFFFFFFFFFFFFFFFFFFFFFFFFFF98
:10582000FFFFFFFFFFFFFFFFFFFFFFFFFFFFFFFF88
:10583000FFFFFFFFFFFFFFFFFFFFFFFFFFFFFFFF78
:10584000FFFFFFFFFFFFFFFFFFFFFFFFFFFFFFFF68
:10585000FFFFFFFFFFFFFFFFFFFFFFFFFFFFFFFF58
:10586000FFFFFFFFFFFFFFFFFFFFFFFFFFFFFFFF48
:10587000FFFFFFFFFFFFFFFFFFFFFFFFFFFFFFFF38
:10588000FFFFFFFFFFFFFFFFFFFFFFFFFFFFFFFF28
:10589000FFFFFFFFFFFFFFFFFFFFFFFFFFFFFFFF18
:1058A000FFFFFFFFFFFFFFFFFFFFFFFFFFFFFFFF08
:1058B000FFFFFFFFFFFFFFFFFFFFFFFFFFFFFFFFF8
:1058C000FFFFFFFFFFFFFFFFFFFFFFFFFFFFFFFFE8
:1058D000FFFFFFFFFFFFFFFFFFFFFFFFFFFFFFFFD8
:1058E000FFFFFFFFFFFFFFFFFFFFFFFFFFFFFFFFC8
:1058F000FFFFFFFFFFFFFFFFFFFFFFFFFFFFFFFFB8
:10590000FFFFFFFFFFFFFFFFFFFFFFFFFFFFFFFFA7
:10591000FFFFFFFFFFFFFFFFFFFFFFFFFFFFFFFF97
:10592000FFFFFFFFFFFFFFFFFFFFFFFFFFFFFFFF87
:10593000FFFFFFFFFFFFFFFFFFFFFFFFFFFFFFFF77
:10594000FFFFFFFFFFFFFFFFFFFFFFFFFFFFFFFF67
:10595000FFFFFFFFFFFFFFFFFFFFFFFFFFFFFFFF57
:10596000FFFFFFFFFFFFFFFFFFFFFFFFFFFFFFFF47
:10597000FFFFFFFFFFFFFFFFFFFFFFFFFFFFFFFF37
:10598000FFFFFFFFFFFFFFFFFFFFFFFFFFFFFFFF27
:10599000FFFFFFFFFFFFFFFFFFFFFFFFFFFFFFFF17
:1059A000FFFFFFFFFFFFFFFFFFFFFFFFFFFFFFFF07
:1059B000FFFFFFFFFFFFFFFFFFFFFFFFFFFFFFFFF7
:1059C000FFFFFFFFFFFFFFFFFFFFFFFFFFFFFFFFE7
:1059D000FFFFFFFFFFFFFFFFFFFFFFFFFFFFFFFFD7
:1059E000FFFFFFFFFFFFFFFFFFFFFFFFFFFFFFFFC7
:1059F000FFFFFFFFFFFFFFFFFFFFFFFFFFFFFFFFB7
:105A0000FFFFFFFFFFFFFFFFFFFFFFFFFFFFFFFFA6
:105A1000FFFFFFFFFFFFFFFFFFFFFFFFFFFFFFFF96
:105A2000FFFFFFFFFFFFFFFFFFFFFFFFFFFFFFFF86
:105A3000FFFFFFFFFFFFFFFFFFFFFFFFFFFFFFFF76
:105A4000FFFFFFFFFFFFFFFFFFFFFFFFFFFFFFFF66
:105A5000FFFFFFFFFFFFFFFFFFFFFFFFFFFFFFFF56
:105A6000FFFFFFFFFFFFFFFFFFFFFFFFFFFFFFFF46
:105A7000FFFFFFFFFFFFFFFFFFFFFFFFFFFFFFFF36
:105A8000FFFFFFFFFFFFFFFFFFFFFFFFFFFFFFFF26
:105A9000FFFFFFFFFFFFFFFFFFFFFFFFFFFFFFFF16
:105AA000FFFFFFFFFFFFFFFFFFFFFFFFFFFFFFFF06
:105AB000FFFFFFFFFFFFFFFFFFFFFFFFFFFFFFFFF6
:105AC000FFFFFFFFFFFFFFFFFFFFFFFFFFFFFFFFE6
:105AD000FFFFFFFFFFFFFFFFFFFFFFFFFFFFFFFFD6
:105AE000FFFFFFFFFFFFFFFFFFFFFFFFFFFFFFFFC6
:105AF000FFFFFFFFFFFFFFFFFFFFFFFFFFFFFFFFB6
:105B0000FFFFFFFFFFFFFFFFFFFFFFFFFFFFFFFFA5
:105B1000FFFFFFFFFFFFFFFFFFFFFFFFFFFFFFFF95
:105B2000FFFFFFFFFFFFFFFFFFFFFFFFFFFFFFFF85
:105B3000FFFFFFFFFFFFFFFFFFFFFFFFFFFFFFFF75
:105B4000FFFFFFFFFFFFFFFFFFFFFFFFFFFFFFFF65
:105B5000FFFFFFFFFFFFFFFFFFFFFFFFFFFFFFFF55
:105B6000FFFFFFFFFFFFFFFFFFFFFFFFFFFFFFFF45
:105B7000FFFFFFFFFFFFFFFFFFFFFFFFFFFFFFFF35
:105B8000FFFFFFFFFFFFFFFFFFFFFFFFFFFFFFFF25
:105B9000FFFFFFFFFFFFFFFFFFFFFFFFFFFFFFFF15
:105BA000FFFFFFFFFFFFFFFFFFFFFFFFFFFFFFFF05
:105BB000FFFFFFFFFFFFFFFFFFFFFFFFFFFFFFFFF5
:105BC000FFFFFFFFFFFFFFFFFFFFFFFFFFFFFFFFE5
:105BD000FFFFFFFFFFFFFFFFFFFFFFFFFFFFFFFFD5
:105BE000FFFFFFFFFFFFFFFFFFFFFFFFFFFFFFFFC5
:105BF000FFFFFFFFFFFFFFFFFFFFFFFFFFFFFFFFB5
:105C0000FFFFFFFFFFFFFFFFFFFFFFFFFFFFFFFFA4
:105C1000FFFFFFFFFFFFFFFFFFFFFFFFFFFFFFFF94
:105C2000FFFFFFFFFFFFFFFFFFFFFFFFFFFFFFFF84
:105C3000FFFFFFFFFFFFFFFFFFFFFFFFFFFFFFFF74
:105C4000FFFFFFFFFFFFFFFFFFFFFFFFFFFFFFFF64
:105C5000FFFFFFFFFFFFFFFFFFFFFFFFFFFFFFFF54
:105C6000FFFFFFFFFFFFFFFFFFFFFFFFFFFFFFFF44
:105C7000FFFFFFFFFFFFFFFFFFFFFFFFFFFFFFFF34
:105C8000FFFFFFFFFFFFFFFFFFFFFFFFFFFFFFFF24
:105C9000FFFFFFFFFFFFFFFFFFFFFFFFFFFFFFFF14
:105CA000FFFFFFFFFFFFFFFFFFFFFFFFFFFFFFFF04
:105CB000FFFFFFFFFFFFFFFFFFFFFFFFFFFFFFFFF4
:105CC000FFFFFFFFFFFFFFFFFFFFFFFFFFFFFFFFE4
:105CD000FFFFFFFFFFFFFFFFFFFFFFFFFFFFFFFFD4
:105CE000FFFFFFFFFFFFFFFFFFFFFFFFFFFFFFFFC4
:105CF000FFFFFFFFFFFFFFFFFFFFFFFFFFFFFFFFB4
:105D0000FFFFFFFFFFFFFFFFFFFFFFFFFFFFFFFFA3
:105D1000FFFFFFFFFFFFFFFFFFFFFFFFFFFFFFFF93
:105D2000FFFFFFFFFFFFFFFFFFFFFFFFFFFFFFFF83
:105D3000FFFFFFFFFFFFFFFFFFFFFFFFFFFFFFFF73
:105D4000FFFFFFFFFFFFFFFFFFFFFFFFFFFFFFFF63
:105D5000FFFFFFFFFFFFFFFFFFFFFFFFFFFFFFFF53
:105D6000FFFFFFFFFFFFFFFFFFFFFFFFFFFFFFFF43
:105D7000FFFFFFFFFFFFFFFFFFFFFFFFFFFFFFFF33
:105D8000FFFFFFFFFFFFFFFFFFFFFFFFFFFFFFFF23
:105D9000FFFFFFFFFFFFFFFFFFFFFFFFFFFFFFFF13
:105DA000FFFFFFFFFFFFFFFFFFFFFFFFFFFFFFFF03
:105DB000FFFFFFFFFFFFFFFFFFFFFFFFFFFFFFFFF3
:105DC000FFFFFFFFFFFFFFFFFFFFFFFFFFFFFFFFE3
:105DD000FFFFFFFFFFFFFFFFFFFFFFFFFFFFFFFFD3
:105DE000FFFFFFFFFFFFFFFFFFFFFFFFFFFFFFFFC3
:105DF000FFFFFFFFFFFFFFFFFFFFFFFFFFFFFFFFB3
:105E0000FFFFFFFFFFFFFFFFFFFFFFFFFFFFFFFFA2
:105E1000FFFFFFFFFFFFFFFFFFFFFFFFFFFFFFFF92
:105E2000FFFFFFFFFFFFFFFFFFFFFFFFFFFFFFFF82
:105E3000FFFFFFFFFFFFFFFFFFFFFFFFFFFFFFFF72
:105E4000FFFFFFFFFFFFFFFFFFFFFFFFFFFFFFFF62
:105E5000FFFFFFFFFFFFFFFFFFFFFFFFFFFFFFFF52
:105E6000FFFFFFFFFFFFFFFFFFFFFFFFFFFFFFFF42
:105E7000FFFFFFFFFFFFFFFFFFFFFFFFFFFFFFFF32
:105E8000FFFFFFFFFFFFFFFFFFFFFFFFFFFFFFFF22
:105E9000FFFFFFFFFFFFFFFFFFFFFFFFFFFFFFFF12
:105EA000FFFFFFFFFFFFFFFFFFFFFFFFFFFFFFFF02
:105EB000FFFFFFFFFFFFFFFFFFFFFFFFFFFFFFFFF2
:105EC000FFFFFFFFFFFFFFFFFFFFFFFFFFFFFFFFE2
:105ED000FFFFFFFFFFFFFFFFFFFFFFFFFFFFFFFFD2
:105EE000FFFFFFFFFFFFFFFFFFFFFFFFFFFFFFFFC2
:105EF000FFFFFFFFFFFFFFFFFFFFFFFFFFFFFFFFB2
:105F0000FFFFFFFFFFFFFFFFFFFFFFFFFFFFFFFFA1
:105F1000FFFFFFFFFFFFFFFFFFFFFFFFFFFFFFFF91
:105F2000FFFFFFFFFFFFFFFFFFFFFFFFFFFFFFFF81
:105F3000FFFFFFFFFFFFFFFFFFFFFFFFFFFFFFFF71
:105F4000FFFFFFFFFFFFFFFFFFFFFFFFFFFFFFFF61
:105F5000FFFFFFFFFFFFFFFFFFFFFFFFFFFFFFFF51
:105F6000FFFFFFFFFFFFFFFFFFFFFFFFFFFFFFFF41
:105F7000FFFFFFFFFFFFFFFFFFFFFFFFFFFFFFFF31
:105F8000FFFFFFFFFFFFFFFFFFFFFFFFFFFFFFFF21
:105F9000FFFFFFFFFFFFFFFFFFFFFFFFFFFFFFFF11
:105FA000FFFFFFFFFFFFFFFFFFFFFFFFFFFFFFFF01
:105FB000FFFFFFFFFFFFFFFFFFFFFFFFFFFFFFFFF1
:105FC000FFFFFFFFFFFFFFFFFFFFFFFFFFFFFFFFE1
:105FD000FFFFFFFFFFFFFFFFFFFFFFFFFFFFFFFFD1
:105FE000FFFFFFFFFFFFFFFFFFFFFFFFFFFFFFFFC1
:105FF000FFFFFFFFFFFFFFFFFFFFFFFFFFFFFFFFB1
:10600000FFFFFFFFFFFFFFFFFFFFFFFFFFFFFFFFA0
:10601000FFFFFFFFFFFFFFFFFFFFFFFFFFFFFFFF90
:10602000FFFFFFFFFFFFFFFFFFFFFFFFFFFFFFFF80
:10603000FFFFFFFFFFFFFFFFFFFFFFFFFFFFFFFF70
:10604000FFFFFFFFFFFFFFFFFFFFFFFFFFFFFFFF60
:10605000FFFFFFFFFFFFFFFFFFFFFFFFFFFFFFFF50
:10606000FFFFFFFFFFFFFFFFFFFFFFFFFFFFFFFF40
:10607000FFFFFFFFFFFFFFFFFFFFFFFFFFFFFFFF30
:10608000FFFFFFFFFFFFFFFFFFFFFFFFFFFFFFFF20
:10609000FFFFFFFFFFFFFFFFFFFFFFFFFFFFFFFF10
:1060A000FFFFFFFFFFFFFFFFFFFFFFFFFFFFFFFF00
:1060B000FFFFFFFFFFFFFFFFFFFFFFFFFFFFFFFFF0
:1060C000FFFFFFFFFFFFFFFFFFFFFFFFFFFFFFFFE0
:1060D000FFFFFFFFFFFFFFFFFFFFFFFFFFFFFFFFD0
:1060E000FFFFFFFFFFFFFFFFFFFFFFFFFFFFFFFFC0
:1060F000FFFFFFFFFFFFFFFFFFFFFFFFFFFFFFFFB0
:10610000FFFFFFFFFFFFFFFFFFFFFFFFFFFFFFFF9F
:10611000FFFFFFFFFFFFFFFFFFFFFFFFFFFFFFFF8F
:10612000FFFFFFFFFFFFFFFFFFFFFFFFFFFFFFFF7F
:10613000FFFFFFFFFFFFFFFFFFFFFFFFFFFFFFFF6F
:10614000FFFFFFFFFFFFFFFFFFFFFFFFFFFFFFFF5F
:10615000FFFFFFFFFFFFFFFFFFFFFFFFFFFFFFFF4F
:10616000FFFFFFFFFFFFFFFFFFFFFFFFFFFFFFFF3F
:10617000FFFFFFFFFFFFFFFFFFFFFFFFFFFFFFFF2F
:10618000FFFFFFFFFFFFFFFFFFFFFFFFFFFFFFFF1F
:10619000FFFFFFFFFFFFFFFFFFFFFFFFFFFFFFFF0F
:1061A000FFFFFFFFFFFFFFFFFFFFFFFFFFFFFFFFFF
:1061B000FFFFFFFFFFFFFFFFFFFFFFFFFFFFFFFFEF
:1061C000FFFFFFFFFFFFFFFFFFFFFFFFFFFFFFFFDF
:1061D000FFFFFFFFFFFFFFFFFFFFFFFFFFFFFFFFCF
:1061E000FFFFFFFFFFFFFFFFFFFFFFFFFFFFFFFFBF
:1061F000FFFFFFFFFFFFFFFFFFFFFFFFFFFFFFFFAF
:10620000FFFFFFFFFFFFFFFFFFFFFFFFFFFFFFFF9E
:10621000FFFFFFFFFFFFFFFFFFFFFFFFFFFFFFFF8E
:10622000FFFFFFFFFFFFFFFFFFFFFFFFFFFFFFFF7E
:10623000FFFFFFFFFFFFFFFFFFFFFFFFFFFFFFFF6E
:10624000FFFFFFFFFFFFFFFFFFFFFFFFFFFFFFFF5E
:10625000FFFFFFFFFFFFFFFFFFFFFFFFFFFFFFFF4E
:10626000FFFFFFFFFFFFFFFFFFFFFFFFFFFFFFFF3E
:10627000FFFFFFFFFFFFFFFFFFFFFFFFFFFFFFFF2E
:10628000FFFFFFFFFFFFFFFFFFFFFFFFFFFFFFFF1E
:10629000FFFFFFFFFFFFFFFFFFFFFFFFFFFFFFFF0E
:1062A000FFFFFFFFFFFFFFFFFFFFFFFFFFFFFFFFFE
:1062B000FFFFFFFFFFFFFFFFFFFFFFFFFFFFFFFFEE
:1062C000FFFFFFFFFFFFFFFFFFFFFFFFFFFFFFFFDE
:1062D000FFFFFFFFFFFFFFFFFFFFFFFFFFFFFFFFCE
:1062E000FFFFFFFFFFFFFFFFFFFFFFFFFFFFFFFFBE
:1062F000FFFFFFFFFFFFFFFFFFFFFFFFFFFFFFFFAE
:10630000FFFFFFFFFFFFFFFFFFFFFFFFFFFFFFFF9D
:10631000FFFFFFFFFFFFFFFFFFFFFFFFFFFFFFFF8D
:10632000FFFFFFFFFFFFFFFFFFFFFFFFFFFFFFFF7D
:10633000FFFFFFFFFFFFFFFFFFFFFFFFFFFFFFFF6D
:10634000FFFFFFFFFFFFFFFFFFFFFFFFFFFFFFFF5D
:10635000FFFFFFFFFFFFFFFFFFFFFFFFFFFFFFFF4D
:10636000FFFFFFFFFFFFFFFFFFFFFFFFFFFFFFFF3D
:10637000FFFFFFFFFFFFFFFFFFFFFFFFFFFFFFFF2D
:10638000FFFFFFFFFFFFFFFFFFFFFFFFFFFFFFFF1D
:10639000FFFFFFFFFFFFFFFFFFFFFFFFFFFFFFFF0D
:1063A000FFFFFFFFFFFFFFFFFFFFFFFFFFFFFFFFFD
:1063B000FFFFFFFFFFFFFFFFFFFFFFFFFFFFFFFFED
:1063C000FFFFFFFFFFFFFFFFFFFFFFFFFFFFFFFFDD
:1063D000FFFFFFFFFFFFFFFFFFFFFFFFFFFFFFFFCD
:1063E000FFFFFFFFFFFFFFFFFFFFFFFFFFFFFFFFBD
:1063F000FFFFFFFFFFFFFFFFFFFFFFFFFFFFFFFFAD
:10640000FFFFFFFFFFFFFFFFFFFFFFFFFFFFFFFF9C
:10641000FFFFFFFFFFFFFFFFFFFFFFFFFFFFFFFF8C
:10642000FFFFFFFFFFFFFFFFFFFFFFFFFFFFFFFF7C
:10643000FFFFFFFFFFFFFFFFFFFFFFFFFFFFFFFF6C
:10644000FFFFFFFFFFFFFFFFFFFFFFFFFFFFFFFF5C
:10645000FFFFFFFFFFFFFFFFFFFFFFFFFFFFFFFF4C
:10646000FFFFFFFFFFFFFFFFFFFFFFFFFFFFFFFF3C
:10647000FFFFFFFFFFFFFFFFFFFFFFFFFFFFFFFF2C
:10648000FFFFFFFFFFFFFFFFFFFFFFFFFFFFFFFF1C
:10649000FFFFFFFFFFFFFFFFFFFFFFFFFFFFFFFF0C
:1064A000FFFFFFFFFFFFFFFFFFFFFFFFFFFFFFFFFC
:1064B000FFFFFFFFFFFFFFFFFFFFFFFFFFFFFFFFEC
:1064C000FFFFFFFFFFFFFFFFFFFFFFFFFFFFFFFFDC
:1064D000FFFFFFFFFFFFFFFFFFFFFFFFFFFFFFFFCC
:1064E000FFFFFFFFFFFFFFFFFFFFFFFFFFFFFFFFBC
:1064F000FFFFFFFFFFFFFFFFFFFFFFFFFFFFFFFFAC
:10650000FFFFFFFFFFFFFFFFFFFFFFFFFFFFFFFF9B
:10651000FFFFFFFFFFFFFFFFFFFFFFFFFFFFFFFF8B
:10652000FFFFFFFFFFFFFFFFFFFFFFFFFFFFFFFF7B
:10653000FFFFFFFFFFFFFFFFFFFFFFFFFFFFFFFF6B
:10654000FFFFFFFFFFFFFFFFFFFFFFFFFFFFFFFF5B
:10655000FFFFFFFFFFFFFFFFFFFFFFFFFFFFFFFF4B
:10656000FFFFFFFFFFFFFFFFFFFFFFFFFFFFFFFF3B
:10657000FFFFFFFFFFFFFFFFFFFFFFFFFFFFFFFF2B
:10658000FFFFFFFFFFFFFFFFFFFFFFFFFFFFFFFF1B
:10659000FFFFFFFFFFFFFFFFFFFFFFFFFFFFFFFF0B
:1065A000FFFFFFFFFFFFFFFFFFFFFFFFFFFFFFFFFB
:1065B000FFFFFFFFFFFFFFFFFFFFFFFFFFFFFFFFEB
:1065C000FFFFFFFFFFFFFFFFFFFFFFFFFFFFFFFFDB
:1065D000FFFFFFFFFFFFFFFFFFFFFFFFFFFFFFFFCB
:1065E000FFFFFFFFFFFFFFFFFFFFFFFFFFFFFFFFBB
:1065F000FFFFFFFFFFFFFFFFFFFFFFFFFFFFFFFFAB
:10660000FFFFFFFFFFFFFFFFFFFFFFFFFFFFFFFF9A
:10661000FFFFFFFFFFFFFFFFFFFFFFFFFFFFFFFF8A
:10662000FFFFFFFFFFFFFFFFFFFFFFFFFFFFFFFF7A
:10663000FFFFFFFFFFFFFFFFFFFFFFFFFFFFFFFF6A
:10664000FFFFFFFFFFFFFFFFFFFFFFFFFFFFFFFF5A
:10665000FFFFFFFFFFFFFFFFFFFFFFFFFFFFFFFF4A
:10666000FFFFFFFFFFFFFFFFFFFFFFFFFFFFFFFF3A
:10667000FFFFFFFFFFFFFFFFFFFFFFFFFFFFFFFF2A
:10668000FFFFFFFFFFFFFFFFFFFFFFFFFFFFFFFF1A
:10669000FFFFFFFFFFFFFFFFFFFFFFFFFFFFFFFF0A
:1066A000FFFFFFFFFFFFFFFFFFFFFFFFFFFFFFFFFA
:1066B000FFFFFFFFFFFFFFFFFFFFFFFFFFFFFFFFEA
:1066C000FFFFFFFFFFFFFFFFFFFFFFFFFFFFFFFFDA
:1066D000FFFFFFFFFFFFFFFFFFFFFFFFFFFFFFFFCA
:1066E000FFFFFFFFFFFFFFFFFFFFFFFFFFFFFFFFBA
:1066F000FFFFFFFFFFFFFFFFFFFFFFFFFFFFFFFFAA
:10670000FFFFFFFFFFFFFFFFFFFFFFFFFFFFFFFF99
:10671000FFFFFFFFFFFFFFFFFFFFFFFFFFFFFFFF89
:10672000FFFFFFFFFFFFFFFFFFFFFFFFFFFFFFFF79
:10673000FFFFFFFFFFFFFFFFFFFFFFFFFFFFFFFF69
:10674000FFFFFFFFFFFFFFFFFFFFFFFFFFFFFFFF59
:10675000FFFFFFFFFFFFFFFFFFFFFFFFFFFFFFFF49
:10676000FFFFFFFFFFFFFFFFFFFFFFFFFFFFFFFF39
:10677000FFFFFFFFFFFFFFFFFFFFFFFFFFFFFFFF29
:10678000FFFFFFFFFFFFFFFFFFFFFFFFFFFFFFFF19
:10679000FFFFFFFFFFFFFFFFFFFFFFFFFFFFFFFF09
:1067A000FFFFFFFFFFFFFFFFFFFFFFFFFFFFFFFFF9
:1067B000FFFFFFFFFFFFFFFFFFFFFFFFFFFFFFFFE9
:1067C000FFFFFFFFFFFFFFFFFFFFFFFFFFFFFFFFD9
:1067D000FFFFFFFFFFFFFFFFFFFFFFFFFFFFFFFFC9
:1067E000FFFFFFFFFFFFFFFFFFFFFFFFFFFFFFFFB9
:1067F000FFFFFFFFFFFFFFFFFFFFFFFFFFFFFFFFA9
:10680000FFFFFFFFFFFFFFFFFFFFFFFFFFFFFFFF98
:10681000FFFFFFFFFFFFFFFFFFFFFFFFFFFFFFFF88
:10682000FFFFFFFFFFFFFFFFFFFFFFFFFFFFFFFF78
:10683000FFFFFFFFFFFFFFFFFFFFFFFFFFFFFFFF68
:10684000FFFFFFFFFFFFFFFFFFFFFFFFFFFFFFFF58
:10685000FFFFFFFFFFFFFFFFFFFFFFFFFFFFFFFF48
:10686000FFFFFFFFFFFFFFFFFFFFFFFFFFFFFFFF38
:10687000FFFFFFFFFFFFFFFFFFFFFFFFFFFFFFFF28
:10688000FFFFFFFFFFFFFFFFFFFFFFFFFFFFFFFF18
:10689000FFFFFFFFFFFFFFFFFFFFFFFFFFFFFFFF08
:1068A000FFFFFFFFFFFFFFFFFFFFFFFFFFFFFFFFF8
:1068B000FFFFFFFFFFFFFFFFFFFFFFFFFFFFFFFFE8
:1068C000FFFFFFFFFFFFFFFFFFFFFFFFFFFFFFFFD8
:1068D000FFFFFFFFFFFFFFFFFFFFFFFFFFFFFFFFC8
:1068E000FFFFFFFFFFFFFFFFFFFFFFFFFFFFFFFFB8
:1068F000FFFFFFFFFFFFFFFFFFFFFFFFFFFFFFFFA8
:10690000FFFFFFFFFFFFFFFFFFFFFFFFFFFFFFFF97
:10691000FFFFFFFFFFFFFFFFFFFFFFFFFFFFFFFF87
:10692000FFFFFFFFFFFFFFFFFFFFFFFFFFFFFFFF77
:10693000FFFFFFFFFFFFFFFFFFFFFFFFFFFFFFFF67
:10694000FFFFFFFFFFFFFFFFFFFFFFFFFFFFFFFF57
:10695000FFFFFFFFFFFFFFFFFFFFFFFFFFFFFFFF47
:10696000FFFFFFFFFFFFFFFFFFFFFFFFFFFFFFFF37
:10697000FFFFFFFFFFFFFFFFFFFFFFFFFFFFFFFF27
:10698000FFFFFFFFFFFFFFFFFFFFFFFFFFFFFFFF17
:10699000FFFFFFFFFFFFFFFFFFFFFFFFFFFFFFFF07
:1069A000FFFFFFFFFFFFFFFFFFFFFFFFFFFFFFFFF7
:1069B000FFFFFFFFFFFFFFFFFFFFFFFFFFFFFFFFE7
:1069C000FFFFFFFFFFFFFFFFFFFFFFFFFFFFFFFFD7
:1069D000FFFFFFFFFFFFFFFFFFFFFFFFFFFFFFFFC7
:1069E000FFFFFFFFFFFFFFFFFFFFFFFFFFFFFFFFB7
:1069F000FFFFFFFFFFFFFFFFFFFFFFFFFFFFFFFFA7
:106A0000FFFFFFFFFFFFFFFFFFFFFFFFFFFFFFFF96
:106A1000FFFFFFFFFFFFFFFFFFFFFFFFFFFFFFFF86
:106A2000FFFFFFFFFFFFFFFFFFFFFFFFFFFFFFFF76
:106A3000FFFFFFFFFFFFFFFFFFFFFFFFFFFFFFFF66
:106A4000FFFFFFFFFFFFFFFFFFFFFFFFFFFFFFFF56
:106A5000FFFFFFFFFFFFFFFFFFFFFFFFFFFFFFFF46
:106A6000FFFFFFFFFFFFFFFFFFFFFFFFFFFFFFFF36
:106A7000FFFFFFFFFFFFFFFFFFFFFFFFFFFFFFFF26
:106A8000FFFFFFFFFFFFFFFFFFFFFFFFFFFFFFFF16
:106A9000FFFFFFFFFFFFFFFFFFFFFFFFFFFFFFFF06
:106AA000FFFFFFFFFFFFFFFFFFFFFFFFFFFFFFFFF6
:106AB000FFFFFFFFFFFFFFFFFFFFFFFFFFFFFFFFE6
:106AC000FFFFFFFFFFFFFFFFFFFFFFFFFFFFFFFFD6
:106AD000FFFFFFFFFFFFFFFFFFFFFFFFFFFFFFFFC6
:106AE000FFFFFFFFFFFFFFFFFFFFFFFFFFFFFFFFB6
:106AF000FFFFFFFFFFFFFFFFFFFFFFFFFFFFFFFFA6
:106B0000FFFFFFFFFFFFFFFFFFFFFFFFFFFFFFFF95
:106B1000FFFFFFFFFFFFFFFFFFFFFFFFFFFFFFFF85
:106B2000FFFFFFFFFFFFFFFFFFFFFFFFFFFFFFFF75
:106B3000FFFFFFFFFFFFFFFFFFFFFFFFFFFFFFFF65
:106B4000FFFFFFFFFFFFFFFFFFFFFFFFFFFFFFFF55
:106B5000FFFFFFFFFFFFFFFFFFFFFFFFFFFFFFFF45
:106B6000FFFFFFFFFFFFFFFFFFFFFFFFFFFFFFFF35
:106B7000FFFFFFFFFFFFFFFFFFFFFFFFFFFFFFFF25
:106B8000FFFFFFFFFFFFFFFFFFFFFFFFFFFFFFFF15
:106B9000FFFFFFFFFFFFFFFFFFFFFFFFFFFFFFFF05
:106BA000FFFFFFFFFFFFFFFFFFFFFFFFFFFFFFFFF5
:106BB000FFFFFFFFFFFFFFFFFFFFFFFFFFFFFFFFE5
:106BC000FFFFFFFFFFFFFFFFFFFFFFFFFFFFFFFFD5
:106BD000FFFFFFFFFFFFFFFFFFFFFFFFFFFFFFFFC5
:106BE000FFFFFFFFFFFFFFFFFFFFFFFFFFFFFFFFB5
:106BF000FFFFFFFFFFFFFFFFFFFFFFFFFFFFFFFFA5
:106C0000FFFFFFFFFFFFFFFFFFFFFFFFFFFFFFFF94
:106C1000FFFFFFFFFFFFFFFFFFFFFFFFFFFFFFFF84
:106C2000FFFFFFFFFFFFFFFFFFFFFFFFFFFFFFFF74
:106C3000FFFFFFFFFFFFFFFFFFFFFFFFFFFFFFFF64
:106C4000FFFFFFFFFFFFFFFFFFFFFFFFFFFFFFFF54
:106C5000FFFFFFFFFFFFFFFFFFFFFFFFFFFFFFFF44
:106C6000FFFFFFFFFFFFFFFFFFFFFFFFFFFFFFFF34
:106C7000FFFFFFFFFFFFFFFFFFFFFFFFFFFFFFFF24
:106C8000FFFFFFFFFFFFFFFFFFFFFFFFFFFFFFFF14
:106C9000FFFFFFFFFFFFFFFFFFFFFFFFFFFFFFFF04
:106CA000FFFFFFFFFFFFFFFFFFFFFFFFFFFFFFFFF4
:106CB000FFFFFFFFFFFFFFFFFFFFFFFFFFFFFFFFE4
:106CC000FFFFFFFFFFFFFFFFFFFFFFFFFFFFFFFFD4
:106CD000FFFFFFFFFFFFFFFFFFFFFFFFFFFFFFFFC4
:106CE000FFFFFFFFFFFFFFFFFFFFFFFFFFFFFFFFB4
:106CF000FFFFFFFFFFFFFFFFFFFFFFFFFFFFFFFFA4
:106D0000FFFFFFFFFFFFFFFFFFFFFFFFFFFFFFFF93
:106D1000FFFFFFFFFFFFFFFFFFFFFFFFFFFFFFFF83
:106D2000FFFFFFFFFFFFFFFFFFFFFFFFFFFFFFFF73
:106D3000FFFFFFFFFFFFFFFFFFFFFFFFFFFFFFFF63
:106D4000FFFFFFFFFFFFFFFFFFFFFFFFFFFFFFFF53
:106D5000FFFFFFFFFFFFFFFFFFFFFFFFFFFFFFFF43
:106D6000FFFFFFFFFFFFFFFFFFFFFFFFFFFFFFFF33
:106D7000FFFFFFFFFFFFFFFFFFFFFFFFFFFFFFFF23
:106D8000FFFFFFFFFFFFFFFFFFFFFFFFFFFFFFFF13
:106D9000FFFFFFFFFFFFFFFFFFFFFFFFFFFFFFFF03
:106DA000FFFFFFFFFFFFFFFFFFFFFFFFFFFFFFFFF3
:106DB000FFFFFFFFFFFFFFFFFFFFFFFFFFFFFFFFE3
:106DC000FFFFFFFFFFFFFFFFFFFFFFFFFFFFFFFFD3
:106DD000FFFFFFFFFFFFFFFFFFFFFFFFFFFFFFFFC3
:106DE000FFFFFFFFFFFFFFFFFFFFFFFFFFFFFFFFB3
:106DF000FFFFFFFFFFFFFFFFFFFFFFFFFFFFFFFFA3
:106E0000FFFFFFFFFFFFFFFFFFFFFFFFFFFFFFFF92
:106E1000FFFFFFFFFFFFFFFFFFFFFFFFFFFFFFFF82
:106E2000FFFFFFFFFFFFFFFFFFFFFFFFFFFFFFFF72
:106E3000FFFFFFFFFFFFFFFFFFFFFFFFFFFFFFFF62
:106E4000FFFFFFFFFFFFFFFFFFFFFFFFFFFFFFFF52
:106E5000FFFFFFFFFFFFFFFFFFFFFFFFFFFFFFFF42
:106E6000FFFFFFFFFFFFFFFFFFFFFFFFFFFFFFFF32
:106E7000FFFFFFFFFFFFFFFFFFFFFFFFFFFFFFFF22
:106E8000FFFFFFFFFFFFFFFFFFFFFFFFFFFFFFFF12
:106E9000FFFFFFFFFFFFFFFFFFFFFFFFFFFFFFFF02
:106EA000FFFFFFFFFFFFFFFFFFFFFFFFFFFFFFFFF2
:106EB000FFFFFFFFFFFFFFFFFFFFFFFFFFFFFFFFE2
:106EC000FFFFFFFFFFFFFFFFFFFFFFFFFFFFFFFFD2
:106ED000FFFFFFFFFFFFFFFFFFFFFFFFFFFFFFFFC2
:106EE000FFFFFFFFFFFFFFFFFFFFFFFFFFFFFFFFB2
:106EF000FFFFFFFFFFFFFFFFFFFFFFFFFFFFFFFFA2
:106F0000FFFFFFFFFFFFFFFFFFFFFFFFFFFFFFFF91
:106F1000FFFFFFFFFFFFFFFFFFFFFFFFFFFFFFFF81
:106F2000FFFFFFFFFFFFFFFFFFFFFFFFFFFFFFFF71
:106F3000FFFFFFFFFFFFFFFFFFFFFFFFFFFFFFFF61
:106F4000FFFFFFFFFFFFFFFFFFFFFFFFFFFFFFFF51
:106F5000FFFFFFFFFFFFFFFFFFFFFFFFFFFFFFFF41
:106F6000FFFFFFFFFFFFFFFFFFFFFFFFFFFFFFFF31
:106F7000FFFFFFFFFFFFFFFFFFFFFFFFFFFFFFFF21
:106F8000FFFFFFFFFFFFFFFFFFFFFFFFFFFFFFFF11
:106F9000FFFFFFFFFFFFFFFFFFFFFFFFFFFFFFFF01
:106FA000FFFFFFFFFFFFFFFFFFFFFFFFFFFFFFFFF1
:106FB000FFFFFFFFFFFFFFFFFFFFFFFFFFFFFFFFE1
:106FC000FFFFFFFFFFFFFFFFFFFFFFFFFFFFFFFFD1
:106FD000FFFFFFFFFFFFFFFFFFFFFFFFFFFFFFFFC1
:106FE000FFFFFFFFFFFFFFFFFFFFFFFFFFFFFFFFB1
:106FF000FFFFFFFFFFFFFFFFFFFFFFFFFFFFFFFFA1
:10700000FFFFFFFFFFFFFFFFFFFFFFFFFFFFFFFF90
:10701000FFFFFFFFFFFFFFFFFFFFFFFFFFFFFFFF80
:10702000FFFFFFFFFFFFFFFFFFFFFFFFFFFFFFFF70
:10703000FFFFFFFFFFFFFFFFFFFFFFFFFFFFFFFF60
:10704000FFFFFFFFFFFFFFFFFFFFFFFFFFFFFFFF50
:10705000FFFFFFFFFFFFFFFFFFFFFFFFFFFFFFFF40
:10706000FFFFFFFFFFFFFFFFFFFFFFFFFFFFFFFF30
:10707000FFFFFFFFFFFFFFFFFFFFFFFFFFFFFFFF20
:10708000FFFFFFFFFFFFFFFFFFFFFFFFFFFFFFFF10
:10709000FFFFFFFFFFFFFFFFFFFFFFFFFFFFFFFF00
:1070A000FFFFFFFFFFFFFFFFFFFFFFFFFFFFFFFFF0
:1070B000FFFFFFFFFFFFFFFFFFFFFFFFFFFFFFFFE0
:1070C000FFFFFFFFFFFFFFFFFFFFFFFFFFFFFFFFD0
:1070D000FFFFFFFFFFFFFFFFFFFFFFFFFFFFFFFFC0
:1070E000FFFFFFFFFFFFFFFFFFFFFFFFFFFFFFFFB0
:1070F000FFFFFFFFFFFFFFFFFFFFFFFFFFFFFFFFA0
:10710000FFFFFFFFFFFFFFFFFFFFFFFFFFFFFFFF8F
:10711000FFFFFFFFFFFFFFFFFFFFFFFFFFFFFFFF7F
:10712000FFFFFFFFFFFFFFFFFFFFFFFFFFFFFFFF6F
:10713000FFFFFFFFFFFFFFFFFFFFFFFFFFFFFFFF5F
:10714000FFFFFFFFFFFFFFFFFFFFFFFFFFFFFFFF4F
:10715000FFFFFFFFFFFFFFFFFFFFFFFFFFFFFFFF3F
:10716000FFFFFFFFFFFFFFFFFFFFFFFFFFFFFFFF2F
:10717000FFFFFFFFFFFFFFFFFFFFFFFFFFFFFFFF1F
:10718000FFFFFFFFFFFFFFFFFFFFFFFFFFFFFFFF0F
:10719000FFFFFFFFFFFFFFFFFFFFFFFFFFFFFFFFFF
:1071A000FFFFFFFFFFFFFFFFFFFFFFFFFFFFFFFFEF
:1071B000FFFFFFFFFFFFFFFFFFFFFFFFFFFFFFFFDF
:1071C000FFFFFFFFFFFFFFFFFFFFFFFFFFFFFFFFCF
:1071D000FFFFFFFFFFFFFFFFFFFFFFFFFFFFFFFFBF
:1071E000FFFFFFFFFFFFFFFFFFFFFFFFFFFFFFFFAF
:1071F000FFFFFFFFFFFFFFFFFFFFFFFFFFFFFFFF9F
:10720000FFFFFFFFFFFFFFFFFFFFFFFFFFFFFFFF8E
:10721000FFFFFFFFFFFFFFFFFFFFFFFFFFFFFFFF7E
:10722000FFFFFFFFFFFFFFFFFFFFFFFFFFFFFFFF6E
:10723000FFFFFFFFFFFFFFFFFFFFFFFFFFFFFFFF5E
:10724000FFFFFFFFFFFFFFFFFFFFFFFFFFFFFFFF4E
:10725000FFFFFFFFFFFFFFFFFFFFFFFFFFFFFFFF3E
:10726000FFFFFFFFFFFFFFFFFFFFFFFFFFFFFFFF2E
:10727000FFFFFFFFFFFFFFFFFFFFFFFFFFFFFFFF1E
:10728000FFFFFFFFFFFFFFFFFFFFFFFFFFFFFFFF0E
:10729000FFFFFFFFFFFFFFFFFFFFFFFFFFFFFFFFFE
:1072A000FFFFFFFFFFFFFFFFFFFFFFFFFFFFFFFFEE
:1072B000FFFFFFFFFFFFFFFFFFFFFFFFFFFFFFFFDE
:1072C000FFFFFFFFFFFFFFFFFFFFFFFFFFFFFFFFCE
:1072D000FFFFFFFFFFFFFFFFFFFFFFFFFFFFFFFFBE
:1072E000FFFFFFFFFFFFFFFFFFFFFFFFFFFFFFFFAE
:1072F000FFFFFFFFFFFFFFFFFFFFFFFFFFFFFFFF9E
:10730000FFFFFFFFFFFFFFFFFFFFFFFFFFFFFFFF8D
:10731000FFFFFFFFFFFFFFFFFFFFFFFFFFFFFFFF7D
:10732000FFFFFFFFFFFFFFFFFFFFFFFFFFFFFFFF6D
:10733000FFFFFFFFFFFFFFFFFFFFFFFFFFFFFFFF5D
:10734000FFFFFFFFFFFFFFFFFFFFFFFFFFFFFFFF4D
:10735000FFFFFFFFFFFFFFFFFFFFFFFFFFFFFFFF3D
:10736000FFFFFFFFFFFFFFFFFFFFFFFFFFFFFFFF2D
:10737000FFFFFFFFFFFFFFFFFFFFFFFFFFFFFFFF1D
:10738000FFFFFFFFFFFFFFFFFFFFFFFFFFFFFFFF0D
:10739000FFFFFFFFFFFFFFFFFFFFFFFFFFFFFFFFFD
:1073A000FFFFFFFFFFFFFFFFFFFFFFFFFFFFFFFFED
:1073B000FFFFFFFFFFFFFFFFFFFFFFFFFFFFFFFFDD
:1073C000FFFFFFFFFFFFFFFFFFFFFFFFFFFFFFFFCD
:1073D000FFFFFFFFFFFFFFFFFFFFFFFFFFFFFFFFBD
:1073E000FFFFFFFFFFFFFFFFFFFFFFFFFFFFFFFFAD
:1073F000FFFFFFFFFFFFFFFFFFFFFFFFFFFFFFFF9D
:10740000FFFFFFFFFFFFFFFFFFFFFFFFFFFFFFFF8C
:10741000FFFFFFFFFFFFFFFFFFFFFFFFFFFFFFFF7C
:10742000FFFFFFFFFFFFFFFFFFFFFFFFFFFFFFFF6C
:10743000FFFFFFFFFFFFFFFFFFFFFFFFFFFFFFFF5C
:10744000FFFFFFFFFFFFFFFFFFFFFFFFFFFFFFFF4C
:10745000FFFFFFFFFFFFFFFFFFFFFFFFFFFFFFFF3C
:10746000FFFFFFFFFFFFFFFFFFFFFFFFFFFFFFFF2C
:10747000FFFFFFFFFFFFFFFFFFFFFFFFFFFFFFFF1C
:10748000FFFFFFFFFFFFFFFFFFFFFFFFFFFFFFFF0C
:10749000FFFFFFFFFFFFFFFFFFFFFFFFFFFFFFFFFC
:1074A000FFFFFFFFFFFFFFFFFFFFFFFFFFFFFFFFEC
:1074B000FFFFFFFFFFFFFFFFFFFFFFFFFFFFFFFFDC
:1074C000FFFFFFFFFFFFFFFFFFFFFFFFFFFFFFFFCC
:1074D000FFFFFFFFFFFFFFFFFFFFFFFFFFFFFFFFBC
:1074E000FFFFFFFFFFFFFFFFFFFFFFFFFFFFFFFFAC
:1074F000FFFFFFFFFFFFFFFFFFFFFFFFFFFFFFFF9C
:10750000FFFFFFFFFFFFFFFFFFFFFFFFFFFFFFFF8B
:10751000FFFFFFFFFFFFFFFFFFFFFFFFFFFFFFFF7B
:10752000FFFFFFFFFFFFFFFFFFFFFFFFFFFFFFFF6B
:10753000FFFFFFFFFFFFFFFFFFFFFFFFFFFFFFFF5B
:10754000FFFFFFFFFFFFFFFFFFFFFFFFFFFFFFFF4B
:10755000FFFFFFFFFFFFFFFFFFFFFFFFFFFFFFFF3B
:10756000FFFFFFFFFFFFFFFFFFFFFFFFFFFFFFFF2B
:10757000FFFFFFFFFFFFFFFFFFFFFFFFFFFFFFFF1B
:10758000FFFFFFFFFFFFFFFFFFFFFFFFFFFFFFFF0B
:10759000FFFFFFFFFFFFFFFFFFFFFFFFFFFFFFFFFB
:1075A000FFFFFFFFFFFFFFFFFFFFFFFFFFFFFFFFEB
:1075B000FFFFFFFFFFFFFFFFFFFFFFFFFFFFFFFFDB
:1075C000FFFFFFFFFFFFFFFFFFFFFFFFFFFFFFFFCB
:1075D000FFFFFFFFFFFFFFFFFFFFFFFFFFFFFFFFBB
:1075E000FFFFFFFFFFFFFFFFFFFFFFFFFFFFFFFFAB
:1075F000FFFFFFFFFFFFFFFFFFFFFFFFFFFFFFFF9B
:10760000FFFFFFFFFFFFFFFFFFFFFFFFFFFFFFFF8A
:10761000FFFFFFFFFFFFFFFFFFFFFFFFFFFFFFFF7A
:10762000FFFFFFFFFFFFFFFFFFFFFFFFFFFFFFFF6A
:10763000FFFFFFFFFFFFFFFFFFFFFFFFFFFFFFFF5A
:10764000FFFFFFFFFFFFFFFFFFFFFFFFFFFFFFFF4A
:10765000FFFFFFFFFFFFFFFFFFFFFFFFFFFFFFFF3A
:10766000FFFFFFFFFFFFFFFFFFFFFFFFFFFFFFFF2A
:10767000FFFFFFFFFFFFFFFFFFFFFFFFFFFFFFFF1A
:10768000FFFFFFFFFFFFFFFFFFFFFFFFFFFFFFFF0A
:10769000FFFFFFFFFFFFFFFFFFFFFFFFFFFFFFFFFA
:1076A000FFFFFFFFFFFFFFFFFFFFFFFFFFFFFFFFEA
:1076B000FFFFFFFFFFFFFFFFFFFFFFFFFFFFFFFFDA
:1076C000FFFFFFFFFFFFFFFFFFFFFFFFFFFFFFFFCA
:1076D000FFFFFFFFFFFFFFFFFFFFFFFFFFFFFFFFBA
:1076E000FFFFFFFFFFFFFFFFFFFFFFFFFFFFFFFFAA
:1076F000FFFFFFFFFFFFFFFFFFFFFFFFFFFFFFFF9A
:10770000FFFFFFFFFFFFFFFFFFFFFFFFFFFFFFFF89
:10771000FFFFFFFFFFFFFFFFFFFFFFFFFFFFFFFF79
:10772000FFFFFFFFFFFFFFFFFFFFFFFFFFFFFFFF69
:10773000FFFFFFFFFFFFFFFFFFFFFFFFFFFFFFFF59
:10774000FFFFFFFFFFFFFFFFFFFFFFFFFFFFFFFF49
:10775000FFFFFFFFFFFFFFFFFFFFFFFFFFFFFFFF39
:10776000FFFFFFFFFFFFFFFFFFFFFFFFFFFFFFFF29
:10777000FFFFFFFFFFFFFFFFFFFFFFFFFFFFFFFF19
:10778000FFFFFFFFFFFFFFFFFFFFFFFFFFFFFFFF09
:10779000FFFFFFFFFFFFFFFFFFFFFFFFFFFFFFFFF9
:1077A000FFFFFFFFFFFFFFFFFFFFFFFFFFFFFFFFE9
:1077B000FFFFFFFFFFFFFFFFFFFFFFFFFFFFFFFFD9
:1077C000FFFFFFFFFFFFFFFFFFFFFFFFFFFFFFFFC9
:1077D000FFFFFFFFFFFFFFFFFFFFFFFFFFFFFFFFB9
:1077E000FFFFFFFFFFFFFFFFFFFFFFFFFFFFFFFFA9
:1077F000FFFFFFFFFFFFFFFFFFFFFFFFFFFFFFFF99
:10780000FFFFFFFFFFFFFFFFFFFFFFFFFFFFFFFF88
:10781000FFFFFFFFFFFFFFFFFFFFFFFFFFFFFFFF78
:10782000FFFFFFFFFFFFFFFFFFFFFFFFFFFFFFFF68
:10783000FFFFFFFFFFFFFFFFFFFFFFFFFFFFFFFF58
:10784000FFFFFFFFFFFFFFFFFFFFFFFFFFFFFFFF48
:10785000FFFFFFFFFFFFFFFFFFFFFFFFFFFFFFFF38
:10786000FFFFFFFFFFFFFFFFFFFFFFFFFFFFFFFF28
:10787000FFFFFFFFFFFFFFFFFFFFFFFFFFFFFFFF18
:10788000FFFFFFFFFFFFFFFFFFFFFFFFFFFFFFFF08
:10789000FFFFFFFFFFFFFFFFFFFFFFFFFFFFFFFFF8
:1078A000FFFFFFFFFFFFFFFFFFFFFFFFFFFFFFFFE8
:1078B000FFFFFFFFFFFFFFFFFFFFFFFFFFFFFFFFD8
:1078C000FFFFFFFFFFFFFFFFFFFFFFFFFFFFFFFFC8
:1078D000FFFFFFFFFFFFFFFFFFFFFFFFFFFFFFFFB8
:1078E000FFFFFFFFFFFFFFFFFFFFFFFFFFFFFFFFA8
:1078F000FFFFFFFFFFFFFFFFFFFFFFFFFFFFFFFF98
:10790000FFFFFFFFFFFFFFFFFFFFFFFFFFFFFFFF87
:10791000FFFFFFFFFFFFFFFFFFFFFFFFFFFFFFFF77
:10792000FFFFFFFFFFFFFFFFFFFFFFFFFFFFFFFF67
:10793000FFFFFFFFFFFFFFFFFFFFFFFFFFFFFFFF57
:10794000FFFFFFFFFFFFFFFFFFFFFFFFFFFFFFFF47
:10795000FFFFFFFFFFFFFFFFFFFFFFFFFFFFFFFF37
:10796000FFFFFFFFFFFFFFFFFFFFFFFFFFFFFFFF27
:10797000FFFFFFFFFFFFFFFFFFFFFFFFFFFFFFFF17
:10798000FFFFFFFFFFFFFFFFFFFFFFFFFFFFFFFF07
:10799000FFFFFFFFFFFFFFFFFFFFFFFFFFFFFFFFF7
:1079A000FFFFFFFFFFFFFFFFFFFFFFFFFFFFFFFFE7
:1079B000FFFFFFFFFFFFFFFFFFFFFFFFFFFFFFFFD7
:1079C000FFFFFFFFFFFFFFFFFFFFFFFFFFFFFFFFC7
:1079D000FFFFFFFFFFFFFFFFFFFFFFFFFFFFFFFFB7
:1079E000FFFFFFFFFFFFFFFFFFFFFFFFFFFFFFFFA7
:1079F000FFFFFFFFFFFFFFFFFFFFFFFFFFFFFFFF97
:107A0000FFFFFFFFFFFFFFFFFFFFFFFFFFFFFFFF86
:107A1000FFFFFFFFFFFFFFFFFFFFFFFFFFFFFFFF76
:107A2000FFFFFFFFFFFFFFFFFFFFFFFFFFFFFFFF66
:107A3000FFFFFFFFFFFFFFFFFFFFFFFFFFFFFFFF56
:107A4000FFFFFFFFFFFFFFFFFFFFFFFFFFFFFFFF46
:107A5000FFFFFFFFFFFFFFFFFFFFFFFFFFFFFFFF36
:107A6000FFFFFFFFFFFFFFFFFFFFFFFFFFFFFFFF26
:107A7000FFFFFFFFFFFFFFFFFFFFFFFFFFFFFFFF16
:107A8000FFFFFFFFFFFFFFFFFFFFFFFFFFFFFFFF06
:107A9000FFFFFFFFFFFFFFFFFFFFFFFFFFFFFFFFF6
:107AA000FFFFFFFFFFFFFFFFFFFFFFFFFFFFFFFFE6
:107AB000FFFFFFFFFFFFFFFFFFFFFFFFFFFFFFFFD6
:107AC000FFFFFFFFFFFFFFFFFFFFFFFFFFFFFFFFC6
:107AD000FFFFFFFFFFFFFFFFFFFFFFFFFFFFFFFFB6
:107AE000FFFFFFFFFFFFFFFFFFFFFFFFFFFFFFFFA6
:107AF000FFFFFFFFFFFFFFFFFFFFFFFFFFFFFFFF96
:107B0000FFFFFFFFFFFFFFFFFFFFFFFFFFFFFFFF85
:107B1000FFFFFFFFFFFFFFFFFFFFFFFFFFFFFFFF75
:107B2000FFFFFFFFFFFFFFFFFFFFFFFFFFFFFFFF65
:107B3000FFFFFFFFFFFFFFFFFFFFFFFFFFFFFFFF55
:107B4000FFFFFFFFFFFFFFFFFFFFFFFFFFFFFFFF45
:107B5000FFFFFFFFFFFFFFFFFFFFFFFFFFFFFFFF35
:107B6000FFFFFFFFFFFFFFFFFFFFFFFFFFFFFFFF25
:107B7000FFFFFFFFFFFFFFFFFFFFFFFFFFFFFFFF15
:107B8000FFFFFFFFFFFFFFFFFFFFFFFFFFFFFFFF05
:107B9000FFFFFFFFFFFFFFFFFFFFFFFFFFFFFFFFF5
:107BA000FFFFFFFFFFFFFFFFFFFFFFFFFFFFFFFFE5
:107BB000FFFFFFFFFFFFFFFFFFFFFFFFFFFFFFFFD5
:107BC000FFFFFFFFFFFFFFFFFFFFFFFFFFFFFFFFC5
:107BD000FFFFFFFFFFFFFFFFFFFFFFFFFFFFFFFFB5
:107BE000FFFFFFFFFFFFFFFFFFFFFFFFFFFFFFFFA5
:107BF000FFFFFFFFFFFFFFFFFFFFFFFFFFFFFFFF95
:107C0000FFFFFFFFFFFFFFFFFFFFFFFFFFFFFFFF84
:107C1000FFFFFFFFFFFFFFFFFFFFFFFFFFFFFFFF74
:107C2000FFFFFFFFFFFFFFFFFFFFFFFFFFFFFFFF64
:107C3000FFFFFFFFFFFFFFFFFFFFFFFFFFFFFFFF54
:107C4000FFFFFFFFFFFFFFFFFFFFFFFFFFFFFFFF44
:107C5000FFFFFFFFFFFFFFFFFFFFFFFFFFFFFFFF34
:107C6000FFFFFFFFFFFFFFFFFFFFFFFFFFFFFFFF24
:107C7000FFFFFFFFFFFFFFFFFFFFFFFFFFFFFFFF14
:107C8000FFFFFFFFFFFFFFFFFFFFFFFFFFFFFFFF04
:107C9000FFFFFFFFFFFFFFFFFFFFFFFFFFFFFFFFF4
:107CA000FFFFFFFFFFFFFFFFFFFFFFFFFFFFFFFFE4
:107CB000FFFFFFFFFFFFFFFFFFFFFFFFFFFFFFFFD4
:107CC000FFFFFFFFFFFFFFFFFFFFFFFFFFFFFFFFC4
:107CD000FFFFFFFFFFFFFFFFFFFFFFFFFFFFFFFFB4
:107CE000FFFFFFFFFFFFFFFFFFFFFFFFFFFFFFFFA4
:107CF000FFFFFFFFFFFFFFFFFFFFFFFFFFFFFFFF94
:107D0000FFFFFFFFFFFFFFFFFFFFFFFFFFFFFFFF83
:107D1000FFFFFFFFFFFFFFFFFFFFFFFFFFFFFFFF73
:107D2000FFFFFFFFFFFFFFFFFFFFFFFFFFFFFFFF63
:107D3000FFFFFFFFFFFFFFFFFFFFFFFFFFFFFFFF53
:107D4000FFFFFFFFFFFFFFFFFFFFFFFFFFFFFFFF43
:107D5000FFFFFFFFFFFFFFFFFFFFFFFFFFFFFFFF33
:107D6000FFFFFFFFFFFFFFFFFFFFFFFFFFFFFFFF23
:107D7000FFFFFFFFFFFFFFFFFFFFFFFFFFFFFFFF13
:107D8000FFFFFFFFFFFFFFFFFFFFFFFFFFFFFFFF03
:107D9000FFFFFFFFFFFFFFFFFFFFFFFFFFFFFFFFF3
:107DA000FFFFFFFFFFFFFFFFFFFFFFFFFFFFFFFFE3
:107DB000FFFFFFFFFFFFFFFFFFFFFFFFFFFFFFFFD3
:107DC000FFFFFFFFFFFFFFFFFFFFFFFFFFFFFFFFC3
:107DD000FFFFFFFFFFFFFFFFFFFFFFFFFFFFFFFFB3
:107DE000FFFFFFFFFFFFFFFFFFFFFFFFFFFFFFFFA3
:107DF000FFFFFFFFFFFFFFFFFFFFFFFFFFFFFFFF93
:107E0000FFFFFFFFFFFFFFFFFFFFFFFFFFFFFFFF82
:107E1000FFFFFFFFFFFFFFFFFFFFFFFFFFFFFFFF72
:107E2000FFFFFFFFFFFFFFFFFFFFFFFFFFFFFFFF62
:107E3000FFFFFFFFFFFFFFFFFFFFFFFFFFFFFFFF52
:107E4000FFFFFFFFFFFFFFFFFFFFFFFFFFFFFFFF42
:107E5000FFFFFFFFFFFFFFFFFFFFFFFFFFFFFFFF32
:107E6000FFFFFFFFFFFFFFFFFFFFFFFFFFFFFFFF22
:107E7000FFFFFFFFFFFFFFFFFFFFFFFFFFFFFFFF12
:107E8000FFFFFFFFFFFFFFFFFFFFFFFFFFFFFFFF02
:107E9000FFFFFFFFFFFFFFFFFFFFFFFFFFFFFFFFF2
:107EA000FFFFFFFFFFFFFFFFFFFFFFFFFFFFFFFFE2
:107EB000FFFFFFFFFFFFFFFFFFFFFFFFFFFFFFFFD2
:107EC000FFFFFFFFFFFFFFFFFFFFFFFFFFFFFFFFC2
:107ED000FFFFFFFFFFFFFFFFFFFFFFFFFFFFFFFFB2
:107EE000FFFFFFFFFFFFFFFFFFFFFFFFFFFFFFFFA2
:107EF000FFFFFFFFFFFFFFFFFFFFFFFFFFFFFFFF92
:107F0000FFFFFFFFFFFFFFFFFFFFFFFFFFFFFFFF81
:107F1000FFFFFFFFFFFFFFFFFFFFFFFFFFFFFFFF71
:107F2000FFFFFFFFFFFFFFFFFFFFFFFFFFFFFFFF61
:107F3000FFFFFFFFFFFFFFFFFFFFFFFFFFFFFFFF51
:107F4000FFFFFFFFFFFFFFFFFFFFFFFFFFFFFFFF41
:107F5000FFFFFFFFFFFFFFFFFFFFFFFFFFFFFFFF31
:107F6000FFFFFFFFFFFFFFFFFFFFFFFFFFFFFFFF21
:107F7000FFFFFFFFFFFFFFFFFFFFFFFFFFFFFFFF11
:107F8000FFFFFFFFFFFFFFFFFFFFFFFFFFFFFFFF01
:107F9000FFFFFFFFFFFFFFFFFFFFFFFFFFFFFFFFF1
:107FA000FFFFFFFFFFFFFFFFFFFFFFFFFFFFFFFFE1
:107FB000FFFFFFFFFFFFFFFFFFFFFFFFFFFFFFFFD1
:107FC000FFFFFFFFFFFFFFFFFFFFFFFFFFFFFFFFC1
:107FD000FFFFFFFFFFFFFFFFFFFFFFFFFFFFFFFFB1
:107FE000FFFFFFFFFFFFFFFFFFFFFFFFFFFFFFFFA1
:107FF000FFFFFFFFFFFFFFFFFFFFFFFFFFFFFFFF91
:020000040020DA
:08000000FFFFFFFFFFFFFFFF00
:020000040030CA
:0E0000000002181EF3838000FFC0FFE0FF40E7
:0200000400F00A
:10000000FFFFFFFFFFFFFFFFFFFFFFFFFFFFFFFF00
:10001000FFFFFFFFFFFFFFFFFFFFFFFFFFFFFFFFF0
:10002000FFFFFFFFFFFFFFFFFFFFFFFFFFFFFFFFE0
:10003000FFFFFFFFFFFFFFFFFFFFFFFFFFFFFFFFD0
:10004000FFFFFFFFFFFFFFFFFFFFFFFFFFFFFFFFC0
:10005000FFFFFFFFFFFFFFFFFFFFFFFFFFFFFFFFB0
:10006000FFFFFFFFFFFFFFFFFFFFFFFFFFFFFFFFA0
:10007000FFFFFFFFFFFFFFFFFFFFFFFFFFFFFFFF90
:10008000FFFFFFFFFFFFFFFFFFFFFFFFFFFFFFFF80
:10009000FFFFFFFFFFFFFFFFFFFFFFFFFFFFFFFF70
:1000A000FFFFFFFFFFFFFFFFFFFFFFFFFFFFFFFF60
:1000B000FFFFFFFFFFFFFFFFFFFFFFFFFFFFFFFF50
:1000C000FFFFFFFFFFFFFFFFFFFFFFFFFFFFFFFF40
:1000D000FFFFFFFFFFFFFFFFFFFFFFFFFFFFFFFF30
:1000E000FFFFFFFFFFFFFFFFFFFFFFFFFFFFFFFF20
:1000F000FFFFFFFFFFFFFFFFFFFFFFFFFFFFFFFF10
:10010000FFFFFFFFFFFFFFFFFFFFFFFFFFFFFFFFFF
:10011000FFFFFFFFFFFFFFFFFFFFFFFFFFFFFFFFEF
:10012000FFFFFFFFFFFFFFFFFFFFFFFFFFFFFFFFDF
:10013000FFFFFFFFFFFFFFFFFFFFFFFFFFFFFFFFCF
:10014000FFFFFFFFFFFFFFFFFFFFFFFFFFFFFFFFBF
:10015000FFFFFFFFFFFFFFFFFFFFFFFFFFFFFFFFAF
:10016000FFFFFFFFFFFFFFFFFFFFFFFFFFFFFFFF9F
:10017000FFFFFFFFFFFFFFFFFFFFFFFFFFFFFFFF8F
:10018000FFFFFFFFFFFFFFFFFFFFFFFFFFFFFFFF7F
:10019000FFFFFFFFFFFFFFFFFFFFFFFFFFFFFFFF6F
:1001A000FFFFFFFFFFFFFFFFFFFFFFFFFFFFFFFF5F
:1001B000FFFFFFFFFFFFFFFFFFFFFFFFFFFFFFFF4F
:1001C000FFFFFFFFFFFFFFFFFFFFFFFFFFFFFFFF3F
:1001D000FFFFFFFFFFFFFFFFFFFFFFFFFFFFFFFF2F
:1001E000FFFFFFFFFFFFFFFFFFFFFFFFFFFFFFFF1F
:1001F000FFFFFFFFFFFFFFFFFFFFFFFFFFFFFFFF0F
:10020000FFFFFFFFFFFFFFFFFFFFFFFFFFFFFFFFFE
:10021000FFFFFFFFFFFFFFFFFFFFFFFFFFFFFFFFEE
:10022000FFFFFFFFFFFFFFFFFFFFFFFFFFFFFFFFDE
:10023000FFFFFFFFFFFFFFFFFFFFFFFFFFFFFFFFCE
:10024000FFFFFFFFFFFFFFFFFFFFFFFFFFFFFFFFBE
:10025000FFFFFFFFFFFFFFFFFFFFFFFFFFFFFFFFAE
:10026000FFFFFFFFFFFFFFFFFFFFFFFFFFFFFFFF9E
:10027000FFFFFFFFFFFFFFFFFFFFFFFFFFFFFFFF8E
:10028000FFFFFFFFFFFFFFFFFFFFFFFFFFFFFFFF7E
:10029000FFFFFFFFFFFFFFFFFFFFFFFFFFFFFFFF6E
:1002A000FFFFFFFFFFFFFFFFFFFFFFFFFFFFFFFF5E
:1002B000FFFFFFFFFFFFFFFFFFFFFFFFFFFFFFFF4E
:1002C000FFFFFFFFFFFFFFFFFFFFFFFFFFFFFFFF3E
:1002D000FFFFFFFFFFFFFFFFFFFFFFFFFFFFFFFF2E
:1002E000FFFFFFFFFFFFFFFFFFFFFFFFFFFFFFFF1E
:1002F000FFFFFFFFFFFFFFFFFFFFFFFFFFFFFFFF0E
:10030000FFFFFFFFFFFFFFFFFFFFFFFFFFFFFFFFFD
:10031000FFFFFFFFFFFFFFFFFFFFFFFFFFFFFFFFED
:10032000FFFFFFFFFFFFFFFFFFFFFFFFFFFFFFFFDD
:10033000FFFFFFFFFFFFFFFFFFFFFFFFFFFFFFFFCD
:10034000FFFFFFFFFFFFFFFFFFFFFFFFFFFFFFFFBD
:10035000FFFFFFFFFFFFFFFFFFFFFFFFFFFFFFFFAD
:10036000FFFFFFFFFFFFFFFFFFFFFFFFFFFFFFFF9D
:10037000FFFFFFFFFFFFFFFFFFFFFFFFFFFFFFFF8D
:10038000FFFFFFFFFFFFFFFFFFFFFFFFFFFFFFFF7D
:10039000FFFFFFFFFFFFFFFFFFFFFFFFFFFFFFFF6D
:1003A000FFFFFFFFFFFFFFFFFFFFFFFFFFFFFFFF5D
:1003B000FFFFFFFFFFFFFFFFFFFFFFFFFFFFFFFF4D
:1003C000FFFFFFFFFFFFFFFFFFFFFFFFFFFFFFFF3D
:1003D000FFFFFFFFFFFFFFFFFFFFFFFFFFFFFFFF2D
:1003E000FFFFFFFFFFFFFFFFFFFFFFFFFFFFFFFF1D
:1003F000FFFFFFFFFFFFFFFFFFFFFFFFFFFFFFFF0D
:00000001FF
